<svg width="55" height="55" viewBox="0 0 55 55" fill="none" xmlns="http://www.w3.org/2000/svg">
<path d="M27.4999 10.2143C30.3701 10.2143 32.6969 7.92774 32.6969 5.10714C32.6969 2.28655 30.3701 0 27.4999 0C24.6297 0 22.303 2.28655 22.303 5.10714C22.303 7.92774 24.6297 10.2143 27.4999 10.2143Z" fill="#A4A4A4"/>
<path d="M48.456 20.4735L34.1785 8.50816C33.8305 9.20408 33.3478 9.82143 32.7866 10.3827L44.8305 20.4622H48.456V20.4735V20.4735Z" fill="#A4A4A4"/>
<path d="M22.2133 10.3939C21.6409 9.82143 21.1695 9.21531 20.8215 8.51939L6.54395 20.4735H10.2144L22.2133 10.3939Z" fill="#A4A4A4"/>
<path d="M25.3224 35.4918C25.9113 35.4918 26.3888 34.3109 26.3888 32.8541C26.3888 31.3973 25.9113 30.2163 25.3224 30.2163C24.7335 30.2163 24.2561 31.3973 24.2561 32.8541C24.2561 34.3109 24.7335 35.4918 25.3224 35.4918Z" fill="#A4A4A4"/>
<path d="M22.55 42.3051H21.4949V44.2806H22.55C23.1561 44.2806 23.65 43.8429 23.65 43.2929C23.65 42.7429 23.1561 42.3051 22.55 42.3051Z" fill="#A4A4A4"/>
<path d="M0 22.7857V55H55V22.7857H0ZM14.6816 48.2316C14.6816 48.5908 14.3561 48.8939 13.952 48.8939C13.548 48.8939 13.2224 48.602 13.2224 48.2316V45.5939H11.2469V48.2316C11.2469 48.5908 10.9214 48.8939 10.5173 48.8939C10.1133 48.8939 9.78775 48.602 9.78775 48.2316V41.6429C9.78775 41.2837 10.1133 40.9806 10.5173 40.9806C10.9214 40.9806 11.2469 41.2725 11.2469 41.6429V44.2806H13.2224V41.6429C13.2224 41.2837 13.548 40.9806 13.952 40.9806C14.3561 40.9806 14.6816 41.2725 14.6816 41.6429V48.2316ZM18.049 48.2316C18.049 48.5908 17.7235 48.8939 17.3194 48.8939C16.9153 48.8939 16.5898 48.602 16.5898 48.2316V41.6429C16.5898 41.2837 16.9153 40.9806 17.3194 40.9806C17.7235 40.9806 18.049 41.2725 18.049 41.6429V48.2316ZM19.6878 36.4796L16.6684 31.9337V36.1429C16.6684 36.502 16.3429 36.8051 15.9388 36.8051C15.5347 36.8051 15.2092 36.5133 15.2092 36.1429V29.5653C15.2092 29.2735 15.4337 29.0041 15.748 28.9255C16.0622 28.8469 16.399 28.9704 16.5673 29.2173L19.5867 33.7633V29.5653C19.5867 29.2061 19.9122 28.9031 20.3163 28.9031C20.7204 28.9031 21.0459 29.1949 21.0459 29.5653V36.1429C21.0459 36.4347 20.8214 36.6816 20.5071 36.7827C20.3388 36.8276 19.9347 36.8388 19.6878 36.4796ZM25.0306 47.85C25.2102 48.1755 25.0531 48.5796 24.7051 48.7367C24.4806 48.8378 24.0429 48.9163 23.7173 48.4449L22.1122 45.5939H21.4837V48.2316C21.4837 48.5908 21.1582 48.8939 20.7541 48.8939C20.35 48.8939 20.0245 48.602 20.0245 48.2316V41.6429C20.0245 41.2837 20.35 40.9806 20.7541 40.9806H22.5388C23.9531 40.9806 25.098 42.0133 25.098 43.2816C25.098 44.202 24.4918 44.999 23.6276 45.3694L25.0306 47.85ZM25.3224 36.8051C23.9306 36.8051 22.7969 35.0316 22.7969 32.8541C22.7969 30.6765 23.9306 28.9031 25.3224 28.9031C26.7143 28.9031 27.848 30.6765 27.848 32.8541C27.848 35.0316 26.7143 36.8051 25.3224 36.8051ZM28.4653 48.2316C28.4653 48.5908 28.1398 48.8939 27.7357 48.8939C27.3316 48.8939 27.0061 48.602 27.0061 48.2316V41.6429C27.0061 41.2837 27.3316 40.9806 27.7357 40.9806C28.1398 40.9806 28.4653 41.2725 28.4653 41.6429V48.2316ZM36.3449 48.2316C36.3449 48.5235 36.1204 48.7929 35.8061 48.8714C35.7388 48.8827 35.2898 48.9837 34.9867 48.5796L31.9673 44.0337V48.2316C31.9673 48.5908 31.6418 48.8939 31.2378 48.8939C30.8337 48.8939 30.5082 48.602 30.5082 48.2316V41.6429C30.5082 41.351 30.7327 41.0816 31.0469 41.0031C31.3612 40.9245 31.698 41.048 31.8663 41.2949L34.8857 45.8408V41.6429C34.8857 41.2837 35.2112 40.9806 35.6153 40.9806C36.0194 40.9806 36.3449 41.2725 36.3449 41.6429V48.2316ZM37.9837 29.7224L36.0306 36.3C35.9408 36.5918 35.6602 36.7939 35.3235 36.7939C34.9867 36.7939 34.7061 36.5918 34.6163 36.3L33.3592 32.102L32.1133 36.3C32.0235 36.5918 31.7429 36.7939 31.4061 36.7939C31.0694 36.7939 30.7888 36.5918 30.699 36.3L28.7459 29.7224C28.6449 29.3745 28.8694 29.0153 29.2622 28.9143C29.6551 28.8245 30.048 29.0265 30.1602 29.3857L31.4061 33.5837L32.5173 29.5204C32.6184 29.15 32.9551 28.8918 33.3367 28.8918C33.7184 28.8918 34.0551 29.15 34.1561 29.5092L35.3122 33.5837L36.5582 29.3857C36.6592 29.0378 37.0633 28.8245 37.4561 28.9143C37.849 29.0153 38.0847 29.3745 37.9837 29.7224ZM41.6765 48.8939C39.9929 48.8939 38.1296 47.3561 38.1296 44.9429C38.1296 43.6184 39.0949 40.9918 41.6765 40.9918C42.7204 40.9918 43.6969 41.4857 44.3704 42.3612C44.6061 42.6643 44.5163 43.0684 44.1908 43.2816C43.8653 43.4949 43.4051 43.4163 43.1694 43.1133C42.7653 42.5969 42.2378 42.3051 41.6765 42.3051C40.2398 42.3051 39.5888 43.9551 39.5888 44.9429C39.5888 46.2225 40.3969 47.5806 41.6765 47.5806C43.0347 47.5806 43.6969 46.0878 43.6969 45.6051H41.6765C41.2724 45.6051 40.9469 45.3133 40.9469 44.9429C40.9469 44.5837 41.2724 44.2806 41.6765 44.2806H44.4939C44.898 44.2806 45.2235 44.5725 45.2235 44.9429C45.2235 46.4694 44.1796 48.8939 41.6765 48.8939Z" fill="#A4A4A4"/>
</svg>
