<svg width="60" height="60" viewBox="0 0 60 60" fill="none" xmlns="http://www.w3.org/2000/svg">
<path d="M8.26636 27.5C9.50691 16.5961 18.7642 8.125 30.0001 8.125C42.0813 8.125 51.8751 17.9188 51.8751 30C51.8751 42.0812 42.0813 51.875 30.0001 51.875C18.7642 51.875 9.50691 43.404 8.26636 32.5H26.4646L23.2323 35.7323C22.256 36.7085 22.256 38.2915 23.2323 39.2677C24.2086 40.244 25.7916 40.244 26.7678 39.2677L34.2678 31.7677C35.2441 30.7915 35.2441 29.2085 34.2678 28.2323L26.7678 20.7322C25.7916 19.7559 24.2086 19.7559 23.2323 20.7322C22.256 21.7085 22.256 23.2915 23.2323 24.2678L26.4646 27.5H8.26636Z" fill="#A4A4A4"/>
</svg>
