<svg width="55" height="55" viewBox="0 0 55 55" fill="none" xmlns="http://www.w3.org/2000/svg">
<path d="M29.3965 53.1035H52.1551V30.3448H29.3965V53.1035ZM31.293 32.2414H50.2586V51.2069H41.7241V39.2719L45.795 43.3429L47.1359 42.002L40.7758 35.6419L34.4157 42.002L35.7566 43.3429L39.8275 39.2719V51.2069H31.293V32.2414Z" fill="#A4A4A4"/>
<path d="M20.4533 12.8673C20.4533 9.9551 18.0845 7.5863 15.1723 7.5863C12.2602 7.5863 9.89136 9.9551 9.89136 12.8673C9.89136 15.7785 12.2602 18.1473 15.1723 18.1473C18.0845 18.1473 20.4533 15.7794 20.4533 12.8673ZM11.7879 12.8673C11.7879 11.002 13.3061 9.48286 15.1723 9.48286C17.0385 9.48286 18.5567 11.002 18.5567 12.8673C18.5567 14.7325 17.0385 16.2516 15.1723 16.2516C13.3061 16.2516 11.7879 14.7335 11.7879 12.8673Z" fill="#A4A4A4"/>
<path d="M5.92679 34.7648C6.1136 34.9782 6.37533 35.0863 6.638 35.0863C6.8599 35.0863 7.08369 35.0086 7.26386 34.8502L22.7331 21.2311L29.6735 28.1705C30.0443 28.5413 30.6436 28.5413 31.0144 28.1705C31.3852 27.7998 31.3852 27.2005 31.0144 26.8297L29.2838 25.1L37.9899 15.5661L48.6684 25.3551C49.0553 25.7088 49.6546 25.6823 50.0083 25.2963C50.3621 24.9104 50.3364 24.3101 49.9496 23.9564L38.5702 13.5254C38.3844 13.3556 38.1416 13.2608 37.8875 13.2769C37.6362 13.2883 37.3991 13.3992 37.2294 13.5851L27.942 23.7573L23.4443 19.2596C23.0896 18.9068 22.5226 18.8888 22.1471 19.2179L6.01119 33.4259C5.6186 33.772 5.57972 34.3713 5.92679 34.7648Z" fill="#A4A4A4"/>
<path d="M54.0517 1.89661H0.948276C0.424828 1.89661 0 2.32049 0 2.84488V44.569C0 45.0934 0.424828 45.5173 0.948276 45.5173H23.7069C24.2303 45.5173 24.6552 45.0934 24.6552 44.569C24.6552 44.0446 24.2303 43.6207 23.7069 43.6207H1.89655V3.79316H53.1034V25.6035C53.1034 26.1279 53.5283 26.5518 54.0517 26.5518C54.5752 26.5518 55 26.1279 55 25.6035V2.84488C55 2.32049 54.5752 1.89661 54.0517 1.89661Z" fill="#A4A4A4"/>
</svg>
