<svg width="55" height="55" viewBox="0 0 55 55" fill="none" xmlns="http://www.w3.org/2000/svg">
<path d="M34.0061 24.1885L36.5786 25.659L41.7254 22.718L34.0061 18.1235V24.1885Z" fill="#A4A4A4"/>
<path d="M49.6292 14.8132L51.4674 11.5054C52.937 8.93124 48.711 5.99025 46.6882 4.88902C44.6655 3.78533 40.0718 1.39577 38.6013 4.15377L36.0272 8.56526C33.453 8.01382 30.512 7.6462 27.5718 7.6462C12.3154 7.64538 0 15.9177 0 26.0274C0 36.1354 12.3154 44.407 27.5718 44.407C27.5718 44.407 27.5718 44.407 27.7564 44.407C27.9402 46.6127 25.3669 50.2889 21.6898 52.1262C36.2126 52.1262 42.829 41.2813 42.829 41.2813C50.1807 37.9727 54.9598 32.4584 54.9598 26.0249C55.3274 21.7989 53.1217 17.9389 49.6292 14.8132ZM12.6822 31.1741C11.2117 31.1741 10.1088 30.0696 10.1088 28.5991C10.1088 27.1286 11.2117 26.0258 12.6822 26.0258C14.1527 26.0258 15.2556 27.1286 15.2556 28.5991C15.2556 30.0696 13.9705 31.1741 12.6822 31.1741ZM19.4833 31.1741C18.0128 31.1741 16.9099 30.0696 16.9099 28.5991C16.9099 27.1286 18.0128 26.0258 19.4833 26.0258C20.9537 26.0258 22.0566 27.1286 22.0566 28.5991C22.0566 30.0696 20.9537 31.1741 19.4833 31.1741ZM26.2851 31.1741C24.8146 31.1741 23.7109 30.0696 23.7109 28.5991C23.7109 27.1286 24.8146 26.0258 26.2851 26.0258C27.7556 26.0258 28.8585 27.1286 28.8585 28.5991C28.8585 30.0696 27.7556 31.1741 26.2851 31.1741ZM42.6452 23.2694L37.3147 26.2104L32.9023 28.5991V23.637V17.5712L40.2556 4.8882C40.6225 4.15295 43.1966 4.8882 45.953 6.3587C48.7094 7.82919 50.5483 9.66649 49.9969 10.4026L42.6452 23.2694Z" fill="#A4A4A4"/>
</svg>
