<svg width="30" height="30" viewBox="0 0 30 30" fill="none" xmlns="http://www.w3.org/2000/svg">
<g clip-path="url(#clip0_715_61)">
<path d="M15 0C6.729 0 0 6.729 0 15C0 23.271 6.729 30 15 30C23.271 30 30 23.271 30 15C30 6.729 23.271 0 15 0ZM15 28.3333C7.648 28.3333 1.66667 22.3521 1.66667 15C1.66667 7.64792 7.648 1.66667 15 1.66667C22.352 1.66667 28.3333 7.64792 28.3333 15C28.3333 22.3521 22.352 28.3333 15 28.3333Z" fill="#A4A4A4" stroke="#A4A4A4" stroke-width="0.5"/>
<path d="M21.4073 6.93506L13.5269 14.8154L8.59277 9.88131L4.46802 14.0061L13.5269 23.0651L25.532 11.0599L21.4073 6.93506ZM6.82502 14.0061L8.59277 12.2384L13.5269 17.1724L21.4073 9.29214L23.175 11.0599L13.5269 20.708L6.82502 14.0061Z" fill="#A4A4A4" stroke="#A4A4A4" stroke-width="0.5"/>
</g>
<defs>
<clipPath id="clip0_715_61">
<rect width="30" height="30" fill="white"/>
</clipPath>
</defs>
</svg>
