<svg width="50" height="50" viewBox="0 0 50 50" fill="none" xmlns="http://www.w3.org/2000/svg">
<path d="M42.9348 33.9955V24.4565C42.9339 16.0548 37.1505 9.02422 29.3526 7.07617C29.6857 6.41562 29.8912 5.68027 29.8912 4.89131C29.8912 2.19414 27.6971 0 24.9999 0C22.3027 0 20.1086 2.19414 20.1086 4.89131C20.1086 5.68037 20.3141 6.41553 20.6472 7.07617C12.8493 9.02422 7.06592 16.0548 7.06504 24.4565V33.9955C5.16953 34.6694 3.80488 36.4597 3.8042 38.587C3.80518 41.289 5.99355 43.4771 8.69551 43.4781H17.0117C17.7673 47.1993 21.0552 49.9991 24.9999 50C28.9444 49.9991 32.2324 47.1993 32.9881 43.4781H41.3043C44.0063 43.4771 46.1946 41.289 46.1956 38.587C46.1948 36.4597 44.8303 34.6694 42.9348 33.9955ZM24.9999 3.26084C25.8979 3.26084 26.6304 3.99326 26.6304 4.89131C26.6304 5.78936 25.8979 6.52178 24.9999 6.52178C24.1019 6.52178 23.3694 5.78936 23.3694 4.89131C23.3694 3.99326 24.102 3.26084 24.9999 3.26084ZM16.8478 24.4565C16.8478 25.3569 16.1178 26.087 15.2173 26.087C14.3168 26.087 13.5868 25.357 13.5868 24.4565C13.5898 18.1585 18.7019 13.0463 24.9999 13.0435C25.9003 13.0435 26.6304 13.7732 26.6304 14.6739C26.6304 15.5743 25.9004 16.3044 24.9999 16.3044V16.3042C20.509 16.3123 16.8559 19.9655 16.8478 24.4565ZM24.9999 46.7393C22.8739 46.7354 21.0854 45.3721 20.4103 43.4781H29.5896C28.9144 45.3721 27.1259 46.7354 24.9999 46.7393Z" fill="#A4A4A4"/>
</svg>
