<svg width="19" height="24" viewBox="0 0 19 24" fill="none" xmlns="http://www.w3.org/2000/svg">
<path d="M5.14729 1.18216C3.10838 2.35923 1.64977 4.26012 1.04047 6.53421C0.431047 8.80831 0.743922 11.1837 1.92099 13.2226C3.49099 15.9418 6.41838 17.631 9.56111 17.631C9.99815 17.631 10.4337 17.5978 10.864 17.5328C11.8152 17.3889 12.8199 17.7359 13.3009 18.5691L15.6203 22.5864C16.071 23.3671 17.0693 23.6346 17.85 23.1839V23.1839C18.6307 22.7331 18.8981 21.7349 18.4474 20.9542L16.1301 16.9406C15.6485 16.1063 15.8518 15.0612 16.4524 14.3081C17.1978 13.3733 17.7496 12.2864 18.0684 11.0968C18.6777 8.82267 18.3649 6.44738 17.1878 4.40833C15.6179 1.68921 12.6904 0 9.54779 0C8.00849 0 6.48681 0.408723 5.14729 1.18216ZM14.3607 6.04061C15.1019 7.32437 15.2988 8.82006 14.9151 10.2519C14.5315 11.6837 13.6131 12.8805 12.3293 13.6217C11.4855 14.1089 10.5282 14.3664 9.56111 14.3664C7.58109 14.3664 5.73687 13.3027 4.74823 11.5904C4.00705 10.3066 3.81013 8.81105 4.19391 7.37908C4.57756 5.94724 5.49595 4.75046 6.77971 4.00914C7.6234 3.52207 8.5807 3.26456 9.54779 3.26456C11.5279 3.26456 13.372 4.32828 14.3607 6.04061Z" fill="#A4A4A4"/>
</svg>
