<svg width="55" height="55" viewBox="0 0 55 55" fill="none" xmlns="http://www.w3.org/2000/svg">
<g clip-path="url(#clip0_425_42)">
<path d="M25 25.625V45.625H30.25L28.75 53.125L39.2499 45.625H55V25.625H25ZM51.25 41.875H39.2501H38.0483L37.0705 42.5735L34.2869 44.5617L34.8244 41.875H30.25H28.75V29.3751H51.25V41.875Z" fill="#A4A4A4"/>
<path d="M30 1.875H0V21.875H7.00004L17.5 29.375L16 21.875H29.9999V1.875H30ZM26.25 18.1249H16.0001H11.4258L11.9633 20.8115L9.17974 18.8235L8.20177 18.125H7.00004H3.74999V5.62499H26.25V18.1249Z" fill="#A4A4A4"/>
<path d="M23.125 10H19.375V13.75H23.125V10Z" fill="#A4A4A4"/>
<path d="M16.875 10H13.125V13.75H16.875V10Z" fill="#A4A4A4"/>
<path d="M10.625 10H6.875V13.75H10.625V10Z" fill="#A4A4A4"/>
<path d="M48.125 33.75H44.375V37.5H48.125V33.75Z" fill="#A4A4A4"/>
<path d="M41.875 33.75H38.125V37.5H41.875V33.75Z" fill="#A4A4A4"/>
<path d="M35.625 33.75H31.875V37.5H35.625V33.75Z" fill="#A4A4A4"/>
</g>
<defs>
<clipPath id="clip0_425_42">
<rect width="55" height="55" fill="white"/>
</clipPath>
</defs>
</svg>
