<svg width="60" height="60" viewBox="0 0 60 60" fill="none" xmlns="http://www.w3.org/2000/svg">
<path d="M8.125 30C8.125 17.9188 17.9188 8.125 30 8.125C41.2357 8.125 50.4933 16.5961 51.7337 27.5H33.5355L36.7677 24.2678C37.744 23.2915 37.744 21.7085 36.7677 20.7322C35.7915 19.7559 34.2085 19.7559 33.2323 20.7322L25.7323 28.2323C24.7559 29.2085 24.7559 30.7915 25.7323 31.7677L33.2323 39.2677C34.2085 40.244 35.7915 40.244 36.7677 39.2677C37.744 38.2915 37.744 36.7085 36.7677 35.7323L33.5355 32.5H51.7337C50.4933 43.404 41.2357 51.875 30 51.875C17.9188 51.875 8.125 42.0812 8.125 30Z" fill="#A4A4A4"/>
</svg>
