<svg width="20" height="20" viewBox="0 0 20 20" fill="none" xmlns="http://www.w3.org/2000/svg">
<g clip-path="url(#clip0_477_1497)">
<path d="M17.5501 3.409L16.5358 2.40286C16.2045 2.07158 15.6646 2.07567 15.3333 2.40695L14.409 3.33947C13.5501 2.77096 12.5767 2.36196 11.5337 2.16156L11.5297 0.848671C11.5297 0.378323 11.1452 0.00204468 10.6789 0.00204468L9.25153 0.00613466C8.78119 0.00613466 8.40491 0.390593 8.40491 0.856851L8.409 2.16973C7.36605 2.38241 6.39264 2.7955 5.54192 3.37219L4.60941 2.44785C4.27812 2.11657 3.73824 2.12066 3.40695 2.45194L2.40491 3.46217C2.07362 3.79346 2.07771 4.33334 2.409 4.66462L3.34151 5.58896C2.77301 6.44786 2.36401 7.42127 2.15951 8.46422L0.846626 8.46831C0.376278 8.46831 0 8.85277 0 9.31902L0.00408998 10.7464C0.00408998 11.2168 0.388548 11.5931 0.854806 11.5931L2.16769 11.589C2.38037 12.6319 2.79346 13.6053 3.37014 14.456L2.44581 15.3886C2.11452 15.7198 2.11861 16.2597 2.4499 16.591L3.46421 17.5971C3.7955 17.9284 4.33538 17.9243 4.66667 17.5931L5.591 16.6605C6.4499 17.229 7.42331 17.638 8.46626 17.8385L8.47035 19.1513C8.47035 19.6217 8.8548 19.998 9.32106 19.998L10.7485 19.9939C11.2188 19.9939 11.5951 19.6094 11.5951 19.1432L11.591 17.8303C12.6339 17.6176 13.6074 17.2045 14.4581 16.6278L15.3906 17.5522C15.7219 17.8834 16.2618 17.8794 16.593 17.5481L17.5992 16.5338C17.9305 16.2025 17.9264 15.6626 17.5951 15.3313L16.6626 14.407C17.2311 13.5481 17.6401 12.5746 17.8405 11.5317L19.1534 11.5276C19.6237 11.5276 20 11.1432 20 10.6769L19.9959 9.24949C19.9959 8.77915 19.6115 8.40287 19.1452 8.40287L17.8323 8.40696C17.6196 7.36401 17.2065 6.3906 16.6299 5.53988L17.5542 4.60736C17.8855 4.27608 17.8814 3.7362 17.5501 3.409ZM10.0204 15.7035C6.87117 15.7158 4.30675 13.1718 4.29448 10.0184C4.28221 6.86912 6.82618 4.30471 9.97955 4.29244C13.1288 4.28017 15.6933 6.82413 15.7055 9.97751C15.7137 13.1268 13.1697 15.6912 10.0204 15.7035Z" fill="#A4A4A4"/>
<path d="M12.3394 8.92229H12.3231V8.12065C12.3231 6.85276 11.2883 5.81799 10.0204 5.81799C8.74843 5.81799 7.71775 6.85276 7.71775 8.12065V8.92229H7.66458C7.3292 8.92229 7.05518 9.19632 7.05518 9.53169V12.8814C7.05518 13.2168 7.3292 13.4908 7.66458 13.4908H12.3394C12.6748 13.4908 12.9488 13.2168 12.9488 12.8814V9.53169C12.9447 9.19632 12.6748 8.92229 12.3394 8.92229ZM10.3599 11.3558C10.3149 11.3885 10.2985 11.4254 10.3026 11.4785C10.3026 11.7239 10.3026 11.9693 10.3026 12.2147C10.3067 12.317 10.2576 12.4151 10.1636 12.4642C9.94679 12.5746 9.73411 12.4192 9.73411 12.2188C9.73411 11.9734 9.73411 11.7239 9.73411 11.4785C9.73411 11.4294 9.72184 11.3967 9.68094 11.364C9.45599 11.2004 9.38646 10.9182 9.49689 10.6728C9.60732 10.4315 9.86908 10.2924 10.1186 10.3415C10.3967 10.3988 10.5889 10.6196 10.593 10.8977C10.593 11.0859 10.5153 11.2454 10.3599 11.3558ZM11.3128 8.92229H8.7198V8.12065C8.7198 7.40491 9.30057 6.82413 10.0163 6.82413C10.7321 6.82413 11.3128 7.40491 11.3128 8.12065V8.92229Z" fill="#A4A4A4"/>
</g>
<defs>
<clipPath id="clip0_477_1497">
<rect width="20" height="20" fill="white"/>
</clipPath>
</defs>
</svg>
