<svg width="55" height="55" viewBox="0 0 55 55" fill="none" xmlns="http://www.w3.org/2000/svg">
<path d="M43.0834 28.4166C36.5127 28.4166 31.1667 33.7626 31.1667 40.3333C31.1667 46.904 36.5127 52.25 43.0834 52.25C49.6541 52.25 55.0001 46.904 55.0001 40.3333C55.0001 33.7626 49.6541 28.4166 43.0834 28.4166ZM43.0834 50.4166C37.5238 50.4166 33.0001 45.8929 33.0001 40.3333C33.0001 34.7737 37.5238 30.25 43.0834 30.25C48.643 30.25 53.1667 34.7737 53.1667 40.3333C53.1667 45.8929 48.643 50.4166 43.0834 50.4166Z" fill="#A4A4A4"/>
<path d="M47.6209 35.7968C47.2625 35.4383 46.6832 35.4383 46.3247 35.7968L43.0834 39.0372L39.8421 35.7968C39.4837 35.4383 38.9043 35.4383 38.5459 35.7968C38.1875 36.1552 38.1875 36.7345 38.5459 37.0929L41.7872 40.3334L38.5459 43.5738C38.1875 43.9322 38.1875 44.5115 38.5459 44.8699C38.7247 45.0487 38.9593 45.1385 39.194 45.1385C39.4287 45.1385 39.6633 45.0487 39.8421 44.8699L43.0834 41.6295L46.3247 44.8699C46.5035 45.0487 46.7382 45.1385 46.9728 45.1385C47.2075 45.1385 47.4422 45.0487 47.6209 44.8699C47.9793 44.5115 47.9793 43.9322 47.6209 43.5738L44.3796 40.3334L47.6209 37.0929C47.9784 36.7345 47.9784 36.1543 47.6209 35.7968Z" fill="#A4A4A4"/>
<path d="M42.351 25.7043L36.7245 20.5471L28.3086 29.7633L30.834 32.2887C33.3328 28.4974 37.5394 25.9435 42.351 25.7043Z" fill="#A4A4A4"/>
<path d="M21.9762 26.0233L7.02258 39.1884C6.84842 39.3415 6.63208 39.4167 6.41667 39.4167C6.16275 39.4167 5.90975 39.3122 5.72825 39.1059C5.39367 38.7255 5.43033 38.1462 5.81075 37.8116L21.4097 24.0781C21.7727 23.7591 22.3208 23.7765 22.6637 24.1184L27.0114 28.4662L35.9892 18.6331C36.1533 18.4534 36.3825 18.3462 36.6254 18.3352C36.8674 18.3297 37.1057 18.4113 37.2854 18.5753L45.2109 25.8399C48.2707 26.2882 51.0226 27.676 53.1657 29.711V3.66667C53.1657 3.15975 52.7551 2.75 52.2491 2.75H0.916667C0.410667 2.75 0 3.15975 0 3.66667V44C0 44.5069 0.410667 44.9167 0.916667 44.9167H29.1601C28.6834 43.4729 28.4167 41.9348 28.4167 40.3333C28.4167 38.0417 28.9602 35.8802 29.9007 33.9469L21.9762 26.0233ZM14.6667 12.8333C17.4817 12.8333 19.7716 15.1232 19.7716 17.9383C19.7716 20.7524 17.4817 23.0422 14.6667 23.0422C11.8516 23.0422 9.56175 20.7524 9.56175 17.9383C9.56175 15.1232 11.8516 12.8333 14.6667 12.8333Z" fill="#A4A4A4"/>
</svg>
