<svg width="15" height="15" viewBox="0 0 15 15" fill="none" xmlns="http://www.w3.org/2000/svg">
<path d="M7.50371 7.29534C7.18128 7.32102 6.88034 7.16696 6.55792 7.03858C4.85979 6.371 3.16167 5.70343 1.48504 5.01017C1.37757 4.95882 1.29159 4.90747 1.20561 4.83044C1.09813 4.72774 1.09813 4.59936 1.20561 4.49665C1.29159 4.41962 1.39906 4.3426 1.50654 4.31692C3.31214 3.67502 5.11774 3.03312 6.92334 2.36554C7.33174 2.21149 7.74015 2.21149 8.17006 2.36554C9.95416 3.00744 11.7598 3.64934 13.5439 4.29124C13.6513 4.3426 13.7588 4.39395 13.8663 4.47098C13.9953 4.57368 13.9953 4.72774 13.8663 4.83044C13.7803 4.90747 13.6943 4.95882 13.6083 4.9845C11.8242 5.70343 10.0186 6.42236 8.21305 7.11561C7.9766 7.24399 7.76165 7.29534 7.50371 7.29534Z" fill="#A4A4A4"/>
<path d="M3.93547 7.39804C3.67752 7.32101 3.61304 7.52642 3.61304 7.68048C3.61304 8.50211 3.61304 9.29807 3.61304 10.1197C3.61304 10.4021 3.69902 10.5819 3.84948 10.7616C3.91397 10.8386 3.97846 10.89 4.04294 10.9413C4.47285 11.3008 4.96724 11.5319 5.48312 11.6859C6.4934 12.0197 7.52517 12.0711 8.55694 11.917C9.22329 11.8143 9.88964 11.6089 10.513 11.2751C10.7924 11.1211 11.0504 10.9413 11.2438 10.6846C11.3728 10.5305 11.4373 10.3765 11.4158 10.1454C11.4373 9.3751 11.4373 8.57914 11.4373 7.78318C11.4373 7.34669 11.1794 7.39804 11.0719 7.42372C10.1261 7.80886 9.1588 8.16832 8.21301 8.55346C7.74012 8.7332 7.28872 8.7332 6.81582 8.55346L3.93547 7.39804Z" fill="#A4A4A4"/>
<path d="M12.8774 6.65344C12.7914 6.67911 12.7699 6.73046 12.7699 6.83317C12.7699 7.5521 12.7699 8.27103 12.7699 8.98995C12.7699 9.06698 12.7484 9.14401 12.7269 9.22104C12.5979 9.60618 12.4475 9.99132 12.34 10.3765C12.2325 10.7359 12.297 11.0954 12.512 11.3778C12.5764 11.4805 12.6624 11.5576 12.7484 11.6346C12.8344 11.7116 12.9634 11.763 13.0708 11.7886C13.2643 11.8143 13.4148 11.6859 13.5437 11.5576C13.6082 11.4805 13.6727 11.4035 13.7372 11.3265C13.8876 11.0954 13.9306 10.7616 13.8661 10.4535C13.7802 10.017 13.6297 9.63186 13.4577 9.24671C13.4148 9.16969 13.3933 9.06698 13.3933 8.98995C13.3933 8.194 13.3933 7.42372 13.3933 6.62776C13.3933 6.4737 13.2858 6.49938 13.2428 6.52505L12.8774 6.65344Z" fill="#A4A4A4"/>
</svg>
