<svg width="12" height="12" viewBox="0 0 12 12" fill="none" xmlns="http://www.w3.org/2000/svg">
<g clip-path="url(#clip0_536_95)">
<path d="M11.4824 3.84191C11.7283 4.15558 11.8463 4.49184 11.8312 4.83814C11.8161 5.21957 11.6455 5.51819 11.505 5.70138C11.6681 6.1079 11.7308 6.7478 11.1863 7.24467C10.7873 7.60853 10.1097 7.77164 9.17123 7.72647C8.51126 7.69636 7.95919 7.5734 7.9366 7.56838H7.93409C7.80862 7.5458 7.67562 7.51819 7.54012 7.48808C7.53008 7.64868 7.55768 8.04768 7.85379 8.94605C8.20511 10.0151 8.18503 10.8331 7.78855 11.3802C7.37199 11.9548 6.70699 12 6.51126 12C6.32305 12 6.14991 11.9222 6.02694 11.7792C5.7484 11.4555 5.78102 10.8582 5.81615 10.5822C5.48491 9.69385 4.55643 7.51568 3.77099 6.91092C3.75593 6.90088 3.74338 6.88833 3.73084 6.87578C3.49997 6.63237 3.34439 6.36888 3.23899 6.13802C3.09094 6.21832 2.92281 6.26349 2.74213 6.26349H1.21139C0.63423 6.26349 0.16748 5.79423 0.16748 5.21957V1.14178C0.16748 0.564617 0.63674 0.097867 1.21139 0.097867H2.74213C2.96547 0.097867 3.17375 0.16813 3.34439 0.288582L3.9341 0.218319C4.02444 0.205772 5.63046 0.00251007 7.27914 0.0351324C7.57776 0.0125477 7.85881 0 8.11979 0C8.56897 0 8.96044 0.0351318 9.28666 0.105395C10.0545 0.268507 10.579 0.594731 10.845 1.07403C11.0483 1.4404 11.0483 1.80427 11.0156 2.03513C11.515 2.48683 11.6028 2.9862 11.5853 3.33751C11.5752 3.54078 11.5301 3.71393 11.4824 3.84191ZM1.21139 0.775408C1.00813 0.775408 0.84502 0.941028 0.84502 1.14178V5.22208C0.84502 5.42534 1.01064 5.58846 1.21139 5.58846H2.74213C2.94539 5.58846 3.1085 5.42284 3.1085 5.22208V1.14429C3.1085 0.941029 2.94288 0.777917 2.74213 0.777917H1.21139V0.775408ZM10.84 4.13551C10.7346 4.02509 10.7145 3.85696 10.7948 3.72647C10.7948 3.72396 10.8977 3.54831 10.9102 3.3074C10.9278 2.97867 10.7697 2.68758 10.4385 2.43915C10.3205 2.34881 10.2729 2.19323 10.323 2.0527C10.323 2.05019 10.431 1.71895 10.2553 1.40527C10.0872 1.10414 9.71326 0.888331 9.14614 0.767879C8.69193 0.670012 8.07462 0.652447 7.31678 0.712673C7.30674 0.712673 7.29419 0.712673 7.28165 0.712673C5.6681 0.677541 4.03699 0.888331 4.01942 0.890841H4.01691L3.76346 0.920954C3.77852 0.991217 3.78604 1.0665 3.78604 1.14178V5.22208C3.78604 5.32999 3.76848 5.43538 3.73837 5.53325C3.78354 5.70138 3.90901 6.07528 4.20512 6.39398C5.33184 7.28733 6.43347 10.3011 6.48115 10.4316C6.50122 10.4843 6.50624 10.542 6.4962 10.5997C6.45354 10.8808 6.4686 11.2246 6.52883 11.3275C6.66182 11.325 7.02067 11.2873 7.23648 10.9887C7.49244 10.6349 7.4824 10.0025 7.20637 9.16437C6.78479 7.88708 6.74965 7.21455 7.0834 6.91844C7.24903 6.77039 7.46985 6.76286 7.63046 6.82058C7.78353 6.85571 7.92908 6.88582 8.06709 6.90841C8.07713 6.91092 8.08968 6.91343 8.09971 6.91593C8.8701 7.08407 10.2503 7.18695 10.7296 6.75031C11.1361 6.37892 10.8475 5.88708 10.8149 5.83438C10.722 5.69385 10.7496 5.51066 10.8751 5.39774L10.876 5.39687C10.8931 5.38038 11.1415 5.13687 11.1537 4.81305C11.1637 4.58971 11.0583 4.36135 10.84 4.13551Z" fill="#1E2126"/>
<path d="M1.21139 0.775408C1.00813 0.775408 0.84502 0.941028 0.84502 1.14178V5.22208C0.84502 5.42534 1.01064 5.58846 1.21139 5.58846H2.74213C2.94539 5.58846 3.1085 5.42284 3.1085 5.22208V1.14429C3.1085 0.941029 2.94288 0.777917 2.74213 0.777917H1.21139V0.775408Z" fill="#A4A4A4"/>
<path d="M10.7948 3.72647C10.7145 3.85696 10.7346 4.02509 10.84 4.13551C11.0583 4.36135 11.1637 4.58971 11.1537 4.81305C11.1416 5.13489 10.8958 5.37771 10.876 5.39687L10.8751 5.39774C10.7496 5.51066 10.722 5.69385 10.8149 5.83438C10.8475 5.88708 11.1361 6.37892 10.7296 6.75031C10.2503 7.18695 8.8701 7.08407 8.09971 6.91593C8.08968 6.91343 8.07713 6.91092 8.06709 6.90841C7.92908 6.88582 7.78353 6.85571 7.63046 6.82058C7.46985 6.76286 7.24903 6.77039 7.0834 6.91844C6.74965 7.21455 6.78479 7.88708 7.20637 9.16437C7.4824 10.0025 7.49244 10.6349 7.23648 10.9887C7.02067 11.2873 6.66182 11.325 6.52883 11.3275C6.4686 11.2246 6.45354 10.8808 6.4962 10.5997C6.50624 10.542 6.50122 10.4843 6.48115 10.4316C6.43347 10.3011 5.33184 7.28733 4.20512 6.39398C3.90901 6.07528 3.78354 5.70138 3.73837 5.53325C3.76848 5.43538 3.78604 5.32999 3.78604 5.22208V1.14178C3.78604 1.0665 3.77852 0.991217 3.76346 0.920954L4.01691 0.890841H4.01942C4.03699 0.888331 5.6681 0.677541 7.28165 0.712673H7.31678C8.07462 0.652447 8.69193 0.670012 9.14614 0.767879C9.71326 0.888331 10.0872 1.10414 10.2553 1.40527C10.431 1.71895 10.323 2.05019 10.323 2.0527C10.2729 2.19323 10.3205 2.34881 10.4385 2.43915C10.7697 2.68758 10.9278 2.97867 10.9102 3.3074C10.8977 3.54831 10.7948 3.72396 10.7948 3.72647Z" fill="#A4A4A4"/>
</g>
<defs>
<clipPath id="clip0_536_95">
<rect width="12" height="12" fill="white" transform="matrix(1 0 0 -1 0 12)"/>
</clipPath>
</defs>
</svg>
