<svg width="55" height="55" viewBox="0 0 55 55" fill="none" xmlns="http://www.w3.org/2000/svg">
<g clip-path="url(#clip0_425_101)">
<path d="M46.8835 8.1194C46.9704 6.01464 46.213 3.88505 44.6049 2.27699C41.5564 -0.77155 36.6329 -0.752924 33.5844 2.29562C31.1754 4.7046 30.6353 8.25599 32.0819 11.2113L11.2144 32.0851C8.25905 30.6384 4.70767 31.1786 2.29868 33.5876C-0.749799 36.6298 -0.762216 41.5658 2.28627 44.6143C3.89432 46.2223 6.0177 46.9736 8.12246 46.8867C8.03554 48.9914 8.793 51.1211 10.4011 52.7229C13.4495 55.7714 18.3731 55.7528 21.4215 52.7043C23.8306 50.2952 24.3645 46.7439 22.9179 43.7885L43.7854 22.921C46.7408 24.3676 50.2921 23.8275 52.7012 21.4185C55.7497 18.3699 55.7621 13.434 52.7135 10.3856C51.1054 8.78379 48.9883 8.03248 46.8835 8.1194Z" fill="#A4A4A4"/>
</g>
<defs>
<clipPath id="clip0_425_101">
<rect width="55" height="55" fill="white"/>
</clipPath>
</defs>
</svg>
