<svg width="55" height="55" viewBox="0 0 55 55" fill="none" xmlns="http://www.w3.org/2000/svg">
<g clip-path="url(#clip0_425_67)">
<path d="M21.7126 12.5403C19.7139 12.5403 18.0879 14.1663 18.0879 16.165C18.0879 16.6408 18.4736 17.0264 18.9493 17.0264C19.4251 17.0264 19.8107 16.6407 19.8107 16.165C19.8107 15.1164 20.6639 14.2631 21.7126 14.2631C22.7613 14.2631 23.6145 15.1163 23.6145 16.165C23.6145 16.6408 24.0003 17.0264 24.4759 17.0264C24.9516 17.0264 25.3374 16.6407 25.3374 16.165C25.3374 14.1664 23.7113 12.5403 21.7126 12.5403Z" fill="#A4A4A4"/>
<path d="M33.2865 12.5403C31.2878 12.5403 29.6616 14.1663 29.6616 16.165C29.6616 16.6408 30.0472 17.0264 30.523 17.0264C30.9989 17.0264 31.3845 16.6407 31.3845 16.165C31.3845 15.1164 32.2376 14.2631 33.2865 14.2631C34.3351 14.2631 35.1884 15.1163 35.1884 16.165C35.1884 16.6408 35.5739 17.0264 36.0498 17.0264C36.5257 17.0264 36.9112 16.6407 36.9112 16.165C36.9113 14.1664 35.2853 12.5403 33.2865 12.5403Z" fill="#A4A4A4"/>
<path d="M27.4995 18.4618C25.5008 18.4618 23.8748 20.0878 23.8748 22.0865C23.8748 22.5623 24.2605 22.9479 24.7362 22.9479C25.2118 22.9479 25.5976 22.5622 25.5976 22.0865C25.5976 21.0379 26.4507 20.1846 27.4995 20.1846C28.5481 20.1846 29.4014 21.0378 29.4014 22.0865C29.4014 22.5623 29.7869 22.9479 30.2628 22.9479C30.7387 22.9479 31.1242 22.5622 31.1242 22.0865C31.1242 20.0878 29.4983 18.4618 27.4995 18.4618Z" fill="#A4A4A4"/>
<path d="M14.3913 18.4618C12.3926 18.4618 10.7666 20.0878 10.7666 22.0865C10.7666 22.5623 11.1524 22.9479 11.628 22.9479C12.1037 22.9479 12.4894 22.5622 12.4894 22.0865C12.4894 21.0379 13.3426 20.1846 14.3913 20.1846C15.44 20.1846 16.2932 21.0378 16.2932 22.0865C16.2932 22.5623 16.679 22.9479 17.1547 22.9479C17.6304 22.9479 18.0161 22.5622 18.0161 22.0865C18.0161 20.0877 16.39 18.4618 14.3913 18.4618Z" fill="#A4A4A4"/>
<path d="M40.6078 18.4618C38.6091 18.4618 36.9829 20.0878 36.9829 22.0865C36.9829 22.5623 37.3684 22.9479 37.8443 22.9479C38.3202 22.9479 38.7057 22.5622 38.7057 22.0865C38.7057 21.0379 39.5589 20.1846 40.6078 20.1846C41.6564 20.1846 42.5097 21.0378 42.5097 22.0865C42.5097 22.5623 42.8952 22.9479 43.3711 22.9479C43.8468 22.9479 44.2325 22.5622 44.2325 22.0865C44.2325 20.0878 42.6065 18.4618 40.6078 18.4618Z" fill="#A4A4A4"/>
<path d="M31.9085 42.1414C31.4894 40.2523 29.6837 37.5193 27.5151 37.5193H27.4842V37.5194C25.3158 37.5194 23.5101 40.2523 23.0909 42.1413C22.691 43.9433 23.5676 44.5675 23.9633 44.752C24.6971 45.0945 25.5514 45.1554 26.4435 44.9295C26.7822 44.8436 27.1323 44.8002 27.484 44.8002H27.5152C27.8669 44.8002 28.217 44.8436 28.5556 44.9295C28.9084 45.0188 29.2576 45.0641 29.5935 45.0641C29.5936 45.0641 29.5936 45.0641 29.5936 45.0641C30.1071 45.0641 30.5923 44.9591 31.0359 44.752C31.4315 44.5675 32.3083 43.9435 31.9085 42.1414ZM30.2636 43.2104C30.0591 43.2985 29.8394 43.3413 29.5935 43.3413C29.4 43.3413 29.1932 43.3137 28.9785 43.2595C28.5016 43.1387 28.0092 43.0775 27.5151 43.0775H27.4839C26.9897 43.0775 26.4974 43.1387 26.0205 43.2595C25.5369 43.3821 25.0999 43.3668 24.7353 43.2104C24.6593 42.9901 24.7316 42.1531 25.3723 41.0563C26.0062 39.9713 26.8549 39.2423 27.484 39.2423H27.5146C28.1439 39.2422 28.9927 39.9712 29.6266 41.0563C30.2674 42.1533 30.3396 42.9902 30.2636 43.2104Z" fill="#A4A4A4"/>
<path d="M27.1009 32.9416C26.6354 31.9073 25.6017 31.2393 24.4674 31.2393C24.0575 31.2393 23.6592 31.3251 23.2833 31.4943C21.8318 32.1477 21.1824 33.8602 21.8359 35.3119C22.3644 36.4856 23.7401 37.4051 24.9679 37.4052H24.968C25.3077 37.4052 25.6286 37.3382 25.9218 37.2062C27.3967 36.5421 27.7607 34.407 27.1009 32.9416ZM25.2148 35.6349C25.1454 35.6661 25.0624 35.6819 24.9683 35.6819H24.9682C24.4151 35.6819 23.6564 35.1582 23.4071 34.6044C23.2795 34.3208 23.2698 34.0045 23.3801 33.7138C23.4902 33.4231 23.7071 33.1927 23.9906 33.0651C24.1426 32.9967 24.3029 32.9621 24.4672 32.9621C24.925 32.9621 25.342 33.2316 25.5299 33.6487C25.8462 34.351 25.6753 35.4275 25.2148 35.6349Z" fill="#A4A4A4"/>
<path d="M22.2178 36.3042C21.7908 36.0207 21.2948 35.8708 20.7836 35.8708C19.9107 35.8708 19.1016 36.3047 18.6192 37.0312C17.8276 38.2237 18.1535 39.838 19.3461 40.6297C19.9005 40.9979 20.6865 41.2176 21.4482 41.2176H21.4483C22.3845 41.2176 23.1212 40.8848 23.5225 40.2804C24.3841 38.9829 23.3078 37.0279 22.2178 36.3042ZM22.0874 39.3275C22.0444 39.3921 21.8331 39.4947 21.4486 39.4947H21.4485C21.0382 39.4947 20.5654 39.3713 20.2992 39.1944C19.898 38.9281 19.7884 38.3852 20.0547 37.9841C20.217 37.7397 20.4895 37.5937 20.7836 37.5937C20.9547 37.5937 21.121 37.6441 21.2649 37.7396C21.8376 38.1198 22.242 39.0947 22.0874 39.3275Z" fill="#A4A4A4"/>
<path d="M31.7157 31.494C31.3399 31.3248 30.9415 31.239 30.5317 31.239C29.3974 31.239 28.3636 31.9072 27.898 32.9413C27.5971 33.6098 27.5068 34.4666 27.6569 35.2334C27.8412 36.1761 28.3456 36.8767 29.0769 37.2059C29.3703 37.3379 29.6912 37.4048 30.0308 37.4048C31.2587 37.4048 32.6345 36.4855 33.1629 35.3116C33.8166 33.8601 33.1674 32.1475 31.7157 31.494ZM31.5921 34.6044C31.3428 35.1583 30.5842 35.682 30.031 35.682C29.9368 35.682 29.8538 35.6661 29.7845 35.6349C29.4943 35.5042 29.3825 35.0793 29.3479 34.9027C29.2651 34.4794 29.3116 33.9989 29.4692 33.6488C29.657 33.2317 30.0742 32.9622 30.5319 32.9622C30.6963 32.9622 30.8567 32.9969 31.0085 33.0652C31.2921 33.1928 31.5089 33.4232 31.6191 33.7139C31.7293 34.0046 31.7197 34.3208 31.5921 34.6044Z" fill="#A4A4A4"/>
<path d="M36.3796 37.0311C35.8972 36.3046 35.0881 35.871 34.2153 35.871C33.7042 35.8709 33.2082 36.0208 32.781 36.3043C32.2396 36.6639 31.7378 37.2851 31.4389 37.9663C31.0541 38.8429 31.0674 39.6649 31.4763 40.2806C31.8775 40.8849 32.6141 41.2177 33.5506 41.2177C34.3124 41.2177 35.0983 40.998 35.6528 40.6298C36.8454 39.838 37.1716 38.2236 36.3796 37.0311ZM34.6998 39.1944C34.4334 39.3713 33.9607 39.4947 33.5505 39.4947C33.1658 39.4947 32.9546 39.3922 32.9115 39.3276C32.8677 39.2614 32.8573 39.0213 33.0165 38.6587C33.2058 38.2272 33.5133 37.8862 33.734 37.7397C33.8777 37.6443 34.0441 37.5938 34.2152 37.5938C34.5094 37.5937 34.7821 37.7397 34.9444 37.9841C35.2106 38.3852 35.1009 38.9281 34.6998 39.1944Z" fill="#A4A4A4"/>
<path d="M54.8187 35.4052C54.0315 30.9128 51.1198 24.9631 49.6561 22.1683C49.6955 22.1092 49.7353 22.0504 49.7724 21.9908C50.7388 20.4398 50.6983 19.0686 50.494 18.1916C50.0798 16.4123 48.5827 15.0705 47.0119 15.0705C46.6558 15.0705 46.3035 15.1042 45.9579 15.1711C45.1561 13.0516 43.1043 11.5919 40.7753 11.5919C40.4481 11.5919 40.1244 11.6203 39.806 11.6765C39.0881 9.4188 36.9657 7.81349 34.5258 7.81349C33.6333 7.81349 32.774 8.022 31.9969 8.42247C30.9668 6.98387 29.3155 6.1217 27.4996 6.1217C25.6834 6.1217 24.0322 6.98376 23.0022 8.42247C22.2253 8.0221 21.3658 7.81349 20.4733 7.81349C18.0334 7.81349 15.9108 9.4188 15.1931 11.6765C14.8748 11.6203 14.5511 11.5919 14.2239 11.5919C11.8949 11.5919 9.84316 13.0516 9.04137 15.1711C8.69568 15.1043 8.34334 15.0705 7.98724 15.0705C6.4163 15.0705 4.91927 16.4123 4.50516 18.1915C4.30095 19.0686 4.26034 20.4397 5.22682 21.9909C5.26388 22.0504 5.30362 22.1091 5.34294 22.1681C4.51429 23.7506 3.17764 26.4299 2.04659 29.2786C1.87106 29.7209 2.0873 30.2217 2.52935 30.3971C2.63365 30.4385 2.74118 30.4581 2.8471 30.4581C3.18977 30.4581 3.51387 30.2522 3.64804 29.9144C4.61892 27.4689 5.74813 25.146 6.55767 23.5686C6.65445 23.6579 6.75457 23.7462 6.85759 23.8335C6.86102 23.8365 6.86446 23.8395 6.8679 23.8423C6.86983 23.8439 6.87187 23.8457 6.87381 23.8473C6.94664 23.9087 7.02098 23.9697 7.09671 24.0301C7.10036 24.0331 7.10391 24.036 7.10767 24.0389C7.11314 24.0433 7.11884 24.0476 7.12432 24.0519C7.30758 24.1972 7.49965 24.3396 7.70042 24.4792C7.71642 24.4904 7.73222 24.5016 7.74844 24.5128C7.75327 24.5161 7.75821 24.5193 7.76305 24.5226C7.8319 24.5698 7.90162 24.6167 7.97241 24.6633C7.99143 24.6759 8.01044 24.6886 8.02988 24.7013C8.04471 24.711 8.05996 24.7203 8.07489 24.73C8.13956 24.7716 8.20487 24.8132 8.27115 24.8544C8.28877 24.8654 8.30585 24.8763 8.3239 24.8873C8.35988 24.9094 8.39705 24.9318 8.4354 24.9547C8.48621 24.9852 8.53702 25.0157 8.58858 25.0459C8.60244 25.0542 8.61598 25.0623 8.63026 25.0706C8.66969 25.0935 8.71051 25.1164 8.75122 25.1392C8.80643 25.1706 8.86133 25.2022 8.91751 25.2333C8.92814 25.2394 8.93846 25.2452 8.94952 25.2513C9.01419 25.2868 9.08143 25.3225 9.1547 25.3613C9.191 25.3806 9.22656 25.4 9.26341 25.4192C9.26985 25.4225 9.27598 25.426 9.28242 25.4293C9.38555 25.4829 9.49103 25.5364 9.59824 25.5893C9.60479 25.5926 9.61113 25.596 9.61768 25.5992C9.61833 25.5995 9.61919 25.6001 9.61994 25.6004C9.71684 25.6514 9.82232 25.705 9.94049 25.7634C12.8288 27.1969 17.0715 28.206 21.8963 28.6489C21.8965 28.6489 21.8969 28.6489 21.8971 28.649C23.0637 28.7745 24.2262 28.8611 25.3525 28.9064C27.7662 29.0039 30.2102 28.9314 32.617 28.6914C32.7127 28.6834 32.8053 28.6746 32.8997 28.6663C33.1044 28.6482 33.3088 28.6295 33.5121 28.6093C33.7041 28.5904 33.8947 28.5707 34.0829 28.5501C34.1636 28.5413 34.2441 28.5323 34.3246 28.5231C34.5952 28.4922 34.8641 28.4603 35.1306 28.4256C35.2156 28.4145 35.2958 28.391 35.3704 28.3578C35.3734 28.3564 35.3766 28.3556 35.3796 28.3542C35.3957 28.3469 35.4109 28.3382 35.4262 28.3299C35.4356 28.3248 35.4452 28.3205 35.4544 28.3152C35.472 28.305 35.4885 28.2935 35.5053 28.282C35.5116 28.2776 35.5183 28.2739 35.5243 28.2694C35.5411 28.2573 35.5568 28.2441 35.5726 28.2307C35.578 28.2261 35.5839 28.2221 35.5892 28.2174C35.6029 28.2053 35.6157 28.1921 35.6286 28.1791C35.6352 28.1725 35.6422 28.1664 35.6486 28.1596C35.6601 28.1474 35.6705 28.1341 35.6813 28.1212C35.6882 28.1129 35.6956 28.1052 35.7022 28.0967C35.7145 28.0806 35.7257 28.0637 35.737 28.0467C35.741 28.0406 35.7456 28.035 35.7493 28.0288C35.7622 28.0084 35.7737 27.9872 35.7848 27.9658C35.7864 27.9627 35.7883 27.9598 35.7899 27.9566C35.814 27.9085 35.8336 27.858 35.8484 27.8056C35.8488 27.8041 35.8495 27.8028 35.8498 27.8013C35.8798 27.6934 35.8891 27.5778 35.8737 27.4598C35.8711 27.4399 35.867 27.4207 35.8631 27.4014C35.8613 27.392 35.8601 27.3824 35.8579 27.3731C35.8575 27.3711 35.8568 27.3694 35.8563 27.3675C35.7612 26.9738 35.4017 26.6986 34.9961 26.7099C34.967 26.7106 34.9378 26.713 34.9082 26.7167C34.9051 26.7171 34.9021 26.7174 34.899 26.7179C34.6443 26.7509 34.3876 26.7814 34.1297 26.8109C34.0496 26.8202 33.9691 26.8291 33.8883 26.8379C33.7092 26.8576 33.529 26.8759 33.3488 26.8939C33.1403 26.9144 32.9288 26.934 32.7141 26.953C31.0225 27.1015 29.2774 27.1783 27.4996 27.1783C25.7327 27.1783 24.0056 27.1042 22.3507 26.9626C22.2584 26.9532 22.1666 26.945 22.0743 26.9351C22.0698 26.9347 22.0654 26.9342 22.0609 26.9337C17.4971 26.5148 13.5151 25.5755 10.8455 24.2876L10.799 24.2656C10.7583 24.2457 10.7183 24.2257 10.6782 24.2059C10.5897 24.1616 10.5013 24.1174 10.4158 24.0722C10.4141 24.0713 10.4124 24.0705 10.4107 24.0695C10.407 24.0676 10.4034 24.0658 10.3995 24.0639C10.3961 24.0621 10.3925 24.0603 10.3891 24.0586C10.3796 24.054 10.3707 24.0491 10.3613 24.0446C10.2707 23.9998 10.1818 23.9548 10.0945 23.9096C10.0164 23.8691 9.93973 23.8279 9.86379 23.7867C9.8509 23.7798 9.83779 23.7729 9.82522 23.7661C7.11991 22.2855 5.76575 20.3752 6.18309 18.5821C6.44025 17.4773 7.31972 16.7934 7.98724 16.7934C8.4484 16.7934 8.89989 16.8752 9.32936 17.0366C9.56644 17.1258 9.83102 17.1059 10.0523 16.9824C10.2736 16.8587 10.4293 16.6441 10.4779 16.3954C10.8268 14.6104 12.4023 13.3148 14.2239 13.3148C14.6764 13.3148 15.1189 13.393 15.5389 13.5471C15.7847 13.6373 16.0579 13.6109 16.2816 13.4755C16.5055 13.34 16.6556 13.1102 16.6898 12.8508C16.9384 10.9613 18.5651 9.53643 20.4734 9.53643C21.3101 9.53643 22.1046 9.8023 22.771 10.3054C22.9765 10.4604 23.2404 10.5155 23.4911 10.4555C23.7415 10.3955 23.952 10.2264 24.0646 9.9948C24.71 8.66857 26.0264 7.84475 27.4998 7.84475C28.9732 7.84475 30.2895 8.66868 30.9348 9.9948C31.0475 10.2264 31.2579 10.3954 31.5083 10.4555C31.7589 10.5155 32.0231 10.4606 32.2286 10.3052C32.8948 9.8023 33.6893 9.53632 34.526 9.53632C36.4345 9.53632 38.061 10.9613 38.3096 12.8507C38.3438 13.11 38.494 13.3399 38.7177 13.4754C38.9416 13.6108 39.2149 13.637 39.4606 13.547C39.8806 13.3929 40.3232 13.3147 40.7755 13.3147C42.5972 13.3147 44.1727 14.6103 44.5215 16.3953C44.5701 16.644 44.7257 16.8587 44.947 16.9823C45.1683 17.1059 45.4329 17.1257 45.67 17.0365C46.0994 16.8752 46.551 16.7933 47.0122 16.7933C47.6796 16.7933 48.5592 17.4772 48.8164 18.5821C49.2619 20.4957 47.6895 22.543 44.6104 24.0588C44.6032 24.0623 44.5961 24.066 44.589 24.0697C44.0765 24.34 43.5007 24.5976 42.8709 24.8409C42.8418 24.8522 42.8132 24.8637 42.784 24.8748C41.3391 25.4254 39.6108 25.9001 37.6816 26.2721C37.2145 26.3621 36.9087 26.8139 36.9989 27.2811C37.084 27.7228 37.4931 28.0192 37.9317 27.9745C37.962 27.9721 37.9925 27.968 38.023 27.9622C40.1553 27.5532 42.0574 27.0197 43.677 26.3759C44.055 26.2415 44.4003 26.1086 44.7325 25.9698C45.7149 25.5592 46.6668 24.9238 47.2989 24.4805C47.3002 24.4798 47.3091 24.4735 47.3104 24.4727C47.3124 24.4713 47.3222 24.4645 47.3242 24.463L47.3425 24.4502C47.3543 24.442 47.3717 24.4296 47.3928 24.4143C47.5348 24.3136 47.6719 24.2114 47.8048 24.1079C47.8187 24.0969 47.8332 24.086 47.8469 24.0751C48.0198 23.9426 48.239 23.7708 48.4538 23.5918C49.9478 26.5027 52.4422 31.7742 53.1272 35.7338C53.1314 35.7576 53.1365 35.7814 53.1426 35.8047C53.2316 36.1453 53.2767 36.4876 53.2764 36.826C53.2758 36.8437 53.275 36.8613 53.2748 36.8791C53.2746 36.8908 53.2747 36.9025 53.275 36.9141C53.2755 36.9379 53.2751 36.9589 53.2734 36.9762C53.2722 36.9888 53.2714 37.0015 53.2707 37.0142C53.1461 39.5656 50.4315 42.1186 45.8235 44.0185C40.916 46.0418 34.4093 47.1561 27.5014 47.1561C20.6144 47.1561 14.1215 46.0477 9.2184 44.035C4.61322 42.1444 1.88492 39.6009 1.73324 37.0566C1.73195 37.0355 1.72991 37.0145 1.72712 36.9935C1.72218 36.9566 1.721 36.9217 1.72368 36.8867C1.72529 36.8652 1.72604 36.8437 1.72604 36.8221C1.72604 36.4982 1.76794 36.1676 1.85065 35.8396C1.85602 35.8179 1.86075 35.796 1.86451 35.7738C2.02564 34.8278 2.30634 33.7352 2.69907 32.5263C2.84602 32.0739 2.59831 31.5879 2.14596 31.4409C1.69328 31.2939 1.20752 31.5416 1.06057 31.994C0.646562 33.2686 0.347607 34.4318 0.171757 35.4521C0.062402 35.8968 0.00579067 36.3474 0.00331997 36.7923C-0.00441441 36.9234 -0.000332377 37.0562 0.0152438 37.1882C0.226972 40.4552 3.26142 43.4519 8.56409 45.6286C13.6699 47.7246 20.3952 48.8787 27.5014 48.8787C34.6293 48.8787 41.3693 47.7182 46.48 45.6112C51.7988 43.4183 54.8202 40.4017 54.9906 37.1152C54.9965 37.0444 54.9989 36.9706 54.9977 36.8952C54.9988 36.8707 54.9996 36.8464 54.9996 36.8218C54.9995 36.3528 54.9386 35.8763 54.8187 35.4052Z" fill="#A4A4A4"/>
</g>
<defs>
<clipPath id="clip0_425_67">
<rect width="55" height="55" fill="white"/>
</clipPath>
</defs>
</svg>
