<svg width="50" height="50" viewBox="0 0 50 50" fill="none" xmlns="http://www.w3.org/2000/svg">
<g clip-path="url(#clip0_758_2)">
<path d="M36.3636 18.3448H4.54541V41.6667C4.54541 42.9218 5.56299 43.9394 6.81814 43.9394H15.909H21.6054C24.5215 47.6285 29.0343 50 34.0909 50C42.8631 50 50 42.8632 50 34.0909C50 26.0902 44.063 19.4511 36.3636 18.3448ZM34.0909 45.4545C27.825 45.4545 22.7272 40.3568 22.7272 34.0909C22.7272 27.825 27.825 22.7273 34.0909 22.7273C40.3568 22.7273 45.4545 27.825 45.4545 34.0909C45.4545 40.3568 40.3568 45.4545 34.0909 45.4545Z" fill="#A4A4A4"/>
<path d="M36.3636 13.6364H38.6364C39.8915 13.6364 40.9091 12.6188 40.9091 11.3636C40.9091 10.1085 39.8915 9.09091 38.6364 9.09091H34.0909H31.8182V2.27273C31.8182 1.01758 30.8006 0 29.5455 0H11.3636C10.1085 0 9.09091 1.01758 9.09091 2.27273V9.09091H6.81818H2.27273C1.01758 9.09091 0 10.1085 0 11.3636C0 12.6188 1.01758 13.6364 2.27273 13.6364H4.54545H36.3636ZM13.6364 4.54545H27.2727V9.09091H25H15.9091H13.6364V4.54545Z" fill="#A4A4A4"/>
<path d="M38.9118 29.2698C38.0244 28.3823 36.5853 28.3823 35.6977 29.2698L34.0907 30.8768L32.4838 29.2698C31.5964 28.3823 30.1573 28.3823 29.2697 29.2698C28.3821 30.1574 28.3821 31.5964 29.2697 32.4839L30.8767 34.0909L29.2697 35.6979C28.3821 36.5854 28.3821 38.0244 29.2697 38.912C29.7135 39.3557 30.2951 39.5777 30.8767 39.5777C31.4583 39.5777 32.04 39.3557 32.4838 38.912L34.0907 37.305L35.6977 38.912C36.1415 39.3557 36.7232 39.5777 37.3048 39.5777C37.8865 39.5777 38.4682 39.3557 38.9118 38.912C39.7994 38.0244 39.7994 36.5854 38.9118 35.6979L37.3048 34.0909L38.9118 32.4839C39.7995 31.5962 39.7995 30.1574 38.9118 29.2698Z" fill="#A4A4A4"/>
</g>
<defs>
<clipPath id="clip0_758_2">
<rect width="50" height="50" fill="white"/>
</clipPath>
</defs>
</svg>
