<svg width="13" height="13" viewBox="0 0 13 13" fill="none" xmlns="http://www.w3.org/2000/svg">
<path d="M1.89103 8.39107C2.93541 8.39107 3.78206 7.54442 3.78206 6.50004C3.78206 5.45565 2.93541 4.60901 1.89103 4.60901C0.846642 4.60901 0 5.45565 0 6.50004C0 7.54442 0.846642 8.39107 1.89103 8.39107Z" fill="#A4A4A4"/>
<path d="M6.50004 8.39107C7.54442 8.39107 8.39107 7.54442 8.39107 6.50004C8.39107 5.45565 7.54442 4.60901 6.50004 4.60901C5.45565 4.60901 4.60901 5.45565 4.60901 6.50004C4.60901 7.54442 5.45565 8.39107 6.50004 8.39107Z" fill="#A4A4A4"/>
<path d="M11.1089 8.39107C12.1533 8.39107 13 7.54442 13 6.50004C13 5.45565 12.1533 4.60901 11.1089 4.60901C10.0645 4.60901 9.2179 5.45565 9.2179 6.50004C9.2179 7.54442 10.0645 8.39107 11.1089 8.39107Z" fill="#A4A4A4"/>
</svg>
