<svg width="51" height="50" viewBox="0 0 51 50" fill="none" xmlns="http://www.w3.org/2000/svg">
<path d="M19.2169 2.72272H24.047C25.8767 2.72272 27.4014 4.02962 27.7499 5.75583H30.5053C30.135 2.52124 27.3796 0 24.047 0H19.2169C15.8843 0 13.1289 2.52124 12.7585 5.75583H15.514C15.8625 4.02418 17.3872 2.72272 19.2169 2.72272Z" fill="#A4A4A4"/>
<path d="M6.92674 17.3709C10.8366 19.8976 16.0587 21.2917 21.6349 21.2917C27.211 21.2917 32.4277 19.8976 36.343 17.3709C39.8607 15.1002 41.9028 12.1651 42.1533 9.05576C41.2112 7.8741 39.7627 7.11719 38.1291 7.11719H30.549H27.8263H15.4434H12.7207H5.14063C3.51245 7.11719 2.05852 7.8741 1.11646 9.05576C1.36695 12.1651 3.40898 15.0948 6.92674 17.3709Z" fill="#A4A4A4"/>
<path d="M19.7722 24.9238C19.7722 25.7733 20.4638 26.4648 21.3133 26.4648H21.9504C22.7999 26.4648 23.4915 25.7733 23.4915 24.9238V23.6931H19.7722V24.9238Z" fill="#A4A4A4"/>
<path d="M5.14049 33.4241H27.9841V29.9553C27.9841 29.5361 28.1529 29.1385 28.4524 28.8445L33.6637 23.7203C33.9577 23.4317 34.3498 23.2738 34.7582 23.2738H43.264V13.0472C43.0353 13.5155 42.7739 13.9784 42.4744 14.4358C41.3036 16.2274 39.6319 17.8283 37.5191 19.1951C34.2355 21.3189 30.1242 22.702 25.6698 23.2302V23.6876V24.9183C25.6698 26.9713 24.0034 28.6375 21.9505 28.6375H21.3134C19.2605 28.6375 17.5942 26.9712 17.5942 24.9183V23.6876V23.2302C13.1398 22.7074 9.02848 21.3188 5.74488 19.1951C3.63205 17.8283 1.9603 16.2274 0.789534 14.4358C0.490089 13.9784 0.228708 13.5155 0 13.0472V28.2836C0 31.1206 2.30342 33.4241 5.14049 33.4241Z" fill="#A4A4A4"/>
<path d="M35.9182 24.5153C35.1885 24.5153 34.4751 24.8148 33.9578 25.3321L30.195 29.1222C29.6777 29.645 29.3945 30.331 29.3945 31.0662V33.4241V34.1048V34.7855V47.2391C29.3945 47.3698 29.4054 47.5005 29.4218 47.6257C29.6069 48.9653 30.7614 49.9999 32.1554 49.9999H47.6095C49.1288 49.9999 50.3704 48.7638 50.3704 47.2391V27.2707C50.3704 25.9366 49.4228 24.8256 48.165 24.5697C47.9853 24.5316 47.8001 24.5153 47.615 24.5153H44.6254H43.9447H43.2641H35.9182ZM44.6254 27.238H47.6095C47.6313 27.238 47.6476 27.2544 47.6476 27.2761V47.2445C47.6476 47.25 47.6476 47.25 47.6476 47.2555C47.6422 47.2717 47.6313 47.2827 47.615 47.2827C47.615 47.2827 47.615 47.2827 47.6095 47.2827H32.1554C32.1336 47.2827 32.1172 47.2663 32.1172 47.2445V34.7854V34.1047V33.424V31.6271H34.1157C35.3627 31.6271 36.3756 30.6141 36.3756 29.3672V27.238H43.2641H43.9447H44.6254Z" fill="#A4A4A4"/>
<path d="M40.8408 33.4296H34.9107C34.4097 33.4296 33.9741 33.7018 33.7345 34.1048C33.6147 34.3062 33.5493 34.5349 33.5493 34.7855V34.7909C33.5493 35.5423 34.1592 36.1523 34.9107 36.1523H44.8595C45.611 36.1523 46.2208 35.5423 46.2208 34.7909C46.2208 34.0394 45.611 33.4296 44.8595 33.4296H42.0987H40.8408Z" fill="#A4A4A4"/>
<path d="M44.8595 42.0062H34.9107C34.1592 42.0062 33.5493 42.6161 33.5493 43.3676C33.5493 44.119 34.1592 44.7289 34.9107 44.7289H44.8595C45.611 44.7289 46.2208 44.119 46.2208 43.3676C46.2208 42.6161 45.611 42.0062 44.8595 42.0062Z" fill="#A4A4A4"/>
<path d="M44.8595 37.7206H34.9107C34.1592 37.7206 33.5493 38.3305 33.5493 39.0819C33.5493 39.8335 34.1592 40.4433 34.9107 40.4433H44.8595C45.611 40.4433 46.2208 39.8335 46.2208 39.0819C46.2208 38.3305 45.611 37.7206 44.8595 37.7206Z" fill="#A4A4A4"/>
</svg>
