<svg width="36" height="36" viewBox="0 0 36 36" fill="none" xmlns="http://www.w3.org/2000/svg">
<g clip-path="url(#clip0_754_2)">
<path d="M34.59 23L30.51 18L34.51 13.1C34.7288 12.8319 34.8666 12.5071 34.9074 12.1635C34.9481 11.8199 34.89 11.4718 34.74 11.16C34.588 10.8105 34.336 10.5139 34.0156 10.3075C33.6953 10.101 33.321 9.99404 32.94 10H1.94C1.68917 9.99602 1.44001 10.0415 1.20676 10.1338C0.973502 10.2262 0.760723 10.3636 0.580571 10.5381C0.400419 10.7127 0.256424 10.9211 0.156808 11.1513C0.0571926 11.3816 0.00390885 11.6292 0 11.88L0 24.13C0.0105107 24.6348 0.220501 25.115 0.58405 25.4654C0.947598 25.8158 1.43512 26.008 1.94 26H33.05C33.4183 26.0062 33.7806 25.9068 34.0943 25.7136C34.4079 25.5205 34.6597 25.2416 34.82 24.91C34.9639 24.6019 35.0186 24.2597 34.978 23.9221C34.9373 23.5845 34.8029 23.2651 34.59 23V23ZM2 24V12H32.78L27.94 17.93L32.85 24H2Z" fill="#A4A4A4"/>
<path d="M9.39 19.35L6.13 15H5V21.18H6.13V16.84L9.39 21.18H10.51V15H9.39V19.35Z" fill="#A4A4A4"/>
<path d="M12.1799 21.18H16.8399V20.16H13.3099V18.55H16.4999V17.52H13.3099V16.03H16.8399V15H12.1799V21.18Z" fill="#A4A4A4"/>
<path d="M24.5201 19.43L23.0601 15H21.8401L20.3701 19.43L19.0501 15H17.8201L19.7801 21.18H20.8901L22.4501 16.59L24.0001 21.18H25.1301L27.0801 15H25.8501L24.5201 19.43Z" fill="#A4A4A4"/>
</g>
<defs>
<clipPath id="clip0_754_2">
<rect width="36" height="36" fill="white"/>
</clipPath>
</defs>
</svg>
