<svg width="14" height="15" viewBox="0 0 14 15" fill="none" xmlns="http://www.w3.org/2000/svg">
<path d="M11.5893 5.625H13.0179C13.2073 5.625 13.389 5.70026 13.5229 5.83421C13.6569 5.96816 13.7321 6.14985 13.7321 6.33929V14.9107C13.7321 15.1002 13.6569 15.2818 13.5229 15.4158C13.389 15.5497 13.2073 15.625 13.0179 15.625H1.58929C1.39985 15.625 1.21816 15.5497 1.08421 15.4158C0.950255 15.2818 0.875 15.1002 0.875 14.9107V6.33929C0.875 6.14985 0.950255 5.96816 1.08421 5.83421C1.21816 5.70026 1.39985 5.625 1.58929 5.625H3.01786V4.91071C3.01786 3.77407 3.46939 2.68398 4.27311 1.88026C5.07684 1.07653 6.16693 0.625 7.30357 0.625C8.44021 0.625 9.5303 1.07653 10.334 1.88026C11.1378 2.68398 11.5893 3.77407 11.5893 4.91071V5.625ZM10.1607 5.625V4.91071C10.1607 4.15295 9.85969 3.42623 9.32388 2.89041C8.78806 2.35459 8.06133 2.05357 7.30357 2.05357C6.54581 2.05357 5.81908 2.35459 5.28327 2.89041C4.74745 3.42623 4.44643 4.15295 4.44643 4.91071V5.625H10.1607ZM3.73214 7.76786V9.19643H5.16071V7.76786H3.73214ZM3.73214 9.91071V11.3393H5.16071V9.91071H3.73214ZM3.73214 12.0536V13.4821H5.16071V12.0536H3.73214Z" fill="#A4A4A4"/>
</svg>
