<svg width="15" height="15" viewBox="0 0 15 15" fill="none" xmlns="http://www.w3.org/2000/svg">
<g clip-path="url(#clip0_477_1451)">
<path d="M7.4997 5.34462C6.31137 5.34462 5.3446 6.31138 5.3446 7.49971C5.3446 8.68804 6.31137 9.65481 7.4997 9.65481C8.68803 9.65481 9.65479 8.68804 9.65479 7.49971C9.65479 6.31138 8.68798 5.34462 7.4997 5.34462ZM7.4997 8.64133C6.87021 8.64133 6.35809 8.12921 6.35809 7.49971C6.35809 6.87022 6.87021 6.3581 7.4997 6.3581C8.12919 6.3581 8.64131 6.87022 8.64131 7.49971C8.64131 8.12916 8.12914 8.64133 7.4997 8.64133Z" fill="#A4A4A4"/>
<path d="M13.0853 5.94251C12.991 6.0368 12.9368 6.16751 12.9368 6.30079C12.9368 6.43407 12.991 6.56478 13.0853 6.65907C13.18 6.75382 13.3103 6.8075 13.4435 6.8075C13.5768 6.8075 13.7075 6.75382 13.8018 6.65907C13.8965 6.56478 13.9503 6.43407 13.9503 6.30079C13.9503 6.16751 13.8966 6.03725 13.8018 5.94251C13.7075 5.84826 13.5773 5.79402 13.4435 5.79402C13.3103 5.79402 13.1795 5.84826 13.0853 5.94251Z" fill="#A4A4A4"/>
<path d="M8.66516 13.0232C8.53188 13.0232 8.40117 13.0774 8.30688 13.1717C8.21264 13.266 8.15845 13.3967 8.15845 13.53C8.15845 13.6632 8.21269 13.7939 8.30688 13.8882C8.40163 13.983 8.53188 14.0367 8.66516 14.0367C8.79844 14.0367 8.92914 13.983 9.02343 13.8882C9.11813 13.7939 9.17192 13.6632 9.17192 13.53C9.17192 13.3967 9.11818 13.2664 9.02343 13.1717C8.92914 13.0774 8.79889 13.0232 8.66516 13.0232Z" fill="#A4A4A4"/>
<path d="M10.6603 4.33912C9.93376 3.61261 9.17265 2.95489 8.40255 2.38307C9.02275 2.00469 9.6376 1.69363 10.2319 1.46106C11.7497 0.867219 12.9577 0.864189 13.5464 1.45292C14.1458 2.05226 14.1325 3.28625 13.5102 4.83852C13.406 5.09826 13.5321 5.39331 13.7919 5.49745C14.0517 5.60164 14.3467 5.47558 14.4508 5.21574C15.2429 3.24029 15.1762 1.64944 14.2631 0.73626C13.3636 -0.163282 11.8008 -0.24121 9.86265 0.517221C9.09457 0.817775 8.2976 1.23707 7.49973 1.75499C6.70185 1.23707 5.90488 0.817775 5.13675 0.517221C3.19878 -0.241059 1.63595 -0.163332 0.73631 0.736311C-0.163334 1.6359 -0.241111 3.19872 0.517271 5.13675C0.817825 5.90487 1.23712 6.70184 1.75505 7.49967C1.23707 8.29754 0.817775 9.09451 0.51722 9.86264C-0.241162 11.8007 -0.163384 13.3634 0.73626 14.2631C1.22636 14.7532 1.91302 14.9993 2.75024 14.9993C3.44979 14.9993 4.25453 14.8274 5.13675 14.4822C6.93938 13.7768 8.90104 12.4194 10.6602 10.6603C11.3847 9.93577 12.0401 9.17855 12.616 8.40199C12.9945 9.02239 13.3057 9.63743 13.5383 10.232C14.1322 11.7497 14.1352 12.9578 13.5465 13.5465C12.9472 14.1458 11.7132 14.1325 10.1609 13.5101C9.90109 13.4061 9.60614 13.5322 9.50195 13.7919C9.3978 14.0517 9.52397 14.3467 9.78371 14.4508C10.6979 14.8174 11.5295 15 12.2499 14.9999C13.0862 14.9999 13.7726 14.7536 14.2632 14.2631C15.1628 13.3634 15.2406 11.8006 14.4822 9.86259C13.7767 8.05997 12.4194 6.09831 10.6603 4.33912ZM1.46106 4.7674C0.867169 3.24973 0.864189 2.04166 1.45292 1.45297C2.04156 0.864239 3.24974 0.867219 4.76736 1.46106C5.3617 1.69363 5.9766 2.00469 6.5968 2.38307C5.8267 2.95489 5.06564 3.61266 4.33913 4.33917C3.61262 5.06569 2.95489 5.82674 2.38307 6.59684C2.00469 5.97664 1.69363 5.36175 1.46106 4.7674ZM4.76741 13.5383C3.24969 14.1322 2.04166 14.1352 1.45292 13.5465C0.864189 12.9578 0.867169 11.7496 1.46106 10.232C1.69363 9.63764 2.00469 9.02274 2.38307 8.40254C2.95489 9.17269 3.61262 9.93375 4.33918 10.6603C5.06362 11.3848 5.82089 12.0402 6.59741 12.616C5.97695 12.9945 5.3619 13.3057 4.76741 13.5383ZM9.94356 9.94359C9.15679 10.7304 8.33068 11.4305 7.50114 12.0195C6.65988 11.4232 5.83852 10.7263 5.05585 9.94359C4.26863 9.15638 3.56807 8.32976 2.97888 7.49967C3.56807 6.66962 4.26857 5.84301 5.05579 5.05584C5.84301 4.26862 6.66963 3.56807 7.49973 2.97888C8.32983 3.56807 9.15644 4.26862 9.94366 5.05579C10.7304 5.84255 11.4306 6.66866 12.0196 7.49825C11.4232 8.33951 10.7263 9.16087 9.94356 9.94359Z" fill="#A4A4A4"/>
</g>
<defs>
<clipPath id="clip0_477_1451">
<rect width="15" height="15" fill="white"/>
</clipPath>
</defs>
</svg>
