<svg width="62" height="40" viewBox="0 0 62 40" fill="none" xmlns="http://www.w3.org/2000/svg">
<path d="M22.0525 10.3271C22.133 10.068 22.2992 9.86162 22.5107 9.75793L26.065 8.0168C26.2858 6.62261 27.158 5.50603 28.2803 5.15402L28.472 2.47232C28.5 2.07991 28.7169 1.74496 29.0244 1.61914C29.3318 1.49344 29.6714 1.60076 29.8893 1.89256L30.8015 3.11426L31.3654 0.718417C31.4626 0.305424 31.7679 0.0154917 32.1216 0.000631849C32.4773 -0.0146683 32.7964 0.249176 32.9169 0.653144L37.1296 14.7639C37.1296 14.7639 52.7339 15.6484 52.7404 15.6488C55.9402 15.8823 58.9716 13.8034 60.4613 10.3522C60.6706 9.86767 61.1637 9.68055 61.5627 9.9346C61.9618 10.1886 62.1158 10.7873 61.9066 11.2719C60.5749 14.3572 58.2162 16.5278 55.5117 17.3182C55.7924 17.7154 56.3956 18.7 56.7484 20.248C57.132 21.9311 57.2702 24.6142 55.8599 28.0212L58.1473 31.7936C58.2809 32.0139 58.3335 32.2915 58.2926 32.5606L57.2859 39.189C57.2145 39.6588 56.877 39.9999 56.4835 39.9999H55.458C55.216 39.9999 54.9866 39.8695 54.8315 39.644C54.6764 39.4184 54.6119 39.1208 54.6552 38.8319L55.2927 34.5801L48.5478 28.4322C48.5593 28.444 48.536 28.4213 48.5478 28.4322C47.9029 27.7745 47.4348 27.0502 47.0999 26.3054C43.5845 27.0548 38.7737 28.0688 35.6902 28.6717L34.3317 39.1632C34.2692 39.645 33.9273 40 33.5256 40H32.6818C32.2312 40 31.8659 39.5565 31.8659 39.0093V28.3594C31.1 27.7242 30.8262 26.662 30.6446 25.6217C30.6389 25.589 28.8295 15.4492 28.8295 15.4492C28.4884 15.5183 28.144 15.5545 27.7971 15.5545C25.4078 15.5545 23.2197 13.8559 22.087 11.1217C21.9845 10.8745 21.972 10.5863 22.0525 10.3271Z" fill="#A4A4A4"/>
<path d="M10.5 25.5L8 27L6.09443 28.4292C6.03233 28.4758 5.98193 28.5361 5.94721 28.6056L5 30.5L4.03576 32.9106C4.01214 32.9697 4 33.0327 4 33.0963V37.191C4 37.5627 3.60884 37.8044 3.27639 37.6382L3.10557 37.5528C3.03614 37.5181 2.97575 37.4677 2.92918 37.4056L1.6 35.6333C1.53509 35.5468 1.5 35.4415 1.5 35.3333V34.809C1.5 34.6196 1.393 34.4465 1.22361 34.3618L0.822333 34.1612C0.629839 34.0649 0.397353 34.1026 0.245173 34.2548L0.146446 34.3536C0.0526782 34.4473 0 34.5745 0 34.7071V37.191C0 37.3804 0.107001 37.5535 0.276393 37.6382L0.927427 37.9637C0.975495 37.9877 1.01937 38.0194 1.05737 38.0574L2.85355 39.8536C2.94732 39.9473 3.0745 40 3.20711 40H14.5C14.7761 40 15 39.7761 15 39.5V39.3604C15 39.1452 14.8623 38.9541 14.6581 38.886L13.612 38.5373C13.5383 38.5128 13.4714 38.4714 13.4165 38.4165L12.5574 37.5574C12.5194 37.5194 12.4877 37.4755 12.4637 37.4274L12.1612 36.8223C12.0649 36.6298 12.1026 36.3974 12.2548 36.2452L12.3536 36.1464C12.4473 36.0527 12.5745 36 12.7071 36H13.2929C13.4255 36 13.5527 35.9473 13.6464 35.8536L14.3536 35.1464C14.4473 35.0527 14.5 34.9255 14.5 34.7929V34.0811C14.5 34.0274 14.5087 33.974 14.5257 33.923L14.9942 32.5175C14.998 32.5059 15 32.4938 15 32.4816C15 32.3616 15.1617 32.3234 15.2154 32.4307L15.9472 33.8944C15.9819 33.9639 16 34.0404 16 34.118V34.9189C16 34.9726 15.9913 35.026 15.9743 35.077L15.5257 36.423C15.5087 36.474 15.5 36.5274 15.5 36.5811V37.2929C15.5 37.4255 15.5527 37.5527 15.6464 37.6464L15.9426 37.9426C15.9806 37.9806 16.0123 38.0245 16.0363 38.0726L16.4637 38.9274C16.4877 38.9755 16.5194 39.0194 16.5574 39.0574L16.8964 39.3964C16.9628 39.4628 17 39.5527 17 39.6464C17 39.8417 17.1583 40 17.3536 40H20.5C20.7761 40 21 39.7761 21 39.5V38.7071C21 38.5745 20.9473 38.4473 20.8536 38.3536L20.6464 38.1464C20.5527 38.0527 20.4255 38 20.2929 38H19.8904C19.661 38 19.461 37.8439 19.4053 37.6213L19.0149 36.0597C19.005 36.0201 19 35.9793 19 35.9384V35.0811C19 35.0274 18.9913 34.974 18.9743 34.923L18.5112 33.5337C18.5112 33.5337 18.5112 33.5337 18.5112 33.5337C18.5038 33.5113 18.4947 33.4894 18.4841 33.4682L18.0528 32.6056C18.0181 32.5361 18 32.4596 18 32.382V31.0811C18 31.0274 18.0087 30.974 18.0257 30.923L18.4627 29.612C18.4872 29.5383 18.5286 29.4714 18.5835 29.4165L18.8536 29.1464C18.9473 29.0527 19 28.9255 19 28.7929V23.6514C19 23.5527 19.0292 23.4562 19.084 23.374L19.8516 22.2227C19.9443 22.0836 20.1004 22 20.2676 22H21.691C21.8804 22 22.0535 21.893 22.1382 21.7236L22.4255 21.1491C22.4738 21.0523 22.5523 20.9738 22.6491 20.9255L23.2236 20.6382C23.393 20.5535 23.5 20.3804 23.5 20.191V18.809C23.5 18.6196 23.393 18.4465 23.2236 18.3618L18.6654 16.0827C18.5587 16.0293 18.4364 16.0159 18.3206 16.0449L16.5532 16.4867C16.5179 16.4955 16.4835 16.5082 16.4509 16.5245L14.6491 17.4255C14.5523 17.4738 14.4738 17.5523 14.4255 17.6491L13.5159 19.4682C13.5159 19.4682 13.5159 19.4682 13.5159 19.4682C13.5053 19.4894 13.4962 19.5113 13.4888 19.5337L13.0655 20.8035C13.0236 20.9293 13.0333 21.0666 13.0926 21.1852L13.4472 21.8944C13.4472 21.8944 13.4472 21.8944 13.4472 21.8944C13.4819 21.9639 13.5 22.0404 13.5 22.118V23.2324C13.5 23.3996 13.4164 23.5557 13.2774 23.6484L10.5 25.5Z" fill="#C4C4C4"/>
</svg>
