<svg width="50" height="50" viewBox="0 0 50 50" fill="none" xmlns="http://www.w3.org/2000/svg">
<g clip-path="url(#clip0_753_53)">
<path d="M46.875 0H3.125C1.39922 0 0 1.39873 0 3.12461V46.8746C0 48.6004 1.39922 50 3.125 50H46.875C48.601 50 50 48.6004 50 46.8746V3.12461C50 1.39873 48.601 0 46.875 0ZM10.9375 45.3121C9.21172 45.3121 7.8125 43.9129 7.8125 42.1871C7.8125 40.4611 9.21172 39.0621 10.9375 39.0621C12.6635 39.0621 14.0625 40.4611 14.0625 42.1871C14.0625 43.9129 12.6635 45.3121 10.9375 45.3121ZM14.0625 18.7496V32.8121C14.0625 34.5379 12.6633 35.9371 10.9375 35.9371C9.21172 35.9371 7.8125 34.5379 7.8125 32.8121V18.7496C6.08672 18.7496 4.6875 17.3504 4.6875 15.6246C4.6875 13.8988 6.08672 12.4996 7.8125 12.4996V7.81211C7.8125 6.08633 9.21172 4.68711 10.9375 4.68711C12.6633 4.68711 14.0625 6.08633 14.0625 7.81211V12.4996C15.7883 12.4996 17.1875 13.8988 17.1875 15.6246C17.1875 17.3504 15.7883 18.7496 14.0625 18.7496ZM25 45.3121C23.2742 45.3121 21.875 43.9129 21.875 42.1871C21.875 40.4611 23.2742 39.0621 25 39.0621C26.726 39.0621 28.125 40.4611 28.125 42.1871C28.125 43.9129 26.726 45.3121 25 45.3121ZM28.125 31.2496V32.8121C28.125 34.5379 26.7258 35.9371 25 35.9371C23.2742 35.9371 21.875 34.5379 21.875 32.8121V31.2496C20.1492 31.2496 18.75 29.8504 18.75 28.1246C18.75 26.3988 20.1492 24.9996 21.875 24.9996V7.81211C21.875 6.08633 23.2742 4.68711 25 4.68711C26.7258 4.68711 28.125 6.08633 28.125 7.81211V24.9996C29.8508 24.9996 31.25 26.3988 31.25 28.1246C31.25 29.8504 29.8508 31.2496 28.125 31.2496ZM39.0625 45.3121C37.3367 45.3121 35.9375 43.9129 35.9375 42.1871C35.9375 40.4611 37.3367 39.0621 39.0625 39.0621C40.7885 39.0621 42.1875 40.4611 42.1875 42.1871C42.1875 43.9129 40.7885 45.3121 39.0625 45.3121ZM42.1875 18.7496V32.8121C42.1875 34.5379 40.7883 35.9371 39.0625 35.9371C37.3367 35.9371 35.9375 34.5379 35.9375 32.8121V18.7496C34.2117 18.7496 32.8125 17.3504 32.8125 15.6246C32.8125 13.8988 34.2117 12.4996 35.9375 12.4996V7.81211C35.9375 6.08633 37.3367 4.68711 39.0625 4.68711C40.7883 4.68711 42.1875 6.08633 42.1875 7.81211V12.4996C43.9133 12.4996 45.3125 13.8988 45.3125 15.6246C45.3125 17.3504 43.9133 18.7496 42.1875 18.7496Z" fill="#A4A4A4"/>
</g>
<defs>
<clipPath id="clip0_753_53">
<rect width="50" height="50" fill="white"/>
</clipPath>
</defs>
</svg>
