<svg width="55" height="55" viewBox="0 0 55 55" fill="none" xmlns="http://www.w3.org/2000/svg">
<path d="M15.4593 11.9812C10.6904 11.9812 6.81641 15.8439 6.81641 20.6241C6.81641 25.4043 10.6791 29.267 15.4593 29.267C20.2396 29.267 24.1023 25.4043 24.1023 20.6241C24.1023 15.8439 20.2283 11.9812 15.4593 11.9812ZM15.4593 17.8035C13.9075 17.8035 12.6388 19.0609 12.6388 20.6241C12.6388 21.3377 12.0611 21.9155 11.3474 21.9155C10.6338 21.9155 10.0561 21.3377 10.0561 20.6241C10.0561 17.645 12.4802 15.2322 15.448 15.2322C16.1617 15.2322 16.7394 15.8099 16.7394 16.5235C16.7394 17.2372 16.1617 17.8035 15.4593 17.8035Z" fill="#A4A4A4"/>
<path d="M39.5416 6.09084C34.7727 6.09084 30.8987 9.95354 30.8987 14.7338C30.8987 19.514 34.7614 23.3767 39.5416 23.3767C44.3219 23.3767 48.1846 19.514 48.1846 14.7338C48.1846 9.95354 44.3219 6.09084 39.5416 6.09084ZM39.5416 11.9132C37.9897 11.9132 36.7211 13.1706 36.7211 14.7338C36.7211 15.4474 36.1433 16.0251 35.4297 16.0251C34.7161 16.0251 34.1384 15.4474 34.1384 14.7338C34.1384 11.7546 36.5625 9.34185 39.5303 9.34185C40.2439 9.34185 40.8216 9.91955 40.8216 10.6332C40.833 11.3355 40.2553 11.9132 39.5416 11.9132Z" fill="#A4A4A4"/>
<path d="M54.9925 35.0101V34.8289C54.9925 34.8176 54.9925 34.8062 54.9925 34.8062C54.9133 32.3708 54.4601 30.6943 51.9681 29.1311C48.6718 27.0582 44.9903 25.2684 44.9903 25.2684L42.0565 34.5344L40.346 31.0908C43.3478 26.8996 40.1308 26.6844 39.5644 26.6844C39.5644 26.6844 39.5531 26.6844 39.5417 26.6844C39.5304 26.6844 39.5304 26.6844 39.5191 26.6844C38.9414 26.6844 35.7243 26.8996 38.7375 31.0908L37.027 34.5344L34.0932 25.2684C34.0932 25.2684 30.4117 27.0582 27.1154 29.1311C26.3564 29.6069 25.7901 30.094 25.3596 30.615C26.549 31.2607 27.9083 32.0423 29.2223 32.8692C30.8195 33.8774 31.9183 35.0441 32.5866 36.4487C33.2436 37.842 33.3909 39.2693 33.4249 40.4927C33.4362 40.572 33.4362 40.6513 33.4362 40.7305V40.8778C33.4475 41.3762 33.4475 41.886 33.4362 42.407C33.4362 42.441 33.4362 42.4637 33.4362 42.4976V43.0187H39.5191H54.9812V36.3128C54.9812 36.4261 54.9812 36.494 54.9812 36.494C55.0039 35.973 55.0039 35.4746 54.9925 35.0101ZM54.9699 34.7609C54.9699 34.7156 54.9699 34.7156 54.9699 34.7609V34.7609Z" fill="#A4A4A4"/>
<path d="M30.8988 40.9005V40.7192C30.8988 40.7079 30.8988 40.6966 30.8988 40.6966C30.8308 38.2611 30.3664 36.5847 27.8743 35.0215C24.578 32.9485 20.8965 31.1588 20.8965 31.1588L17.9627 40.4247L16.2522 36.9811C19.254 32.7899 16.037 32.5747 15.4706 32.5747C15.4706 32.5747 15.4593 32.5747 15.448 32.5747C15.4366 32.5747 15.4366 32.5747 15.4253 32.5747C14.8476 32.5747 11.6306 32.7899 14.6437 36.9811L12.9333 40.4247L9.99941 31.1588C9.99941 31.1588 6.31795 32.9485 3.02163 35.0215C0.540891 36.5847 0.0877887 38.2611 0.00849568 40.6966C0.00849568 40.7079 0.00849568 40.7079 0.00849568 40.7192V40.9005C-0.00283189 41.3649 -0.00283189 41.8633 0.00849568 42.3844C0.00849568 42.3844 0.00849568 42.3164 0.00849568 42.2031V48.9091H15.4366H30.8988V42.2031C30.8988 42.3164 30.8988 42.3844 30.8988 42.3844C30.9101 41.8633 30.9101 41.3649 30.8988 40.9005Z" fill="#A4A4A4"/>
</svg>
