<svg width="15" height="15" viewBox="0 0 15 15" fill="none" xmlns="http://www.w3.org/2000/svg">
<path d="M11.638 5.84146C11.6871 5.71347 11.7335 5.54031 11.7464 5.33955C11.7645 4.9857 11.6742 4.48881 11.1605 4.03709C11.1941 3.80622 11.1941 3.43982 10.985 3.07594C10.7088 2.5941 10.1694 2.26786 9.3796 2.10474C8.85048 1.99432 8.15617 1.97174 7.31474 2.03447C5.61898 2.00185 3.9671 2.20512 3.87418 2.21767L3.26763 2.28794C3.09212 2.16748 2.87789 2.09721 2.64818 2.09721H1.07372C0.480078 2.09721 0 2.5665 0 3.14119V7.2192C0 7.7964 0.48266 8.26317 1.07372 8.26317H2.64818C2.83401 8.26317 3.00694 8.218 3.15923 8.1377C3.26763 8.36857 3.42766 8.63208 3.66512 8.8755C3.67802 8.88805 3.69093 8.9006 3.70641 8.91064C4.51687 9.51544 5.47186 11.6937 5.80998 12.5821C5.77643 12.8582 5.74287 13.4554 6.02679 13.7792C6.15326 13.9222 6.32878 14 6.52494 14C6.72368 14 7.41024 13.9548 7.8387 13.3801C8.24393 12.8331 8.26716 12.0149 7.90581 10.9459C7.60124 10.0475 7.57285 9.64844 7.58318 9.48783C7.72255 9.51795 7.85935 9.54555 7.99098 9.56814H7.99357C8.0168 9.57316 8.58463 9.69612 9.26345 9.72624C10.2288 9.77141 10.9282 9.60829 11.336 9.24441C11.8987 8.74501 11.8316 8.10758 11.6638 7.70103C11.8084 7.51784 11.9839 7.2192 11.9994 6.83775C12.0097 6.49143 11.891 6.15766 11.638 5.84146ZM2.64818 7.5881H1.07372C0.864657 7.5881 0.696888 7.42247 0.696888 7.22171V3.1437C0.696888 2.94042 0.867239 2.7773 1.07372 2.7773H2.64818C2.85724 2.7773 3.02501 2.94293 3.02501 3.1437V7.22171C3.02501 7.42498 2.85724 7.5881 2.64818 7.5881ZM10.9515 7.83153C10.9515 7.83404 11.0418 7.97207 11.0728 8.16028C11.1115 8.39367 11.0444 8.5869 10.8637 8.74752C10.3707 9.18418 8.95114 9.0838 8.15875 8.91315C8.14843 8.91064 8.1381 8.90813 8.1252 8.90562C7.98324 8.88052 7.83096 8.85041 7.67609 8.81778C7.51091 8.76006 7.28377 8.76759 7.11342 8.91566C6.77014 9.21178 6.80886 9.88434 7.23989 11.1617C7.52381 11.9999 7.53414 12.6323 7.27087 12.9861C7.04889 13.2848 6.68238 13.3224 6.54301 13.3249C6.48106 13.2245 6.46299 12.8807 6.50945 12.5972C6.5172 12.542 6.51203 12.4842 6.49397 12.429C6.44492 12.301 5.31184 9.28456 4.15294 8.39116C3.85095 8.07245 3.71932 7.69852 3.67286 7.53038C3.70383 7.43251 3.7219 7.32711 3.7219 7.2192V3.1437C3.7219 3.06841 3.71416 2.99312 3.69867 2.92285L3.95936 2.89274H3.96194C3.97742 2.89023 5.6577 2.67943 7.31733 2.71456C7.32765 2.71456 7.34055 2.71456 7.35346 2.71456C8.13552 2.65433 8.76788 2.6719 9.23506 2.76977C9.81322 2.89023 10.1952 3.10103 10.3707 3.39967C10.554 3.70834 10.4533 4.02706 10.4456 4.05717C10.3914 4.19771 10.4404 4.35079 10.5643 4.44113C11.3283 4.99825 10.9773 5.64822 10.9308 5.72853C10.8456 5.85903 10.8663 6.02466 10.9773 6.13759C11.1993 6.36344 11.3077 6.5893 11.2999 6.81014C11.2896 7.1389 11.0289 7.38483 11.0108 7.39989C10.8818 7.5078 10.8585 7.691 10.9515 7.83153Z" fill="#2A2F35"/>
<path d="M10.9515 7.83153C10.9515 7.83404 11.0418 7.97207 11.0728 8.16028C11.1115 8.39367 11.0444 8.5869 10.8637 8.74752C10.3707 9.18418 8.95114 9.0838 8.15875 8.91315C8.14843 8.91064 8.1381 8.90813 8.1252 8.90562C7.98324 8.88052 7.83096 8.85041 7.67609 8.81778C7.51091 8.76006 7.28377 8.76759 7.11342 8.91566C6.77014 9.21178 6.80886 9.88434 7.23989 11.1617C7.52381 11.9999 7.53414 12.6323 7.27087 12.9861C7.04889 13.2848 6.68238 13.3224 6.54301 13.3249C6.48106 13.2245 6.46299 12.8807 6.50945 12.5972C6.5172 12.542 6.51203 12.4842 6.49397 12.429C6.44492 12.301 5.31184 9.28456 4.15294 8.39116C3.85095 8.07245 3.71932 7.69852 3.67286 7.53038C3.70383 7.43251 3.7219 7.32711 3.7219 7.2192V3.1437C3.7219 3.06841 3.71416 2.99312 3.69867 2.92285L3.95936 2.89274H3.96194C3.97742 2.89023 5.6577 2.67943 7.31733 2.71456H7.35346C8.13552 2.65433 8.76788 2.6719 9.23506 2.76977C9.81322 2.89023 10.1952 3.10103 10.3707 3.39967C10.554 3.70834 10.4533 4.02706 10.4456 4.05717C10.3914 4.19771 10.4404 4.35079 10.5643 4.44113C11.3283 4.99825 10.9773 5.64822 10.9308 5.72853C10.8456 5.85903 10.8663 6.02466 10.9773 6.13759C11.1993 6.36344 11.3077 6.5893 11.2999 6.81014C11.2896 7.1389 11.0289 7.38483 11.0108 7.39989C10.8818 7.5078 10.8585 7.691 10.9515 7.83153Z" fill="#383C42"/>
<path d="M2.64818 7.5881H1.07372C0.864657 7.5881 0.696888 7.42247 0.696888 7.22171V3.1437C0.696888 2.94042 0.867239 2.7773 1.07372 2.7773H2.64818C2.85724 2.7773 3.02501 2.94293 3.02501 3.1437V7.22171C3.02501 7.42498 2.85724 7.5881 2.64818 7.5881Z" fill="#383C42"/>
</svg>
