<svg width="55" height="55" viewBox="0 0 55 55" fill="none" xmlns="http://www.w3.org/2000/svg">
<path d="M27.5 0C12.3363 0 0 12.3363 0 27.5C0 42.6637 12.3363 55 27.5 55C42.6637 55 55 42.6637 55 27.5C55 12.3363 42.6637 0 27.5 0ZM27.5 51.5625C14.2321 51.5625 3.4375 40.7679 3.4375 27.5C3.4375 14.2321 14.2313 3.4375 27.5 3.4375C40.7679 3.4375 51.5625 14.2321 51.5625 27.5C51.5625 40.7679 40.7679 51.5625 27.5 51.5625Z" fill="#A4A4A4"/>
<path d="M30.1631 13.6984C29.5401 13.0651 28.7787 12.748 27.8763 12.748C26.986 12.748 26.2272 13.0651 25.5981 13.6984C24.9699 14.3318 24.6545 15.0923 24.6545 15.9792C24.6545 16.8541 24.9717 17.6077 25.6067 18.2411C26.2418 18.8745 26.9998 19.1916 27.8763 19.1916C28.7649 19.1916 29.5246 18.8788 30.1537 18.2505C30.7827 17.6241 31.0973 16.867 31.0973 15.9792C31.0973 15.0915 30.7862 14.3318 30.1631 13.6984Z" fill="#A4A4A4"/>
<path d="M30.7543 35.4724V21.2695H22.0618V25.52H24.8642V35.4724H22.0618V39.7229H33.4992V35.4724H30.7543Z" fill="#A4A4A4"/>
</svg>
