<svg width="50" height="50" viewBox="0 0 50 50" fill="none" xmlns="http://www.w3.org/2000/svg">
<g clip-path="url(#clip0_731_5)">
<path d="M49.2548 0.572298C49.2486 0.568105 49.2465 0.561863 49.2423 0.557766C49.2299 0.547331 49.2174 0.545282 49.2049 0.534847C49.0946 0.43917 48.9635 0.37675 48.8346 0.308089C48.7929 0.287315 48.7617 0.251912 48.718 0.233186C48.7118 0.231138 48.7076 0.231138 48.7035 0.228992C48.6578 0.210266 48.6203 0.177009 48.5745 0.160331C48.4017 0.0958636 48.2187 0.0749921 48.0335 0.058412C47.9773 0.0542182 47.9232 0.0292505 47.867 0.0292505C47.6256 0.0272023 47.3822 0.066702 47.145 0.152041L1.37085 16.7971C0.644733 17.0613 0.124507 17.7064 0.0183945 18.472C-0.0835245 19.2377 0.243104 19.9971 0.873539 20.4465L14.7119 30.3317L16.6656 44.016C16.7863 44.8483 17.3959 45.5266 18.2116 45.7368C18.3822 45.7804 18.5569 45.8012 18.7276 45.8012C19.3705 45.8012 19.9927 45.5016 20.39 44.969L25.3004 38.4254L38.1775 49.4694C38.5624 49.7982 39.043 49.9708 39.534 49.9708C39.767 49.9708 40.0001 49.9313 40.2289 49.8522C40.928 49.6026 41.4461 48.9971 41.5792 48.2647L49.9663 2.53012C50.1037 1.78109 49.8124 1.04454 49.2548 0.572298ZM23.4195 33.9791L23.2697 34.1955L20.0759 38.4546L18.867 29.9863L36.9207 14.3378L23.4195 33.9791Z" fill="#A4A4A4"/>
</g>
<defs>
<clipPath id="clip0_731_5">
<rect width="50" height="50" fill="white"/>
</clipPath>
</defs>
</svg>
