<svg width="12" height="12" viewBox="0 0 12 12" fill="none" xmlns="http://www.w3.org/2000/svg">
<g opacity="0.12" clip-path="url(#clip0_519_287)">
<path d="M11.638 6.55857C11.6871 6.68655 11.7335 6.85971 11.7464 7.06047C11.7645 7.41432 11.6742 7.91121 11.1605 8.36293C11.1941 8.59381 11.1941 8.9602 10.985 9.32409C10.7088 9.80592 10.1694 10.1322 9.3796 10.2953C8.85048 10.4057 8.15617 10.4283 7.31474 10.3655C5.61898 10.3982 3.9671 10.1949 3.87418 10.1824L3.26763 10.1121C3.09212 10.2325 2.87789 10.3028 2.64818 10.3028H1.07372C0.480078 10.3028 0 9.83353 0 9.25884V5.18082C0 4.60363 0.482659 4.13685 1.07372 4.13685H2.64818C2.83401 4.13685 3.00694 4.18202 3.15923 4.26233C3.26763 4.03145 3.42766 3.76795 3.66512 3.52452C3.67802 3.51197 3.69093 3.49943 3.70641 3.48939C4.51687 2.88459 5.47186 0.706298 5.80998 -0.182082C5.77643 -0.458132 5.74287 -1.0554 6.02679 -1.37914C6.15326 -1.52218 6.32878 -1.59998 6.52494 -1.59998C6.72368 -1.59998 7.41024 -1.5548 7.8387 -0.980117C8.24393 -0.433036 8.26716 0.385077 7.90581 1.45414C7.60124 2.35256 7.57285 2.75158 7.58318 2.91219C7.72255 2.88208 7.85935 2.85447 7.99098 2.83189H7.99357C8.0168 2.82687 8.58463 2.7039 9.26345 2.67379C10.2288 2.62861 10.9282 2.79173 11.336 3.15562C11.8987 3.65502 11.8316 4.29244 11.6638 4.69899C11.8084 4.88219 11.9839 5.18082 11.9994 5.56227C12.0097 5.90859 11.891 6.24236 11.638 6.55857ZM2.64818 4.81192H1.07372C0.864657 4.81192 0.696888 4.97755 0.696888 5.17831V9.25633C0.696888 9.4596 0.867239 9.62272 1.07372 9.62272H2.64818C2.85724 9.62272 3.02501 9.45709 3.02501 9.25633V5.17831C3.02501 4.97504 2.85724 4.81192 2.64818 4.81192ZM10.9515 4.56849C10.9515 4.56598 11.0418 4.42796 11.0728 4.23974C11.1115 4.00635 11.0444 3.81312 10.8637 3.65251C10.3707 3.21585 8.95114 3.31623 8.15875 3.48688C8.14843 3.48939 8.1381 3.4919 8.1252 3.49441C7.98324 3.5195 7.83096 3.54962 7.67609 3.58224C7.51091 3.63996 7.28377 3.63243 7.11342 3.48437C6.77014 3.18824 6.80886 2.51568 7.23989 1.23832C7.52381 0.400134 7.53414 -0.232271 7.27087 -0.586118C7.04889 -0.884754 6.68238 -0.922398 6.54301 -0.924907C6.48106 -0.824525 6.46299 -0.480717 6.50945 -0.197138C6.5172 -0.141928 6.51203 -0.0842088 6.49397 -0.0289987C6.44492 0.0989882 5.31184 3.11547 4.15294 4.00886C3.85095 4.32758 3.71932 4.7015 3.67286 4.86964C3.70383 4.96751 3.7219 5.07291 3.7219 5.18082V9.25633C3.7219 9.33162 3.71416 9.4069 3.69867 9.47717L3.95936 9.50728H3.96194C3.97742 9.50979 5.6577 9.7206 7.31733 9.68546C7.32765 9.68546 7.34056 9.68546 7.35346 9.68546C8.13552 9.74569 8.76788 9.72812 9.23506 9.63025C9.81322 9.50979 10.1952 9.29899 10.3707 9.00036C10.554 8.69168 10.4533 8.37297 10.4456 8.34285C10.3914 8.20232 10.4404 8.04924 10.5643 7.95889C11.3283 7.40177 10.9773 6.7518 10.9308 6.6715C10.8456 6.541 10.8663 6.37537 10.9773 6.26244C11.1993 6.03658 11.3077 5.81072 11.2999 5.58988C11.2896 5.26113 11.0289 5.01519 11.0108 5.00014C10.8818 4.89223 10.8585 4.70903 10.9515 4.56849Z" fill="#1E2126"/>
<path d="M10.9515 4.56849C10.9515 4.56598 11.0418 4.42796 11.0728 4.23974C11.1115 4.00635 11.0444 3.81312 10.8637 3.65251C10.3707 3.21585 8.95114 3.31623 8.15875 3.48688C8.14843 3.48939 8.1381 3.4919 8.1252 3.49441C7.98324 3.5195 7.83096 3.54962 7.67609 3.58224C7.51091 3.63996 7.28377 3.63243 7.11342 3.48437C6.77014 3.18824 6.80886 2.51568 7.23989 1.23832C7.52381 0.400134 7.53414 -0.232271 7.27087 -0.586118C7.04889 -0.884754 6.68238 -0.922398 6.54301 -0.924907C6.48106 -0.824525 6.46299 -0.480717 6.50945 -0.197138C6.5172 -0.141928 6.51203 -0.0842088 6.49397 -0.0289987C6.44492 0.0989882 5.31184 3.11547 4.15294 4.00886C3.85095 4.32758 3.71932 4.7015 3.67286 4.86964C3.70383 4.96751 3.7219 5.07291 3.7219 5.18082V9.25633C3.7219 9.33162 3.71416 9.4069 3.69867 9.47717L3.95936 9.50728H3.96194C3.97742 9.50979 5.6577 9.7206 7.31733 9.68546H7.35346C8.13552 9.74569 8.76788 9.72812 9.23506 9.63025C9.81322 9.50979 10.1952 9.29899 10.3707 9.00036C10.554 8.69168 10.4533 8.37297 10.4456 8.34285C10.3914 8.20232 10.4404 8.04924 10.5643 7.95889C11.3283 7.40177 10.9773 6.7518 10.9308 6.6715C10.8456 6.541 10.8663 6.37537 10.9773 6.26244C11.1993 6.03658 11.3077 5.81072 11.2999 5.58988C11.2896 5.26113 11.0289 5.01519 11.0108 5.00014C10.8818 4.89223 10.8585 4.70903 10.9515 4.56849Z" fill="#A4A4A4"/>
<path d="M2.64818 4.81192H1.07372C0.864657 4.81192 0.696888 4.97755 0.696888 5.17831V9.25633C0.696888 9.4596 0.867239 9.62272 1.07372 9.62272H2.64818C2.85724 9.62272 3.02501 9.45709 3.02501 9.25633V5.17831C3.02501 4.97504 2.85724 4.81192 2.64818 4.81192Z" fill="#A4A4A4"/>
</g>
<defs>
<clipPath id="clip0_519_287">
<rect width="12" height="12" fill="white" transform="matrix(1 0 0 -1 0 12)"/>
</clipPath>
</defs>
</svg>
