<svg width="50" height="50" viewBox="0 0 50 50" fill="none" xmlns="http://www.w3.org/2000/svg">
<g clip-path="url(#clip0_419_35)">
<path d="M47.5242 17.9026L25.7889 0.27957C25.329 -0.0931901 24.6709 -0.0931901 24.211 0.27957L2.47583 17.9026C2.06367 18.2367 1.9068 18.7941 2.084 19.2943C2.26133 19.7944 2.73417 20.1284 3.26477 20.1284H6.96551V43.8917H4.45613C3.7642 43.8917 3.20339 44.4525 3.20339 45.1445V48.7475C3.20339 49.4394 3.7642 50.0002 4.45613 50.0002H45.5438C46.2358 50.0002 46.7966 49.4394 46.7966 48.7475V45.1445C46.7966 44.4525 46.2358 43.8917 45.5438 43.8917H43.113V20.1284H46.7352C47.2657 20.1284 47.7386 19.7944 47.916 19.2943C48.0933 18.7941 47.9363 18.2367 47.5242 17.9026ZM25.0391 24.79C28.7989 24.79 31.8576 28.0609 31.8576 32.0814V43.8917H18.2206V32.0811C18.2207 28.0608 21.2795 24.79 25.0391 24.79ZM5.70887 46.3972H15.1131V47.4947H5.70887V46.3972ZM17.6186 47.4946V46.3971H32.3814V47.4946H17.6186ZM44.2911 47.4946H34.8869V46.3971H44.2911V47.4946Z" fill="#A4A4A4"/>
</g>
<defs>
<clipPath id="clip0_419_35">
<rect width="50" height="50" fill="white"/>
</clipPath>
</defs>
</svg>
