<svg width="59" height="59" viewBox="0 0 59 59" fill="none" xmlns="http://www.w3.org/2000/svg">
<path fill-rule="evenodd" clip-rule="evenodd" d="M22.2464 30.3845L23.4745 34.7922L24.7027 37.3633L32.0714 42.3832C32.5217 42.7097 33.4223 45.0523 33.4223 51.8107C33.4223 58.5692 34.3229 58.463 34.7732 57.5652L57.8618 47.6479C57.3706 46.546 56.4372 44.1463 56.6337 43.3627C50.7387 45.9338 42.1419 45.8114 40.791 44.2197C39.4401 42.6281 43.0016 37.3633 42.1419 37.3633C41.4542 37.3633 47.9959 31.8129 51.3528 29.0377C49.7972 27.4869 46.3666 24.3852 45.0894 24.3852C42.8788 23.7322 38.6541 22.818 39.4401 24.3852C38.7851 25.0382 36.9347 26.3441 34.7732 26.3441C32.6117 26.3441 28.1414 25.0382 26.1764 24.3852C26.8314 25.0382 27.9449 26.3441 27.1589 26.3441C26.1764 26.3441 23.4745 27.6909 23.4745 29.0377C23.4745 30.1152 22.6558 30.3845 22.2464 30.3845ZM40.791 26.3441C40.791 25.2667 38.5804 26.7931 37.4751 27.6909L40.791 29.0377V26.3441Z" fill="#C4C4C4"/>
<path d="M56.6337 43.3627C56.8793 42.3832 59.5812 33.8127 56.6337 33.0781C53.6862 32.3435 51.23 25.8544 51.3528 29.0377C47.9959 31.8129 41.4542 37.3633 42.1419 37.3633C43.0016 37.3633 39.4401 42.6281 40.791 44.2197C42.1419 45.8114 50.7387 45.9338 56.6337 43.3627Z" fill="#545454"/>
<path d="M26.1764 24.3852H23.4745L22.2464 30.3845C22.6558 30.3845 23.4745 30.1152 23.4745 29.0377C23.4745 27.6909 26.1764 26.3441 27.1589 26.3441C27.9449 26.3441 26.8314 25.0382 26.1764 24.3852Z" fill="#545454"/>
<path d="M37.4751 27.6909C38.5804 26.7931 40.791 25.2667 40.791 26.3441V29.0377L37.4751 27.6909Z" fill="#545454"/>
<path d="M10.3337 16.5493C9.05645 19.3898 3.57905 18.8756 1 18.2634V26.3441C1 25.6585 4.8481 26.0585 6.77215 26.3441C7.95114 27.9113 12.3806 26.5482 14.7549 25.2422C16.3515 24.3852 19.6919 22.1813 20.2814 20.2224C20.4452 19.7326 21.1657 18.5328 22.7377 17.6512C24.7027 16.5493 25.1939 15.8328 26.1764 15.2025C30.8526 12.4831 29.3464 9.97767 26.8073 10.2327C26.1611 10.5117 25.4609 10.7816 24.7027 11.0397C25.4136 10.5532 26.1455 10.2992 26.8073 10.2327C34.7428 6.80684 34.5201 2.01895 33.4223 1C32.931 2.86102 22.492 7.24421 17.334 9.20318L10.3337 16.5493Z" fill="#C4C4C4"/>
<path d="M1 18.2634L1.02309 18.1661L0.9 18.1369V18.2634H1ZM10.3337 16.5493L10.2613 16.4803L10.2495 16.4927L10.2425 16.5083L10.3337 16.5493ZM17.334 9.20318L17.2985 9.10969L17.2772 9.11775L17.2616 9.13419L17.334 9.20318ZM33.4223 1L33.4903 0.926706L33.3681 0.813307L33.3256 0.974478L33.4223 1ZM24.7027 11.0397L24.6462 10.9572L24.6462 10.9572L24.7027 11.0397ZM26.1764 15.2025L26.1261 15.116L26.1224 15.1183L26.1764 15.2025ZM14.7549 25.2422L14.7076 25.1541L14.7067 25.1546L14.7549 25.2422ZM6.77215 26.3441L6.85206 26.284L6.82741 26.2513L6.78684 26.2452L6.77215 26.3441ZM26.1764 24.3852L26.2079 24.2903L26.1926 24.2852H26.1764V24.3852ZM23.4745 24.3852V24.2852H23.3929L23.3766 24.3651L23.4745 24.3852ZM22.2464 30.3845L22.1485 30.3645L22.1436 30.3881L22.1501 30.4114L22.2464 30.3845ZM23.4745 34.7922L23.3782 34.819L23.3805 34.8274L23.3843 34.8353L23.4745 34.7922ZM24.7027 37.3633L24.6124 37.4064L24.6241 37.4308L24.6464 37.446L24.7027 37.3633ZM32.0714 42.3832L32.1301 42.3022L32.1277 42.3005L32.0714 42.3832ZM34.7732 57.5652L34.7338 57.4733L34.7002 57.4877L34.6838 57.5204L34.7732 57.5652ZM57.8618 47.6479L57.9013 47.7398L57.9944 47.6998L57.9532 47.6072L57.8618 47.6479ZM51.3528 29.0377L51.4165 29.1148L51.4546 29.0833L51.4527 29.0339L51.3528 29.0377ZM45.0894 24.3852L45.0611 24.4811L45.0749 24.4852H45.0894V24.3852ZM39.4401 24.3852L39.5107 24.456L39.5619 24.405L39.5294 24.3403L39.4401 24.3852ZM37.4751 27.6909L37.412 27.6133L37.2808 27.7199L37.4374 27.7836L37.4751 27.6909ZM40.791 29.0377L40.7534 29.1304L40.891 29.1863V29.0377H40.791ZM20.2814 20.2224L20.1866 20.1906L20.1857 20.1936L20.2814 20.2224ZM22.7377 17.6512L22.7866 17.7384L22.7377 17.6512ZM0.976905 18.3607C2.27325 18.6684 4.29829 18.9519 6.1631 18.8008C8.01924 18.6504 9.76175 18.0651 10.4249 16.5903L10.2425 16.5083C9.62838 17.874 7.99357 18.4518 6.14695 18.6014C4.30898 18.7503 2.30579 18.4706 1.02309 18.1661L0.976905 18.3607ZM10.4061 16.6183L17.4064 9.27216L17.2616 9.13419L10.2613 16.4803L10.4061 16.6183ZM17.3695 9.29666C19.95 8.31659 23.852 6.73001 27.1711 5.1552C28.8303 4.36796 30.3464 3.58247 31.4795 2.87625C32.0458 2.52327 32.5192 2.18843 32.8676 1.88148C33.2119 1.57816 33.4494 1.28918 33.519 1.02552L33.3256 0.974478C33.2724 1.17608 33.0762 1.43116 32.7354 1.73142C32.3987 2.02804 31.9357 2.35626 31.3737 2.70652C30.2502 3.40678 28.742 4.18846 27.0853 4.97451C23.7726 6.54629 19.876 8.13079 17.2985 9.10969L17.3695 9.29666ZM24.6462 10.9572C20.963 13.4779 18.8024 14.6244 17.4851 15.0862C16.8271 15.3169 16.3862 15.3743 16.0749 15.3509C15.7677 15.3279 15.5797 15.2257 15.4255 15.12L15.3124 15.285C15.4857 15.4038 15.7072 15.5239 16.06 15.5504C16.4088 15.5765 16.8788 15.5107 17.5513 15.275C18.8948 14.8039 21.0736 13.6446 24.7591 11.1222L24.6462 10.9572ZM14.7067 25.1546C13.5275 25.8032 11.8362 26.4666 10.2958 26.7725C9.52539 26.9255 8.79835 26.988 8.19455 26.9174C7.58952 26.8468 7.12345 26.6448 6.85206 26.284L6.69224 26.4043C7.01034 26.8271 7.54007 27.0424 8.17135 27.1161C8.80385 27.19 9.55362 27.1238 10.3347 26.9687C11.8974 26.6584 13.608 25.9872 14.8031 25.3298L14.7067 25.1546ZM6.78684 26.2452C5.82295 26.1021 4.3761 25.9302 3.16871 25.88C2.56596 25.8549 2.01753 25.8599 1.61753 25.9157C1.41858 25.9434 1.24808 25.9847 1.12463 26.046C1.00275 26.1065 0.9 26.2016 0.9 26.3441H1.1C1.1 26.3153 1.1175 26.2729 1.21359 26.2251C1.30809 26.1782 1.45326 26.1405 1.64513 26.1138C2.02677 26.0606 2.56062 26.0549 3.1604 26.0798C4.35807 26.1296 5.7973 26.3005 6.75746 26.4431L6.78684 26.2452ZM0.9 26.3441C0.9 26.3455 0.9 26.3468 0.9 26.3481C0.9 26.3494 0.9 26.3506 0.9 26.3519C0.9 26.3531 0.9 26.3543 0.9 26.3555C0.9 26.3567 0.9 26.3579 0.9 26.359C0.9 26.3602 0.9 26.3613 0.9 26.3624C0.9 26.3635 0.9 26.3646 0.9 26.3656C0.9 26.3666 0.9 26.3677 0.9 26.3687C0.9 26.3697 0.9 26.3706 0.9 26.3716C0.9 26.3725 0.9 26.3734 0.9 26.3743C0.9 26.3753 0.9 26.3761 0.9 26.377C0.9 26.3778 0.9 26.3787 0.9 26.3795C0.9 26.3803 0.9 26.381 0.9 26.3818C0.9 26.3826 0.9 26.3833 0.9 26.384C0.9 26.3847 0.9 26.3854 0.9 26.3861C0.9 26.3867 0.9 26.3874 0.9 26.388C0.9 26.3886 0.9 26.3892 0.9 26.3897C0.9 26.3903 0.9 26.3909 0.9 26.3914C0.9 26.3919 0.9 26.3924 0.9 26.3929C0.9 26.3933 0.9 26.3938 0.9 26.3942C0.9 26.3946 0.9 26.395 0.9 26.3954C0.9 26.3958 0.9 26.3961 0.9 26.3965C0.9 26.3968 0.9 26.3971 0.9 26.3974C0.9 26.3977 0.9 26.398 0.9 26.3982C0.9 26.3984 0.9 26.3987 0.9 26.3988C0.9 26.399 0.9 26.3992 0.9 26.3994C0.9 26.3995 0.9 26.3996 0.9 26.3997C0.9 26.3998 0.9 26.3999 0.9 26.4C0.9 26.4 0.9 26.4001 0.9 26.4001C1 26.4001 1.1 26.4001 1.1 26.4C1.1 26.4 1.1 26.3999 1.1 26.3999C1.1 26.3998 1.1 26.3997 1.1 26.3996C1.1 26.3994 1.1 26.3993 1.1 26.3991C1.1 26.3989 1.1 26.3988 1.1 26.3985C1.1 26.3983 1.1 26.3981 1.1 26.3978C1.1 26.3976 1.1 26.3973 1.1 26.397C1.1 26.3967 1.1 26.3963 1.1 26.396C1.1 26.3956 1.1 26.3953 1.1 26.3949C1.1 26.3945 1.1 26.3941 1.1 26.3936C1.1 26.3932 1.1 26.3927 1.1 26.3923C1.1 26.3918 1.1 26.3913 1.1 26.3907C1.1 26.3902 1.1 26.3897 1.1 26.3891C1.1 26.3885 1.1 26.3879 1.1 26.3873C1.1 26.3867 1.1 26.3861 1.1 26.3854C1.1 26.3848 1.1 26.3841 1.1 26.3834C1.1 26.3827 1.1 26.382 1.1 26.3812C1.1 26.3805 1.1 26.3797 1.1 26.3789C1.1 26.3781 1.1 26.3773 1.1 26.3765C1.1 26.3757 1.1 26.3748 1.1 26.374C1.1 26.3731 1.1 26.3722 1.1 26.3713C1.1 26.3704 1.1 26.3694 1.1 26.3685C1.1 26.3675 1.1 26.3665 1.1 26.3655C1.1 26.3645 1.1 26.3635 1.1 26.3625C1.1 26.3614 1.1 26.3604 1.1 26.3593C1.1 26.3582 1.1 26.3571 1.1 26.356C1.1 26.3548 1.1 26.3537 1.1 26.3525C1.1 26.3514 1.1 26.3502 1.1 26.349C1.1 26.3478 1.1 26.3465 1.1 26.3453C1.1 26.344 1.1 26.3427 1.1 26.3415C1.1 26.3402 1.1 26.3389 1.1 26.3375C1.1 26.3362 1.1 26.3348 1.1 26.3335C1.1 26.3321 1.1 26.3307 1.1 26.3293C1.1 26.3279 1.1 26.3264 1.1 26.325C1.1 26.3235 1.1 26.322 1.1 26.3205C1.1 26.319 1.1 26.3175 1.1 26.316C1.1 26.3144 1.1 26.3129 1.1 26.3113C1.1 26.3097 1.1 26.3081 1.1 26.3065C1.1 26.3049 1.1 26.3032 1.1 26.3016C1.1 26.2999 1.1 26.2982 1.1 26.2965C1.1 26.2948 1.1 26.2931 1.1 26.2914C1.1 26.2897 1.1 26.2879 1.1 26.2861C1.1 26.2843 1.1 26.2825 1.1 26.2807C1.1 26.2789 1.1 26.2771 1.1 26.2752C1.1 26.2733 1.1 26.2715 1.1 26.2696C1.1 26.2677 1.1 26.2658 1.1 26.2638C1.1 26.2619 1.1 26.2599 1.1 26.2579C1.1 26.256 1.1 26.254 1.1 26.252C1.1 26.2499 1.1 26.2479 1.1 26.2459C1.1 26.2438 1.1 26.2417 1.1 26.2396C1.1 26.2376 1.1 26.2354 1.1 26.2333C1.1 26.2312 1.1 26.229 1.1 26.2269C1.1 26.2247 1.1 26.2225 1.1 26.2203C1.1 26.2181 1.1 26.2159 1.1 26.2136C1.1 26.2114 1.1 26.2091 1.1 26.2068C1.1 26.2045 1.1 26.2022 1.1 26.1999C1.1 26.1976 1.1 26.1953 1.1 26.1929C1.1 26.1905 1.1 26.1882 1.1 26.1858C1.1 26.1834 1.1 26.181 1.1 26.1785C1.1 26.1761 1.1 26.1736 1.1 26.1712C1.1 26.1687 1.1 26.1662 1.1 26.1637C1.1 26.1612 1.1 26.1587 1.1 26.1561C1.1 26.1536 1.1 26.151 1.1 26.1484C1.1 26.1458 1.1 26.1432 1.1 26.1406C1.1 26.138 1.1 26.1354 1.1 26.1327C1.1 26.1301 1.1 26.1274 1.1 26.1247C1.1 26.122 1.1 26.1193 1.1 26.1166C1.1 26.1138 1.1 26.1111 1.1 26.1083C1.1 26.1056 1.1 26.1028 1.1 26.1C1.1 26.0972 1.1 26.0944 1.1 26.0915C1.1 26.0887 1.1 26.0858 1.1 26.083C1.1 26.0801 1.1 26.0772 1.1 26.0743C1.1 26.0714 1.1 26.0684 1.1 26.0655C1.1 26.0626 1.1 26.0596 1.1 26.0566C1.1 26.0536 1.1 26.0506 1.1 26.0476C1.1 26.0446 1.1 26.0416 1.1 26.0385C1.1 26.0355 1.1 26.0324 1.1 26.0293C1.1 26.0263 1.1 26.0232 1.1 26.02C1.1 26.0169 1.1 26.0138 1.1 26.0106C1.1 26.0075 1.1 26.0043 1.1 26.0011C1.1 25.9979 1.1 25.9947 1.1 25.9915C1.1 25.9883 1.1 25.985 1.1 25.9818C1.1 25.9785 1.1 25.9753 1.1 25.972C1.1 25.9687 1.1 25.9654 1.1 25.962C1.1 25.9587 1.1 25.9554 1.1 25.952C1.1 25.9487 1.1 25.9453 1.1 25.9419C1.1 25.9385 1.1 25.9351 1.1 25.9317C1.1 25.9282 1.1 25.9248 1.1 25.9213C1.1 25.9179 1.1 25.9144 1.1 25.9109C1.1 25.9074 1.1 25.9039 1.1 25.9004C1.1 25.8969 1.1 25.8933 1.1 25.8898C1.1 25.8862 1.1 25.8826 1.1 25.879C1.1 25.8754 1.1 25.8718 1.1 25.8682C1.1 25.8646 1.1 25.861 1.1 25.8573C1.1 25.8536 1.1 25.85 1.1 25.8463C1.1 25.8426 1.1 25.8389 1.1 25.8352C1.1 25.8314 1.1 25.8277 1.1 25.824C1.1 25.8202 1.1 25.8164 1.1 25.8126C1.1 25.8089 1.1 25.8051 1.1 25.8012C1.1 25.7974 1.1 25.7936 1.1 25.7897C1.1 25.7859 1.1 25.782 1.1 25.7781C1.1 25.7743 1.1 25.7704 1.1 25.7665C1.1 25.7625 1.1 25.7586 1.1 25.7547C1.1 25.7507 1.1 25.7468 1.1 25.7428C1.1 25.7388 1.1 25.7348 1.1 25.7308C1.1 25.7268 1.1 25.7228 1.1 25.7188C1.1 25.7147 1.1 25.7107 1.1 25.7066C1.1 25.7025 1.1 25.6985 1.1 25.6944C1.1 25.6903 1.1 25.6861 1.1 25.682C1.1 25.6779 1.1 25.6737 1.1 25.6696C1.1 25.6654 1.1 25.6613 1.1 25.6571C1.1 25.6529 1.1 25.6487 1.1 25.6445C1.1 25.6402 1.1 25.636 1.1 25.6317C1.1 25.6275 1.1 25.6232 1.1 25.619C1.1 25.6147 1.1 25.6104 1.1 25.6061C1.1 25.6018 1.1 25.5974 1.1 25.5931C1.1 25.5888 1.1 25.5844 1.1 25.58C1.1 25.5757 1.1 25.5713 1.1 25.5669C1.1 25.5625 1.1 25.5581 1.1 25.5537C1.1 25.5492 1.1 25.5448 1.1 25.5403C1.1 25.5359 1.1 25.5314 1.1 25.5269C1.1 25.5225 1.1 25.518 1.1 25.5134C1.1 25.5089 1.1 25.5044 1.1 25.4999C1.1 25.4953 1.1 25.4908 1.1 25.4862C1.1 25.4816 1.1 25.477 1.1 25.4724C1.1 25.4678 1.1 25.4632 1.1 25.4586C1.1 25.454 1.1 25.4493 1.1 25.4447C1.1 25.44 1.1 25.4354 1.1 25.4307C1.1 25.426 1.1 25.4213 1.1 25.4166C1.1 25.4119 1.1 25.4072 1.1 25.4024C1.1 25.3977 1.1 25.3929 1.1 25.3882C1.1 25.3834 1.1 25.3786 1.1 25.3738C1.1 25.369 1.1 25.3642 1.1 25.3594C1.1 25.3546 1.1 25.3498 1.1 25.3449C1.1 25.3401 1.1 25.3352 1.1 25.3303C1.1 25.3255 1.1 25.3206 1.1 25.3157C1.1 25.3108 1.1 25.3059 1.1 25.3009C1.1 25.296 1.1 25.2911 1.1 25.2861C1.1 25.2812 1.1 25.2762 1.1 25.2712C1.1 25.2662 1.1 25.2613 1.1 25.2562C1.1 25.2512 1.1 25.2462 1.1 25.2412C1.1 25.2362 1.1 25.2311 1.1 25.2261C1.1 25.221 1.1 25.2159 1.1 25.2108C1.1 25.2058 1.1 25.2007 1.1 25.1956C1.1 25.1904 1.1 25.1853 1.1 25.1802C1.1 25.1751 1.1 25.1699 1.1 25.1647C1.1 25.1596 1.1 25.1544 1.1 25.1492C1.1 25.144 1.1 25.1388 1.1 25.1336C1.1 25.1284 1.1 25.1232 1.1 25.118C1.1 25.1127 1.1 25.1075 1.1 25.1022C1.1 25.097 1.1 25.0917 1.1 25.0864C1.1 25.0811 1.1 25.0758 1.1 25.0705C1.1 25.0652 1.1 25.0599 1.1 25.0545C1.1 25.0492 1.1 25.0439 1.1 25.0385C1.1 25.0332 1.1 25.0278 1.1 25.0224C1.1 25.017 1.1 25.0116 1.1 25.0062C1.1 25.0008 1.1 24.9954 1.1 24.99C1.1 24.9845 1.1 24.9791 1.1 24.9736C1.1 24.9682 1.1 24.9627 1.1 24.9572C1.1 24.9518 1.1 24.9463 1.1 24.9408C1.1 24.9353 1.1 24.9298 1.1 24.9242C1.1 24.9187 1.1 24.9132 1.1 24.9076C1.1 24.9021 1.1 24.8965 1.1 24.8909C1.1 24.8854 1.1 24.8798 1.1 24.8742C1.1 24.8686 1.1 24.863 1.1 24.8574C1.1 24.8518 1.1 24.8461 1.1 24.8405C1.1 24.8349 1.1 24.8292 1.1 24.8236C1.1 24.8179 1.1 24.8122 1.1 24.8065C1.1 24.8009 1.1 24.7952 1.1 24.7895C1.1 24.7837 1.1 24.778 1.1 24.7723C1.1 24.7666 1.1 24.7608 1.1 24.7551C1.1 24.7493 1.1 24.7436 1.1 24.7378C1.1 24.732 1.1 24.7262 1.1 24.7205C1.1 24.7147 1.1 24.7089 1.1 24.703C1.1 24.6972 1.1 24.6914 1.1 24.6856C1.1 24.6797 1.1 24.6739 1.1 24.668C1.1 24.6622 1.1 24.6563 1.1 24.6504C1.1 24.6445 1.1 24.6387 1.1 24.6328C1.1 24.6269 1.1 24.6209 1.1 24.615C1.1 24.6091 1.1 24.6032 1.1 24.5972C1.1 24.5913 1.1 24.5853 1.1 24.5794C1.1 24.5734 1.1 24.5674 1.1 24.5615C1.1 24.5555 1.1 24.5495 1.1 24.5435C1.1 24.5375 1.1 24.5315 1.1 24.5254C1.1 24.5194 1.1 24.5134 1.1 24.5074C1.1 24.5013 1.1 24.4953 1.1 24.4892C1.1 24.4831 1.1 24.4771 1.1 24.471C1.1 24.4649 1.1 24.4588 1.1 24.4527C1.1 24.4466 1.1 24.4405 1.1 24.4344C1.1 24.4282 1.1 24.4221 1.1 24.416C1.1 24.4098 1.1 24.4037 1.1 24.3975C1.1 24.3914 1.1 24.3852 1.1 24.379C1.1 24.3728 1.1 24.3667 1.1 24.3605C1.1 24.3543 1.1 24.3481 1.1 24.3418C1.1 24.3356 1.1 24.3294 1.1 24.3232C1.1 24.3169 1.1 24.3107 1.1 24.3044C1.1 24.2982 1.1 24.2919 1.1 24.2856C1.1 24.2794 1.1 24.2731 1.1 24.2668C1.1 24.2605 1.1 24.2542 1.1 24.2479C1.1 24.2416 1.1 24.2353 1.1 24.229C1.1 24.2226 1.1 24.2163 1.1 24.2099C1.1 24.2036 1.1 24.1973 1.1 24.1909C1.1 24.1845 1.1 24.1782 1.1 24.1718C1.1 24.1654 1.1 24.159 1.1 24.1526C1.1 24.1462 1.1 24.1398 1.1 24.1334C1.1 24.127 1.1 24.1206 1.1 24.1141C1.1 24.1077 1.1 24.1013 1.1 24.0948C1.1 24.0884 1.1 24.0819 1.1 24.0755C1.1 24.069 1.1 24.0625 1.1 24.056C1.1 24.0496 1.1 24.0431 1.1 24.0366C1.1 24.0301 1.1 24.0236 1.1 24.0171C1.1 24.0105 1.1 24.004 1.1 23.9975C1.1 23.991 1.1 23.9844 1.1 23.9779C1.1 23.9713 1.1 23.9648 1.1 23.9582C1.1 23.9516 1.1 23.9451 1.1 23.9385C1.1 23.9319 1.1 23.9253 1.1 23.9187C1.1 23.9121 1.1 23.9055 1.1 23.8989C1.1 23.8923 1.1 23.8857 1.1 23.8791C1.1 23.8725 1.1 23.8658 1.1 23.8592C1.1 23.8525 1.1 23.8459 1.1 23.8392C1.1 23.8326 1.1 23.8259 1.1 23.8193C1.1 23.8126 1.1 23.8059 1.1 23.7992C1.1 23.7925 1.1 23.7858 1.1 23.7791C1.1 23.7724 1.1 23.7657 1.1 23.759C1.1 23.7523 1.1 23.7456 1.1 23.7389C1.1 23.7321 1.1 23.7254 1.1 23.7187C1.1 23.7119 1.1 23.7052 1.1 23.6984C1.1 23.6916 1.1 23.6849 1.1 23.6781C1.1 23.6713 1.1 23.6646 1.1 23.6578C1.1 23.651 1.1 23.6442 1.1 23.6374C1.1 23.6306 1.1 23.6238 1.1 23.617C1.1 23.6102 1.1 23.6033 1.1 23.5965C1.1 23.5897 1.1 23.5829 1.1 23.576C1.1 23.5692 1.1 23.5623 1.1 23.5555C1.1 23.5486 1.1 23.5418 1.1 23.5349C1.1 23.528 1.1 23.5212 1.1 23.5143C1.1 23.5074 1.1 23.5005 1.1 23.4936C1.1 23.4867 1.1 23.4798 1.1 23.4729C1.1 23.466 1.1 23.4591 1.1 23.4522C1.1 23.4453 1.1 23.4384 1.1 23.4314C1.1 23.4245 1.1 23.4176 1.1 23.4106C1.1 23.4037 1.1 23.3967 1.1 23.3898C1.1 23.3828 1.1 23.3759 1.1 23.3689C1.1 23.3619 1.1 23.355 1.1 23.348C1.1 23.341 1.1 23.334 1.1 23.327C1.1 23.3201 1.1 23.3131 1.1 23.3061C1.1 23.2991 1.1 23.2921 1.1 23.285C1.1 23.278 1.1 23.271 1.1 23.264C1.1 23.257 1.1 23.2499 1.1 23.2429C1.1 23.2359 1.1 23.2288 1.1 23.2218C1.1 23.2147 1.1 23.2077 1.1 23.2006C1.1 23.1936 1.1 23.1865 1.1 23.1794C1.1 23.1724 1.1 23.1653 1.1 23.1582C1.1 23.1512 1.1 23.1441 1.1 23.137C1.1 23.1299 1.1 23.1228 1.1 23.1157C1.1 23.1086 1.1 23.1015 1.1 23.0944C1.1 23.0873 1.1 23.0802 1.1 23.073C1.1 23.0659 1.1 23.0588 1.1 23.0517C1.1 23.0445 1.1 23.0374 1.1 23.0303C1.1 23.0231 1.1 23.016 1.1 23.0088C1.1 23.0017 1.1 22.9945 1.1 22.9874C1.1 22.9802 1.1 22.9731 1.1 22.9659C1.1 22.9587 1.1 22.9516 1.1 22.9444C1.1 22.9372 1.1 22.93 1.1 22.9228C1.1 22.9157 1.1 22.9085 1.1 22.9013C1.1 22.8941 1.1 22.8869 1.1 22.8797C1.1 22.8725 1.1 22.8653 1.1 22.8581C1.1 22.8508 1.1 22.8436 1.1 22.8364C1.1 22.8292 1.1 22.822 1.1 22.8147C1.1 22.8075 1.1 22.8003 1.1 22.793C1.1 22.7858 1.1 22.7786 1.1 22.7713C1.1 22.7641 1.1 22.7568 1.1 22.7496C1.1 22.7423 1.1 22.7351 1.1 22.7278C1.1 22.7205 1.1 22.7133 1.1 22.706C1.1 22.6987 1.1 22.6915 1.1 22.6842C1.1 22.6769 1.1 22.6696 1.1 22.6624C1.1 22.6551 1.1 22.6478 1.1 22.6405C1.1 22.6332 1.1 22.6259 1.1 22.6186C1.1 22.6113 1.1 22.604 1.1 22.5967C1.1 22.5894 1.1 22.5821 1.1 22.5748C1.1 22.5675 1.1 22.5602 1.1 22.5528C1.1 22.5455 1.1 22.5382 1.1 22.5309C1.1 22.5236 1.1 22.5162 1.1 22.5089C1.1 22.5016 1.1 22.4942 1.1 22.4869C1.1 22.4796 1.1 22.4722 1.1 22.4649C1.1 22.4575 1.1 22.4502 1.1 22.4428C1.1 22.4355 1.1 22.4281 1.1 22.4208C1.1 22.4134 1.1 22.4061 1.1 22.3987C1.1 22.3913 1.1 22.384 1.1 22.3766C1.1 22.3692 1.1 22.3619 1.1 22.3545C1.1 22.3471 1.1 22.3397 1.1 22.3324C1.1 22.325 1.1 22.3176 1.1 22.3102C1.1 22.3028 1.1 22.2955 1.1 22.2881C1.1 22.2807 1.1 22.2733 1.1 22.2659C1.1 22.2585 1.1 22.2511 1.1 22.2437C1.1 22.2363 1.1 22.2289 1.1 22.2215C1.1 22.2141 1.1 22.2067 1.1 22.1993C1.1 22.1919 1.1 22.1845 1.1 22.1771C1.1 22.1697 1.1 22.1622 1.1 22.1548C1.1 22.1474 1.1 22.14 1.1 22.1326C1.1 22.1252 1.1 22.1177 1.1 22.1103C1.1 22.1029 1.1 22.0955 1.1 22.088C1.1 22.0806 1.1 22.0732 1.1 22.0658C1.1 22.0583 1.1 22.0509 1.1 22.0435C1.1 22.036 1.1 22.0286 1.1 22.0211C1.1 22.0137 1.1 22.0063 1.1 21.9988C1.1 21.9914 1.1 21.9839 1.1 21.9765C1.1 21.9691 1.1 21.9616 1.1 21.9542C1.1 21.9467 1.1 21.9393 1.1 21.9318C1.1 21.9244 1.1 21.9169 1.1 21.9095C1.1 21.902 1.1 21.8946 1.1 21.8871C1.1 21.8796 1.1 21.8722 1.1 21.8647C1.1 21.8573 1.1 21.8498 1.1 21.8424C1.1 21.8349 1.1 21.8274 1.1 21.82C1.1 21.8125 1.1 21.805 1.1 21.7976C1.1 21.7901 1.1 21.7826 1.1 21.7752C1.1 21.7677 1.1 21.7602 1.1 21.7528C1.1 21.7453 1.1 21.7378 1.1 21.7304C1.1 21.7229 1.1 21.7154 1.1 21.708C1.1 21.7005 1.1 21.693 1.1 21.6855C1.1 21.6781 1.1 21.6706 1.1 21.6631C1.1 21.6557 1.1 21.6482 1.1 21.6407C1.1 21.6332 1.1 21.6258 1.1 21.6183C1.1 21.6108 1.1 21.6033 1.1 21.5959C1.1 21.5884 1.1 21.5809 1.1 21.5734C1.1 21.5659 1.1 21.5585 1.1 21.551C1.1 21.5435 1.1 21.536 1.1 21.5286C1.1 21.5211 1.1 21.5136 1.1 21.5061C1.1 21.4986 1.1 21.4912 1.1 21.4837C1.1 21.4762 1.1 21.4687 1.1 21.4613C1.1 21.4538 1.1 21.4463 1.1 21.4388C1.1 21.4313 1.1 21.4239 1.1 21.4164C1.1 21.4089 1.1 21.4014 1.1 21.394C1.1 21.3865 1.1 21.379 1.1 21.3715C1.1 21.3641 1.1 21.3566 1.1 21.3491C1.1 21.3416 1.1 21.3341 1.1 21.3267C1.1 21.3192 1.1 21.3117 1.1 21.3043C1.1 21.2968 1.1 21.2893 1.1 21.2818C1.1 21.2744 1.1 21.2669 1.1 21.2594C1.1 21.2519 1.1 21.2445 1.1 21.237C1.1 21.2295 1.1 21.2221 1.1 21.2146C1.1 21.2071 1.1 21.1997 1.1 21.1922C1.1 21.1847 1.1 21.1773 1.1 21.1698C1.1 21.1623 1.1 21.1549 1.1 21.1474C1.1 21.1399 1.1 21.1325 1.1 21.125C1.1 21.1176 1.1 21.1101 1.1 21.1026C1.1 21.0952 1.1 21.0877 1.1 21.0803C1.1 21.0728 1.1 21.0654 1.1 21.0579C1.1 21.0505 1.1 21.043 1.1 21.0356C1.1 21.0281 1.1 21.0207 1.1 21.0132C1.1 21.0058 1.1 20.9983 1.1 20.9909C1.1 20.9834 1.1 20.976 1.1 20.9685C1.1 20.9611 1.1 20.9537 1.1 20.9462C1.1 20.9388 1.1 20.9313 1.1 20.9239C1.1 20.9165 1.1 20.909 1.1 20.9016C1.1 20.8942 1.1 20.8867 1.1 20.8793C1.1 20.8719 1.1 20.8645 1.1 20.857C1.1 20.8496 1.1 20.8422 1.1 20.8348C1.1 20.8273 1.1 20.8199 1.1 20.8125C1.1 20.8051 1.1 20.7977 1.1 20.7903C1.1 20.7829 1.1 20.7754 1.1 20.768C1.1 20.7606 1.1 20.7532 1.1 20.7458C1.1 20.7384 1.1 20.731 1.1 20.7236C1.1 20.7162 1.1 20.7088 1.1 20.7014C1.1 20.694 1.1 20.6866 1.1 20.6793C1.1 20.6719 1.1 20.6645 1.1 20.6571C1.1 20.6497 1.1 20.6423 1.1 20.635C1.1 20.6276 1.1 20.6202 1.1 20.6128C1.1 20.6055 1.1 20.5981 1.1 20.5907C1.1 20.5833 1.1 20.576 1.1 20.5686C1.1 20.5613 1.1 20.5539 1.1 20.5465C1.1 20.5392 1.1 20.5318 1.1 20.5245C1.1 20.5171 1.1 20.5098 1.1 20.5024C1.1 20.4951 1.1 20.4877 1.1 20.4804C1.1 20.4731 1.1 20.4657 1.1 20.4584C1.1 20.4511 1.1 20.4437 1.1 20.4364C1.1 20.4291 1.1 20.4218 1.1 20.4144C1.1 20.4071 1.1 20.3998 1.1 20.3925C1.1 20.3852 1.1 20.3779 1.1 20.3706C1.1 20.3633 1.1 20.356 1.1 20.3487C1.1 20.3414 1.1 20.3341 1.1 20.3268C1.1 20.3195 1.1 20.3122 1.1 20.3049C1.1 20.2976 1.1 20.2903 1.1 20.2831C1.1 20.2758 1.1 20.2685 1.1 20.2613C1.1 20.254 1.1 20.2467 1.1 20.2395C1.1 20.2322 1.1 20.2249 1.1 20.2177C1.1 20.2104 1.1 20.2032 1.1 20.1959C1.1 20.1887 1.1 20.1814 1.1 20.1742C1.1 20.167 1.1 20.1597 1.1 20.1525C1.1 20.1453 1.1 20.138 1.1 20.1308C1.1 20.1236 1.1 20.1164 1.1 20.1092C1.1 20.102 1.1 20.0947 1.1 20.0875C1.1 20.0803 1.1 20.0731 1.1 20.0659C1.1 20.0587 1.1 20.0516 1.1 20.0444C1.1 20.0372 1.1 20.03 1.1 20.0228C1.1 20.0156 1.1 20.0085 1.1 20.0013C1.1 19.9941 1.1 19.987 1.1 19.9798C1.1 19.9727 1.1 19.9655 1.1 19.9583C1.1 19.9512 1.1 19.9441 1.1 19.9369C1.1 19.9298 1.1 19.9226 1.1 19.9155C1.1 19.9084 1.1 19.9013 1.1 19.8941C1.1 19.887 1.1 19.8799 1.1 19.8728C1.1 19.8657 1.1 19.8586 1.1 19.8515C1.1 19.8444 1.1 19.8373 1.1 19.8302C1.1 19.8231 1.1 19.816 1.1 19.8089C1.1 19.8018 1.1 19.7948 1.1 19.7877C1.1 19.7806 1.1 19.7736 1.1 19.7665C1.1 19.7595 1.1 19.7524 1.1 19.7454C1.1 19.7383 1.1 19.7313 1.1 19.7242C1.1 19.7172 1.1 19.7102 1.1 19.7031C1.1 19.6961 1.1 19.6891 1.1 19.6821C1.1 19.6751 1.1 19.6681 1.1 19.661C1.1 19.654 1.1 19.647 1.1 19.6401C1.1 19.6331 1.1 19.6261 1.1 19.6191C1.1 19.6121 1.1 19.6051 1.1 19.5982C1.1 19.5912 1.1 19.5843 1.1 19.5773C1.1 19.5703 1.1 19.5634 1.1 19.5564C1.1 19.5495 1.1 19.5426 1.1 19.5356C1.1 19.5287 1.1 19.5218 1.1 19.5149C1.1 19.5079 1.1 19.501 1.1 19.4941C1.1 19.4872 1.1 19.4803 1.1 19.4734C1.1 19.4665 1.1 19.4596 1.1 19.4528C1.1 19.4459 1.1 19.439 1.1 19.4321C1.1 19.4253 1.1 19.4184 1.1 19.4115C1.1 19.4047 1.1 19.3978 1.1 19.391C1.1 19.3842 1.1 19.3773 1.1 19.3705C1.1 19.3637 1.1 19.3568 1.1 19.35C1.1 19.3432 1.1 19.3364 1.1 19.3296C1.1 19.3228 1.1 19.316 1.1 19.3092C1.1 19.3024 1.1 19.2956 1.1 19.2889C1.1 19.2821 1.1 19.2753 1.1 19.2686C1.1 19.2618 1.1 19.2551 1.1 19.2483C1.1 19.2416 1.1 19.2348 1.1 19.2281C1.1 19.2214 1.1 19.2146 1.1 19.2079C1.1 19.2012 1.1 19.1945 1.1 19.1878C1.1 19.1811 1.1 19.1744 1.1 19.1677C1.1 19.161 1.1 19.1543 1.1 19.1477C1.1 19.141 1.1 19.1343 1.1 19.1277C1.1 19.121 1.1 19.1144 1.1 19.1077C1.1 19.1011 1.1 19.0944 1.1 19.0878C1.1 19.0812 1.1 19.0746 1.1 19.068C1.1 19.0613 1.1 19.0547 1.1 19.0481C1.1 19.0415 1.1 19.035 1.1 19.0284C1.1 19.0218 1.1 19.0152 1.1 19.0087C1.1 19.0021 1.1 18.9955 1.1 18.989C1.1 18.9824 1.1 18.9759 1.1 18.9694C1.1 18.9628 1.1 18.9563 1.1 18.9498C1.1 18.9433 1.1 18.9368 1.1 18.9303C1.1 18.9238 1.1 18.9173 1.1 18.9108C1.1 18.9043 1.1 18.8978 1.1 18.8914C1.1 18.8849 1.1 18.8784 1.1 18.872C1.1 18.8655 1.1 18.8591 1.1 18.8527C1.1 18.8462 1.1 18.8398 1.1 18.8334C1.1 18.827 1.1 18.8206 1.1 18.8142C1.1 18.8078 1.1 18.8014 1.1 18.795C1.1 18.7886 1.1 18.7822 1.1 18.7759C1.1 18.7695 1.1 18.7631 1.1 18.7568C1.1 18.7504 1.1 18.7441 1.1 18.7378C1.1 18.7315 1.1 18.7251 1.1 18.7188C1.1 18.7125 1.1 18.7062 1.1 18.6999C1.1 18.6936 1.1 18.6873 1.1 18.6811C1.1 18.6748 1.1 18.6685 1.1 18.6623C1.1 18.656 1.1 18.6498 1.1 18.6435C1.1 18.6373 1.1 18.6311 1.1 18.6248C1.1 18.6186 1.1 18.6124 1.1 18.6062C1.1 18.6 1.1 18.5938 1.1 18.5876C1.1 18.5814 1.1 18.5753 1.1 18.5691C1.1 18.5629 1.1 18.5568 1.1 18.5507C1.1 18.5445 1.1 18.5384 1.1 18.5322C1.1 18.5261 1.1 18.52 1.1 18.5139C1.1 18.5078 1.1 18.5017 1.1 18.4956C1.1 18.4895 1.1 18.4835 1.1 18.4774C1.1 18.4713 1.1 18.4653 1.1 18.4592C1.1 18.4532 1.1 18.4471 1.1 18.4411C1.1 18.4351 1.1 18.4291 1.1 18.4231C1.1 18.4171 1.1 18.4111 1.1 18.4051C1.1 18.3991 1.1 18.3931 1.1 18.3871C1.1 18.3812 1.1 18.3752 1.1 18.3693C1.1 18.3633 1.1 18.3574 1.1 18.3515C1.1 18.3456 1.1 18.3396 1.1 18.3337C1.1 18.3278 1.1 18.3219 1.1 18.3161C1.1 18.3102 1.1 18.3043 1.1 18.2984C1.1 18.2926 1.1 18.2867 1.1 18.2809C1.1 18.2751 1.1 18.2692 1.1 18.2634H0.9C0.9 18.2692 0.9 18.2751 0.9 18.2809C0.9 18.2867 0.9 18.2926 0.9 18.2984C0.9 18.3043 0.9 18.3102 0.9 18.3161C0.9 18.3219 0.9 18.3278 0.9 18.3337C0.9 18.3396 0.9 18.3456 0.9 18.3515C0.9 18.3574 0.9 18.3633 0.9 18.3693C0.9 18.3752 0.9 18.3812 0.9 18.3871C0.9 18.3931 0.9 18.3991 0.9 18.4051C0.9 18.4111 0.9 18.4171 0.9 18.4231C0.9 18.4291 0.9 18.4351 0.9 18.4411C0.9 18.4471 0.9 18.4532 0.9 18.4592C0.9 18.4653 0.9 18.4713 0.9 18.4774C0.9 18.4835 0.9 18.4895 0.9 18.4956C0.9 18.5017 0.9 18.5078 0.9 18.5139C0.9 18.52 0.9 18.5261 0.9 18.5322C0.9 18.5384 0.9 18.5445 0.9 18.5507C0.9 18.5568 0.9 18.5629 0.9 18.5691C0.9 18.5753 0.9 18.5814 0.9 18.5876C0.9 18.5938 0.9 18.6 0.9 18.6062C0.9 18.6124 0.9 18.6186 0.9 18.6248C0.9 18.6311 0.9 18.6373 0.9 18.6435C0.9 18.6498 0.9 18.656 0.9 18.6623C0.9 18.6685 0.9 18.6748 0.9 18.6811C0.9 18.6873 0.9 18.6936 0.9 18.6999C0.9 18.7062 0.9 18.7125 0.9 18.7188C0.9 18.7251 0.9 18.7315 0.9 18.7378C0.9 18.7441 0.9 18.7504 0.9 18.7568C0.9 18.7631 0.9 18.7695 0.9 18.7759C0.9 18.7822 0.9 18.7886 0.9 18.795C0.9 18.8014 0.9 18.8078 0.9 18.8142C0.9 18.8206 0.9 18.827 0.9 18.8334C0.9 18.8398 0.9 18.8462 0.9 18.8527C0.9 18.8591 0.9 18.8655 0.9 18.872C0.9 18.8784 0.9 18.8849 0.9 18.8914C0.9 18.8978 0.9 18.9043 0.9 18.9108C0.9 18.9173 0.9 18.9238 0.9 18.9303C0.9 18.9368 0.9 18.9433 0.9 18.9498C0.9 18.9563 0.9 18.9628 0.9 18.9694C0.9 18.9759 0.9 18.9824 0.9 18.989C0.9 18.9955 0.9 19.0021 0.9 19.0087C0.9 19.0152 0.9 19.0218 0.9 19.0284C0.9 19.035 0.9 19.0415 0.9 19.0481C0.9 19.0547 0.9 19.0613 0.9 19.068C0.9 19.0746 0.9 19.0812 0.9 19.0878C0.9 19.0944 0.9 19.1011 0.9 19.1077C0.9 19.1144 0.9 19.121 0.9 19.1277C0.9 19.1343 0.9 19.141 0.9 19.1477C0.9 19.1543 0.9 19.161 0.9 19.1677C0.9 19.1744 0.9 19.1811 0.9 19.1878C0.9 19.1945 0.9 19.2012 0.9 19.2079C0.9 19.2146 0.9 19.2214 0.9 19.2281C0.9 19.2348 0.9 19.2416 0.9 19.2483C0.9 19.2551 0.9 19.2618 0.9 19.2686C0.9 19.2753 0.9 19.2821 0.9 19.2889C0.9 19.2956 0.9 19.3024 0.9 19.3092C0.9 19.316 0.9 19.3228 0.9 19.3296C0.9 19.3364 0.9 19.3432 0.9 19.35C0.9 19.3568 0.9 19.3637 0.9 19.3705C0.9 19.3773 0.9 19.3842 0.9 19.391C0.9 19.3978 0.9 19.4047 0.9 19.4115C0.9 19.4184 0.9 19.4253 0.9 19.4321C0.9 19.439 0.9 19.4459 0.9 19.4528C0.9 19.4596 0.9 19.4665 0.9 19.4734C0.9 19.4803 0.9 19.4872 0.9 19.4941C0.9 19.501 0.9 19.5079 0.9 19.5149C0.9 19.5218 0.9 19.5287 0.9 19.5356C0.9 19.5426 0.9 19.5495 0.9 19.5564C0.9 19.5634 0.9 19.5703 0.9 19.5773C0.9 19.5843 0.9 19.5912 0.9 19.5982C0.9 19.6051 0.9 19.6121 0.9 19.6191C0.9 19.6261 0.9 19.6331 0.9 19.6401C0.9 19.647 0.9 19.654 0.9 19.661C0.9 19.6681 0.9 19.6751 0.9 19.6821C0.9 19.6891 0.9 19.6961 0.9 19.7031C0.9 19.7102 0.9 19.7172 0.9 19.7242C0.9 19.7313 0.9 19.7383 0.9 19.7454C0.9 19.7524 0.9 19.7595 0.9 19.7665C0.9 19.7736 0.9 19.7806 0.9 19.7877C0.9 19.7948 0.9 19.8018 0.9 19.8089C0.9 19.816 0.9 19.8231 0.9 19.8302C0.9 19.8373 0.9 19.8444 0.9 19.8515C0.9 19.8586 0.9 19.8657 0.9 19.8728C0.9 19.8799 0.9 19.887 0.9 19.8941C0.9 19.9013 0.9 19.9084 0.9 19.9155C0.9 19.9226 0.9 19.9298 0.9 19.9369C0.9 19.9441 0.9 19.9512 0.9 19.9583C0.9 19.9655 0.9 19.9727 0.9 19.9798C0.9 19.987 0.9 19.9941 0.9 20.0013C0.9 20.0085 0.9 20.0156 0.9 20.0228C0.9 20.03 0.9 20.0372 0.9 20.0444C0.9 20.0516 0.9 20.0587 0.9 20.0659C0.9 20.0731 0.9 20.0803 0.9 20.0875C0.9 20.0947 0.9 20.102 0.9 20.1092C0.9 20.1164 0.9 20.1236 0.9 20.1308C0.9 20.138 0.9 20.1453 0.9 20.1525C0.9 20.1597 0.9 20.167 0.9 20.1742C0.9 20.1814 0.9 20.1887 0.9 20.1959C0.9 20.2032 0.9 20.2104 0.9 20.2177C0.9 20.2249 0.9 20.2322 0.9 20.2395C0.9 20.2467 0.9 20.254 0.9 20.2613C0.9 20.2685 0.9 20.2758 0.9 20.2831C0.9 20.2903 0.9 20.2976 0.9 20.3049C0.9 20.3122 0.9 20.3195 0.9 20.3268C0.9 20.3341 0.9 20.3414 0.9 20.3487C0.9 20.356 0.9 20.3633 0.9 20.3706C0.9 20.3779 0.9 20.3852 0.9 20.3925C0.9 20.3998 0.9 20.4071 0.9 20.4144C0.9 20.4218 0.9 20.4291 0.9 20.4364C0.9 20.4437 0.9 20.4511 0.9 20.4584C0.9 20.4657 0.9 20.4731 0.9 20.4804C0.9 20.4877 0.9 20.4951 0.9 20.5024C0.9 20.5098 0.9 20.5171 0.9 20.5245C0.9 20.5318 0.9 20.5392 0.9 20.5465C0.9 20.5539 0.9 20.5613 0.9 20.5686C0.9 20.576 0.9 20.5833 0.9 20.5907C0.9 20.5981 0.9 20.6055 0.9 20.6128C0.9 20.6202 0.9 20.6276 0.9 20.635C0.9 20.6423 0.9 20.6497 0.9 20.6571C0.9 20.6645 0.9 20.6719 0.9 20.6793C0.9 20.6866 0.9 20.694 0.9 20.7014C0.9 20.7088 0.9 20.7162 0.9 20.7236C0.9 20.731 0.9 20.7384 0.9 20.7458C0.9 20.7532 0.9 20.7606 0.9 20.768C0.9 20.7754 0.9 20.7829 0.9 20.7903C0.9 20.7977 0.9 20.8051 0.9 20.8125C0.9 20.8199 0.9 20.8273 0.9 20.8348C0.9 20.8422 0.9 20.8496 0.9 20.857C0.9 20.8645 0.9 20.8719 0.9 20.8793C0.9 20.8867 0.9 20.8942 0.9 20.9016C0.9 20.909 0.9 20.9165 0.9 20.9239C0.9 20.9313 0.9 20.9388 0.9 20.9462C0.9 20.9537 0.9 20.9611 0.9 20.9685C0.9 20.976 0.9 20.9834 0.9 20.9909C0.9 20.9983 0.9 21.0058 0.9 21.0132C0.9 21.0207 0.9 21.0281 0.9 21.0356C0.9 21.043 0.9 21.0505 0.9 21.0579C0.9 21.0654 0.9 21.0728 0.9 21.0803C0.9 21.0877 0.9 21.0952 0.9 21.1026C0.9 21.1101 0.9 21.1176 0.9 21.125C0.9 21.1325 0.9 21.1399 0.9 21.1474C0.9 21.1549 0.9 21.1623 0.9 21.1698C0.9 21.1773 0.9 21.1847 0.9 21.1922C0.9 21.1997 0.9 21.2071 0.9 21.2146C0.9 21.2221 0.9 21.2295 0.9 21.237C0.9 21.2445 0.9 21.2519 0.9 21.2594C0.9 21.2669 0.9 21.2744 0.9 21.2818C0.9 21.2893 0.9 21.2968 0.9 21.3043C0.9 21.3117 0.9 21.3192 0.9 21.3267C0.9 21.3341 0.9 21.3416 0.9 21.3491C0.9 21.3566 0.9 21.3641 0.9 21.3715C0.9 21.379 0.9 21.3865 0.9 21.394C0.9 21.4014 0.9 21.4089 0.9 21.4164C0.9 21.4239 0.9 21.4313 0.9 21.4388C0.9 21.4463 0.9 21.4538 0.9 21.4613C0.9 21.4687 0.9 21.4762 0.9 21.4837C0.9 21.4912 0.9 21.4986 0.9 21.5061C0.9 21.5136 0.9 21.5211 0.9 21.5286C0.9 21.536 0.9 21.5435 0.9 21.551C0.9 21.5585 0.9 21.5659 0.9 21.5734C0.9 21.5809 0.9 21.5884 0.9 21.5959C0.9 21.6033 0.9 21.6108 0.9 21.6183C0.9 21.6258 0.9 21.6332 0.9 21.6407C0.9 21.6482 0.9 21.6557 0.9 21.6631C0.9 21.6706 0.9 21.6781 0.9 21.6855C0.9 21.693 0.9 21.7005 0.9 21.708C0.9 21.7154 0.9 21.7229 0.9 21.7304C0.9 21.7378 0.9 21.7453 0.9 21.7528C0.9 21.7602 0.9 21.7677 0.9 21.7752C0.9 21.7826 0.9 21.7901 0.9 21.7976C0.9 21.805 0.9 21.8125 0.9 21.82C0.9 21.8274 0.9 21.8349 0.9 21.8424C0.9 21.8498 0.9 21.8573 0.9 21.8647C0.9 21.8722 0.9 21.8796 0.9 21.8871C0.9 21.8946 0.9 21.902 0.9 21.9095C0.9 21.9169 0.9 21.9244 0.9 21.9318C0.9 21.9393 0.9 21.9467 0.9 21.9542C0.9 21.9616 0.9 21.9691 0.9 21.9765C0.9 21.9839 0.9 21.9914 0.9 21.9988C0.9 22.0063 0.9 22.0137 0.9 22.0211C0.9 22.0286 0.9 22.036 0.9 22.0435C0.9 22.0509 0.9 22.0583 0.9 22.0658C0.9 22.0732 0.9 22.0806 0.9 22.088C0.9 22.0955 0.9 22.1029 0.9 22.1103C0.9 22.1177 0.9 22.1252 0.9 22.1326C0.9 22.14 0.9 22.1474 0.9 22.1548C0.9 22.1622 0.9 22.1697 0.9 22.1771C0.9 22.1845 0.9 22.1919 0.9 22.1993C0.9 22.2067 0.9 22.2141 0.9 22.2215C0.9 22.2289 0.9 22.2363 0.9 22.2437C0.9 22.2511 0.9 22.2585 0.9 22.2659C0.9 22.2733 0.9 22.2807 0.9 22.2881C0.9 22.2955 0.9 22.3028 0.9 22.3102C0.9 22.3176 0.9 22.325 0.9 22.3324C0.9 22.3397 0.9 22.3471 0.9 22.3545C0.9 22.3619 0.9 22.3692 0.9 22.3766C0.9 22.384 0.9 22.3913 0.9 22.3987C0.9 22.4061 0.9 22.4134 0.9 22.4208C0.9 22.4281 0.9 22.4355 0.9 22.4428C0.9 22.4502 0.9 22.4575 0.9 22.4649C0.9 22.4722 0.9 22.4796 0.9 22.4869C0.9 22.4942 0.9 22.5016 0.9 22.5089C0.9 22.5162 0.9 22.5236 0.9 22.5309C0.9 22.5382 0.9 22.5455 0.9 22.5528C0.9 22.5602 0.9 22.5675 0.9 22.5748C0.9 22.5821 0.9 22.5894 0.9 22.5967C0.9 22.604 0.9 22.6113 0.9 22.6186C0.9 22.6259 0.9 22.6332 0.9 22.6405C0.9 22.6478 0.9 22.6551 0.9 22.6624C0.9 22.6696 0.9 22.6769 0.9 22.6842C0.9 22.6915 0.9 22.6987 0.9 22.706C0.9 22.7133 0.9 22.7205 0.9 22.7278C0.9 22.7351 0.9 22.7423 0.9 22.7496C0.9 22.7568 0.9 22.7641 0.9 22.7713C0.9 22.7786 0.9 22.7858 0.9 22.793C0.9 22.8003 0.9 22.8075 0.9 22.8147C0.9 22.822 0.9 22.8292 0.9 22.8364C0.9 22.8436 0.9 22.8508 0.9 22.8581C0.9 22.8653 0.9 22.8725 0.9 22.8797C0.9 22.8869 0.9 22.8941 0.9 22.9013C0.9 22.9085 0.9 22.9157 0.9 22.9228C0.9 22.93 0.9 22.9372 0.9 22.9444C0.9 22.9516 0.9 22.9587 0.9 22.9659C0.9 22.9731 0.9 22.9802 0.9 22.9874C0.9 22.9945 0.9 23.0017 0.9 23.0088C0.9 23.016 0.9 23.0231 0.9 23.0303C0.9 23.0374 0.9 23.0445 0.9 23.0517C0.9 23.0588 0.9 23.0659 0.9 23.073C0.9 23.0802 0.9 23.0873 0.9 23.0944C0.9 23.1015 0.9 23.1086 0.9 23.1157C0.9 23.1228 0.9 23.1299 0.9 23.137C0.9 23.1441 0.9 23.1512 0.9 23.1582C0.9 23.1653 0.9 23.1724 0.9 23.1794C0.9 23.1865 0.9 23.1936 0.9 23.2006C0.9 23.2077 0.9 23.2147 0.9 23.2218C0.9 23.2288 0.9 23.2359 0.9 23.2429C0.9 23.2499 0.9 23.257 0.9 23.264C0.9 23.271 0.9 23.278 0.9 23.285C0.9 23.2921 0.9 23.2991 0.9 23.3061C0.9 23.3131 0.9 23.3201 0.9 23.327C0.9 23.334 0.9 23.341 0.9 23.348C0.9 23.355 0.9 23.3619 0.9 23.3689C0.9 23.3759 0.9 23.3828 0.9 23.3898C0.9 23.3967 0.9 23.4037 0.9 23.4106C0.9 23.4176 0.9 23.4245 0.9 23.4314C0.9 23.4384 0.9 23.4453 0.9 23.4522C0.9 23.4591 0.9 23.466 0.9 23.4729C0.9 23.4798 0.9 23.4867 0.9 23.4936C0.9 23.5005 0.9 23.5074 0.9 23.5143C0.9 23.5212 0.9 23.528 0.9 23.5349C0.9 23.5418 0.9 23.5486 0.9 23.5555C0.9 23.5623 0.9 23.5692 0.9 23.576C0.9 23.5829 0.9 23.5897 0.9 23.5965C0.9 23.6033 0.9 23.6102 0.9 23.617C0.9 23.6238 0.9 23.6306 0.9 23.6374C0.9 23.6442 0.9 23.651 0.9 23.6578C0.9 23.6646 0.9 23.6713 0.9 23.6781C0.9 23.6849 0.9 23.6916 0.9 23.6984C0.9 23.7052 0.9 23.7119 0.9 23.7187C0.9 23.7254 0.9 23.7321 0.9 23.7389C0.9 23.7456 0.9 23.7523 0.9 23.759C0.9 23.7657 0.9 23.7724 0.9 23.7791C0.9 23.7858 0.9 23.7925 0.9 23.7992C0.9 23.8059 0.9 23.8126 0.9 23.8193C0.9 23.8259 0.9 23.8326 0.9 23.8392C0.9 23.8459 0.9 23.8525 0.9 23.8592C0.9 23.8658 0.9 23.8725 0.9 23.8791C0.9 23.8857 0.9 23.8923 0.9 23.8989C0.9 23.9055 0.9 23.9121 0.9 23.9187C0.9 23.9253 0.9 23.9319 0.9 23.9385C0.9 23.9451 0.9 23.9516 0.9 23.9582C0.9 23.9648 0.9 23.9713 0.9 23.9779C0.9 23.9844 0.9 23.991 0.9 23.9975C0.9 24.004 0.9 24.0105 0.9 24.0171C0.9 24.0236 0.9 24.0301 0.9 24.0366C0.9 24.0431 0.9 24.0496 0.9 24.056C0.9 24.0625 0.9 24.069 0.9 24.0755C0.9 24.0819 0.9 24.0884 0.9 24.0948C0.9 24.1013 0.9 24.1077 0.9 24.1141C0.9 24.1206 0.9 24.127 0.9 24.1334C0.9 24.1398 0.9 24.1462 0.9 24.1526C0.9 24.159 0.9 24.1654 0.9 24.1718C0.9 24.1782 0.9 24.1845 0.9 24.1909C0.9 24.1973 0.9 24.2036 0.9 24.2099C0.9 24.2163 0.9 24.2226 0.9 24.229C0.9 24.2353 0.9 24.2416 0.9 24.2479C0.9 24.2542 0.9 24.2605 0.9 24.2668C0.9 24.2731 0.9 24.2794 0.9 24.2856C0.9 24.2919 0.9 24.2982 0.9 24.3044C0.9 24.3107 0.9 24.3169 0.9 24.3232C0.9 24.3294 0.9 24.3356 0.9 24.3418C0.9 24.3481 0.9 24.3543 0.9 24.3605C0.9 24.3667 0.9 24.3728 0.9 24.379C0.9 24.3852 0.9 24.3914 0.9 24.3975C0.9 24.4037 0.9 24.4098 0.9 24.416C0.9 24.4221 0.9 24.4282 0.9 24.4344C0.9 24.4405 0.9 24.4466 0.9 24.4527C0.9 24.4588 0.9 24.4649 0.9 24.471C0.9 24.4771 0.9 24.4831 0.9 24.4892C0.9 24.4953 0.9 24.5013 0.9 24.5074C0.9 24.5134 0.9 24.5194 0.9 24.5254C0.9 24.5315 0.9 24.5375 0.9 24.5435C0.9 24.5495 0.9 24.5555 0.9 24.5615C0.9 24.5674 0.9 24.5734 0.9 24.5794C0.9 24.5853 0.9 24.5913 0.9 24.5972C0.9 24.6032 0.9 24.6091 0.9 24.615C0.9 24.6209 0.9 24.6269 0.9 24.6328C0.9 24.6387 0.9 24.6445 0.9 24.6504C0.9 24.6563 0.9 24.6622 0.9 24.668C0.9 24.6739 0.9 24.6797 0.9 24.6856C0.9 24.6914 0.9 24.6972 0.9 24.703C0.9 24.7089 0.9 24.7147 0.9 24.7205C0.9 24.7262 0.9 24.732 0.9 24.7378C0.9 24.7436 0.9 24.7493 0.9 24.7551C0.9 24.7608 0.9 24.7666 0.9 24.7723C0.9 24.778 0.9 24.7837 0.9 24.7895C0.9 24.7952 0.9 24.8009 0.9 24.8065C0.9 24.8122 0.9 24.8179 0.9 24.8236C0.9 24.8292 0.9 24.8349 0.9 24.8405C0.9 24.8461 0.9 24.8518 0.9 24.8574C0.9 24.863 0.9 24.8686 0.9 24.8742C0.9 24.8798 0.9 24.8854 0.9 24.8909C0.9 24.8965 0.9 24.9021 0.9 24.9076C0.9 24.9132 0.9 24.9187 0.9 24.9242C0.9 24.9298 0.9 24.9353 0.9 24.9408C0.9 24.9463 0.9 24.9518 0.9 24.9572C0.9 24.9627 0.9 24.9682 0.9 24.9736C0.9 24.9791 0.9 24.9845 0.9 24.99C0.9 24.9954 0.9 25.0008 0.9 25.0062C0.9 25.0116 0.9 25.017 0.9 25.0224C0.9 25.0278 0.9 25.0332 0.9 25.0385C0.9 25.0439 0.9 25.0492 0.9 25.0545C0.9 25.0599 0.9 25.0652 0.9 25.0705C0.9 25.0758 0.9 25.0811 0.9 25.0864C0.9 25.0917 0.9 25.097 0.9 25.1022C0.9 25.1075 0.9 25.1127 0.9 25.118C0.9 25.1232 0.9 25.1284 0.9 25.1336C0.9 25.1388 0.9 25.144 0.9 25.1492C0.9 25.1544 0.9 25.1596 0.9 25.1647C0.9 25.1699 0.9 25.1751 0.9 25.1802C0.9 25.1853 0.9 25.1904 0.9 25.1956C0.9 25.2007 0.9 25.2058 0.9 25.2108C0.9 25.2159 0.9 25.221 0.9 25.2261C0.9 25.2311 0.9 25.2362 0.9 25.2412C0.9 25.2462 0.9 25.2512 0.9 25.2562C0.9 25.2613 0.9 25.2662 0.9 25.2712C0.9 25.2762 0.9 25.2812 0.9 25.2861C0.9 25.2911 0.9 25.296 0.9 25.3009C0.9 25.3059 0.9 25.3108 0.9 25.3157C0.9 25.3206 0.9 25.3255 0.9 25.3303C0.9 25.3352 0.9 25.3401 0.9 25.3449C0.9 25.3498 0.9 25.3546 0.9 25.3594C0.9 25.3642 0.9 25.369 0.9 25.3738C0.9 25.3786 0.9 25.3834 0.9 25.3882C0.9 25.3929 0.9 25.3977 0.9 25.4024C0.9 25.4072 0.9 25.4119 0.9 25.4166C0.9 25.4213 0.9 25.426 0.9 25.4307C0.9 25.4354 0.9 25.44 0.9 25.4447C0.9 25.4493 0.9 25.454 0.9 25.4586C0.9 25.4632 0.9 25.4678 0.9 25.4724C0.9 25.477 0.9 25.4816 0.9 25.4862C0.9 25.4908 0.9 25.4953 0.9 25.4999C0.9 25.5044 0.9 25.5089 0.9 25.5134C0.9 25.518 0.9 25.5225 0.9 25.5269C0.9 25.5314 0.9 25.5359 0.9 25.5403C0.9 25.5448 0.9 25.5492 0.9 25.5537C0.9 25.5581 0.9 25.5625 0.9 25.5669C0.9 25.5713 0.9 25.5757 0.9 25.58C0.9 25.5844 0.9 25.5888 0.9 25.5931C0.9 25.5974 0.9 25.6018 0.9 25.6061C0.9 25.6104 0.9 25.6147 0.9 25.619C0.9 25.6232 0.9 25.6275 0.9 25.6317C0.9 25.636 0.9 25.6402 0.9 25.6445C0.9 25.6487 0.9 25.6529 0.9 25.6571C0.9 25.6613 0.9 25.6654 0.9 25.6696C0.9 25.6737 0.9 25.6779 0.9 25.682C0.9 25.6861 0.9 25.6903 0.9 25.6944C0.9 25.6985 0.9 25.7025 0.9 25.7066C0.9 25.7107 0.9 25.7147 0.9 25.7188C0.9 25.7228 0.9 25.7268 0.9 25.7308C0.9 25.7348 0.9 25.7388 0.9 25.7428C0.9 25.7468 0.9 25.7507 0.9 25.7547C0.9 25.7586 0.9 25.7625 0.9 25.7665C0.9 25.7704 0.9 25.7743 0.9 25.7781C0.9 25.782 0.9 25.7859 0.9 25.7897C0.9 25.7936 0.9 25.7974 0.9 25.8012C0.9 25.8051 0.9 25.8089 0.9 25.8126C0.9 25.8164 0.9 25.8202 0.9 25.824C0.9 25.8277 0.9 25.8314 0.9 25.8352C0.9 25.8389 0.9 25.8426 0.9 25.8463C0.9 25.85 0.9 25.8536 0.9 25.8573C0.9 25.861 0.9 25.8646 0.9 25.8682C0.9 25.8718 0.9 25.8754 0.9 25.879C0.9 25.8826 0.9 25.8862 0.9 25.8898C0.9 25.8933 0.9 25.8969 0.9 25.9004C0.9 25.9039 0.9 25.9074 0.9 25.9109C0.9 25.9144 0.9 25.9179 0.9 25.9213C0.9 25.9248 0.9 25.9282 0.9 25.9317C0.9 25.9351 0.9 25.9385 0.9 25.9419C0.9 25.9453 0.9 25.9487 0.9 25.952C0.9 25.9554 0.9 25.9587 0.9 25.962C0.9 25.9654 0.9 25.9687 0.9 25.972C0.9 25.9753 0.9 25.9785 0.9 25.9818C0.9 25.985 0.9 25.9883 0.9 25.9915C0.9 25.9947 0.9 25.9979 0.9 26.0011C0.9 26.0043 0.9 26.0075 0.9 26.0106C0.9 26.0138 0.9 26.0169 0.9 26.02C0.9 26.0232 0.9 26.0263 0.9 26.0293C0.9 26.0324 0.9 26.0355 0.9 26.0385C0.9 26.0416 0.9 26.0446 0.9 26.0476C0.9 26.0506 0.9 26.0536 0.9 26.0566C0.9 26.0596 0.9 26.0626 0.9 26.0655C0.9 26.0684 0.9 26.0714 0.9 26.0743C0.9 26.0772 0.9 26.0801 0.9 26.083C0.9 26.0858 0.9 26.0887 0.9 26.0915C0.9 26.0944 0.9 26.0972 0.9 26.1C0.9 26.1028 0.9 26.1056 0.9 26.1083C0.9 26.1111 0.9 26.1138 0.9 26.1166C0.9 26.1193 0.9 26.122 0.9 26.1247C0.9 26.1274 0.9 26.1301 0.9 26.1327C0.9 26.1354 0.9 26.138 0.9 26.1406C0.9 26.1432 0.9 26.1458 0.9 26.1484C0.9 26.151 0.9 26.1536 0.9 26.1561C0.9 26.1587 0.9 26.1612 0.9 26.1637C0.9 26.1662 0.9 26.1687 0.9 26.1712C0.9 26.1736 0.9 26.1761 0.9 26.1785C0.9 26.181 0.9 26.1834 0.9 26.1858C0.9 26.1882 0.9 26.1905 0.9 26.1929C0.9 26.1953 0.9 26.1976 0.9 26.1999C0.9 26.2022 0.9 26.2045 0.9 26.2068C0.9 26.2091 0.9 26.2114 0.9 26.2136C0.9 26.2159 0.9 26.2181 0.9 26.2203C0.9 26.2225 0.9 26.2247 0.9 26.2269C0.9 26.229 0.9 26.2312 0.9 26.2333C0.9 26.2354 0.9 26.2376 0.9 26.2396C0.9 26.2417 0.9 26.2438 0.9 26.2459C0.9 26.2479 0.9 26.2499 0.9 26.252C0.9 26.254 0.9 26.256 0.9 26.2579C0.9 26.2599 0.9 26.2619 0.9 26.2638C0.9 26.2658 0.9 26.2677 0.9 26.2696C0.9 26.2715 0.9 26.2733 0.9 26.2752C0.9 26.2771 0.9 26.2789 0.9 26.2807C0.9 26.2825 0.9 26.2843 0.9 26.2861C0.9 26.2879 0.9 26.2897 0.9 26.2914C0.9 26.2931 0.9 26.2948 0.9 26.2965C0.9 26.2982 0.9 26.2999 0.9 26.3016C0.9 26.3032 0.9 26.3049 0.9 26.3065C0.9 26.3081 0.9 26.3097 0.9 26.3113C0.9 26.3129 0.9 26.3144 0.9 26.316C0.9 26.3175 0.9 26.319 0.9 26.3205C0.9 26.322 0.9 26.3235 0.9 26.325C0.9 26.3264 0.9 26.3279 0.9 26.3293C0.9 26.3307 0.9 26.3321 0.9 26.3335C0.9 26.3348 0.9 26.3362 0.9 26.3375C0.9 26.3389 0.9 26.3402 0.9 26.3415C0.9 26.3427 0.9 26.344 0.9 26.3453C0.9 26.3465 0.9 26.3478 0.9 26.349C0.9 26.3502 0.9 26.3514 0.9 26.3525C0.9 26.3537 0.9 26.3548 0.9 26.356C0.9 26.3571 0.9 26.3582 0.9 26.3593C0.9 26.3604 0.9 26.3614 0.9 26.3625C0.9 26.3635 0.9 26.3645 0.9 26.3655C0.9 26.3665 0.9 26.3675 0.9 26.3685C0.9 26.3694 0.9 26.3704 0.9 26.3713C0.9 26.3722 0.9 26.3731 0.9 26.374C0.9 26.3748 0.9 26.3757 0.9 26.3765C0.9 26.3773 0.9 26.3781 0.9 26.3789C0.9 26.3797 0.9 26.3805 0.9 26.3812C0.9 26.382 0.9 26.3827 0.9 26.3834C0.9 26.3841 0.9 26.3848 0.9 26.3854C0.9 26.3861 0.9 26.3867 0.9 26.3873C0.9 26.3879 0.9 26.3885 0.9 26.3891C0.9 26.3897 0.9 26.3902 0.9 26.3907C0.9 26.3913 0.9 26.3918 0.9 26.3923C0.9 26.3927 0.9 26.3932 0.9 26.3936C0.9 26.3941 0.9 26.3945 0.9 26.3949C0.9 26.3953 0.9 26.3956 0.9 26.396C0.9 26.3963 0.9 26.3967 0.9 26.397C0.9 26.3973 0.9 26.3976 0.9 26.3978C0.9 26.3981 0.9 26.3983 0.9 26.3985C0.9 26.3988 0.9 26.3989 0.9 26.3991C0.9 26.3993 0.9 26.3994 0.9 26.3996C0.9 26.3997 0.9 26.3998 0.9 26.3999C0.9 26.3999 0.9 26.4 0.9 26.4C0.9 26.4001 1 26.4001 1.1 26.4001C1.1 26.4001 1.1 26.4 1.1 26.4C1.1 26.3999 1.1 26.3998 1.1 26.3997C1.1 26.3996 1.1 26.3995 1.1 26.3994C1.1 26.3992 1.1 26.399 1.1 26.3988C1.1 26.3987 1.1 26.3984 1.1 26.3982C1.1 26.398 1.1 26.3977 1.1 26.3974C1.1 26.3971 1.1 26.3968 1.1 26.3965C1.1 26.3961 1.1 26.3958 1.1 26.3954C1.1 26.395 1.1 26.3946 1.1 26.3942C1.1 26.3938 1.1 26.3933 1.1 26.3929C1.1 26.3924 1.1 26.3919 1.1 26.3914C1.1 26.3909 1.1 26.3903 1.1 26.3897C1.1 26.3892 1.1 26.3886 1.1 26.388C1.1 26.3874 1.1 26.3867 1.1 26.3861C1.1 26.3854 1.1 26.3847 1.1 26.384C1.1 26.3833 1.1 26.3826 1.1 26.3818C1.1 26.381 1.1 26.3803 1.1 26.3795C1.1 26.3787 1.1 26.3778 1.1 26.377C1.1 26.3761 1.1 26.3753 1.1 26.3743C1.1 26.3734 1.1 26.3725 1.1 26.3716C1.1 26.3706 1.1 26.3697 1.1 26.3687C1.1 26.3677 1.1 26.3666 1.1 26.3656C1.1 26.3646 1.1 26.3635 1.1 26.3624C1.1 26.3613 1.1 26.3602 1.1 26.359C1.1 26.3579 1.1 26.3567 1.1 26.3555C1.1 26.3543 1.1 26.3531 1.1 26.3519C1.1 26.3506 1.1 26.3494 1.1 26.3481C1.1 26.3468 1.1 26.3455 1.1 26.3441H0.9ZM26.1764 24.2852H23.4745V24.4852H26.1764V24.2852ZM23.3766 24.3651L22.1485 30.3645L22.3444 30.4046L23.5725 24.4052L23.3766 24.3651ZM22.1501 30.4114L23.3782 34.819L23.5709 34.7653L22.3428 30.3577L22.1501 30.4114ZM23.3843 34.8353L24.6124 37.4064L24.7929 37.3202L23.5648 34.7491L23.3843 34.8353ZM24.6464 37.446L32.0151 42.4658L32.1277 42.3005L24.759 37.2807L24.6464 37.446ZM32.0127 42.4641C32.0542 42.4942 32.1094 42.5545 32.1739 42.6578C32.2376 42.7598 32.3072 42.8988 32.3795 43.0806C32.5242 43.444 32.6775 43.9721 32.8175 44.7038C33.0973 46.1668 33.3223 48.4354 33.3223 51.8107H33.5223C33.5223 48.4277 33.2969 46.1457 33.0139 44.6662C32.8724 43.9266 32.7161 43.3854 32.5653 43.0066C32.4899 42.8172 32.4153 42.6668 32.3435 42.5519C32.2726 42.4382 32.2011 42.3538 32.1301 42.3022L32.0127 42.4641ZM33.3223 51.8107C33.3223 53.5022 33.3786 54.7663 33.4705 55.6972C33.5622 56.6261 33.6899 57.2297 33.836 57.5961C33.9088 57.7788 33.9896 57.9113 34.0802 57.9946C34.1744 58.0813 34.2818 58.1161 34.3924 58.0932C34.4962 58.0717 34.586 58.0027 34.6604 57.9196C34.7359 57.8352 34.8039 57.7271 34.8626 57.61L34.6838 57.5204C34.63 57.6277 34.5713 57.7193 34.5114 57.7862C34.4503 57.8544 34.3959 57.8882 34.3519 57.8973C34.3148 57.905 34.2709 57.8983 34.2156 57.8474C34.1567 57.7932 34.0897 57.6923 34.0218 57.522C33.8864 57.1824 33.7608 56.6015 33.6696 55.6775C33.5785 54.7555 33.5223 53.4984 33.5223 51.8107H33.3223ZM34.8127 57.6571L57.9013 47.7398L57.8223 47.556L34.7338 57.4733L34.8127 57.6571ZM57.9532 47.6072C57.7086 47.0586 57.3538 46.1866 57.085 45.3552C56.9506 44.9393 56.8383 44.5358 56.7718 44.189C56.7045 43.838 56.6873 43.5599 56.7307 43.387L56.5367 43.3383C56.4818 43.5572 56.5076 43.873 56.5754 44.2267C56.644 44.5847 56.759 44.9969 56.8947 45.4167C57.1663 46.2565 57.5238 47.1353 57.7705 47.6886L57.9532 47.6072ZM56.7307 43.387C56.8516 42.9047 57.5914 40.5064 57.9301 38.1427C58.0994 36.9612 58.1703 35.7781 58.0103 34.8404C57.8508 33.9058 57.454 33.1795 56.6579 32.9811L56.6095 33.1751C57.2872 33.344 57.6579 33.9645 57.8131 34.8741C57.9678 35.7806 57.9005 36.939 57.7321 38.1144C57.3954 40.4644 56.6614 42.8412 56.5367 43.3383L56.7307 43.387ZM56.6579 32.9811C55.9487 32.8043 55.2586 32.2776 54.6196 31.6195C53.9822 30.9632 53.4064 30.1881 52.9225 29.5295C52.6813 29.2012 52.462 28.9008 52.2707 28.6611C52.0817 28.4244 51.9113 28.2354 51.767 28.1395C51.6957 28.0921 51.6135 28.0556 51.5293 28.0664C51.4363 28.0782 51.3731 28.1423 51.3336 28.2235C51.2953 28.3024 51.2723 28.4096 51.2599 28.5411C51.2474 28.6742 51.2451 28.8402 51.2529 29.0416L51.4527 29.0339C51.4451 28.8373 51.4476 28.6809 51.459 28.5598C51.4706 28.437 51.4907 28.3579 51.5135 28.311C51.5351 28.2664 51.5513 28.2652 51.5546 28.2647C51.5667 28.2632 51.5981 28.2674 51.6563 28.306C51.7711 28.3823 51.9239 28.5473 52.1144 28.7859C52.3026 29.0216 52.5189 29.318 52.7613 29.6479C53.2445 30.3055 53.8278 31.0914 54.4761 31.7589C55.1227 32.4247 55.845 32.9846 56.6095 33.1751L56.6579 32.9811ZM51.4234 28.9669C50.6438 28.1897 49.3945 27.024 48.1792 26.0518C47.5717 25.5658 46.9705 25.1266 46.4395 24.8083C46.1741 24.6491 45.9243 24.5191 45.6986 24.4287C45.4743 24.3387 45.2673 24.2852 45.0894 24.2852V24.4852C45.2308 24.4852 45.4105 24.5286 45.6242 24.6143C45.8368 24.6995 46.0767 24.8239 46.3367 24.9798C46.8568 25.2916 47.45 25.7246 48.0542 26.208C49.2624 27.1744 50.5061 28.3349 51.2822 29.1085L51.4234 28.9669ZM45.1177 24.2893C44.0101 23.9621 42.3941 23.5682 41.1502 23.453C40.5328 23.3959 39.9881 23.4052 39.6441 23.539C39.4696 23.6069 39.3306 23.7131 39.2724 23.8745C39.2146 24.0347 39.2464 24.222 39.3507 24.43L39.5294 24.3403C39.4373 24.1565 39.4291 24.0296 39.4605 23.9424C39.4916 23.8563 39.571 23.782 39.7166 23.7254C40.0127 23.6102 40.5149 23.5951 41.1318 23.6522C42.3565 23.7656 43.958 24.1553 45.0611 24.4811L45.1177 24.2893ZM39.3695 24.3144C38.7252 24.9567 36.8987 26.2441 34.7732 26.2441V26.4441C36.9707 26.4441 38.845 25.1196 39.5107 24.456L39.3695 24.3144ZM34.7732 26.2441C33.7061 26.2441 32.059 25.9207 30.4254 25.5125C28.7948 25.1051 27.1884 24.6161 26.2079 24.2903L26.1449 24.4801C27.1294 24.8072 28.7407 25.2977 30.3769 25.7065C32.01 26.1146 33.6788 26.4441 34.7732 26.4441V26.2441ZM26.1058 24.456C26.4316 24.7808 26.8677 25.2645 27.1239 25.6636C27.1876 25.7629 27.2389 25.8549 27.2745 25.9365C27.3106 26.0192 27.3276 26.0848 27.3291 26.133C27.3305 26.1786 27.3183 26.1988 27.3044 26.2106C27.2867 26.2256 27.246 26.2441 27.1589 26.2441V26.4441C27.2682 26.4441 27.3647 26.4219 27.434 26.3629C27.5071 26.3007 27.5317 26.2138 27.529 26.1268C27.5264 26.0423 27.4985 25.9498 27.4578 25.8565C27.4166 25.762 27.3594 25.6603 27.2922 25.5555C27.0243 25.1383 26.5762 24.6426 26.247 24.3144L26.1058 24.456ZM27.1589 26.2441C26.8953 26.2441 26.5289 26.3333 26.1335 26.482C25.7357 26.6317 25.2998 26.8452 24.8948 27.1014C24.4903 27.3573 24.1131 27.6581 23.8359 27.9839C23.5596 28.3085 23.3745 28.6676 23.3745 29.0377H23.5745C23.5745 28.7345 23.7272 28.4202 23.9882 28.1135C24.2483 27.8079 24.6079 27.5195 25.0017 27.2704C25.3951 27.0215 25.8188 26.8141 26.2039 26.6692C26.5915 26.5234 26.9312 26.4441 27.1589 26.4441V26.2441ZM23.3745 29.0377C23.3745 29.5476 23.1825 29.8547 22.952 30.0367C22.7171 30.2222 22.4331 30.2845 22.2464 30.2845V30.4845C22.4691 30.4845 22.7992 30.4121 23.076 30.1936C23.3572 29.9716 23.5745 29.6053 23.5745 29.0377H23.3745ZM37.5381 27.7686C38.0888 27.3213 38.9117 26.7201 39.5936 26.3655C39.9381 26.1864 40.2312 26.0787 40.4308 26.0737C40.5284 26.0713 40.5886 26.0938 40.6249 26.1283C40.6606 26.1623 40.691 26.2253 40.691 26.3441H40.891C40.891 26.1936 40.8523 26.0686 40.7628 25.9834C40.6738 25.8987 40.5528 25.8706 40.4258 25.8738C40.1764 25.88 39.8477 26.008 39.5014 26.1881C38.8018 26.5518 37.9667 27.1627 37.412 27.6133L37.5381 27.7686ZM40.691 26.3441C40.691 26.3462 40.691 26.3484 40.691 26.3505C40.691 26.3526 40.691 26.3547 40.691 26.3568C40.691 26.3589 40.691 26.361 40.691 26.3631C40.691 26.3652 40.691 26.3673 40.691 26.3694C40.691 26.3715 40.691 26.3736 40.691 26.3757C40.691 26.3778 40.691 26.3799 40.691 26.3821C40.691 26.3842 40.691 26.3863 40.691 26.3884C40.691 26.3905 40.691 26.3926 40.691 26.3947C40.691 26.3968 40.691 26.3989 40.691 26.401C40.691 26.4031 40.691 26.4053 40.691 26.4074C40.691 26.4095 40.691 26.4116 40.691 26.4137C40.691 26.4158 40.691 26.4179 40.691 26.42C40.691 26.4221 40.691 26.4243 40.691 26.4264C40.691 26.4285 40.691 26.4306 40.691 26.4327C40.691 26.4348 40.691 26.4369 40.691 26.439C40.691 26.4412 40.691 26.4433 40.691 26.4454C40.691 26.4475 40.691 26.4496 40.691 26.4517C40.691 26.4538 40.691 26.456 40.691 26.4581C40.691 26.4602 40.691 26.4623 40.691 26.4644C40.691 26.4665 40.691 26.4687 40.691 26.4708C40.691 26.4729 40.691 26.475 40.691 26.4771C40.691 26.4792 40.691 26.4813 40.691 26.4835C40.691 26.4856 40.691 26.4877 40.691 26.4898C40.691 26.4919 40.691 26.494 40.691 26.4962C40.691 26.4983 40.691 26.5004 40.691 26.5025C40.691 26.5046 40.691 26.5068 40.691 26.5089C40.691 26.511 40.691 26.5131 40.691 26.5152C40.691 26.5173 40.691 26.5195 40.691 26.5216C40.691 26.5237 40.691 26.5258 40.691 26.5279C40.691 26.5301 40.691 26.5322 40.691 26.5343C40.691 26.5364 40.691 26.5385 40.691 26.5407C40.691 26.5428 40.691 26.5449 40.691 26.547C40.691 26.5491 40.691 26.5513 40.691 26.5534C40.691 26.5555 40.691 26.5576 40.691 26.5597C40.691 26.5619 40.691 26.564 40.691 26.5661C40.691 26.5682 40.691 26.5703 40.691 26.5725C40.691 26.5746 40.691 26.5767 40.691 26.5788C40.691 26.5809 40.691 26.5831 40.691 26.5852C40.691 26.5873 40.691 26.5894 40.691 26.5916C40.691 26.5937 40.691 26.5958 40.691 26.5979C40.691 26.6 40.691 26.6022 40.691 26.6043C40.691 26.6064 40.691 26.6085 40.691 26.6107C40.691 26.6128 40.691 26.6149 40.691 26.617C40.691 26.6191 40.691 26.6213 40.691 26.6234C40.691 26.6255 40.691 26.6276 40.691 26.6298C40.691 26.6319 40.691 26.634 40.691 26.6361C40.691 26.6383 40.691 26.6404 40.691 26.6425C40.691 26.6446 40.691 26.6467 40.691 26.6489C40.691 26.651 40.691 26.6531 40.691 26.6552C40.691 26.6574 40.691 26.6595 40.691 26.6616C40.691 26.6637 40.691 26.6659 40.691 26.668C40.691 26.6701 40.691 26.6722 40.691 26.6744C40.691 26.6765 40.691 26.6786 40.691 26.6807C40.691 26.6828 40.691 26.685 40.691 26.6871C40.691 26.6892 40.691 26.6913 40.691 26.6935C40.691 26.6956 40.691 26.6977 40.691 26.6998C40.691 26.702 40.691 26.7041 40.691 26.7062C40.691 26.7083 40.691 26.7105 40.691 26.7126C40.691 26.7147 40.691 26.7168 40.691 26.719C40.691 26.7211 40.691 26.7232 40.691 26.7253C40.691 26.7275 40.691 26.7296 40.691 26.7317C40.691 26.7338 40.691 26.7359 40.691 26.7381C40.691 26.7402 40.691 26.7423 40.691 26.7444C40.691 26.7466 40.691 26.7487 40.691 26.7508C40.691 26.7529 40.691 26.7551 40.691 26.7572C40.691 26.7593 40.691 26.7614 40.691 26.7636C40.691 26.7657 40.691 26.7678 40.691 26.7699C40.691 26.772 40.691 26.7742 40.691 26.7763C40.691 26.7784 40.691 26.7805 40.691 26.7827C40.691 26.7848 40.691 26.7869 40.691 26.789C40.691 26.7912 40.691 26.7933 40.691 26.7954C40.691 26.7975 40.691 26.7996 40.691 26.8018C40.691 26.8039 40.691 26.806 40.691 26.8081C40.691 26.8103 40.691 26.8124 40.691 26.8145C40.691 26.8166 40.691 26.8187 40.691 26.8209C40.691 26.823 40.691 26.8251 40.691 26.8272C40.691 26.8294 40.691 26.8315 40.691 26.8336C40.691 26.8357 40.691 26.8378 40.691 26.84C40.691 26.8421 40.691 26.8442 40.691 26.8463C40.691 26.8484 40.691 26.8506 40.691 26.8527C40.691 26.8548 40.691 26.8569 40.691 26.859C40.691 26.8612 40.691 26.8633 40.691 26.8654C40.691 26.8675 40.691 26.8696 40.691 26.8718C40.691 26.8739 40.691 26.876 40.691 26.8781C40.691 26.8802 40.691 26.8824 40.691 26.8845C40.691 26.8866 40.691 26.8887 40.691 26.8908C40.691 26.893 40.691 26.8951 40.691 26.8972C40.691 26.8993 40.691 26.9014 40.691 26.9035C40.691 26.9057 40.691 26.9078 40.691 26.9099C40.691 26.912 40.691 26.9141 40.691 26.9163C40.691 26.9184 40.691 26.9205 40.691 26.9226C40.691 26.9247 40.691 26.9268 40.691 26.929C40.691 26.9311 40.691 26.9332 40.691 26.9353C40.691 26.9374 40.691 26.9395 40.691 26.9417C40.691 26.9438 40.691 26.9459 40.691 26.948C40.691 26.9501 40.691 26.9522 40.691 26.9543C40.691 26.9565 40.691 26.9586 40.691 26.9607C40.691 26.9628 40.691 26.9649 40.691 26.967C40.691 26.9691 40.691 26.9713 40.691 26.9734C40.691 26.9755 40.691 26.9776 40.691 26.9797C40.691 26.9818 40.691 26.9839 40.691 26.986C40.691 26.9882 40.691 26.9903 40.691 26.9924C40.691 26.9945 40.691 26.9966 40.691 26.9987C40.691 27.0008 40.691 27.0029 40.691 27.005C40.691 27.0072 40.691 27.0093 40.691 27.0114C40.691 27.0135 40.691 27.0156 40.691 27.0177C40.691 27.0198 40.691 27.0219 40.691 27.024C40.691 27.0261 40.691 27.0282 40.691 27.0304C40.691 27.0325 40.691 27.0346 40.691 27.0367C40.691 27.0388 40.691 27.0409 40.691 27.043C40.691 27.0451 40.691 27.0472 40.691 27.0493C40.691 27.0514 40.691 27.0535 40.691 27.0556C40.691 27.0577 40.691 27.0598 40.691 27.062C40.691 27.0641 40.691 27.0662 40.691 27.0683C40.691 27.0704 40.691 27.0725 40.691 27.0746C40.691 27.0767 40.691 27.0788 40.691 27.0809C40.691 27.083 40.691 27.0851 40.691 27.0872C40.691 27.0893 40.691 27.0914 40.691 27.0935C40.691 27.0956 40.691 27.0977 40.691 27.0998C40.691 27.1019 40.691 27.104 40.691 27.1061C40.691 27.1082 40.691 27.1103 40.691 27.1124C40.691 27.1145 40.691 27.1166 40.691 27.1187C40.691 27.1208 40.691 27.1229 40.691 27.125C40.691 27.1271 40.691 27.1292 40.691 27.1313C40.691 27.1334 40.691 27.1355 40.691 27.1376C40.691 27.1397 40.691 27.1418 40.691 27.1439C40.691 27.146 40.691 27.1481 40.691 27.1501C40.691 27.1522 40.691 27.1543 40.691 27.1564C40.691 27.1585 40.691 27.1606 40.691 27.1627C40.691 27.1648 40.691 27.1669 40.691 27.169C40.691 27.1711 40.691 27.1732 40.691 27.1753C40.691 27.1773 40.691 27.1794 40.691 27.1815C40.691 27.1836 40.691 27.1857 40.691 27.1878C40.691 27.1899 40.691 27.192 40.691 27.1941C40.691 27.1961 40.691 27.1982 40.691 27.2003C40.691 27.2024 40.691 27.2045 40.691 27.2066C40.691 27.2087 40.691 27.2108 40.691 27.2128C40.691 27.2149 40.691 27.217 40.691 27.2191C40.691 27.2212 40.691 27.2233 40.691 27.2253C40.691 27.2274 40.691 27.2295 40.691 27.2316C40.691 27.2337 40.691 27.2358 40.691 27.2378C40.691 27.2399 40.691 27.242 40.691 27.2441C40.691 27.2462 40.691 27.2482 40.691 27.2503C40.691 27.2524 40.691 27.2545 40.691 27.2566C40.691 27.2586 40.691 27.2607 40.691 27.2628C40.691 27.2649 40.691 27.2669 40.691 27.269C40.691 27.2711 40.691 27.2732 40.691 27.2752C40.691 27.2773 40.691 27.2794 40.691 27.2815C40.691 27.2835 40.691 27.2856 40.691 27.2877C40.691 27.2898 40.691 27.2918 40.691 27.2939C40.691 27.296 40.691 27.298 40.691 27.3001C40.691 27.3022 40.691 27.3043 40.691 27.3063C40.691 27.3084 40.691 27.3105 40.691 27.3125C40.691 27.3146 40.691 27.3167 40.691 27.3187C40.691 27.3208 40.691 27.3229 40.691 27.3249C40.691 27.327 40.691 27.3291 40.691 27.3311C40.691 27.3332 40.691 27.3353 40.691 27.3373C40.691 27.3394 40.691 27.3415 40.691 27.3435C40.691 27.3456 40.691 27.3476 40.691 27.3497C40.691 27.3518 40.691 27.3538 40.691 27.3559C40.691 27.3579 40.691 27.36 40.691 27.3621C40.691 27.3641 40.691 27.3662 40.691 27.3682C40.691 27.3703 40.691 27.3723 40.691 27.3744C40.691 27.3765 40.691 27.3785 40.691 27.3806C40.691 27.3826 40.691 27.3847 40.691 27.3867C40.691 27.3888 40.691 27.3908 40.691 27.3929C40.691 27.3949 40.691 27.397 40.691 27.399C40.691 27.4011 40.691 27.4031 40.691 27.4052C40.691 27.4072 40.691 27.4093 40.691 27.4113C40.691 27.4134 40.691 27.4154 40.691 27.4175C40.691 27.4195 40.691 27.4216 40.691 27.4236C40.691 27.4257 40.691 27.4277 40.691 27.4298C40.691 27.4318 40.691 27.4338 40.691 27.4359C40.691 27.4379 40.691 27.44 40.691 27.442C40.691 27.4441 40.691 27.4461 40.691 27.4481C40.691 27.4502 40.691 27.4522 40.691 27.4543C40.691 27.4563 40.691 27.4583 40.691 27.4604C40.691 27.4624 40.691 27.4644 40.691 27.4665C40.691 27.4685 40.691 27.4705 40.691 27.4726C40.691 27.4746 40.691 27.4766 40.691 27.4787C40.691 27.4807 40.691 27.4827 40.691 27.4848C40.691 27.4868 40.691 27.4888 40.691 27.4909C40.691 27.4929 40.691 27.4949 40.691 27.4969C40.691 27.499 40.691 27.501 40.691 27.503C40.691 27.5051 40.691 27.5071 40.691 27.5091C40.691 27.5111 40.691 27.5132 40.691 27.5152C40.691 27.5172 40.691 27.5192 40.691 27.5212C40.691 27.5233 40.691 27.5253 40.691 27.5273C40.691 27.5293 40.691 27.5314 40.691 27.5334C40.691 27.5354 40.691 27.5374 40.691 27.5394C40.691 27.5414 40.691 27.5435 40.691 27.5455C40.691 27.5475 40.691 27.5495 40.691 27.5515C40.691 27.5535 40.691 27.5555 40.691 27.5576C40.691 27.5596 40.691 27.5616 40.691 27.5636C40.691 27.5656 40.691 27.5676 40.691 27.5696C40.691 27.5716 40.691 27.5736 40.691 27.5756C40.691 27.5777 40.691 27.5797 40.691 27.5817C40.691 27.5837 40.691 27.5857 40.691 27.5877C40.691 27.5897 40.691 27.5917 40.691 27.5937C40.691 27.5957 40.691 27.5977 40.691 27.5997C40.691 27.6017 40.691 27.6037 40.691 27.6057C40.691 27.6077 40.691 27.6097 40.691 27.6117C40.691 27.6137 40.691 27.6157 40.691 27.6177C40.691 27.6197 40.691 27.6217 40.691 27.6237C40.691 27.6257 40.691 27.6276 40.691 27.6296C40.691 27.6316 40.691 27.6336 40.691 27.6356C40.691 27.6376 40.691 27.6396 40.691 27.6416C40.691 27.6436 40.691 27.6456 40.691 27.6475C40.691 27.6495 40.691 27.6515 40.691 27.6535C40.691 27.6555 40.691 27.6575 40.691 27.6594C40.691 27.6614 40.691 27.6634 40.691 27.6654C40.691 27.6674 40.691 27.6694 40.691 27.6713C40.691 27.6733 40.691 27.6753 40.691 27.6773C40.691 27.6792 40.691 27.6812 40.691 27.6832C40.691 27.6852 40.691 27.6871 40.691 27.6891C40.691 27.6911 40.691 27.6931 40.691 27.695C40.691 27.697 40.691 27.699 40.691 27.7009C40.691 27.7029 40.691 27.7049 40.691 27.7069C40.691 27.7088 40.691 27.7108 40.691 27.7128C40.691 27.7147 40.691 27.7167 40.691 27.7186C40.691 27.7206 40.691 27.7226 40.691 27.7245C40.691 27.7265 40.691 27.7285 40.691 27.7304C40.691 27.7324 40.691 27.7343 40.691 27.7363C40.691 27.7382 40.691 27.7402 40.691 27.7422C40.691 27.7441 40.691 27.7461 40.691 27.748C40.691 27.75 40.691 27.7519 40.691 27.7539C40.691 27.7558 40.691 27.7578 40.691 27.7597C40.691 27.7617 40.691 27.7636 40.691 27.7656C40.691 27.7675 40.691 27.7695 40.691 27.7714C40.691 27.7734 40.691 27.7753 40.691 27.7773C40.691 27.7792 40.691 27.7811 40.691 27.7831C40.691 27.785 40.691 27.787 40.691 27.7889C40.691 27.7908 40.691 27.7928 40.691 27.7947C40.691 27.7967 40.691 27.7986 40.691 27.8005C40.691 27.8025 40.691 27.8044 40.691 27.8063C40.691 27.8083 40.691 27.8102 40.691 27.8121C40.691 27.8141 40.691 27.816 40.691 27.8179C40.691 27.8198 40.691 27.8218 40.691 27.8237C40.691 27.8256 40.691 27.8275 40.691 27.8295C40.691 27.8314 40.691 27.8333 40.691 27.8352C40.691 27.8372 40.691 27.8391 40.691 27.841C40.691 27.8429 40.691 27.8448 40.691 27.8468C40.691 27.8487 40.691 27.8506 40.691 27.8525C40.691 27.8544 40.691 27.8563 40.691 27.8582C40.691 27.8602 40.691 27.8621 40.691 27.864C40.691 27.8659 40.691 27.8678 40.691 27.8697C40.691 27.8716 40.691 27.8735 40.691 27.8754C40.691 27.8773 40.691 27.8792 40.691 27.8812C40.691 27.8831 40.691 27.885 40.691 27.8869C40.691 27.8888 40.691 27.8907 40.691 27.8926C40.691 27.8945 40.691 27.8964 40.691 27.8983C40.691 27.9002 40.691 27.902 40.691 27.9039C40.691 27.9058 40.691 27.9077 40.691 27.9096C40.691 27.9115 40.691 27.9134 40.691 27.9153C40.691 27.9172 40.691 27.9191 40.691 27.921C40.691 27.9228 40.691 27.9247 40.691 27.9266C40.691 27.9285 40.691 27.9304 40.691 27.9323C40.691 27.9342 40.691 27.936 40.691 27.9379C40.691 27.9398 40.691 27.9417 40.691 27.9436C40.691 27.9454 40.691 27.9473 40.691 27.9492C40.691 27.9511 40.691 27.9529 40.691 27.9548C40.691 27.9567 40.691 27.9586 40.691 27.9604C40.691 27.9623 40.691 27.9642 40.691 27.966C40.691 27.9679 40.691 27.9698 40.691 27.9716C40.691 27.9735 40.691 27.9754 40.691 27.9772C40.691 27.9791 40.691 27.9809 40.691 27.9828C40.691 27.9847 40.691 27.9865 40.691 27.9884C40.691 27.9902 40.691 27.9921 40.691 27.994C40.691 27.9958 40.691 27.9977 40.691 27.9995C40.691 28.0014 40.691 28.0032 40.691 28.0051C40.691 28.0069 40.691 28.0088 40.691 28.0106C40.691 28.0125 40.691 28.0143 40.691 28.0162C40.691 28.018 40.691 28.0199 40.691 28.0217C40.691 28.0235 40.691 28.0254 40.691 28.0272C40.691 28.0291 40.691 28.0309 40.691 28.0327C40.691 28.0346 40.691 28.0364 40.691 28.0382C40.691 28.0401 40.691 28.0419 40.691 28.0437C40.691 28.0456 40.691 28.0474 40.691 28.0492C40.691 28.0511 40.691 28.0529 40.691 28.0547C40.691 28.0565 40.691 28.0584 40.691 28.0602C40.691 28.062 40.691 28.0638 40.691 28.0657C40.691 28.0675 40.691 28.0693 40.691 28.0711C40.691 28.0729 40.691 28.0748 40.691 28.0766C40.691 28.0784 40.691 28.0802 40.691 28.082C40.691 28.0838 40.691 28.0856 40.691 28.0875C40.691 28.0893 40.691 28.0911 40.691 28.0929C40.691 28.0947 40.691 28.0965 40.691 28.0983C40.691 28.1001 40.691 28.1019 40.691 28.1037C40.691 28.1055 40.691 28.1073 40.691 28.1091C40.691 28.1109 40.691 28.1127 40.691 28.1145C40.691 28.1163 40.691 28.1181 40.691 28.1199C40.691 28.1217 40.691 28.1235 40.691 28.1253C40.691 28.1271 40.691 28.1289 40.691 28.1306C40.691 28.1324 40.691 28.1342 40.691 28.136C40.691 28.1378 40.691 28.1396 40.691 28.1414C40.691 28.1431 40.691 28.1449 40.691 28.1467C40.691 28.1485 40.691 28.1503 40.691 28.152C40.691 28.1538 40.691 28.1556 40.691 28.1574C40.691 28.1591 40.691 28.1609 40.691 28.1627C40.691 28.1644 40.691 28.1662 40.691 28.168C40.691 28.1698 40.691 28.1715 40.691 28.1733C40.691 28.1751 40.691 28.1768 40.691 28.1786C40.691 28.1803 40.691 28.1821 40.691 28.1839C40.691 28.1856 40.691 28.1874 40.691 28.1891C40.691 28.1909 40.691 28.1926 40.691 28.1944C40.691 28.1961 40.691 28.1979 40.691 28.1997C40.691 28.2014 40.691 28.2032 40.691 28.2049C40.691 28.2066 40.691 28.2084 40.691 28.2101C40.691 28.2119 40.691 28.2136 40.691 28.2154C40.691 28.2171 40.691 28.2188 40.691 28.2206C40.691 28.2223 40.691 28.2241 40.691 28.2258C40.691 28.2275 40.691 28.2293 40.691 28.231C40.691 28.2327 40.691 28.2345 40.691 28.2362C40.691 28.2379 40.691 28.2396 40.691 28.2414C40.691 28.2431 40.691 28.2448 40.691 28.2465C40.691 28.2483 40.691 28.25 40.691 28.2517C40.691 28.2534 40.691 28.2551 40.691 28.2569C40.691 28.2586 40.691 28.2603 40.691 28.262C40.691 28.2637 40.691 28.2654 40.691 28.2671C40.691 28.2688 40.691 28.2706 40.691 28.2723C40.691 28.274 40.691 28.2757 40.691 28.2774C40.691 28.2791 40.691 28.2808 40.691 28.2825C40.691 28.2842 40.691 28.2859 40.691 28.2876C40.691 28.2893 40.691 28.291 40.691 28.2927C40.691 28.2944 40.691 28.2961 40.691 28.2977C40.691 28.2994 40.691 28.3011 40.691 28.3028C40.691 28.3045 40.691 28.3062 40.691 28.3079C40.691 28.3096 40.691 28.3112 40.691 28.3129C40.691 28.3146 40.691 28.3163 40.691 28.318C40.691 28.3196 40.691 28.3213 40.691 28.323C40.691 28.3247 40.691 28.3263 40.691 28.328C40.691 28.3297 40.691 28.3314 40.691 28.333C40.691 28.3347 40.691 28.3364 40.691 28.338C40.691 28.3397 40.691 28.3413 40.691 28.343C40.691 28.3447 40.691 28.3463 40.691 28.348C40.691 28.3496 40.691 28.3513 40.691 28.353C40.691 28.3546 40.691 28.3563 40.691 28.3579C40.691 28.3596 40.691 28.3612 40.691 28.3629C40.691 28.3645 40.691 28.3662 40.691 28.3678C40.691 28.3695 40.691 28.3711 40.691 28.3727C40.691 28.3744 40.691 28.376 40.691 28.3777C40.691 28.3793 40.691 28.3809 40.691 28.3826C40.691 28.3842 40.691 28.3858 40.691 28.3875C40.691 28.3891 40.691 28.3907 40.691 28.3923C40.691 28.394 40.691 28.3956 40.691 28.3972C40.691 28.3989 40.691 28.4005 40.691 28.4021C40.691 28.4037 40.691 28.4053 40.691 28.407C40.691 28.4086 40.691 28.4102 40.691 28.4118C40.691 28.4134 40.691 28.415 40.691 28.4166C40.691 28.4182 40.691 28.4199 40.691 28.4215C40.691 28.4231 40.691 28.4247 40.691 28.4263C40.691 28.4279 40.691 28.4295 40.691 28.4311C40.691 28.4327 40.691 28.4343 40.691 28.4359C40.691 28.4375 40.691 28.4391 40.691 28.4407C40.691 28.4422 40.691 28.4438 40.691 28.4454C40.691 28.447 40.691 28.4486 40.691 28.4502C40.691 28.4518 40.691 28.4534 40.691 28.4549C40.691 28.4565 40.691 28.4581 40.691 28.4597C40.691 28.4613 40.691 28.4628 40.691 28.4644C40.691 28.466 40.691 28.4675 40.691 28.4691C40.691 28.4707 40.691 28.4723 40.691 28.4738C40.691 28.4754 40.691 28.477 40.691 28.4785C40.691 28.4801 40.691 28.4816 40.691 28.4832C40.691 28.4848 40.691 28.4863 40.691 28.4879C40.691 28.4894 40.691 28.491 40.691 28.4925C40.691 28.4941 40.691 28.4956 40.691 28.4972C40.691 28.4987 40.691 28.5003 40.691 28.5018C40.691 28.5034 40.691 28.5049 40.691 28.5065C40.691 28.508 40.691 28.5095 40.691 28.5111C40.691 28.5126 40.691 28.5142 40.691 28.5157C40.691 28.5172 40.691 28.5188 40.691 28.5203C40.691 28.5218 40.691 28.5233 40.691 28.5249C40.691 28.5264 40.691 28.5279 40.691 28.5294C40.691 28.531 40.691 28.5325 40.691 28.534C40.691 28.5355 40.691 28.537 40.691 28.5385C40.691 28.5401 40.691 28.5416 40.691 28.5431C40.691 28.5446 40.691 28.5461 40.691 28.5476C40.691 28.5491 40.691 28.5506 40.691 28.5521C40.691 28.5536 40.691 28.5551 40.691 28.5566C40.691 28.5581 40.691 28.5596 40.691 28.5611C40.691 28.5626 40.691 28.5641 40.691 28.5656C40.691 28.5671 40.691 28.5686 40.691 28.5701C40.691 28.5716 40.691 28.573 40.691 28.5745C40.691 28.576 40.691 28.5775 40.691 28.579C40.691 28.5805 40.691 28.5819 40.691 28.5834C40.691 28.5849 40.691 28.5864 40.691 28.5878C40.691 28.5893 40.691 28.5908 40.691 28.5922C40.691 28.5937 40.691 28.5952 40.691 28.5966C40.691 28.5981 40.691 28.5996 40.691 28.601C40.691 28.6025 40.691 28.6039 40.691 28.6054C40.691 28.6068 40.691 28.6083 40.691 28.6098C40.691 28.6112 40.691 28.6127 40.691 28.6141C40.691 28.6156 40.691 28.617 40.691 28.6184C40.691 28.6199 40.691 28.6213 40.691 28.6228C40.691 28.6242 40.691 28.6256 40.691 28.6271C40.691 28.6285 40.691 28.6299 40.691 28.6314C40.691 28.6328 40.691 28.6342 40.691 28.6357C40.691 28.6371 40.691 28.6385 40.691 28.6399C40.691 28.6414 40.691 28.6428 40.691 28.6442C40.691 28.6456 40.691 28.647 40.691 28.6485C40.691 28.6499 40.691 28.6513 40.691 28.6527C40.691 28.6541 40.691 28.6555 40.691 28.6569C40.691 28.6583 40.691 28.6597 40.691 28.6611C40.691 28.6625 40.691 28.6639 40.691 28.6653C40.691 28.6667 40.691 28.6681 40.691 28.6695C40.691 28.6709 40.691 28.6723 40.691 28.6737C40.691 28.6751 40.691 28.6765 40.691 28.6779C40.691 28.6793 40.691 28.6806 40.691 28.682C40.691 28.6834 40.691 28.6848 40.691 28.6862C40.691 28.6875 40.691 28.6889 40.691 28.6903C40.691 28.6917 40.691 28.693 40.691 28.6944C40.691 28.6958 40.691 28.6971 40.691 28.6985C40.691 28.6999 40.691 28.7012 40.691 28.7026C40.691 28.7039 40.691 28.7053 40.691 28.7067C40.691 28.708 40.691 28.7094 40.691 28.7107C40.691 28.7121 40.691 28.7134 40.691 28.7148C40.691 28.7161 40.691 28.7175 40.691 28.7188C40.691 28.7201 40.691 28.7215 40.691 28.7228C40.691 28.7242 40.691 28.7255 40.691 28.7268C40.691 28.7282 40.691 28.7295 40.691 28.7308C40.691 28.7322 40.691 28.7335 40.691 28.7348C40.691 28.7361 40.691 28.7375 40.691 28.7388C40.691 28.7401 40.691 28.7414 40.691 28.7427C40.691 28.7441 40.691 28.7454 40.691 28.7467C40.691 28.748 40.691 28.7493 40.691 28.7506C40.691 28.7519 40.691 28.7532 40.691 28.7545C40.691 28.7558 40.691 28.7571 40.691 28.7584C40.691 28.7597 40.691 28.761 40.691 28.7623C40.691 28.7636 40.691 28.7649 40.691 28.7662C40.691 28.7675 40.691 28.7688 40.691 28.7701C40.691 28.7714 40.691 28.7726 40.691 28.7739C40.691 28.7752 40.691 28.7765 40.691 28.7778C40.691 28.779 40.691 28.7803 40.691 28.7816C40.691 28.7829 40.691 28.7841 40.691 28.7854C40.691 28.7867 40.691 28.7879 40.691 28.7892C40.691 28.7905 40.691 28.7917 40.691 28.793C40.691 28.7942 40.691 28.7955 40.691 28.7967C40.691 28.798 40.691 28.7992 40.691 28.8005C40.691 28.8017 40.691 28.803 40.691 28.8042C40.691 28.8055 40.691 28.8067 40.691 28.808C40.691 28.8092 40.691 28.8104 40.691 28.8117C40.691 28.8129 40.691 28.8141 40.691 28.8154C40.691 28.8166 40.691 28.8178 40.691 28.8191C40.691 28.8203 40.691 28.8215 40.691 28.8227C40.691 28.824 40.691 28.8252 40.691 28.8264C40.691 28.8276 40.691 28.8288 40.691 28.83C40.691 28.8312 40.691 28.8325 40.691 28.8337C40.691 28.8349 40.691 28.8361 40.691 28.8373C40.691 28.8385 40.691 28.8397 40.691 28.8409C40.691 28.8421 40.691 28.8433 40.691 28.8445C40.691 28.8457 40.691 28.8469 40.691 28.848C40.691 28.8492 40.691 28.8504 40.691 28.8516C40.691 28.8528 40.691 28.854 40.691 28.8551C40.691 28.8563 40.691 28.8575 40.691 28.8587C40.691 28.8599 40.691 28.861 40.691 28.8622C40.691 28.8634 40.691 28.8645 40.691 28.8657C40.691 28.8669 40.691 28.868 40.691 28.8692C40.691 28.8703 40.691 28.8715 40.691 28.8727C40.691 28.8738 40.691 28.875 40.691 28.8761C40.691 28.8773 40.691 28.8784 40.691 28.8796C40.691 28.8807 40.691 28.8818 40.691 28.883C40.691 28.8841 40.691 28.8853 40.691 28.8864C40.691 28.8875 40.691 28.8887 40.691 28.8898C40.691 28.8909 40.691 28.8921 40.691 28.8932C40.691 28.8943 40.691 28.8954 40.691 28.8966C40.691 28.8977 40.691 28.8988 40.691 28.8999C40.691 28.901 40.691 28.9021 40.691 28.9033C40.691 28.9044 40.691 28.9055 40.691 28.9066C40.691 28.9077 40.691 28.9088 40.691 28.9099C40.691 28.911 40.691 28.9121 40.691 28.9132C40.691 28.9143 40.691 28.9154 40.691 28.9165C40.691 28.9176 40.691 28.9187 40.691 28.9197C40.691 28.9208 40.691 28.9219 40.691 28.923C40.691 28.9241 40.691 28.9252 40.691 28.9262C40.691 28.9273 40.691 28.9284 40.691 28.9294C40.691 28.9305 40.691 28.9316 40.691 28.9327C40.691 28.9337 40.691 28.9348 40.691 28.9358C40.691 28.9369 40.691 28.938 40.691 28.939C40.691 28.9401 40.691 28.9411 40.691 28.9422C40.691 28.9432 40.691 28.9443 40.691 28.9453C40.691 28.9464 40.691 28.9474 40.691 28.9485C40.691 28.9495 40.691 28.9505 40.691 28.9516C40.691 28.9526 40.691 28.9536 40.691 28.9547C40.691 28.9557 40.691 28.9567 40.691 28.9578C40.691 28.9588 40.691 28.9598 40.691 28.9608C40.691 28.9618 40.691 28.9629 40.691 28.9639C40.691 28.9649 40.691 28.9659 40.691 28.9669C40.691 28.9679 40.691 28.9689 40.691 28.9699C40.691 28.9709 40.691 28.9719 40.691 28.9729C40.691 28.9739 40.691 28.9749 40.691 28.9759C40.691 28.9769 40.691 28.9779 40.691 28.9789C40.691 28.9799 40.691 28.9809 40.691 28.9819C40.691 28.9829 40.691 28.9838 40.691 28.9848C40.691 28.9858 40.691 28.9868 40.691 28.9877C40.691 28.9887 40.691 28.9897 40.691 28.9907C40.691 28.9916 40.691 28.9926 40.691 28.9936C40.691 28.9945 40.691 28.9955 40.691 28.9964C40.691 28.9974 40.691 28.9984 40.691 28.9993C40.691 29.0003 40.691 29.0012 40.691 29.0022C40.691 29.0031 40.691 29.004 40.691 29.005C40.691 29.0059 40.691 29.0069 40.691 29.0078C40.691 29.0087 40.691 29.0097 40.691 29.0106C40.691 29.0115 40.691 29.0125 40.691 29.0134C40.691 29.0143 40.691 29.0152 40.691 29.0162C40.691 29.0171 40.691 29.018 40.691 29.0189C40.691 29.0198 40.691 29.0207 40.691 29.0216C40.691 29.0226 40.691 29.0235 40.691 29.0244C40.691 29.0253 40.691 29.0262 40.691 29.0271C40.691 29.028 40.691 29.0289 40.691 29.0298C40.691 29.0307 40.691 29.0315 40.691 29.0324C40.691 29.0333 40.691 29.0342 40.691 29.0351C40.691 29.036 40.691 29.0368 40.691 29.0377H40.891C40.891 29.0368 40.891 29.036 40.891 29.0351C40.891 29.0342 40.891 29.0333 40.891 29.0324C40.891 29.0315 40.891 29.0307 40.891 29.0298C40.891 29.0289 40.891 29.028 40.891 29.0271C40.891 29.0262 40.891 29.0253 40.891 29.0244C40.891 29.0235 40.891 29.0226 40.891 29.0216C40.891 29.0207 40.891 29.0198 40.891 29.0189C40.891 29.018 40.891 29.0171 40.891 29.0162C40.891 29.0152 40.891 29.0143 40.891 29.0134C40.891 29.0125 40.891 29.0115 40.891 29.0106C40.891 29.0097 40.891 29.0087 40.891 29.0078C40.891 29.0069 40.891 29.0059 40.891 29.005C40.891 29.004 40.891 29.0031 40.891 29.0022C40.891 29.0012 40.891 29.0003 40.891 28.9993C40.891 28.9984 40.891 28.9974 40.891 28.9964C40.891 28.9955 40.891 28.9945 40.891 28.9936C40.891 28.9926 40.891 28.9916 40.891 28.9907C40.891 28.9897 40.891 28.9887 40.891 28.9877C40.891 28.9868 40.891 28.9858 40.891 28.9848C40.891 28.9838 40.891 28.9829 40.891 28.9819C40.891 28.9809 40.891 28.9799 40.891 28.9789C40.891 28.9779 40.891 28.9769 40.891 28.9759C40.891 28.9749 40.891 28.9739 40.891 28.9729C40.891 28.9719 40.891 28.9709 40.891 28.9699C40.891 28.9689 40.891 28.9679 40.891 28.9669C40.891 28.9659 40.891 28.9649 40.891 28.9639C40.891 28.9629 40.891 28.9618 40.891 28.9608C40.891 28.9598 40.891 28.9588 40.891 28.9578C40.891 28.9567 40.891 28.9557 40.891 28.9547C40.891 28.9536 40.891 28.9526 40.891 28.9516C40.891 28.9505 40.891 28.9495 40.891 28.9485C40.891 28.9474 40.891 28.9464 40.891 28.9453C40.891 28.9443 40.891 28.9432 40.891 28.9422C40.891 28.9411 40.891 28.9401 40.891 28.939C40.891 28.938 40.891 28.9369 40.891 28.9358C40.891 28.9348 40.891 28.9337 40.891 28.9327C40.891 28.9316 40.891 28.9305 40.891 28.9294C40.891 28.9284 40.891 28.9273 40.891 28.9262C40.891 28.9252 40.891 28.9241 40.891 28.923C40.891 28.9219 40.891 28.9208 40.891 28.9197C40.891 28.9187 40.891 28.9176 40.891 28.9165C40.891 28.9154 40.891 28.9143 40.891 28.9132C40.891 28.9121 40.891 28.911 40.891 28.9099C40.891 28.9088 40.891 28.9077 40.891 28.9066C40.891 28.9055 40.891 28.9044 40.891 28.9033C40.891 28.9021 40.891 28.901 40.891 28.8999C40.891 28.8988 40.891 28.8977 40.891 28.8966C40.891 28.8954 40.891 28.8943 40.891 28.8932C40.891 28.8921 40.891 28.8909 40.891 28.8898C40.891 28.8887 40.891 28.8875 40.891 28.8864C40.891 28.8853 40.891 28.8841 40.891 28.883C40.891 28.8818 40.891 28.8807 40.891 28.8796C40.891 28.8784 40.891 28.8773 40.891 28.8761C40.891 28.875 40.891 28.8738 40.891 28.8727C40.891 28.8715 40.891 28.8703 40.891 28.8692C40.891 28.868 40.891 28.8669 40.891 28.8657C40.891 28.8645 40.891 28.8634 40.891 28.8622C40.891 28.861 40.891 28.8599 40.891 28.8587C40.891 28.8575 40.891 28.8563 40.891 28.8551C40.891 28.854 40.891 28.8528 40.891 28.8516C40.891 28.8504 40.891 28.8492 40.891 28.848C40.891 28.8469 40.891 28.8457 40.891 28.8445C40.891 28.8433 40.891 28.8421 40.891 28.8409C40.891 28.8397 40.891 28.8385 40.891 28.8373C40.891 28.8361 40.891 28.8349 40.891 28.8337C40.891 28.8325 40.891 28.8312 40.891 28.83C40.891 28.8288 40.891 28.8276 40.891 28.8264C40.891 28.8252 40.891 28.824 40.891 28.8227C40.891 28.8215 40.891 28.8203 40.891 28.8191C40.891 28.8178 40.891 28.8166 40.891 28.8154C40.891 28.8141 40.891 28.8129 40.891 28.8117C40.891 28.8104 40.891 28.8092 40.891 28.808C40.891 28.8067 40.891 28.8055 40.891 28.8042C40.891 28.803 40.891 28.8017 40.891 28.8005C40.891 28.7992 40.891 28.798 40.891 28.7967C40.891 28.7955 40.891 28.7942 40.891 28.793C40.891 28.7917 40.891 28.7905 40.891 28.7892C40.891 28.7879 40.891 28.7867 40.891 28.7854C40.891 28.7841 40.891 28.7829 40.891 28.7816C40.891 28.7803 40.891 28.779 40.891 28.7778C40.891 28.7765 40.891 28.7752 40.891 28.7739C40.891 28.7726 40.891 28.7714 40.891 28.7701C40.891 28.7688 40.891 28.7675 40.891 28.7662C40.891 28.7649 40.891 28.7636 40.891 28.7623C40.891 28.761 40.891 28.7597 40.891 28.7584C40.891 28.7571 40.891 28.7558 40.891 28.7545C40.891 28.7532 40.891 28.7519 40.891 28.7506C40.891 28.7493 40.891 28.748 40.891 28.7467C40.891 28.7454 40.891 28.7441 40.891 28.7427C40.891 28.7414 40.891 28.7401 40.891 28.7388C40.891 28.7375 40.891 28.7361 40.891 28.7348C40.891 28.7335 40.891 28.7322 40.891 28.7308C40.891 28.7295 40.891 28.7282 40.891 28.7268C40.891 28.7255 40.891 28.7242 40.891 28.7228C40.891 28.7215 40.891 28.7201 40.891 28.7188C40.891 28.7175 40.891 28.7161 40.891 28.7148C40.891 28.7134 40.891 28.7121 40.891 28.7107C40.891 28.7094 40.891 28.708 40.891 28.7067C40.891 28.7053 40.891 28.7039 40.891 28.7026C40.891 28.7012 40.891 28.6999 40.891 28.6985C40.891 28.6971 40.891 28.6958 40.891 28.6944C40.891 28.693 40.891 28.6917 40.891 28.6903C40.891 28.6889 40.891 28.6875 40.891 28.6862C40.891 28.6848 40.891 28.6834 40.891 28.682C40.891 28.6806 40.891 28.6793 40.891 28.6779C40.891 28.6765 40.891 28.6751 40.891 28.6737C40.891 28.6723 40.891 28.6709 40.891 28.6695C40.891 28.6681 40.891 28.6667 40.891 28.6653C40.891 28.6639 40.891 28.6625 40.891 28.6611C40.891 28.6597 40.891 28.6583 40.891 28.6569C40.891 28.6555 40.891 28.6541 40.891 28.6527C40.891 28.6513 40.891 28.6499 40.891 28.6485C40.891 28.647 40.891 28.6456 40.891 28.6442C40.891 28.6428 40.891 28.6414 40.891 28.6399C40.891 28.6385 40.891 28.6371 40.891 28.6357C40.891 28.6342 40.891 28.6328 40.891 28.6314C40.891 28.6299 40.891 28.6285 40.891 28.6271C40.891 28.6256 40.891 28.6242 40.891 28.6228C40.891 28.6213 40.891 28.6199 40.891 28.6184C40.891 28.617 40.891 28.6156 40.891 28.6141C40.891 28.6127 40.891 28.6112 40.891 28.6098C40.891 28.6083 40.891 28.6068 40.891 28.6054C40.891 28.6039 40.891 28.6025 40.891 28.601C40.891 28.5996 40.891 28.5981 40.891 28.5966C40.891 28.5952 40.891 28.5937 40.891 28.5922C40.891 28.5908 40.891 28.5893 40.891 28.5878C40.891 28.5864 40.891 28.5849 40.891 28.5834C40.891 28.5819 40.891 28.5805 40.891 28.579C40.891 28.5775 40.891 28.576 40.891 28.5745C40.891 28.573 40.891 28.5716 40.891 28.5701C40.891 28.5686 40.891 28.5671 40.891 28.5656C40.891 28.5641 40.891 28.5626 40.891 28.5611C40.891 28.5596 40.891 28.5581 40.891 28.5566C40.891 28.5551 40.891 28.5536 40.891 28.5521C40.891 28.5506 40.891 28.5491 40.891 28.5476C40.891 28.5461 40.891 28.5446 40.891 28.5431C40.891 28.5416 40.891 28.5401 40.891 28.5385C40.891 28.537 40.891 28.5355 40.891 28.534C40.891 28.5325 40.891 28.531 40.891 28.5294C40.891 28.5279 40.891 28.5264 40.891 28.5249C40.891 28.5233 40.891 28.5218 40.891 28.5203C40.891 28.5188 40.891 28.5172 40.891 28.5157C40.891 28.5142 40.891 28.5126 40.891 28.5111C40.891 28.5095 40.891 28.508 40.891 28.5065C40.891 28.5049 40.891 28.5034 40.891 28.5018C40.891 28.5003 40.891 28.4987 40.891 28.4972C40.891 28.4956 40.891 28.4941 40.891 28.4925C40.891 28.491 40.891 28.4894 40.891 28.4879C40.891 28.4863 40.891 28.4848 40.891 28.4832C40.891 28.4816 40.891 28.4801 40.891 28.4785C40.891 28.477 40.891 28.4754 40.891 28.4738C40.891 28.4723 40.891 28.4707 40.891 28.4691C40.891 28.4675 40.891 28.466 40.891 28.4644C40.891 28.4628 40.891 28.4613 40.891 28.4597C40.891 28.4581 40.891 28.4565 40.891 28.4549C40.891 28.4534 40.891 28.4518 40.891 28.4502C40.891 28.4486 40.891 28.447 40.891 28.4454C40.891 28.4438 40.891 28.4422 40.891 28.4407C40.891 28.4391 40.891 28.4375 40.891 28.4359C40.891 28.4343 40.891 28.4327 40.891 28.4311C40.891 28.4295 40.891 28.4279 40.891 28.4263C40.891 28.4247 40.891 28.4231 40.891 28.4215C40.891 28.4199 40.891 28.4182 40.891 28.4166C40.891 28.415 40.891 28.4134 40.891 28.4118C40.891 28.4102 40.891 28.4086 40.891 28.407C40.891 28.4053 40.891 28.4037 40.891 28.4021C40.891 28.4005 40.891 28.3989 40.891 28.3972C40.891 28.3956 40.891 28.394 40.891 28.3923C40.891 28.3907 40.891 28.3891 40.891 28.3875C40.891 28.3858 40.891 28.3842 40.891 28.3826C40.891 28.3809 40.891 28.3793 40.891 28.3777C40.891 28.376 40.891 28.3744 40.891 28.3727C40.891 28.3711 40.891 28.3695 40.891 28.3678C40.891 28.3662 40.891 28.3645 40.891 28.3629C40.891 28.3612 40.891 28.3596 40.891 28.3579C40.891 28.3563 40.891 28.3546 40.891 28.353C40.891 28.3513 40.891 28.3496 40.891 28.348C40.891 28.3463 40.891 28.3447 40.891 28.343C40.891 28.3413 40.891 28.3397 40.891 28.338C40.891 28.3364 40.891 28.3347 40.891 28.333C40.891 28.3314 40.891 28.3297 40.891 28.328C40.891 28.3263 40.891 28.3247 40.891 28.323C40.891 28.3213 40.891 28.3196 40.891 28.318C40.891 28.3163 40.891 28.3146 40.891 28.3129C40.891 28.3112 40.891 28.3096 40.891 28.3079C40.891 28.3062 40.891 28.3045 40.891 28.3028C40.891 28.3011 40.891 28.2994 40.891 28.2977C40.891 28.2961 40.891 28.2944 40.891 28.2927C40.891 28.291 40.891 28.2893 40.891 28.2876C40.891 28.2859 40.891 28.2842 40.891 28.2825C40.891 28.2808 40.891 28.2791 40.891 28.2774C40.891 28.2757 40.891 28.274 40.891 28.2723C40.891 28.2706 40.891 28.2688 40.891 28.2671C40.891 28.2654 40.891 28.2637 40.891 28.262C40.891 28.2603 40.891 28.2586 40.891 28.2569C40.891 28.2551 40.891 28.2534 40.891 28.2517C40.891 28.25 40.891 28.2483 40.891 28.2465C40.891 28.2448 40.891 28.2431 40.891 28.2414C40.891 28.2396 40.891 28.2379 40.891 28.2362C40.891 28.2345 40.891 28.2327 40.891 28.231C40.891 28.2293 40.891 28.2275 40.891 28.2258C40.891 28.2241 40.891 28.2223 40.891 28.2206C40.891 28.2188 40.891 28.2171 40.891 28.2154C40.891 28.2136 40.891 28.2119 40.891 28.2101C40.891 28.2084 40.891 28.2066 40.891 28.2049C40.891 28.2032 40.891 28.2014 40.891 28.1997C40.891 28.1979 40.891 28.1961 40.891 28.1944C40.891 28.1926 40.891 28.1909 40.891 28.1891C40.891 28.1874 40.891 28.1856 40.891 28.1839C40.891 28.1821 40.891 28.1803 40.891 28.1786C40.891 28.1768 40.891 28.1751 40.891 28.1733C40.891 28.1715 40.891 28.1698 40.891 28.168C40.891 28.1662 40.891 28.1644 40.891 28.1627C40.891 28.1609 40.891 28.1591 40.891 28.1574C40.891 28.1556 40.891 28.1538 40.891 28.152C40.891 28.1503 40.891 28.1485 40.891 28.1467C40.891 28.1449 40.891 28.1431 40.891 28.1414C40.891 28.1396 40.891 28.1378 40.891 28.136C40.891 28.1342 40.891 28.1324 40.891 28.1306C40.891 28.1289 40.891 28.1271 40.891 28.1253C40.891 28.1235 40.891 28.1217 40.891 28.1199C40.891 28.1181 40.891 28.1163 40.891 28.1145C40.891 28.1127 40.891 28.1109 40.891 28.1091C40.891 28.1073 40.891 28.1055 40.891 28.1037C40.891 28.1019 40.891 28.1001 40.891 28.0983C40.891 28.0965 40.891 28.0947 40.891 28.0929C40.891 28.0911 40.891 28.0893 40.891 28.0875C40.891 28.0856 40.891 28.0838 40.891 28.082C40.891 28.0802 40.891 28.0784 40.891 28.0766C40.891 28.0748 40.891 28.0729 40.891 28.0711C40.891 28.0693 40.891 28.0675 40.891 28.0657C40.891 28.0638 40.891 28.062 40.891 28.0602C40.891 28.0584 40.891 28.0565 40.891 28.0547C40.891 28.0529 40.891 28.0511 40.891 28.0492C40.891 28.0474 40.891 28.0456 40.891 28.0437C40.891 28.0419 40.891 28.0401 40.891 28.0382C40.891 28.0364 40.891 28.0346 40.891 28.0327C40.891 28.0309 40.891 28.0291 40.891 28.0272C40.891 28.0254 40.891 28.0235 40.891 28.0217C40.891 28.0199 40.891 28.018 40.891 28.0162C40.891 28.0143 40.891 28.0125 40.891 28.0106C40.891 28.0088 40.891 28.0069 40.891 28.0051C40.891 28.0032 40.891 28.0014 40.891 27.9995C40.891 27.9977 40.891 27.9958 40.891 27.994C40.891 27.9921 40.891 27.9902 40.891 27.9884C40.891 27.9865 40.891 27.9847 40.891 27.9828C40.891 27.9809 40.891 27.9791 40.891 27.9772C40.891 27.9754 40.891 27.9735 40.891 27.9716C40.891 27.9698 40.891 27.9679 40.891 27.966C40.891 27.9642 40.891 27.9623 40.891 27.9604C40.891 27.9586 40.891 27.9567 40.891 27.9548C40.891 27.9529 40.891 27.9511 40.891 27.9492C40.891 27.9473 40.891 27.9454 40.891 27.9436C40.891 27.9417 40.891 27.9398 40.891 27.9379C40.891 27.936 40.891 27.9342 40.891 27.9323C40.891 27.9304 40.891 27.9285 40.891 27.9266C40.891 27.9247 40.891 27.9228 40.891 27.921C40.891 27.9191 40.891 27.9172 40.891 27.9153C40.891 27.9134 40.891 27.9115 40.891 27.9096C40.891 27.9077 40.891 27.9058 40.891 27.9039C40.891 27.902 40.891 27.9002 40.891 27.8983C40.891 27.8964 40.891 27.8945 40.891 27.8926C40.891 27.8907 40.891 27.8888 40.891 27.8869C40.891 27.885 40.891 27.8831 40.891 27.8812C40.891 27.8792 40.891 27.8773 40.891 27.8754C40.891 27.8735 40.891 27.8716 40.891 27.8697C40.891 27.8678 40.891 27.8659 40.891 27.864C40.891 27.8621 40.891 27.8602 40.891 27.8582C40.891 27.8563 40.891 27.8544 40.891 27.8525C40.891 27.8506 40.891 27.8487 40.891 27.8468C40.891 27.8448 40.891 27.8429 40.891 27.841C40.891 27.8391 40.891 27.8372 40.891 27.8352C40.891 27.8333 40.891 27.8314 40.891 27.8295C40.891 27.8275 40.891 27.8256 40.891 27.8237C40.891 27.8218 40.891 27.8198 40.891 27.8179C40.891 27.816 40.891 27.8141 40.891 27.8121C40.891 27.8102 40.891 27.8083 40.891 27.8063C40.891 27.8044 40.891 27.8025 40.891 27.8005C40.891 27.7986 40.891 27.7967 40.891 27.7947C40.891 27.7928 40.891 27.7908 40.891 27.7889C40.891 27.787 40.891 27.785 40.891 27.7831C40.891 27.7811 40.891 27.7792 40.891 27.7773C40.891 27.7753 40.891 27.7734 40.891 27.7714C40.891 27.7695 40.891 27.7675 40.891 27.7656C40.891 27.7636 40.891 27.7617 40.891 27.7597C40.891 27.7578 40.891 27.7558 40.891 27.7539C40.891 27.7519 40.891 27.75 40.891 27.748C40.891 27.7461 40.891 27.7441 40.891 27.7422C40.891 27.7402 40.891 27.7382 40.891 27.7363C40.891 27.7343 40.891 27.7324 40.891 27.7304C40.891 27.7285 40.891 27.7265 40.891 27.7245C40.891 27.7226 40.891 27.7206 40.891 27.7186C40.891 27.7167 40.891 27.7147 40.891 27.7128C40.891 27.7108 40.891 27.7088 40.891 27.7069C40.891 27.7049 40.891 27.7029 40.891 27.7009C40.891 27.699 40.891 27.697 40.891 27.695C40.891 27.6931 40.891 27.6911 40.891 27.6891C40.891 27.6871 40.891 27.6852 40.891 27.6832C40.891 27.6812 40.891 27.6792 40.891 27.6773C40.891 27.6753 40.891 27.6733 40.891 27.6713C40.891 27.6694 40.891 27.6674 40.891 27.6654C40.891 27.6634 40.891 27.6614 40.891 27.6594C40.891 27.6575 40.891 27.6555 40.891 27.6535C40.891 27.6515 40.891 27.6495 40.891 27.6475C40.891 27.6456 40.891 27.6436 40.891 27.6416C40.891 27.6396 40.891 27.6376 40.891 27.6356C40.891 27.6336 40.891 27.6316 40.891 27.6296C40.891 27.6276 40.891 27.6257 40.891 27.6237C40.891 27.6217 40.891 27.6197 40.891 27.6177C40.891 27.6157 40.891 27.6137 40.891 27.6117C40.891 27.6097 40.891 27.6077 40.891 27.6057C40.891 27.6037 40.891 27.6017 40.891 27.5997C40.891 27.5977 40.891 27.5957 40.891 27.5937C40.891 27.5917 40.891 27.5897 40.891 27.5877C40.891 27.5857 40.891 27.5837 40.891 27.5817C40.891 27.5797 40.891 27.5777 40.891 27.5756C40.891 27.5736 40.891 27.5716 40.891 27.5696C40.891 27.5676 40.891 27.5656 40.891 27.5636C40.891 27.5616 40.891 27.5596 40.891 27.5576C40.891 27.5555 40.891 27.5535 40.891 27.5515C40.891 27.5495 40.891 27.5475 40.891 27.5455C40.891 27.5435 40.891 27.5414 40.891 27.5394C40.891 27.5374 40.891 27.5354 40.891 27.5334C40.891 27.5314 40.891 27.5293 40.891 27.5273C40.891 27.5253 40.891 27.5233 40.891 27.5212C40.891 27.5192 40.891 27.5172 40.891 27.5152C40.891 27.5132 40.891 27.5111 40.891 27.5091C40.891 27.5071 40.891 27.5051 40.891 27.503C40.891 27.501 40.891 27.499 40.891 27.4969C40.891 27.4949 40.891 27.4929 40.891 27.4909C40.891 27.4888 40.891 27.4868 40.891 27.4848C40.891 27.4827 40.891 27.4807 40.891 27.4787C40.891 27.4766 40.891 27.4746 40.891 27.4726C40.891 27.4705 40.891 27.4685 40.891 27.4665C40.891 27.4644 40.891 27.4624 40.891 27.4604C40.891 27.4583 40.891 27.4563 40.891 27.4543C40.891 27.4522 40.891 27.4502 40.891 27.4481C40.891 27.4461 40.891 27.4441 40.891 27.442C40.891 27.44 40.891 27.4379 40.891 27.4359C40.891 27.4338 40.891 27.4318 40.891 27.4298C40.891 27.4277 40.891 27.4257 40.891 27.4236C40.891 27.4216 40.891 27.4195 40.891 27.4175C40.891 27.4154 40.891 27.4134 40.891 27.4113C40.891 27.4093 40.891 27.4072 40.891 27.4052C40.891 27.4031 40.891 27.4011 40.891 27.399C40.891 27.397 40.891 27.3949 40.891 27.3929C40.891 27.3908 40.891 27.3888 40.891 27.3867C40.891 27.3847 40.891 27.3826 40.891 27.3806C40.891 27.3785 40.891 27.3765 40.891 27.3744C40.891 27.3723 40.891 27.3703 40.891 27.3682C40.891 27.3662 40.891 27.3641 40.891 27.3621C40.891 27.36 40.891 27.3579 40.891 27.3559C40.891 27.3538 40.891 27.3518 40.891 27.3497C40.891 27.3476 40.891 27.3456 40.891 27.3435C40.891 27.3415 40.891 27.3394 40.891 27.3373C40.891 27.3353 40.891 27.3332 40.891 27.3311C40.891 27.3291 40.891 27.327 40.891 27.3249C40.891 27.3229 40.891 27.3208 40.891 27.3187C40.891 27.3167 40.891 27.3146 40.891 27.3125C40.891 27.3105 40.891 27.3084 40.891 27.3063C40.891 27.3043 40.891 27.3022 40.891 27.3001C40.891 27.298 40.891 27.296 40.891 27.2939C40.891 27.2918 40.891 27.2898 40.891 27.2877C40.891 27.2856 40.891 27.2835 40.891 27.2815C40.891 27.2794 40.891 27.2773 40.891 27.2752C40.891 27.2732 40.891 27.2711 40.891 27.269C40.891 27.2669 40.891 27.2649 40.891 27.2628C40.891 27.2607 40.891 27.2586 40.891 27.2566C40.891 27.2545 40.891 27.2524 40.891 27.2503C40.891 27.2482 40.891 27.2462 40.891 27.2441C40.891 27.242 40.891 27.2399 40.891 27.2378C40.891 27.2358 40.891 27.2337 40.891 27.2316C40.891 27.2295 40.891 27.2274 40.891 27.2253C40.891 27.2233 40.891 27.2212 40.891 27.2191C40.891 27.217 40.891 27.2149 40.891 27.2128C40.891 27.2108 40.891 27.2087 40.891 27.2066C40.891 27.2045 40.891 27.2024 40.891 27.2003C40.891 27.1982 40.891 27.1961 40.891 27.1941C40.891 27.192 40.891 27.1899 40.891 27.1878C40.891 27.1857 40.891 27.1836 40.891 27.1815C40.891 27.1794 40.891 27.1773 40.891 27.1753C40.891 27.1732 40.891 27.1711 40.891 27.169C40.891 27.1669 40.891 27.1648 40.891 27.1627C40.891 27.1606 40.891 27.1585 40.891 27.1564C40.891 27.1543 40.891 27.1522 40.891 27.1501C40.891 27.1481 40.891 27.146 40.891 27.1439C40.891 27.1418 40.891 27.1397 40.891 27.1376C40.891 27.1355 40.891 27.1334 40.891 27.1313C40.891 27.1292 40.891 27.1271 40.891 27.125C40.891 27.1229 40.891 27.1208 40.891 27.1187C40.891 27.1166 40.891 27.1145 40.891 27.1124C40.891 27.1103 40.891 27.1082 40.891 27.1061C40.891 27.104 40.891 27.1019 40.891 27.0998C40.891 27.0977 40.891 27.0956 40.891 27.0935C40.891 27.0914 40.891 27.0893 40.891 27.0872C40.891 27.0851 40.891 27.083 40.891 27.0809C40.891 27.0788 40.891 27.0767 40.891 27.0746C40.891 27.0725 40.891 27.0704 40.891 27.0683C40.891 27.0662 40.891 27.0641 40.891 27.062C40.891 27.0598 40.891 27.0577 40.891 27.0556C40.891 27.0535 40.891 27.0514 40.891 27.0493C40.891 27.0472 40.891 27.0451 40.891 27.043C40.891 27.0409 40.891 27.0388 40.891 27.0367C40.891 27.0346 40.891 27.0325 40.891 27.0304C40.891 27.0282 40.891 27.0261 40.891 27.024C40.891 27.0219 40.891 27.0198 40.891 27.0177C40.891 27.0156 40.891 27.0135 40.891 27.0114C40.891 27.0093 40.891 27.0072 40.891 27.005C40.891 27.0029 40.891 27.0008 40.891 26.9987C40.891 26.9966 40.891 26.9945 40.891 26.9924C40.891 26.9903 40.891 26.9882 40.891 26.986C40.891 26.9839 40.891 26.9818 40.891 26.9797C40.891 26.9776 40.891 26.9755 40.891 26.9734C40.891 26.9713 40.891 26.9691 40.891 26.967C40.891 26.9649 40.891 26.9628 40.891 26.9607C40.891 26.9586 40.891 26.9565 40.891 26.9543C40.891 26.9522 40.891 26.9501 40.891 26.948C40.891 26.9459 40.891 26.9438 40.891 26.9417C40.891 26.9395 40.891 26.9374 40.891 26.9353C40.891 26.9332 40.891 26.9311 40.891 26.929C40.891 26.9268 40.891 26.9247 40.891 26.9226C40.891 26.9205 40.891 26.9184 40.891 26.9163C40.891 26.9141 40.891 26.912 40.891 26.9099C40.891 26.9078 40.891 26.9057 40.891 26.9035C40.891 26.9014 40.891 26.8993 40.891 26.8972C40.891 26.8951 40.891 26.893 40.891 26.8908C40.891 26.8887 40.891 26.8866 40.891 26.8845C40.891 26.8824 40.891 26.8802 40.891 26.8781C40.891 26.876 40.891 26.8739 40.891 26.8718C40.891 26.8696 40.891 26.8675 40.891 26.8654C40.891 26.8633 40.891 26.8612 40.891 26.859C40.891 26.8569 40.891 26.8548 40.891 26.8527C40.891 26.8506 40.891 26.8484 40.891 26.8463C40.891 26.8442 40.891 26.8421 40.891 26.84C40.891 26.8378 40.891 26.8357 40.891 26.8336C40.891 26.8315 40.891 26.8294 40.891 26.8272C40.891 26.8251 40.891 26.823 40.891 26.8209C40.891 26.8187 40.891 26.8166 40.891 26.8145C40.891 26.8124 40.891 26.8103 40.891 26.8081C40.891 26.806 40.891 26.8039 40.891 26.8018C40.891 26.7996 40.891 26.7975 40.891 26.7954C40.891 26.7933 40.891 26.7912 40.891 26.789C40.891 26.7869 40.891 26.7848 40.891 26.7827C40.891 26.7805 40.891 26.7784 40.891 26.7763C40.891 26.7742 40.891 26.772 40.891 26.7699C40.891 26.7678 40.891 26.7657 40.891 26.7636C40.891 26.7614 40.891 26.7593 40.891 26.7572C40.891 26.7551 40.891 26.7529 40.891 26.7508C40.891 26.7487 40.891 26.7466 40.891 26.7444C40.891 26.7423 40.891 26.7402 40.891 26.7381C40.891 26.7359 40.891 26.7338 40.891 26.7317C40.891 26.7296 40.891 26.7275 40.891 26.7253C40.891 26.7232 40.891 26.7211 40.891 26.719C40.891 26.7168 40.891 26.7147 40.891 26.7126C40.891 26.7105 40.891 26.7083 40.891 26.7062C40.891 26.7041 40.891 26.702 40.891 26.6998C40.891 26.6977 40.891 26.6956 40.891 26.6935C40.891 26.6913 40.891 26.6892 40.891 26.6871C40.891 26.685 40.891 26.6828 40.891 26.6807C40.891 26.6786 40.891 26.6765 40.891 26.6744C40.891 26.6722 40.891 26.6701 40.891 26.668C40.891 26.6659 40.891 26.6637 40.891 26.6616C40.891 26.6595 40.891 26.6574 40.891 26.6552C40.891 26.6531 40.891 26.651 40.891 26.6489C40.891 26.6467 40.891 26.6446 40.891 26.6425C40.891 26.6404 40.891 26.6383 40.891 26.6361C40.891 26.634 40.891 26.6319 40.891 26.6298C40.891 26.6276 40.891 26.6255 40.891 26.6234C40.891 26.6213 40.891 26.6191 40.891 26.617C40.891 26.6149 40.891 26.6128 40.891 26.6107C40.891 26.6085 40.891 26.6064 40.891 26.6043C40.891 26.6022 40.891 26.6 40.891 26.5979C40.891 26.5958 40.891 26.5937 40.891 26.5916C40.891 26.5894 40.891 26.5873 40.891 26.5852C40.891 26.5831 40.891 26.5809 40.891 26.5788C40.891 26.5767 40.891 26.5746 40.891 26.5725C40.891 26.5703 40.891 26.5682 40.891 26.5661C40.891 26.564 40.891 26.5619 40.891 26.5597C40.891 26.5576 40.891 26.5555 40.891 26.5534C40.891 26.5513 40.891 26.5491 40.891 26.547C40.891 26.5449 40.891 26.5428 40.891 26.5407C40.891 26.5385 40.891 26.5364 40.891 26.5343C40.891 26.5322 40.891 26.5301 40.891 26.5279C40.891 26.5258 40.891 26.5237 40.891 26.5216C40.891 26.5195 40.891 26.5173 40.891 26.5152C40.891 26.5131 40.891 26.511 40.891 26.5089C40.891 26.5068 40.891 26.5046 40.891 26.5025C40.891 26.5004 40.891 26.4983 40.891 26.4962C40.891 26.494 40.891 26.4919 40.891 26.4898C40.891 26.4877 40.891 26.4856 40.891 26.4835C40.891 26.4813 40.891 26.4792 40.891 26.4771C40.891 26.475 40.891 26.4729 40.891 26.4708C40.891 26.4687 40.891 26.4665 40.891 26.4644C40.891 26.4623 40.891 26.4602 40.891 26.4581C40.891 26.456 40.891 26.4538 40.891 26.4517C40.891 26.4496 40.891 26.4475 40.891 26.4454C40.891 26.4433 40.891 26.4412 40.891 26.439C40.891 26.4369 40.891 26.4348 40.891 26.4327C40.891 26.4306 40.891 26.4285 40.891 26.4264C40.891 26.4243 40.891 26.4221 40.891 26.42C40.891 26.4179 40.891 26.4158 40.891 26.4137C40.891 26.4116 40.891 26.4095 40.891 26.4074C40.891 26.4053 40.891 26.4031 40.891 26.401C40.891 26.3989 40.891 26.3968 40.891 26.3947C40.891 26.3926 40.891 26.3905 40.891 26.3884C40.891 26.3863 40.891 26.3842 40.891 26.3821C40.891 26.3799 40.891 26.3778 40.891 26.3757C40.891 26.3736 40.891 26.3715 40.891 26.3694C40.891 26.3673 40.891 26.3652 40.891 26.3631C40.891 26.361 40.891 26.3589 40.891 26.3568C40.891 26.3547 40.891 26.3526 40.891 26.3505C40.891 26.3484 40.891 26.3462 40.891 26.3441H40.691ZM40.8286 28.9451L37.5127 27.5983L37.4374 27.7836L40.7534 29.1304L40.8286 28.9451ZM51.2891 28.9607C49.6102 30.3486 47.1347 32.4307 45.1645 34.1662C44.1797 35.0337 43.3198 35.8158 42.7485 36.3817C42.4638 36.6638 42.2472 36.8957 42.123 37.0589C42.0634 37.1371 42.0151 37.2122 41.9985 37.2747C41.9904 37.3053 41.983 37.3588 42.0174 37.4061C42.053 37.4552 42.108 37.4633 42.1419 37.4633V37.2633C42.1328 37.2633 42.159 37.2607 42.1792 37.2886C42.1982 37.3147 42.189 37.3366 42.1918 37.3259C42.1971 37.3058 42.2221 37.2589 42.2821 37.18C42.3972 37.0288 42.605 36.8054 42.8893 36.5238C43.4561 35.9622 44.3124 35.1833 45.2967 34.3163C47.2647 32.5827 49.7385 30.5021 51.4165 29.1148L51.2891 28.9607ZM42.1419 37.4633C42.1653 37.4633 42.1649 37.4691 42.166 37.4711C42.173 37.4838 42.1814 37.5167 42.1756 37.5842C42.1644 37.7163 42.1058 37.9167 42.0098 38.1761C41.8181 38.6938 41.4995 39.3924 41.1896 40.1571C40.8821 40.9156 40.5871 41.7309 40.4547 42.459C40.3233 43.1809 40.3457 43.8496 40.7147 44.2844L40.8672 44.155C40.5608 43.794 40.5218 43.2077 40.6514 42.4948C40.78 41.7881 41.0683 40.9888 41.3749 40.2322C41.679 39.4818 42.0051 38.7647 42.1973 38.2455C42.2932 37.9865 42.3612 37.7631 42.3749 37.6011C42.3817 37.5215 42.3771 37.4398 42.3412 37.3746C42.2994 37.2987 42.226 37.2633 42.1419 37.2633V37.4633ZM40.7147 44.2844C40.8988 44.5013 41.1982 44.6849 41.5806 44.8382C41.9647 44.9921 42.4415 45.119 42.9897 45.2173C44.0864 45.414 45.4791 45.4983 47.0113 45.4522C50.0751 45.3601 53.7114 44.7464 56.6737 43.4543L56.5937 43.271C53.661 44.5501 50.0514 45.1607 47.0053 45.2523C45.4827 45.2981 44.1044 45.214 43.025 45.0204C42.4852 44.9236 42.0226 44.7999 41.655 44.6525C41.2857 44.5045 41.0209 44.336 40.8672 44.155L40.7147 44.2844ZM1.1 26.3441V18.2634H0.9V26.3441H1.1ZM40.891 29.0377V26.3441H40.691V29.0377H40.891ZM26.2267 15.289C27.4026 14.6051 28.1967 13.9309 28.6838 13.3042C29.1707 12.6777 29.3556 12.092 29.2969 11.5906C29.2379 11.0868 28.9351 10.6869 28.4869 10.4323C28.0401 10.1785 27.4482 10.0678 26.7973 10.1332L26.8172 10.3322C27.4359 10.2701 27.9844 10.3769 28.3881 10.6062C28.7903 10.8346 29.0479 11.1832 29.0983 11.6138C29.149 12.0468 28.9924 12.5813 28.5259 13.1815C28.0595 13.7815 27.2883 14.4402 26.1261 15.1161L26.2267 15.289ZM26.7676 10.1409C26.1241 10.4187 25.4263 10.6877 24.6704 10.945L24.7349 11.1344C25.4955 10.8755 26.1982 10.6046 26.8469 10.3245L26.7676 10.1409ZM24.7591 11.1222C25.4571 10.6445 26.1732 10.3969 26.8172 10.3322L26.7973 10.1332C26.1178 10.2015 25.37 10.4618 24.6462 10.9572L24.7591 11.1222ZM26.8469 10.3245C30.8297 8.60508 32.7809 6.53699 33.5932 4.75525C33.9992 3.86479 34.1202 3.04679 34.0674 2.3828C34.015 1.7221 33.7893 1.20426 33.4903 0.926706L33.3543 1.07329C33.6041 1.30522 33.818 1.76797 33.8681 2.39863C33.9179 3.02602 33.8043 3.81015 33.4113 4.67228C32.6255 6.39569 30.7203 8.43449 26.7676 10.1409L26.8469 10.3245ZM14.8022 25.3303C15.605 24.8994 16.8448 24.1307 17.959 23.223C18.5162 22.7691 19.0438 22.279 19.4699 21.7774C19.8954 21.2767 20.2243 20.7594 20.3772 20.2512L20.1857 20.1936C20.0439 20.6648 19.7341 21.1576 19.3175 21.6479C18.9017 22.1373 18.3839 22.6189 17.8327 23.068C16.7301 23.9662 15.5014 24.728 14.7076 25.1541L14.8022 25.3303ZM20.3763 20.2541C20.5317 19.7891 21.2351 18.6085 22.7866 17.7384L22.6888 17.564C21.0962 18.4571 20.3586 19.6762 20.1866 20.1907L20.3763 20.2541ZM22.7866 17.7384C23.7747 17.1843 24.3934 16.7264 24.8882 16.3279C25.385 15.9278 25.7452 15.5979 26.2304 15.2867L26.1224 15.1183C25.6251 15.4374 25.2484 15.7809 24.7627 16.1721C24.275 16.5649 23.6656 17.0162 22.6888 17.564L22.7866 17.7384Z" fill="black"/>
</svg>
