<svg width="25" height="25" viewBox="0 0 25 25" fill="none" xmlns="http://www.w3.org/2000/svg">
<g clip-path="url(#clip0_716_87)">
<path d="M24.0385 3.84615H18.2692V0.961538C18.2692 0.706523 18.1679 0.461952 17.9876 0.281628C17.8073 0.101305 17.5627 0 17.3077 0L7.69231 0C7.43729 0 7.19272 0.101305 7.0124 0.281628C6.83207 0.461952 6.73077 0.706523 6.73077 0.961538V3.84615H0.961538C0.706523 3.84615 0.461952 3.94746 0.281628 4.12778C0.101305 4.30811 0 4.55268 0 4.80769C0 5.06271 0.101305 5.30728 0.281628 5.4876C0.461952 5.66793 0.706523 5.76923 0.961538 5.76923H4.32692V24.0385C4.32692 24.2935 4.42823 24.538 4.60855 24.7184C4.78887 24.8987 5.03345 25 5.28846 25H19.7115C19.9666 25 20.2111 24.8987 20.3914 24.7184C20.5718 24.538 20.6731 24.2935 20.6731 24.0385V5.76923H24.0385C24.2935 5.76923 24.538 5.66793 24.7184 5.4876C24.8987 5.30728 25 5.06271 25 4.80769C25 4.55268 24.8987 4.30811 24.7184 4.12778C24.538 3.94746 24.2935 3.84615 24.0385 3.84615V3.84615ZM8.65385 1.92308H16.3462V3.84615H8.65385V1.92308ZM18.75 23.0769H6.25V5.76923H18.75V23.0769Z" fill="#A4A4A4"/>
<path d="M12.5001 6.94714C12.2451 6.94714 12.0005 7.04845 11.8202 7.22877C11.6399 7.4091 11.5386 7.65367 11.5386 7.90868V21.5818C11.5386 21.8368 11.6399 22.0813 11.8202 22.2617C12.0005 22.442 12.2451 22.5433 12.5001 22.5433C12.7551 22.5433 12.9997 22.442 13.18 22.2617C13.3603 22.0813 13.4617 21.8368 13.4617 21.5818V7.90868C13.4617 7.65367 13.3603 7.4091 13.18 7.22877C12.9997 7.04845 12.7551 6.94714 12.5001 6.94714Z" fill="#A4A4A4"/>
<path d="M16.1346 6.94714C15.8796 6.94714 15.635 7.04845 15.4547 7.22877C15.2744 7.4091 15.1731 7.65367 15.1731 7.90868V21.5818C15.1731 21.8368 15.2744 22.0813 15.4547 22.2617C15.635 22.442 15.8796 22.5433 16.1346 22.5433C16.3897 22.5433 16.6342 22.442 16.8145 22.2617C16.9949 22.0813 17.0962 21.8368 17.0962 21.5818V7.90868C17.0962 7.65367 16.9949 7.4091 16.8145 7.22877C16.6342 7.04845 16.3897 6.94714 16.1346 6.94714Z" fill="#A4A4A4"/>
<path d="M8.86535 6.94714C8.61033 6.94714 8.36576 7.04845 8.18544 7.22877C8.00511 7.4091 7.90381 7.65367 7.90381 7.90868V21.5818C7.90381 21.8368 8.00511 22.0813 8.18544 22.2617C8.36576 22.442 8.61033 22.5433 8.86535 22.5433C9.12036 22.5433 9.36493 22.442 9.54526 22.2617C9.72558 22.0813 9.82689 21.8368 9.82689 21.5818V7.90868C9.82689 7.65367 9.72558 7.4091 9.54526 7.22877C9.36493 7.04845 9.12036 6.94714 8.86535 6.94714Z" fill="#A4A4A4"/>
</g>
<defs>
<clipPath id="clip0_716_87">
<rect width="25" height="25" fill="white"/>
</clipPath>
</defs>
</svg>
