<svg width="52" height="49" viewBox="0 0 52 49" fill="none" xmlns="http://www.w3.org/2000/svg">
<path d="M8.03395 35L6.03395 29.5L1.53394 34.5C-0.466064 38.5 0.533951 36.5 0.0339505 39.5C-0.366049 41.9 2.86728 42.1667 4.53395 42V39.5L6.03395 38L8.03395 35Z" fill="#C4C4C4"/>
<path d="M8.03395 26.5C0.433963 21.7 0.533946 16.8333 1.53394 15H3.03394C6.03392 21.5 9.03394 21 11.5339 21.5C13.5339 21.9 19.7006 16.6667 22.5339 14H34.0339V15C34.8339 19.4 37.7006 21.8333 39.0339 22.5C41.7006 22.3333 47.3339 22.5 48.5339 24.5C50.0339 27 47.5339 27 47.0339 28C46.6339 28.8 44.2006 28.3333 43.0339 28H35.5339C33.9339 28 31.2006 26.3333 30.0339 25.5C21.5339 30 20.5339 31.5 20.0339 32.5C19.5339 33.5 19.5339 34.5 19.0339 37C18.6339 39 14.8673 43.8333 13.0339 46C13.4339 48.4 12.2006 48.6667 11.5339 48.5C6.53394 47 8.03395 46 7.03394 44.5C6.23392 43.3 9.7006 38.3333 11.5339 36C8.73394 30.4 8.03395 27.3333 8.03395 26.5Z" fill="#C4C4C4"/>
<path d="M23 2.5V0H24.5L27.5 1H28.5L30 0H32L34 1.5H35.5L36.5 1H39.5V6.5L34 10.5H24L24.5 6.5L23 2.5Z" fill="#C4C4C4"/>
<path d="M45.5 3.5C45.5 1.1 47.5 0.833333 48.5 1C49.5141 1 51 1 51.5 3.5C51.9 5.5 49.6667 6.33333 48.5 6.5C47.5 6.5 45.5 5.9 45.5 3.5Z" fill="#C4C4C4"/>
<path d="M38.5 19.5L36.5 15C38.9 12.2 44.8333 12.8333 47.5 13.5C48.1667 14.6667 49 17.1 47 17.5C45 17.9 40.5 19 38.5 19.5Z" fill="#C4C4C4"/>
</svg>
