<svg width="65" height="65" viewBox="0 0 65 65" fill="none" xmlns="http://www.w3.org/2000/svg">
<g clip-path="url(#clip0_711_2)">
<path d="M27.4219 2.03125C23.6522 2.03552 20.038 3.53493 17.3724 6.20054C14.7068 8.86615 13.2074 12.4803 13.2031 16.25V26.3656C13.2044 28.0648 13.6307 29.7366 14.4432 31.2289L17.9287 37.619L8.68361 43.6282C7.26277 44.548 6.09529 45.8095 5.28799 47.2971C4.48069 48.7848 4.05935 50.4511 4.06252 52.1437V62.9688H39.6094V58.9062H8.12502V52.1437C8.12313 51.1282 8.37594 50.1283 8.86032 49.2357C9.3447 48.3431 10.0452 47.5863 10.8977 47.0344L23.2959 38.9755L18.0096 29.2838C17.5221 28.3883 17.2664 27.3852 17.2656 26.3656V16.25C17.2656 13.5564 18.3357 10.9731 20.2403 9.06845C22.145 7.16378 24.7283 6.09375 27.4219 6.09375C30.1155 6.09375 32.6988 7.16378 34.6034 9.06845C36.5081 10.9731 37.5781 13.5564 37.5781 16.25V26.3656C37.5774 27.3851 37.3216 28.3883 36.8341 29.2836L31.5479 38.9755L39.6094 44.2156V39.3703L36.9151 37.6184L40.4004 31.2283C41.2129 29.7362 41.6393 28.0646 41.6406 26.3656V16.25C41.6364 12.4803 40.137 8.86615 37.4714 6.20054C34.8057 3.53493 31.1916 2.03552 27.4219 2.03125Z" fill="#A4A4A4"/>
<g clip-path="url(#clip1_711_2)">
<path fill-rule="evenodd" clip-rule="evenodd" d="M38.9289 58.0711C42.8342 61.9763 49.1658 61.9763 53.0711 58.0711C56.9763 54.1658 56.9763 47.8342 53.0711 43.9289C49.1658 40.0237 42.8342 40.0237 38.9289 43.9289C35.0237 47.8342 35.0237 54.1658 38.9289 58.0711ZM41.3416 57.2296C44.3881 59.5136 48.7291 59.2703 51.4996 56.4996C54.2703 53.7291 54.5136 49.3881 52.2296 46.3416L49.1426 49.4287C48.7088 49.8625 48.0052 49.8625 47.5713 49.4287C47.1374 48.9948 47.1374 48.2912 47.5713 47.8573L50.6583 44.7703C47.6119 42.4863 43.2709 42.7296 40.5003 45.5003C37.7296 48.2709 37.4863 52.6119 39.7703 55.6583L42.8573 52.5713C43.2912 52.1374 43.9948 52.1374 44.4287 52.5713C44.8625 53.0052 44.8625 53.7088 44.4287 54.1426L41.3416 57.2296Z" fill="#A4A4A4"/>
</g>
</g>
<defs>
<clipPath id="clip0_711_2">
<rect width="65" height="65" fill="white"/>
</clipPath>
<clipPath id="clip1_711_2">
<rect width="25" height="25" fill="white" transform="translate(36 41)"/>
</clipPath>
</defs>
</svg>
