<svg width="50" height="50" viewBox="0 0 50 50" fill="none" xmlns="http://www.w3.org/2000/svg">
<path d="M2.87256 35.569V45.5957C2.87256 46.1814 3.34731 46.6561 3.93287 46.6561H23.1429C22.9766 46.3015 22.8832 45.9063 22.8832 45.4894V35.569H2.87256Z" fill="#A4A4A4"/>
<path d="M1.59047 33.9249H2.87249H22.883V33.0112V31.7167C22.883 31.7046 22.8834 31.6925 22.8835 31.6804C22.8892 30.8736 23.085 30.1111 23.4284 29.4359C23.5766 29.1445 23.7521 28.8692 23.9518 28.6138C24.1892 28.3101 24.4606 28.0341 24.76 27.7917C25.6274 27.0893 26.7312 26.6679 27.9318 26.6679H29.1275V24.3717C29.1275 22.6303 27.7159 21.2187 25.9745 21.2187H23.1218C22.5649 21.2187 22.0812 21.6019 21.9539 22.144L20.6279 27.7917L20.4348 28.6139L20.2981 29.1958C20.279 29.2774 20.2565 29.3575 20.2307 29.4359H19.3515C19.3418 29.1608 19.3138 28.8863 19.2679 28.6138C19.2601 28.5665 19.2517 28.5195 19.2427 28.4725L19.0663 27.7917L18.0288 23.7868L18.8569 21.9592C19.0141 21.6122 18.7604 21.2187 18.3794 21.2187H16.6021C16.2211 21.2187 15.9674 21.6122 16.1246 21.9592L16.9527 23.7868L15.8758 27.7917L15.7122 28.4002C15.698 28.4712 15.6854 28.5425 15.6736 28.6138C15.6286 28.8863 15.6015 29.1608 15.5926 29.4359H14.7508C14.7251 29.3574 14.7026 29.2774 14.6834 29.1958L14.5467 28.6139L14.3537 27.7917L13.0276 22.1442C12.9003 21.602 12.4166 21.2188 11.8597 21.2188H9.00704C7.26569 21.2188 5.85404 22.6305 5.85404 24.3718V27.792V28.6141V29.4361H1.59047C0.712106 29.4361 0 30.1482 0 31.0266V32.3347C0 33.2129 0.712106 33.9249 1.59047 33.9249Z" fill="#A4A4A4"/>
<path d="M17.491 19.5147C21.3991 19.5147 24.5673 16.3465 24.5673 12.4384V4.91689C24.5673 3.94188 23.6893 3.202 22.7284 3.36709C20.6462 3.72478 15.898 4.67233 12.9436 5.26844C11.4723 5.56527 10.4146 6.85817 10.4146 8.35909V12.4384C10.4146 16.3466 13.5828 19.5147 17.491 19.5147Z" fill="#A4A4A4"/>
<path d="M27.9318 28.2585C27.3834 28.2585 26.8651 28.3866 26.4043 28.6138C25.9949 28.8158 25.6316 29.0964 25.3334 29.4359C24.8059 30.0363 24.4832 30.8205 24.4743 31.6804C24.4742 31.6925 24.4734 31.7045 24.4734 31.7167V33.0113V33.9249V34.7469V35.569V45.4894C24.4734 46.1337 24.9958 46.656 25.64 46.656H43.3518H48.8334C49.4777 46.656 50 46.1337 50 45.4894V31.7167C50 30.0433 48.8113 28.6475 47.2322 28.3275C47.0091 28.2824 46.7782 28.2585 46.5418 28.2585H29.1276H27.9318Z" fill="#A4A4A4"/>
<path d="M37.2369 26.3895C41.5234 26.3895 44.9984 22.9146 44.9984 18.6281V14.1537C44.9984 12.5075 43.8381 11.0894 42.2245 10.7639C38.984 10.1101 33.7762 9.07082 31.4923 8.67845C31.3927 8.66132 31.2939 8.65311 31.1967 8.65311C30.265 8.65311 29.4753 9.40996 29.4753 10.3783V18.6281C29.4754 22.9146 32.9503 26.3895 37.2369 26.3895Z" fill="#A4A4A4"/>
</svg>
