<svg width="12" height="12" viewBox="0 0 12 12" fill="none" xmlns="http://www.w3.org/2000/svg">
<g clip-path="url(#clip0_519_290)">
<path d="M11.4824 8.15809C11.7283 7.84442 11.8463 7.50816 11.8312 7.16186C11.8161 6.78043 11.6455 6.48181 11.505 6.29862C11.6681 5.8921 11.7308 5.2522 11.1863 4.75533C10.7873 4.39147 10.1097 4.22836 9.17123 4.27353C8.51126 4.30364 7.95919 4.4266 7.9366 4.43162H7.93409C7.80862 4.4542 7.67562 4.48181 7.54012 4.51192C7.53008 4.35132 7.55768 3.95232 7.85379 3.05395C8.20511 1.98494 8.18503 1.16688 7.78855 0.619824C7.37199 0.0451694 6.70699 0 6.51126 0C6.32305 0 6.14991 0.0777917 6.02694 0.220828C5.7484 0.544542 5.78102 1.14178 5.81615 1.41782C5.48491 2.30615 4.55643 4.48432 3.77099 5.08908C3.75593 5.09912 3.74338 5.11167 3.73084 5.12422C3.49997 5.36763 3.34439 5.63112 3.23899 5.86198C3.09094 5.78168 2.92281 5.73651 2.74213 5.73651H1.21139C0.63423 5.73651 0.16748 6.20577 0.16748 6.78043V10.8582C0.16748 11.4354 0.63674 11.9021 1.21139 11.9021H2.74213C2.96547 11.9021 3.17375 11.8319 3.34439 11.7114L3.9341 11.7817C4.02444 11.7942 5.63046 11.9975 7.27914 11.9649C7.57776 11.9875 7.85881 12 8.11979 12C8.56897 12 8.96044 11.9649 9.28666 11.8946C10.0545 11.7315 10.579 11.4053 10.845 10.926C11.0483 10.5596 11.0483 10.1957 11.0156 9.96487C11.515 9.51318 11.6028 9.0138 11.5853 8.66249C11.5752 8.45922 11.5301 8.28607 11.4824 8.15809ZM1.21139 11.2246C1.00813 11.2246 0.84502 11.059 0.84502 10.8582V6.77792C0.84502 6.57466 1.01064 6.41154 1.21139 6.41154H2.74213C2.94539 6.41154 3.1085 6.57716 3.1085 6.77792V10.8557C3.1085 11.059 2.94288 11.2221 2.74213 11.2221H1.21139V11.2246ZM10.84 7.86449C10.7346 7.97491 10.7145 8.14304 10.7948 8.27353C10.7948 8.27604 10.8977 8.45169 10.9102 8.6926C10.9278 9.02133 10.7697 9.31242 10.4385 9.56085C10.3205 9.65119 10.2729 9.80678 10.323 9.9473C10.323 9.94981 10.431 10.2811 10.2553 10.5947C10.0872 10.8959 9.71326 11.1117 9.14614 11.2321C8.69193 11.33 8.07462 11.3476 7.31678 11.2873C7.30674 11.2873 7.29419 11.2873 7.28165 11.2873C5.6681 11.3225 4.03698 11.1117 4.01942 11.1092H4.01691L3.76346 11.079C3.77852 11.0088 3.78604 10.9335 3.78604 10.8582V6.77792C3.78604 6.67001 3.76848 6.56462 3.73837 6.46675C3.78354 6.29862 3.90901 5.92472 4.20512 5.60602C5.33184 4.71267 6.43347 1.69887 6.48115 1.56838C6.50122 1.51568 6.50624 1.45797 6.4962 1.40025C6.45354 1.1192 6.4686 0.775408 6.52883 0.672522C6.66182 0.675031 7.02067 0.712673 7.23648 1.01129C7.49244 1.36512 7.4824 1.99749 7.20637 2.83563C6.78479 4.11292 6.74965 4.78545 7.0834 5.08156C7.24903 5.22961 7.46985 5.23714 7.63046 5.17942C7.78353 5.14429 7.92908 5.11418 8.06709 5.09159C8.07713 5.08908 8.08968 5.08658 8.09971 5.08407C8.8701 4.91594 10.2503 4.81305 10.7296 5.24969C11.1361 5.62108 10.8475 6.11292 10.8149 6.16562C10.722 6.30615 10.7496 6.48934 10.8751 6.60226L10.876 6.60313C10.8931 6.61962 11.1415 6.86313 11.1537 7.18695C11.1637 7.41029 11.0583 7.63865 10.84 7.86449Z" fill="#1E2126"/>
<path d="M1.21139 11.2246C1.00813 11.2246 0.84502 11.059 0.84502 10.8582V6.77792C0.84502 6.57466 1.01064 6.41154 1.21139 6.41154H2.74213C2.94539 6.41154 3.1085 6.57716 3.1085 6.77792V10.8557C3.1085 11.059 2.94288 11.2221 2.74213 11.2221H1.21139V11.2246Z" fill="#A4A4A4"/>
<path d="M10.7948 8.27353C10.7145 8.14304 10.7346 7.97491 10.84 7.86449C11.0583 7.63865 11.1637 7.41029 11.1537 7.18695C11.1416 6.86511 10.8958 6.62229 10.876 6.60313L10.8751 6.60226C10.7496 6.48934 10.722 6.30615 10.8149 6.16562C10.8475 6.11292 11.1361 5.62108 10.7296 5.24969C10.2503 4.81305 8.8701 4.91594 8.09971 5.08407C8.08968 5.08658 8.07713 5.08908 8.06709 5.09159C7.92908 5.11418 7.78353 5.14429 7.63046 5.17942C7.46985 5.23714 7.24903 5.22961 7.0834 5.08156C6.74965 4.78545 6.78479 4.11292 7.20637 2.83563C7.4824 1.99749 7.49244 1.36512 7.23648 1.01129C7.02067 0.712673 6.66182 0.675031 6.52883 0.672522C6.4686 0.775408 6.45354 1.1192 6.4962 1.40025C6.50624 1.45797 6.50122 1.51568 6.48115 1.56838C6.43347 1.69887 5.33184 4.71267 4.20512 5.60602C3.90901 5.92472 3.78354 6.29862 3.73837 6.46675C3.76848 6.56462 3.78604 6.67001 3.78604 6.77792V10.8582C3.78604 10.9335 3.77852 11.0088 3.76346 11.079L4.01691 11.1092H4.01942C4.03698 11.1117 5.6681 11.3225 7.28165 11.2873H7.31678C8.07462 11.3476 8.69193 11.33 9.14614 11.2321C9.71326 11.1117 10.0872 10.8959 10.2553 10.5947C10.431 10.2811 10.323 9.94981 10.323 9.9473C10.2729 9.80678 10.3205 9.65119 10.4385 9.56085C10.7697 9.31242 10.9278 9.02133 10.9102 8.6926C10.8977 8.45169 10.7948 8.27604 10.7948 8.27353Z" fill="#A4A4A4"/>
</g>
<defs>
<clipPath id="clip0_519_290">
<rect width="12" height="12" fill="white"/>
</clipPath>
</defs>
</svg>
