<svg width="50" height="35" viewBox="0 0 50 35" fill="none" xmlns="http://www.w3.org/2000/svg">
<path d="M49.9855 1.142C49.9149 0.5135 49.3411 0.0215 48.6283 0.00349998V0H19.2355C18.505 0 17.9111 0.502 17.8394 1.142H17.825V7.7115H30.2372C30.8894 7.7115 31.4188 8.1595 31.4833 8.731H31.4961V23.347H37.6122L41.2166 26.5905C41.47 26.929 41.8994 27.1515 42.3866 27.1515C43.1655 27.1515 43.7966 26.5835 43.7966 25.883V23.347H48.6288V23.343C49.2938 23.3265 49.8444 22.8985 49.9716 22.3295H49.9999V1.142H49.9855Z" fill="#A4A4A4"/>
<path d="M27.4667 10.205H1.22444V10.208C0.588889 10.2235 0.076111 10.663 0.0127776 11.2245H0V30.142H0.0255556C0.139444 30.6495 0.631111 31.0315 1.22444 31.0465V31.0495H5.53833V33.314C5.53833 33.939 6.10222 34.4465 6.79722 34.4465C7.23222 34.4465 7.61611 34.2475 7.84167 33.9455L11.0594 31.0495H27.4667C28.0756 31.0495 28.5839 30.6595 28.7 30.142H28.725V11.2245H28.7122C28.6489 10.6525 28.1189 10.205 27.4667 10.205Z" fill="#A4A4A4"/>
</svg>
