<svg width="30" height="26" viewBox="0 0 30 26" fill="none" xmlns="http://www.w3.org/2000/svg">
<path d="M1.30287 1.20788L1.41931 1.20508H28.6858C28.8002 1.20508 28.8846 1.24351 28.9347 1.2844C28.9848 1.32527 28.9918 1.35856 28.9929 1.36791L29 1.43141V20.5388L28.9987 20.5443C28.9968 20.5529 28.9849 20.5883 28.9303 20.6285C28.8765 20.668 28.7929 20.7018 28.6858 20.7018H11.5503H11.1702L10.886 20.9543L7.52544 23.9409L7.45169 24.0065L7.39217 24.0852C7.35531 24.1339 7.25632 24.2051 7.09893 24.2051C6.97574 24.2051 6.88469 24.1607 6.83353 24.1152C6.78412 24.0714 6.78416 24.0418 6.78416 24.0371V21.7018V20.7018H5.78416H1.41514L1.30375 20.699C1.19828 20.6964 1.11704 20.6619 1.06571 20.6233C1.01401 20.5845 1.00348 20.5515 1.00183 20.5443L1 20.5363V1.43023L1.00688 1.36996C1.00793 1.36077 1.01463 1.32901 1.06233 1.28924C1.11042 1.24914 1.1919 1.21055 1.30287 1.20788Z" stroke="#A4A4A4" stroke-width="2"/>
</svg>
