<svg width="60" height="60" viewBox="0 0 60 60" fill="none" xmlns="http://www.w3.org/2000/svg">
<path d="M41.014 45.389L31.461 40.613C30.56 40.162 30 39.256 30 38.248V34.867C30.229 34.587 30.47 34.268 30.719 33.916C31.958 32.166 32.951 30.218 33.673 28.117C35.084 27.47 36 26.075 36 24.5V20.5C36 19.537 35.64 18.604 35 17.875V12.556C35.056 12.006 35.276 8.732 32.908 6.031C30.854 3.688 27.521 2.5 23 2.5C18.479 2.5 15.146 3.688 13.092 6.03C10.724 8.731 10.944 12.006 11 12.555V17.874C10.36 18.603 10 19.536 10 20.499V24.499C10 25.716 10.553 26.851 11.497 27.608C12.413 31.235 14.33 33.968 15 34.845V38.154C15 39.122 14.472 40.01 13.623 40.474L4.702 45.34C1.801 46.924 0 49.958 0 53.262V57.5H46V53.457C46 50.018 44.089 46.927 41.014 45.389Z" fill="#A4A4A4"/>
<path d="M55.467 46.526L45.744 42.316C45.514 42.201 45.259 41.92 45.04 41.545L51.565 41.54C51.565 41.54 51.942 41.577 52.527 41.577C53.6 41.577 55.165 41.455 56.527 40.87C57.344 40.518 57.952 39.823 58.196 38.963C58.442 38.095 58.286 37.176 57.77 36.44C55.905 33.786 51.552 26.851 51.416 19.817C51.413 19.696 51.019 7.73396 39.206 7.63696C38.019 7.64696 36.897 7.79296 35.834 8.04996C36.626 10.144 36.553 12.018 36.499 12.626V17.359C37.147 18.281 37.499 19.376 37.499 20.5V24.5C37.499 26.407 36.495 28.172 34.892 29.162C34.144 31.184 33.154 33.073 31.943 34.783C31.793 34.996 31.645 35.197 31.5 35.387V38.247C31.5 38.689 31.736 39.072 32.131 39.269L41.684 44.045C45.271 45.839 47.499 49.444 47.499 53.455V57.5H60V53.803C60 50.711 58.282 47.933 55.467 46.526Z" fill="#A4A4A4"/>
</svg>
