<svg width="12" height="12" viewBox="0 0 12 12" fill="none" xmlns="http://www.w3.org/2000/svg">
<g opacity="0.12" clip-path="url(#clip0_519_287)">
<path d="M11.638 5.44143C11.6871 5.31345 11.7335 5.14029 11.7464 4.93953C11.7645 4.58568 11.6742 4.08879 11.1605 3.63707C11.1941 3.40619 11.1941 3.0398 10.985 2.67591C10.7088 2.19408 10.1694 1.86784 9.3796 1.70472C8.85048 1.5943 8.15617 1.57171 7.31474 1.63445C5.61898 1.60183 3.9671 1.8051 3.87418 1.81765L3.26763 1.88791C3.09212 1.76746 2.87789 1.69719 2.64818 1.69719H1.07372C0.480078 1.69719 0 2.16647 0 2.74116V6.81918C0 7.39637 0.482659 7.86315 1.07372 7.86315H2.64818C2.83401 7.86315 3.00694 7.81798 3.15923 7.73767C3.26763 7.96855 3.42766 8.23205 3.66512 8.47548C3.67802 8.48803 3.69093 8.50057 3.70641 8.51061C4.51687 9.11541 5.47186 11.2937 5.80998 12.1821C5.77643 12.4581 5.74287 13.0554 6.02679 13.3791C6.15326 13.5222 6.32878 13.6 6.52494 13.6C6.72368 13.6 7.41024 13.5548 7.8387 12.9801C8.24393 12.433 8.26716 11.6149 7.90581 10.5459C7.60124 9.64744 7.57285 9.24842 7.58318 9.08781C7.72255 9.11792 7.85935 9.14553 7.99098 9.16811H7.99357C8.0168 9.17313 8.58463 9.2961 9.26345 9.32621C10.2288 9.37139 10.9282 9.20827 11.336 8.84438C11.8987 8.34498 11.8316 7.70756 11.6638 7.30101C11.8084 7.11781 11.9839 6.81918 11.9994 6.43773C12.0097 6.09141 11.891 5.75764 11.638 5.44143ZM2.64818 7.18808H1.07372C0.864657 7.18808 0.696888 7.02245 0.696888 6.82169V2.74367C0.696888 2.5404 0.867239 2.37728 1.07372 2.37728H2.64818C2.85724 2.37728 3.02501 2.54291 3.02501 2.74367V6.82169C3.02501 7.02496 2.85724 7.18808 2.64818 7.18808ZM10.9515 7.43151C10.9515 7.43402 11.0418 7.57204 11.0728 7.76026C11.1115 7.99365 11.0444 8.18688 10.8637 8.34749C10.3707 8.78415 8.95114 8.68377 8.15875 8.51312C8.14843 8.51061 8.1381 8.5081 8.1252 8.50559C7.98324 8.4805 7.83096 8.45038 7.67609 8.41776C7.51091 8.36004 7.28377 8.36757 7.11342 8.51563C6.77014 8.81176 6.80886 9.48432 7.23989 10.7617C7.52381 11.5999 7.53414 12.2323 7.27087 12.5861C7.04889 12.8848 6.68238 12.9224 6.54301 12.9249C6.48106 12.8245 6.46299 12.4807 6.50945 12.1971C6.5172 12.1419 6.51203 12.0842 6.49397 12.029C6.44492 11.901 5.31184 8.88453 4.15294 7.99114C3.85095 7.67242 3.71932 7.2985 3.67286 7.13036C3.70383 7.03249 3.7219 6.92709 3.7219 6.81918V2.74367C3.7219 2.66838 3.71416 2.5931 3.69867 2.52283L3.95936 2.49272H3.96194C3.97742 2.49021 5.6577 2.2794 7.31733 2.31454C7.32765 2.31454 7.34056 2.31454 7.35346 2.31454C8.13552 2.25431 8.76789 2.27188 9.23506 2.36975C9.81322 2.49021 10.1952 2.70101 10.3707 2.99964C10.554 3.30832 10.4533 3.62703 10.4456 3.65715C10.3914 3.79768 10.4404 3.95076 10.5643 4.04111C11.3283 4.59823 10.9773 5.2482 10.9308 5.32851C10.8456 5.459 10.8663 5.62463 10.9773 5.73756C11.1993 5.96342 11.3077 6.18928 11.2999 6.41012C11.2896 6.73887 11.0289 6.98481 11.0108 6.99986C10.8818 7.10777 10.8586 7.29097 10.9515 7.43151Z" fill="#1E2126"/>
<path d="M10.9515 7.43151C10.9515 7.43402 11.0418 7.57204 11.0728 7.76026C11.1115 7.99365 11.0444 8.18688 10.8637 8.34749C10.3707 8.78415 8.95114 8.68377 8.15875 8.51312C8.14843 8.51061 8.1381 8.5081 8.1252 8.50559C7.98324 8.4805 7.83096 8.45038 7.67609 8.41776C7.51091 8.36004 7.28377 8.36757 7.11342 8.51563C6.77014 8.81176 6.80886 9.48432 7.23989 10.7617C7.52381 11.5999 7.53414 12.2323 7.27087 12.5861C7.04889 12.8848 6.68238 12.9224 6.54301 12.9249C6.48106 12.8245 6.46299 12.4807 6.50945 12.1971C6.5172 12.1419 6.51203 12.0842 6.49397 12.029C6.44492 11.901 5.31184 8.88453 4.15294 7.99114C3.85095 7.67242 3.71932 7.2985 3.67286 7.13036C3.70383 7.03249 3.7219 6.92709 3.7219 6.81918V2.74367C3.7219 2.66838 3.71416 2.5931 3.69867 2.52283L3.95936 2.49272H3.96194C3.97742 2.49021 5.6577 2.2794 7.31733 2.31454H7.35346C8.13552 2.25431 8.76789 2.27188 9.23506 2.36975C9.81322 2.49021 10.1952 2.70101 10.3707 2.99964C10.554 3.30832 10.4533 3.62703 10.4456 3.65715C10.3914 3.79768 10.4404 3.95076 10.5643 4.04111C11.3283 4.59823 10.9773 5.2482 10.9308 5.32851C10.8456 5.459 10.8663 5.62463 10.9773 5.73756C11.1993 5.96342 11.3077 6.18928 11.2999 6.41012C11.2896 6.73887 11.0289 6.98481 11.0108 6.99986C10.8818 7.10777 10.8586 7.29097 10.9515 7.43151Z" fill="#A4A4A4"/>
<path d="M2.64818 7.18808H1.07372C0.864657 7.18808 0.696888 7.02245 0.696888 6.82169V2.74367C0.696888 2.5404 0.867239 2.37728 1.07372 2.37728H2.64818C2.85724 2.37728 3.02501 2.54291 3.02501 2.74367V6.82169C3.02501 7.02496 2.85724 7.18808 2.64818 7.18808Z" fill="#A4A4A4"/>
</g>
<defs>
<clipPath id="clip0_519_287">
<rect width="12" height="12" fill="white"/>
</clipPath>
</defs>
</svg>
