<svg width="50" height="50" viewBox="0 0 50 50" fill="none" xmlns="http://www.w3.org/2000/svg">
<path d="M48.1573 30.2915L46.4327 29.2957C46.7223 27.8551 46.8689 26.4125 46.8689 25C46.8689 23.5669 46.7246 22.123 46.4399 20.7L48.1573 19.7084C48.6892 19.4014 49.0697 18.9055 49.2286 18.3122C49.3875 17.719 49.306 17.0993 48.9989 16.5674L44.3022 8.43249C43.9951 7.90059 43.4993 7.52006 42.906 7.36115C42.3127 7.20225 41.6931 7.28376 41.1611 7.5909L39.4423 8.58327C37.2712 6.67319 34.716 5.19491 31.9961 4.27515V2.29941C31.9961 1.03151 30.9646 0 29.6966 0H20.3033C19.0354 0 18.0039 1.03151 18.0039 2.29941V4.27524C15.2984 5.19129 12.7467 6.67153 10.5676 8.58914L8.83872 7.5909C8.30673 7.28376 7.68706 7.20215 7.09381 7.36115C6.50056 7.52016 6.00477 7.90059 5.69763 8.43249L1.00095 16.5674C0.693812 17.0993 0.612305 17.719 0.771209 18.3122C0.930113 18.9055 1.31064 19.4014 1.84254 19.7084L3.5672 20.7042C3.27776 22.1448 3.13109 23.5874 3.13109 25C3.13109 26.4329 3.27532 27.8768 3.56005 29.2999L1.84264 30.2915C0.744595 30.9254 0.367099 32.3344 1.00095 33.4326L5.69763 41.5675C6.33158 42.6655 7.74058 43.0431 8.83872 42.4091L10.5574 41.4167C12.7286 43.3268 15.2837 44.8051 18.0039 45.7249V47.7006C18.0039 48.9685 19.0354 50 20.3033 50H29.6966C30.9646 50 31.9961 48.9685 31.9961 47.7006V45.7248C34.7016 44.8087 37.2533 43.3285 39.4325 41.411L41.1612 42.4091C42.2592 43.0431 43.6684 42.6655 44.3023 41.5675L48.999 33.4326C49.6329 32.3344 49.2554 30.9254 48.1573 30.2915ZM47.7279 32.6987L43.0312 40.8336C42.8019 41.2308 42.2922 41.3673 41.8951 41.138L39.7041 39.873C39.4257 39.7122 39.0749 39.7515 38.8389 39.9698C36.5989 42.0415 33.9038 43.6046 31.0451 44.4902C30.7378 44.5854 30.5284 44.8696 30.5284 45.1912V47.7006C30.5284 48.1592 30.1553 48.5323 29.6966 48.5323H20.3033C19.8447 48.5323 19.4716 48.1592 19.4716 47.7006V45.1913C19.4716 44.8697 19.2621 44.5855 18.955 44.4903C16.0786 43.5992 13.3802 42.0381 11.1512 39.9757C11.0121 39.8471 10.8331 39.7805 10.6526 39.7805C10.5268 39.7805 10.4003 39.8128 10.2859 39.8789L8.10487 41.138C7.70761 41.3672 7.19802 41.2307 6.96876 40.8336L2.27209 32.6987C2.04283 32.3016 2.17943 31.7919 2.57649 31.5625L4.75575 30.3043C5.03403 30.1436 5.17542 29.8207 5.10467 29.5072C4.76896 28.0193 4.5988 26.5027 4.5988 25C4.5988 23.5225 4.7715 22.0074 5.11221 20.4969C5.18285 20.1835 5.04146 19.8605 4.76328 19.6999L2.57649 18.4374C2.38412 18.3263 2.24655 18.147 2.18902 17.9324C2.13158 17.7178 2.16103 17.4936 2.27209 17.3013L6.96876 9.16634C7.07982 8.97397 7.25917 8.8363 7.47385 8.77887C7.68833 8.72133 7.9126 8.75088 8.10497 8.86194L10.296 10.1269C10.5744 10.2878 10.9251 10.2484 11.1611 10.0301C13.4012 7.95842 16.0963 6.3953 18.955 5.50969C19.2622 5.41448 19.4717 5.13033 19.4717 4.80871V2.29941C19.4717 1.8408 19.8448 1.46771 20.3034 1.46771H29.6967C30.1554 1.46771 30.5284 1.8408 30.5284 2.29941V4.80871C30.5284 5.13033 30.7379 5.41448 31.0451 5.50969C33.9213 6.40068 36.6197 7.96184 38.8489 10.0243C39.0849 10.2427 39.4357 10.2819 39.7142 10.1211L41.8952 8.86194C42.0876 8.75088 42.3118 8.72133 42.5263 8.77887C42.7409 8.8364 42.9202 8.97397 43.0314 9.16634L47.7281 17.3013C47.8391 17.4936 47.8687 17.7178 47.8111 17.9324C47.7536 18.147 47.616 18.3263 47.4237 18.4374L45.2444 19.6956C44.9661 19.8563 44.8247 20.1793 44.8955 20.4927C45.2312 21.9805 45.4013 23.497 45.4013 25C45.4013 26.4775 45.2286 27.9926 44.8879 29.503C44.8173 29.8164 44.9587 30.1393 45.2369 30.3L47.4237 31.5625C47.8206 31.7919 47.9572 32.3016 47.7279 32.6987Z" fill="#A4A4A4"/>
<path d="M24.9999 10.1761C16.8259 10.1761 10.176 16.8261 10.176 25C10.176 33.1739 16.8259 39.8239 24.9999 39.8239C33.1739 39.8239 39.8238 33.1739 39.8238 25C39.8238 16.8261 33.1739 10.1761 24.9999 10.1761ZM24.9999 38.3562C17.6353 38.3562 11.6437 32.3646 11.6437 25C11.6437 17.6354 17.6353 11.6439 24.9999 11.6439C32.3645 11.6439 38.3561 17.6354 38.3561 25C38.3561 32.3646 32.3645 38.3562 24.9999 38.3562Z" fill="#A4A4A4"/>
<path d="M27.7397 21.135H25C24.5947 21.135 24.2661 21.4636 24.2661 21.8689V28.1311C24.2661 28.5364 24.5947 28.865 25 28.865C25.4053 28.865 25.7338 28.5364 25.7338 28.1311V26.5166H27.7397C29.2235 26.5166 30.4305 25.3096 30.4305 23.8258C30.4305 22.3421 29.2235 21.135 27.7397 21.135ZM27.7397 25.0489H25.7338V22.6027H27.7397C28.4142 22.6027 28.9628 23.1514 28.9628 23.8258C28.9628 24.5003 28.4142 25.0489 27.7397 25.0489Z" fill="#A4A4A4"/>
<path d="M20.9905 21.6112C20.883 21.3248 20.6092 21.135 20.3034 21.135H19.5206C19.2147 21.135 18.9409 21.3247 18.8335 21.6112L16.4852 27.8735C16.3428 28.2529 16.5352 28.6759 16.9146 28.8183C17.2941 28.9606 17.7171 28.7683 17.8594 28.3888L18.2679 27.2994H21.556L21.9645 28.3887C22.075 28.6833 22.3546 28.8651 22.6517 28.8651C22.7373 28.8651 22.8244 28.8501 22.9092 28.8183C23.2887 28.676 23.4811 28.2529 23.3387 27.8735L20.9905 21.6112ZM18.8182 25.8317L19.912 22.9151L21.0057 25.8317H18.8182Z" fill="#A4A4A4"/>
<path d="M32.0449 21.135C31.6396 21.135 31.311 21.4636 31.311 21.8689V28.1311C31.311 28.5364 31.6396 28.865 32.0449 28.865C32.4502 28.865 32.7787 28.5364 32.7787 28.1311V21.8689C32.7787 21.4636 32.4502 21.135 32.0449 21.135Z" fill="#A4A4A4"/>
<path d="M30.2498 8.54208C30.7591 8.70441 31.2668 8.89296 31.7587 9.10235C31.8524 9.14227 31.9499 9.16116 32.0457 9.16116C32.3311 9.16116 32.6025 8.99364 32.7213 8.71458C32.88 8.34169 32.7064 7.91067 32.3335 7.75196C31.7995 7.52466 31.2484 7.31997 30.6954 7.14374C30.3093 7.02065 29.8964 7.23396 29.7733 7.62006C29.6503 8.00617 29.8636 8.41899 30.2498 8.54208Z" fill="#A4A4A4"/>
<path d="M9.82867 33.2588C9.63454 32.903 9.18865 32.7719 8.83298 32.966C8.47721 33.1601 8.34609 33.6059 8.54022 33.9617C8.84472 34.5198 9.18181 35.0688 9.54208 35.5935C9.68435 35.8006 9.914 35.912 10.1477 35.912C10.2908 35.912 10.4354 35.8702 10.5624 35.783C10.8966 35.5536 10.9814 35.0967 10.752 34.7627C10.42 34.2791 10.1093 33.7731 9.82867 33.2588Z" fill="#A4A4A4"/>
<path d="M23.4972 42.2055C19.5648 41.8667 15.8321 40.1626 12.9868 37.407C12.6956 37.125 12.231 37.1325 11.9491 37.4236C11.6672 37.7148 11.6746 38.1794 11.9658 38.4613C15.0528 41.451 19.1034 43.3001 23.3711 43.6678C23.3926 43.6696 23.4138 43.6705 23.4349 43.6705C23.8117 43.6705 24.1323 43.382 24.1653 42.9997C24.2 42.5959 23.9009 42.2404 23.4972 42.2055Z" fill="#A4A4A4"/>
<path d="M35.5601 9.51926C35.2255 9.29059 34.7688 9.3765 34.5401 9.71104C34.3115 10.0457 34.3974 10.5023 34.7319 10.731C38.1413 13.061 40.6076 16.5283 41.6763 20.4938C41.7646 20.8212 42.0609 21.0369 42.3845 21.0369C42.4477 21.0369 42.512 21.0287 42.5759 21.0114C42.9672 20.906 43.1989 20.5032 43.0935 20.1119C41.9338 15.8086 39.2583 12.0468 35.5601 9.51926Z" fill="#A4A4A4"/>
</svg>
