<svg width="15" height="15" viewBox="0 0 15 15" fill="none" xmlns="http://www.w3.org/2000/svg">
<path d="M10.9302 3.33627L10.9447 3.44763L10.7778 3.48218L10.7556 3.7194H10.9555L11.2214 3.6938L11.3587 3.53061L11.2128 3.47385L11.1329 3.38192L11.0129 3.18758L10.9555 2.91272L10.73 2.95868L10.6667 3.05555V3.16475L10.7753 3.23909L10.9302 3.33627Z" fill="#A4A4A4"/>
<path d="M10.738 3.42756L10.75 3.27887L10.6177 3.2218L10.4326 3.26468L10.2953 3.48494V3.62777H10.4554L10.738 3.42756Z" fill="#A4A4A4"/>
<path d="M6.92827 4.05904L6.88755 4.16392H6.69043V4.26572H6.73732C6.73732 4.26572 6.7401 4.28732 6.74411 4.3157L6.86503 4.30552L6.94061 4.25863L6.96035 4.16392L7.05814 4.15559L7.0967 4.076L7.00693 4.0575L6.92827 4.05904Z" fill="#A4A4A4"/>
<path d="M6.42019 4.24384L6.41248 4.34348L6.5553 4.33145L6.57011 4.2315L6.48435 4.16394L6.42019 4.24384Z" fill="#A4A4A4"/>
<path d="M14.9981 7.42242C14.996 7.20309 14.9849 6.9853 14.9642 6.7709C14.8948 6.05614 14.7239 5.371 14.4679 4.72874C14.4487 4.68093 14.4312 4.63249 14.4108 4.5853C14.0696 3.77923 13.5905 3.04535 13.0041 2.41203C12.9656 2.37069 12.9264 2.32997 12.8872 2.28987C12.7765 2.17481 12.6626 2.06252 12.5448 1.95486C11.2115 0.740977 9.44082 0 7.49985 0C5.54252 0 3.75918 0.754242 2.42221 1.98663C2.11064 2.27383 1.82437 2.58725 1.56463 2.92288C0.584884 4.19013 0 5.77758 0 7.49985C0 11.6357 3.36463 15 7.50015 15C10.4092 15 12.9347 13.3342 14.1779 10.907C14.4438 10.3882 14.6508 9.83506 14.7902 9.25542C14.8257 9.10828 14.8562 8.96051 14.8828 8.8109C14.9584 8.38488 14.9997 7.94684 14.9997 7.49985C15 7.47393 14.9985 7.44833 14.9981 7.42242ZM13.5865 4.42488L13.63 4.37614C13.6871 4.48689 13.7405 4.59949 13.7914 4.71362L13.7204 4.71085L13.5865 4.72936V4.42488V4.42488ZM12.5028 3.1163L12.5041 2.78129C12.6219 2.90622 12.7354 3.03486 12.844 3.16812L12.7089 3.36925L12.2366 3.36494L12.207 3.26653L12.5028 3.1163ZM3.45563 2.2837V2.27105H3.60586L3.61882 2.21954H3.86468V2.32689L3.79404 2.42129H3.45532L3.45563 2.2837ZM3.69563 2.61841C3.69563 2.61841 3.84586 2.5928 3.85882 2.5928C3.87177 2.5928 3.85882 2.74272 3.85882 2.74272L3.5201 2.76401L3.45563 2.68689L3.69563 2.61841ZM14.0644 5.59558H13.5156L13.1812 5.34663L12.8292 5.38087V5.59558H12.7178L12.5975 5.50982L11.988 5.35527V4.96041L11.2155 5.02057L10.9761 5.1492H10.6695L10.5193 5.13409L10.1469 5.34077V5.72977L9.38591 6.27887L9.44915 6.51332H9.60339L9.56298 6.73666L9.4544 6.77645L9.44853 7.3601L10.1062 8.1091H10.3925L10.4098 8.06345H10.9243L11.0727 7.92617H11.3645L11.5246 8.08658L11.9596 8.13162L11.9019 8.71003L12.3847 9.56237L12.1305 10.0482L12.1478 10.2771L12.348 10.4767V11.027L12.6108 11.3806V11.8377H12.8378C11.5743 13.3891 9.65121 14.3827 7.49954 14.3827C3.70458 14.383 0.616967 11.2951 0.616967 7.49985C0.616967 6.54447 0.813162 5.63383 1.16638 4.80617V4.59147L1.41255 4.29255C1.49799 4.13121 1.58961 3.97388 1.6874 3.82057L1.69851 3.9455L1.41285 4.29255C1.32432 4.45974 1.24165 4.63064 1.16668 4.80617V5.19794L1.45265 5.33553V5.88L1.72689 6.34797L1.94992 6.38221L1.97861 6.2218L1.71548 5.81584L1.66396 5.42129H1.8182L1.88329 5.82725L2.26365 6.38221L2.16555 6.56144L2.4074 6.93131L3.00802 7.08V6.98283L3.24833 7.01707L3.2255 7.18859L3.41429 7.22314L3.70581 7.30273L4.11763 7.77193L4.6436 7.81172L4.69512 8.24082L4.33512 8.49255L4.31815 8.87568L4.26663 9.11013L4.78735 9.76195L4.82715 9.9853C4.82715 9.9853 5.01594 10.0365 5.03907 10.0365C5.0619 10.0365 5.46231 10.3397 5.46231 10.3397V11.5178L5.60514 11.5579L5.50797 12.1015L5.74828 12.422L5.70386 12.9606L6.02129 13.5187L6.42879 13.8747L6.83846 13.8821L6.87856 13.7503L6.57748 13.4968L6.59476 13.3709L6.64874 13.2167L6.66015 13.0593L6.45656 13.0532L6.35383 12.9242L6.52288 12.7616L6.54571 12.6389L6.35692 12.5849L6.36802 12.4707L6.63702 12.43L7.04607 12.2335L7.18334 11.9818L7.61244 11.4327L7.51496 11.0033L7.64668 10.7747L8.04123 10.7867L8.30684 10.5763L8.3926 9.74776L8.6872 9.37357L8.73871 9.13327L8.47003 9.0472L8.29265 8.7563L7.68648 8.75013L7.20586 8.56689L7.18303 8.22416L7.02262 7.94375L6.58797 7.93728L6.33686 7.54303L6.11383 7.43414L6.10242 7.55445L5.69645 7.57851L5.54776 7.37152L5.12422 7.28545L4.77532 7.68864L4.22622 7.59548L4.18643 6.97666L3.78571 6.90817L3.94643 6.60463L3.90046 6.43033L3.37388 6.78231L3.04257 6.7419L2.92442 6.48309L2.99661 6.21625L3.17923 5.87969L3.59969 5.66684L4.41162 5.66653L4.40946 5.91424L4.70129 6.04997L4.67815 5.62674L4.88853 5.41512L5.31301 5.13625L5.34201 4.94005L5.76524 4.49954L6.21532 4.25028L6.17553 4.21758L6.48031 3.93069L6.59198 3.96031L6.64319 4.02447L6.75887 3.89614L6.78725 3.8835L6.66046 3.8656L6.53183 3.82273V3.69933L6.6 3.6435H6.75023L6.81902 3.67373L6.87856 3.79404L6.95136 3.78293V3.77244L6.97234 3.77954L7.18334 3.74715L7.21326 3.64411L7.33357 3.67434V3.78602L7.2219 3.86283H7.22221L7.23856 3.9853L7.62077 4.10314C7.62077 4.10314 7.62108 4.10468 7.6217 4.10776L7.70961 4.10036L7.71548 3.9347L7.41255 3.79681L7.39527 3.71722L7.64668 3.63147L7.65779 3.39085L7.39496 3.23075L7.37769 2.82509L7.01738 3.00216H6.88596L6.92051 2.69337L6.43003 2.57769L6.22704 2.731V3.19866L5.86211 3.31434L5.71589 3.61913L5.55733 3.64473V3.25481L5.21429 3.2073L5.04278 3.09563L4.97368 2.84298L5.58725 2.48391L5.8874 2.3926L5.91764 2.59434L6.08483 2.58571L6.09779 2.48422L6.2727 2.45923L6.27578 2.42375L6.20051 2.3926L6.18324 2.28524L6.39825 2.26704L6.52812 2.13193L6.53522 2.12206L6.53676 2.12267L6.57625 2.08195L7.02818 2.02488L7.22807 2.19455L6.70396 2.47373L7.3709 2.63105L7.45728 2.40802H7.74879L7.85183 2.21368L7.64576 2.16216V1.9163L6.99949 1.63003L6.55342 1.68154L6.3017 1.81326L6.31897 2.13347L6.05584 2.09337L6.01542 1.9163L6.26746 1.6874L5.80997 1.66458L5.67856 1.70437L5.62149 1.85861L5.79301 1.88761L5.75877 2.05913L5.46725 2.0764L5.42159 2.19054L4.99866 2.20226C4.99866 2.20226 4.98694 1.96226 4.96997 1.96226C4.95301 1.96226 5.30159 1.9564 5.30159 1.9564L5.55362 1.71023L5.41604 1.64144L5.23311 1.81913L4.92956 1.80185L4.74663 1.55013H4.35764L3.95167 1.85337H4.3237L4.35764 1.96226L4.26108 2.05203L4.6729 2.06344L4.73584 2.21213L4.27219 2.19486L4.24967 2.08041L3.95815 2.01748L3.8036 1.93172L3.45656 1.9345C4.5927 1.10684 5.98982 0.616967 7.49985 0.616967C9.24031 0.616967 10.8305 1.26756 12.0438 2.33645L11.9621 2.48267L11.6446 2.60699L11.5107 2.75229L11.5416 2.92165L11.7054 2.94447L11.8041 3.19126L12.0867 3.07743L12.1333 3.40751H12.0481L11.8161 3.37327L11.5589 3.41645L11.3099 3.76812L10.9539 3.82396L10.9024 4.12874L11.0526 4.16422L11.0092 4.3601L10.6556 4.28915L10.3314 4.3601L10.2626 4.54057L10.3188 4.91938L10.5091 5.00853L10.8284 5.00668L11.044 4.98725L11.1097 4.81573L11.4466 4.378L11.6684 4.42334L11.8868 4.22591L11.9275 4.38015L12.4649 4.74262L12.3992 4.83085L12.157 4.81789L12.2502 4.94992L12.3992 4.98262L12.5738 4.90982L12.5701 4.69943L12.6475 4.66057L12.5852 4.59455L12.2267 4.39465L12.1323 4.12905H12.4303L12.5257 4.22344L12.7823 4.44463L12.7931 4.71208L13.059 4.99527L13.158 4.6072L13.3422 4.50663L13.3768 4.82406L13.5566 5.02149L13.9154 5.01532C13.9848 5.19393 14.0471 5.37563 14.1017 5.56103L14.0644 5.59558ZM4.0908 3.40751L4.27095 3.32175L4.43383 3.36062L4.37769 3.57933L4.20185 3.63517L4.0908 3.40751ZM5.04679 3.92237V4.06396H4.63527L4.48103 4.02108L4.51959 3.92237L4.71733 3.84062H4.98756V3.92237H5.04679ZM5.2362 4.11979V4.25707L5.13316 4.32339L5.00483 4.34715C5.00483 4.34715 5.00483 4.14139 5.00483 4.11979H5.2362ZM5.12021 4.06396V3.90077L5.2618 4.02972L5.12021 4.06396ZM5.18468 4.39404V4.52761L5.08627 4.62632H4.86756L4.9018 4.4764L5.00514 4.46746L5.02643 4.41594L5.18468 4.39404ZM4.6399 4.11979H4.86725L4.57573 4.5273L4.45542 4.46283L4.48134 4.29131L4.6399 4.11979ZM5.5709 4.34715V4.48041H5.35219L5.29234 4.39404V4.27003H5.30961L5.5709 4.34715ZM5.36884 4.16391L5.43116 4.09851L5.53635 4.16391L5.45213 4.23332L5.36884 4.16391ZM14.176 5.94293L14.1976 5.91764C14.2066 5.9565 14.2161 5.99537 14.2248 6.03486L14.176 5.94293Z" fill="#A4A4A4"/>
<path d="M1.16663 4.59152V4.80623C1.24159 4.63101 1.32426 4.46011 1.4128 4.2926L1.16663 4.59152Z" fill="#A4A4A4"/>
</svg>
