<svg width="15" height="15" viewBox="0 0 15 15" fill="none" xmlns="http://www.w3.org/2000/svg">
<path d="M7.50001 8.12498C6.81063 8.12498 6.25 8.68561 6.25 9.37499C6.25 10.0644 6.81063 10.625 7.50001 10.625C8.1894 10.625 8.75002 10.0644 8.75002 9.37499C8.75002 8.68561 8.1894 8.12498 7.50001 8.12498Z" fill="#A4A4A4"/>
<path d="M11.875 5.84751V4.37502C11.875 1.96251 9.91187 0 7.5 0C5.08813 0 3.12501 1.96251 3.12501 4.37499V5.84748C2.34501 6.81313 1.875 8.03938 1.875 9.375C1.875 12.4762 4.39813 15 7.5 15C10.6019 15 13.125 12.4762 13.125 9.375C13.125 8.03938 12.655 6.81313 11.875 5.84751ZM4.37499 4.37499C4.37499 2.65187 5.77688 1.24998 7.5 1.24998C9.22312 1.24998 10.625 2.65187 10.625 4.37499V4.70124C9.73063 4.10124 8.65562 3.75 7.5 3.75C6.34438 3.75 5.26937 4.10124 4.37499 4.70124V4.37499ZM10.625 9.99999H9.91125C9.85251 10.2269 9.76251 10.44 9.64562 10.6369L10.1512 11.1431C10.3956 11.3869 10.3956 11.7831 10.1512 12.0269C10.0294 12.1487 9.86938 12.21 9.70936 12.21C9.54938 12.21 9.38936 12.1487 9.26748 12.0269L8.76185 11.5206C8.56497 11.6375 8.35184 11.7275 8.12496 11.7862V12.5C8.12496 12.845 7.84559 13.125 7.49997 13.125C7.15436 13.125 6.87498 12.845 6.87498 12.5V11.7862C6.64811 11.7275 6.43497 11.6375 6.2381 11.5206L5.73246 12.0269C5.61059 12.1487 5.4506 12.21 5.29058 12.21C5.13059 12.21 4.97057 12.1487 4.84869 12.0269C4.60433 11.7831 4.60433 11.3869 4.84869 11.1431L5.35433 10.6369C5.23746 10.44 5.14746 10.2269 5.08869 9.99999H4.37493C4.02937 9.99999 3.75 9.72 3.75 9.375C3.75 9.03 4.02937 8.75001 4.37499 8.75001H5.08875C5.14749 8.52313 5.23749 8.31 5.35438 8.11312L4.84875 7.60688C4.60438 7.36313 4.60438 6.96688 4.84875 6.72313C5.0925 6.47938 5.48813 6.47938 5.73249 6.72313L6.23812 7.22938C6.435 7.11252 6.64814 7.02252 6.87501 6.96375V6.24999C6.87501 5.90499 7.15438 5.625 7.5 5.625C7.84562 5.625 8.12499 5.90499 8.12499 6.24999V6.96375C8.35187 7.02249 8.565 7.11249 8.76187 7.22938L9.26751 6.72313C9.51187 6.47938 9.9075 6.47938 10.1512 6.72313C10.3956 6.96688 10.3956 7.36313 10.1512 7.60688L9.64562 8.11312C9.76248 8.31 9.85248 8.52313 9.91125 8.75001H10.625C10.9706 8.75001 11.25 9.03 11.25 9.375C11.25 9.72 10.9706 9.99999 10.625 9.99999Z" fill="#A4A4A4"/>
</svg>
