<svg width="50" height="50" viewBox="0 0 50 50" fill="none" xmlns="http://www.w3.org/2000/svg">
<path d="M45.3938 3.08335L46.623 4.31251C48.3167 6.00835 48.0605 9.0146 46.0459 11.0271L20.698 36.375L12.4855 39.3792C11.4542 39.7583 10.4501 39.2667 10.2459 38.2854C10.1769 37.9295 10.2094 37.5613 10.3396 37.2229L13.4021 28.9396L38.6792 3.66043C40.6938 1.64793 43.7001 1.3896 45.3938 3.08543V3.08335ZM19.5917 5.60418C19.8653 5.60418 20.1362 5.65807 20.389 5.76276C20.6417 5.86746 20.8714 6.02092 21.0649 6.21437C21.2583 6.40783 21.4118 6.63749 21.5165 6.89025C21.6212 7.14302 21.6751 7.41393 21.6751 7.68751C21.6751 7.9611 21.6212 8.23201 21.5165 8.48477C21.4118 8.73753 21.2583 8.9672 21.0649 9.16065C20.8714 9.35411 20.6417 9.50756 20.389 9.61226C20.1362 9.71696 19.8653 9.77085 19.5917 9.77085H11.2584C10.1533 9.77085 9.09351 10.2098 8.31211 10.9912C7.5307 11.7726 7.09172 12.8324 7.09172 13.9375V38.9375C7.09172 40.0426 7.5307 41.1024 8.31211 41.8838C9.09351 42.6652 10.1533 43.1042 11.2584 43.1042H36.2584C37.3635 43.1042 38.4233 42.6652 39.2047 41.8838C39.9861 41.1024 40.4251 40.0426 40.4251 38.9375V30.6042C40.4251 30.0516 40.6446 29.5217 41.0353 29.131C41.426 28.7403 41.9559 28.5208 42.5084 28.5208C43.0609 28.5208 43.5908 28.7403 43.9815 29.131C44.3722 29.5217 44.5917 30.0516 44.5917 30.6042V38.9375C44.5917 41.1477 43.7138 43.2673 42.151 44.8301C40.5882 46.3929 38.4685 47.2708 36.2584 47.2708H11.2584C9.04825 47.2708 6.92863 46.3929 5.36583 44.8301C3.80302 43.2673 2.92505 41.1477 2.92505 38.9375V13.9375C2.92505 11.7274 3.80302 9.60776 5.36583 8.04496C6.92863 6.48215 9.04825 5.60418 11.2584 5.60418H19.5917Z" fill="#A4A4A4"/>
</svg>
