<svg width="65" height="65" viewBox="0 0 65 65" fill="none" xmlns="http://www.w3.org/2000/svg">
<path d="M27.4219 2.03125C23.6522 2.03552 20.038 3.53493 17.3724 6.20054C14.7068 8.86615 13.2074 12.4803 13.2031 16.25V26.3656C13.2044 28.0648 13.6307 29.7366 14.4432 31.2289L17.9287 37.619L8.68361 43.6282C7.26277 44.548 6.09529 45.8095 5.28799 47.2971C4.48069 48.7848 4.05935 50.4511 4.06252 52.1437V62.9688H39.6094V58.9062H8.12502V52.1437C8.12313 51.1282 8.37594 50.1283 8.86032 49.2357C9.3447 48.3431 10.0452 47.5863 10.8977 47.0344L23.2959 38.9755L18.0096 29.2838C17.5221 28.3883 17.2664 27.3852 17.2656 26.3656V16.25C17.2656 13.5564 18.3357 10.9731 20.2403 9.06845C22.145 7.16378 24.7283 6.09375 27.4219 6.09375C30.1155 6.09375 32.6988 7.16378 34.6034 9.06845C36.5081 10.9731 37.5781 13.5564 37.5781 16.25V26.3656C37.5774 27.3851 37.3216 28.3883 36.8341 29.2836L31.5479 38.9755L39.6094 44.2156V39.3703L36.9151 37.6184L40.4004 31.2283C41.2129 29.7362 41.6393 28.0646 41.6406 26.3656V16.25C41.6364 12.4803 40.137 8.86615 37.4714 6.20054C34.8057 3.53493 31.1916 2.03552 27.4219 2.03125V2.03125Z" fill="#A4A4A4"/>
<path d="M47.6101 49.2699C47.4001 49.3299 47.2801 49.5999 47.4601 49.7799L49.1101 51.4599C49.2901 51.6399 49.2901 51.9099 49.1101 52.0899L48.4801 52.7199C48.3001 52.8999 48.0301 52.8999 47.8501 52.7199L43.8001 48.6699C43.6201 48.4899 43.6201 48.2199 43.8001 48.0399L47.8501 43.9899C48.0301 43.8099 48.3001 43.8099 48.4801 43.9899L49.1101 44.6499C49.2901 44.8299 49.2901 45.0999 49.1101 45.2799L47.4301 46.9599C47.2501 47.1399 47.5801 47.4699 47.5801 47.4699C51.4201 47.5899 54.3901 50.1099 55.3201 53.5599C56.3101 52.2399 56.9101 50.6199 56.9101 48.8799C56.8801 44.2299 52.8601 40.5699 47.8801 40.5699C42.8701 40.5699 38.8801 44.2599 38.8801 48.7899C38.8801 50.2299 39.3001 51.5799 39.9601 52.7799C40.0801 52.9599 40.1101 53.1999 40.0501 53.4099L38.8801 56.6199C38.7601 56.9199 39.0601 57.1899 39.3601 57.0999L42.6001 55.8699C42.7801 55.7799 43.0201 55.8399 43.2301 55.9599C44.5801 56.7099 46.2001 57.1599 47.9401 57.1599C50.1901 57.1299 52.2301 56.3499 53.7901 55.0899C53.4301 51.8799 50.8201 49.3899 47.6101 49.2699Z" fill="#A4A4A4"/>
</svg>
