<svg width="55" height="55" viewBox="0 0 55 55" fill="none" xmlns="http://www.w3.org/2000/svg">
<path d="M35.0628 51.6233C36.8265 51.6233 36.8265 54.3056 35.0628 54.3056H2.74656C2.006 54.3056 1.40576 53.7047 1.40576 52.9641V12.5784C1.40576 12.2081 1.55582 11.8723 1.79813 11.63L12.3413 1.08744C12.6031 0.825649 12.9461 0.694427 13.2891 0.694427H43.6188C44.3594 0.694427 44.9603 1.29532 44.9603 2.03588V25.5102C44.9603 27.2746 42.278 27.2746 42.278 25.5102V3.37667H13.8445L4.08801 13.1338V51.6233H35.0628V51.6233ZM12.2478 39.8017C10.4834 39.8017 10.4834 37.1194 12.2478 37.1194H32.1694C33.9338 37.1194 33.9338 39.8017 32.1694 39.8017H12.2478ZM12.2478 21.9582C10.4834 21.9582 10.4834 19.2759 12.2478 19.2759H32.1694C33.9338 19.2759 33.9338 21.9582 32.1694 21.9582H12.2478ZM12.2478 27.906C10.4834 27.906 10.4834 25.2238 12.2478 25.2238H32.1694C33.9338 25.2238 33.9338 27.906 32.1694 27.906H12.2478ZM12.2478 33.8538C10.4834 33.8538 10.4834 31.1716 12.2478 31.1716H32.1694C33.9338 31.1716 33.9338 33.8538 32.1694 33.8538H12.2478ZM12.2478 16.0103C10.4834 16.0103 10.4834 13.3281 12.2478 13.3281H32.1694C33.9338 13.3281 33.9338 16.0103 32.1694 16.0103H12.2478ZM44.5055 31.4873C47.7432 31.4873 50.3676 34.1117 50.3676 37.3494C50.3676 38.5252 50.0214 39.6198 49.4257 40.537C51.8663 42.1565 53.4188 44.8297 53.5916 47.7607C53.6949 49.5186 51.0224 49.6751 50.9198 47.9179C50.7827 45.5995 49.451 43.5344 47.4034 42.4456C46.5486 42.9328 45.5598 43.2108 44.5055 43.2108C43.3648 43.2108 42.3001 42.8854 41.3997 42.3215C39.2274 43.3687 37.7879 45.5072 37.6456 47.9179C37.5423 49.6751 34.8705 49.5186 34.9738 47.7607C35.155 44.6959 36.8414 41.922 39.4613 40.337C38.9423 39.4619 38.6441 38.4407 38.6441 37.3494C38.6441 34.1124 41.2685 31.4873 44.5055 31.4873V31.4873ZM44.5055 34.1696C42.7496 34.1696 41.3263 35.5935 41.3263 37.3494C41.3263 39.1053 42.7496 40.5286 44.5055 40.5286C46.2614 40.5286 47.6854 39.1053 47.6854 37.3494C47.6854 35.5935 46.2621 34.1696 44.5055 34.1696V34.1696Z" fill="#A4A4A4"/>
</svg>
