<svg width="65" height="65" viewBox="0 0 65 65" fill="none" xmlns="http://www.w3.org/2000/svg">
<path d="M27.4219 2.03125C23.6522 2.03552 20.038 3.53493 17.3724 6.20054C14.7068 8.86615 13.2074 12.4803 13.2031 16.25V26.3656C13.2044 28.0648 13.6307 29.7366 14.4432 31.2289L17.9287 37.619L8.68361 43.6282C7.26277 44.548 6.09529 45.8095 5.28799 47.2971C4.48069 48.7848 4.05935 50.4511 4.06252 52.1437V62.9688H39.6094V58.9062H8.12502V52.1437C8.12313 51.1282 8.37594 50.1283 8.86032 49.2357C9.3447 48.3431 10.0452 47.5863 10.8977 47.0344L23.2959 38.9755L18.0096 29.2838C17.5221 28.3883 17.2664 27.3852 17.2656 26.3656V16.25C17.2656 13.5564 18.3357 10.9731 20.2403 9.06845C22.145 7.16378 24.7283 6.09375 27.4219 6.09375C30.1155 6.09375 32.6988 7.16378 34.6034 9.06845C36.5081 10.9731 37.5781 13.5564 37.5781 16.25V26.3656C37.5774 27.3851 37.3216 28.3883 36.8341 29.2836L31.5479 38.9755L39.6094 44.2156V39.3703L36.9151 37.6184L40.4004 31.2283C41.2129 29.7362 41.6393 28.0646 41.6406 26.3656V16.25C41.6364 12.4803 40.137 8.86615 37.4714 6.20054C34.8057 3.53493 31.1916 2.03552 27.4219 2.03125V2.03125Z" fill="#A4A4A4"/>
<g clip-path="url(#clip0_711_2)">
<path d="M56.6887 63C57.1055 63 57.4435 62.662 57.4435 62.2452C57.4435 61.8283 57.1055 61.4904 56.6887 61.4904H55.3954L55.3953 59.1717C55.3953 56.826 54.1081 54.6698 51.7706 53.1003C51.4797 52.905 51.2992 52.4834 51.2992 52.0001C51.2992 51.5168 51.4797 51.0951 51.7707 50.8998C54.1081 49.3303 55.3953 47.1742 55.3955 44.8285V42.5097H56.6887C57.1055 42.5097 57.4435 42.1717 57.4435 41.7549C57.4435 41.3381 57.1055 41 56.6887 41H41.5148C41.098 41 40.76 41.338 40.76 41.7548C40.76 42.1716 41.098 42.5096 41.5148 42.5096H42.8081V44.8284C42.8081 47.1742 44.0954 49.3303 46.4329 50.8998C46.7237 51.0951 46.9043 51.5166 46.9043 52C46.9043 52.4834 46.7237 52.905 46.4328 53.1003C44.0954 54.6698 42.8081 56.8259 42.8081 59.1717V61.4904H41.5148C41.098 61.4904 40.76 61.8284 40.76 62.2452C40.76 62.6621 41.098 63 41.5148 63H56.6887V63Z" fill="#A4A4A4"/>
</g>
<defs>
<clipPath id="clip0_711_2">
<rect width="22" height="22" fill="white" transform="translate(39 41)"/>
</clipPath>
</defs>
</svg>
