<svg width="65" height="65" viewBox="0 0 65 65" fill="none" xmlns="http://www.w3.org/2000/svg">
<path d="M27.4219 2.03125C23.6522 2.03552 20.038 3.53493 17.3724 6.20054C14.7068 8.86615 13.2074 12.4803 13.2031 16.25V26.3656C13.2044 28.0648 13.6307 29.7366 14.4432 31.2289L17.9287 37.619L8.68361 43.6282C7.26277 44.548 6.09529 45.8095 5.28799 47.2971C4.48069 48.7848 4.05935 50.4511 4.06252 52.1437V62.9688H39.6094V58.9062H8.12502V52.1437C8.12313 51.1282 8.37594 50.1283 8.86032 49.2357C9.3447 48.3431 10.0452 47.5863 10.8977 47.0344L23.2959 38.9755L18.0096 29.2838C17.5221 28.3883 17.2664 27.3852 17.2656 26.3656V16.25C17.2656 13.5564 18.3357 10.9731 20.2403 9.06845C22.145 7.16378 24.7283 6.09375 27.4219 6.09375C30.1155 6.09375 32.6988 7.16378 34.6034 9.06845C36.5081 10.9731 37.5781 13.5564 37.5781 16.25V26.3656C37.5774 27.3851 37.3216 28.3883 36.8341 29.2836L31.5479 38.9755L39.6094 44.2156V39.3703L36.9151 37.6184L40.4004 31.2283C41.2129 29.7362 41.6393 28.0646 41.6406 26.3656V16.25C41.6364 12.4803 40.137 8.86615 37.4714 6.20054C34.8057 3.53493 31.1916 2.03552 27.4219 2.03125V2.03125Z" fill="#A4A4A4"/>
<path d="M37 50.4999C37 57.3924 42.6075 62.9999 49.4999 62.9999C56.3924 62.9999 61.9999 57.3924 61.9999 50.4999C61.9999 43.6075 56.3925 38 49.4999 38C42.6074 38 37 43.6075 37 50.4999ZM57.5752 50.4999C57.5752 54.9527 53.9527 58.5752 49.4999 58.5752C48.076 58.5752 46.7379 58.2034 45.575 57.5539L56.5537 46.575C57.2033 47.7379 57.5752 49.076 57.5752 50.4999ZM49.4999 42.4248C50.9239 42.4248 52.262 42.7966 53.4248 43.4461L42.4463 54.425C41.7966 53.2621 41.4248 51.924 41.4248 50.4999C41.4248 46.0472 45.0472 42.4248 49.4999 42.4248Z" fill="#A4A4A4"/>
</svg>
