<svg width="15" height="15" viewBox="0 0 15 15" fill="none" xmlns="http://www.w3.org/2000/svg">
<path d="M11.638 9.15854C11.6871 9.28653 11.7335 9.45969 11.7464 9.66045C11.7645 10.0143 11.6742 10.5112 11.1605 10.9629C11.1941 11.1938 11.1941 11.5602 10.985 11.9241C10.7088 12.4059 10.1694 12.7321 9.3796 12.8953C8.85048 13.0057 8.15617 13.0283 7.31474 12.9655C5.61898 12.9981 3.9671 12.7949 3.87418 12.7823L3.26763 12.7121C3.09212 12.8325 2.87789 12.9028 2.64818 12.9028H1.07372C0.480078 12.9028 0 12.4335 0 11.8588V7.7808C0 7.2036 0.48266 6.73683 1.07372 6.73683H2.64818C2.83401 6.73683 3.00694 6.782 3.15923 6.8623C3.26763 6.63143 3.42766 6.36792 3.66512 6.1245C3.67802 6.11195 3.69093 6.0994 3.70641 6.08936C4.51687 5.48456 5.47186 3.30627 5.80998 2.41789C5.77643 2.14184 5.74287 1.54457 6.02679 1.22084C6.15326 1.0778 6.32878 1 6.52494 1C6.72368 1 7.41024 1.04517 7.8387 1.61986C8.24393 2.16694 8.26716 2.98505 7.90581 4.05412C7.60124 4.95254 7.57285 5.35156 7.58318 5.51217C7.72255 5.48205 7.85935 5.45445 7.99098 5.43186H7.99357C8.0168 5.42684 8.58463 5.30388 9.26345 5.27376C10.2288 5.22859 10.9282 5.39171 11.336 5.75559C11.8987 6.25499 11.8316 6.89242 11.6638 7.29897C11.8084 7.48216 11.9839 7.7808 11.9994 8.16225C12.0097 8.50857 11.891 8.84234 11.638 9.15854ZM2.64818 7.4119H1.07372C0.864657 7.4119 0.696888 7.57753 0.696888 7.77829V11.8563C0.696888 12.0596 0.867239 12.2227 1.07372 12.2227H2.64818C2.85724 12.2227 3.02501 12.0571 3.02501 11.8563V7.77829C3.02501 7.57502 2.85724 7.4119 2.64818 7.4119ZM10.9515 7.16847C10.9515 7.16596 11.0418 7.02793 11.0728 6.83972C11.1115 6.60633 11.0444 6.4131 10.8637 6.25248C10.3707 5.81582 8.95114 5.9162 8.15875 6.08685C8.14843 6.08936 8.1381 6.09187 8.1252 6.09438C7.98324 6.11948 7.83096 6.14959 7.67609 6.18222C7.51091 6.23994 7.28377 6.23241 7.11342 6.08434C6.77014 5.78822 6.80886 5.11566 7.23989 3.8383C7.52381 3.00011 7.53414 2.3677 7.27087 2.01386C7.04889 1.71522 6.68238 1.67758 6.54301 1.67507C6.48106 1.77545 6.46299 2.11926 6.50945 2.40284C6.5172 2.45805 6.51203 2.51577 6.49397 2.57098C6.44492 2.69896 5.31184 5.71544 4.15294 6.60884C3.85095 6.92755 3.71932 7.30148 3.67286 7.46962C3.70383 7.56749 3.7219 7.67289 3.7219 7.7808V11.8563C3.7219 11.9316 3.71416 12.0069 3.69867 12.0771L3.95936 12.1073H3.96194C3.97742 12.1098 5.6577 12.3206 7.31733 12.2854C7.32765 12.2854 7.34055 12.2854 7.35346 12.2854C8.13552 12.3457 8.76788 12.3281 9.23506 12.2302C9.81322 12.1098 10.1952 11.899 10.3707 11.6003C10.554 11.2917 10.4533 10.9729 10.4456 10.9428C10.3914 10.8023 10.4404 10.6492 10.5643 10.5589C11.3283 10.0017 10.9773 9.35178 10.9308 9.27147C10.8456 9.14097 10.8663 8.97534 10.9773 8.86241C11.1993 8.63656 11.3077 8.4107 11.2999 8.18986C11.2896 7.8611 11.0289 7.61517 11.0108 7.60011C10.8818 7.4922 10.8585 7.309 10.9515 7.16847Z" fill="#2A2F35"/>
<path d="M10.9515 7.16847C10.9515 7.16596 11.0418 7.02793 11.0728 6.83972C11.1115 6.60633 11.0444 6.4131 10.8637 6.25248C10.3707 5.81582 8.95114 5.9162 8.15875 6.08685C8.14843 6.08936 8.1381 6.09187 8.1252 6.09438C7.98324 6.11948 7.83096 6.14959 7.67609 6.18222C7.51091 6.23994 7.28377 6.23241 7.11342 6.08434C6.77014 5.78822 6.80886 5.11566 7.23989 3.8383C7.52381 3.00011 7.53414 2.3677 7.27087 2.01386C7.04889 1.71522 6.68238 1.67758 6.54301 1.67507C6.48106 1.77545 6.46299 2.11926 6.50945 2.40284C6.5172 2.45805 6.51203 2.51577 6.49397 2.57098C6.44492 2.69896 5.31184 5.71544 4.15294 6.60884C3.85095 6.92755 3.71932 7.30148 3.67286 7.46962C3.70383 7.56749 3.7219 7.67289 3.7219 7.7808V11.8563C3.7219 11.9316 3.71416 12.0069 3.69867 12.0771L3.95936 12.1073H3.96194C3.97742 12.1098 5.6577 12.3206 7.31733 12.2854H7.35346C8.13552 12.3457 8.76788 12.3281 9.23506 12.2302C9.81322 12.1098 10.1952 11.899 10.3707 11.6003C10.554 11.2917 10.4533 10.9729 10.4456 10.9428C10.3914 10.8023 10.4404 10.6492 10.5643 10.5589C11.3283 10.0017 10.9773 9.35178 10.9308 9.27147C10.8456 9.14097 10.8663 8.97534 10.9773 8.86241C11.1993 8.63656 11.3077 8.4107 11.2999 8.18986C11.2896 7.8611 11.0289 7.61517 11.0108 7.60011C10.8818 7.4922 10.8585 7.309 10.9515 7.16847Z" fill="#383C42"/>
<path d="M2.64818 7.4119H1.07372C0.864657 7.4119 0.696888 7.57753 0.696888 7.77829V11.8563C0.696888 12.0596 0.867239 12.2227 1.07372 12.2227H2.64818C2.85724 12.2227 3.02501 12.0571 3.02501 11.8563V7.77829C3.02501 7.57502 2.85724 7.4119 2.64818 7.4119Z" fill="#383C42"/>
</svg>
