<svg width="65" height="65" viewBox="0 0 65 65" fill="none" xmlns="http://www.w3.org/2000/svg">
<g clip-path="url(#clip0_711_2)">
<path d="M27.4219 2.03125C23.6522 2.03552 20.038 3.53493 17.3724 6.20054C14.7068 8.86615 13.2074 12.4803 13.2031 16.25V26.3656C13.2044 28.0648 13.6307 29.7366 14.4432 31.2289L17.9287 37.619L8.68361 43.6282C7.26277 44.548 6.09529 45.8095 5.28799 47.2971C4.48069 48.7848 4.05935 50.4511 4.06252 52.1437V62.9688H39.6094V58.9062H8.12502V52.1437C8.12313 51.1282 8.37594 50.1283 8.86032 49.2357C9.3447 48.3431 10.0452 47.5863 10.8977 47.0344L23.2959 38.9755L18.0096 29.2838C17.5221 28.3883 17.2664 27.3852 17.2656 26.3656V16.25C17.2656 13.5564 18.3357 10.9731 20.2403 9.06845C22.145 7.16378 24.7283 6.09375 27.4219 6.09375C30.1155 6.09375 32.6988 7.16378 34.6034 9.06845C36.5081 10.9731 37.5781 13.5564 37.5781 16.25V26.3656C37.5774 27.3851 37.3216 28.3883 36.8341 29.2836L31.5479 38.9755L39.6094 44.2156V39.3703L36.9151 37.6184L40.4004 31.2283C41.2129 29.7362 41.6393 28.0646 41.6406 26.3656V16.25C41.6364 12.4803 40.137 8.86615 37.4714 6.20054C34.8057 3.53493 31.1916 2.03552 27.4219 2.03125V2.03125Z" fill="#A4A4A4"/>
<g clip-path="url(#clip1_711_2)">
<path d="M59.3973 43H39.33C38.5954 43 38 43.5954 38 44.3299V57.3932C38 58.1276 38.5954 58.7231 39.33 58.7231H59.3973C60.1319 58.7231 60.7273 58.1276 60.7273 57.3932V44.3299C60.7273 43.5954 60.1319 43 59.3973 43ZM49.5871 45.2362H54.5797C54.8918 45.2362 55.1449 45.4894 55.1449 45.8014C55.1449 46.1135 54.8918 46.3666 54.5797 46.3666H49.5871C49.275 46.3666 49.0218 46.1135 49.0218 45.8014C49.0218 45.4894 49.275 45.2362 49.5871 45.2362ZM46.8434 49.341C46.716 49.9637 46.2678 50.3986 45.8424 50.3121C45.8005 50.3037 45.7622 50.2867 45.7247 50.2694C45.3751 51.03 44.868 51.7064 44.269 52.1108V52.5004C44.269 53.1864 44.6943 53.8005 45.3362 54.0423C45.3921 54.0633 45.4369 54.1075 45.459 54.1634C45.4811 54.2193 45.4782 54.2822 45.4517 54.336L44.5523 56.1538C44.2771 56.7109 43.7089 57.0631 43.0877 57.0631C42.4666 57.0631 41.8985 56.7109 41.6232 56.1538L40.7238 54.336C40.6973 54.2823 40.6944 54.2193 40.7165 54.1634C40.7385 54.1075 40.7835 54.0633 40.8394 54.0423C41.4812 53.8005 41.9065 53.1864 41.9065 52.5004V52.1108C41.3075 51.7064 40.8004 51.0301 40.4508 50.2694C40.4133 50.2867 40.375 50.3037 40.3331 50.3121C39.9077 50.3986 39.4595 49.9637 39.3322 49.341C39.2064 48.718 39.4484 48.1429 39.8753 48.056C39.8973 48.0516 39.9195 48.0541 39.9423 48.0523C39.9652 46.1753 41.3619 44.6599 43.0878 44.6599C44.8137 44.6599 46.2105 46.1753 46.2334 48.0523C46.2562 48.0541 46.2783 48.0516 46.3003 48.056C46.727 48.1429 46.9692 48.718 46.8434 49.341ZM56.8406 56.9174H51.8478C51.5359 56.9174 51.2827 56.6642 51.2827 56.3521C51.2827 56.0401 51.5359 55.7869 51.8478 55.7869H56.8406C57.1527 55.7869 57.4058 56.0401 57.4058 56.3521C57.4058 56.6642 57.1527 56.9174 56.8406 56.9174ZM58.3478 53.9029H49.5871C49.275 53.9029 49.0218 53.6497 49.0218 53.3377C49.0218 53.0256 49.275 52.7725 49.5871 52.7725H58.3479C58.66 52.7725 58.9131 53.0256 58.9131 53.3377C58.913 53.6497 58.6599 53.9029 58.3478 53.9029ZM58.3478 50.8884H49.5871C49.275 50.8884 49.0218 50.6352 49.0218 50.3232C49.0218 50.0111 49.275 49.7579 49.5871 49.7579H58.3479C58.66 49.7579 58.9131 50.0111 58.9131 50.3232C58.913 50.6352 58.6599 50.8884 58.3478 50.8884Z" fill="#A4A4A4"/>
</g>
</g>
<defs>
<clipPath id="clip0_711_2">
<rect width="65" height="65" fill="white"/>
</clipPath>
<clipPath id="clip1_711_2">
<rect width="25" height="25" fill="white" transform="translate(37 41)"/>
</clipPath>
</defs>
</svg>
