<svg width="35" height="35" viewBox="0 0 35 35" fill="none" xmlns="http://www.w3.org/2000/svg">
<path d="M27.6188 0C24.0144 0 21.014 2.69959 20.3672 6.2692H0.989072C0.442806 6.26912 0 6.73209 0 7.30269V26.2146C0 26.7855 0.442806 27.2481 0.989072 27.2481H16.1181V33.9664C16.1181 34.3843 16.3589 34.7613 16.7287 34.9213C16.851 34.9742 16.9796 35 17.107 35C17.3642 35 17.6174 34.8949 17.8066 34.6972L24.9856 27.2481H29.2386C29.785 27.2481 30.2278 26.7855 30.2278 26.2146V14.9279C33.0167 13.8265 35 11.0114 35 7.71193C35.0001 3.45285 31.6954 0 27.6188 0ZM27.6188 13.4743C24.5779 13.4743 22.1039 10.8894 22.1039 7.712C22.1039 4.5347 24.5779 1.94976 27.6188 1.94976C30.6597 1.94976 33.1339 4.5347 33.1339 7.712C33.1339 10.8895 30.6597 13.4743 27.6188 13.4743Z" fill="#A4A4A4"/>
<path d="M30.7641 6.88252H28.4023V4.41504C28.4023 3.96267 28.0516 3.59595 27.6184 3.59595C27.1854 3.59595 26.8344 3.96267 26.8344 4.41504V6.88252H24.4729C24.0399 6.88252 23.689 7.24924 23.689 7.70161C23.689 8.15397 24.0399 8.52069 24.4729 8.52069H26.8345V10.9882C26.8345 11.4405 27.1854 11.8073 27.6185 11.8073C28.0516 11.8073 28.4024 11.4405 28.4024 10.9882V8.52069H30.7642C31.1972 8.52069 31.5481 8.15397 31.5481 7.70161C31.548 7.24917 31.1971 6.88252 30.7641 6.88252Z" fill="#A4A4A4"/>
</svg>
