<svg width="15" height="15" viewBox="0 0 15 15" fill="none" xmlns="http://www.w3.org/2000/svg">
<path d="M14.6322 12.9119L14.1044 10.6364C13.9425 10.47 13.752 10.331 13.5316 10.2174C12.4253 9.65068 11.2808 9.18019 10.1235 8.73617C10.0373 8.70343 9.93368 8.63742 9.89808 8.56193C9.83833 8.43008 9.79146 8.29305 9.74709 8.1553C9.67303 8.23866 9.58287 8.30718 9.47875 8.35512L8.94904 8.59932C8.84099 8.64887 8.72578 8.67463 8.60699 8.67463C8.28766 8.67463 7.99517 8.48733 7.86172 8.1977L7.76314 7.98392C7.57173 8.00664 7.37906 8.01487 7.18567 8.00592L7.10392 8.22739C7.02824 8.43259 6.8769 8.59627 6.67797 8.68787C6.56973 8.7376 6.45435 8.76318 6.33556 8.76318C6.2386 8.76318 6.14289 8.74583 6.0513 8.7122L5.50424 8.51023C5.3579 8.45602 5.23446 8.36264 5.14161 8.24224C5.10655 8.34546 5.06934 8.44761 5.02909 8.54905C5.00387 8.61202 4.94107 8.67642 4.87918 8.70469C4.52085 8.85997 4.15483 9.00434 3.7931 9.15568C3.40866 9.31758 3.01992 9.47232 2.64424 9.65068C2.25693 9.83638 1.88054 10.0443 1.50164 10.2482C1.27837 10.3675 1.06978 10.4999 0.895539 10.6639L0.367798 12.9116C2.93852 12.9116 4.28095 14.7708 6.95579 14.9998L5.97026 13.6395L7.49874 9.45891L7.02592 8.44332H7.97281L7.49874 9.45891L9.0274 13.6395L8.06745 14.9667C10.0151 14.6411 13.1241 12.9119 14.6322 12.9119Z" fill="#A4A4A4"/>
<path d="M3.524 3.55509L3.95657 3.71502C3.92258 4.03024 3.93367 4.35207 3.99306 4.67193L3.57516 4.86425C3.31433 4.98446 3.19984 5.29449 3.32006 5.55514L3.56407 6.08503C3.68411 6.34586 3.99413 6.46035 4.25496 6.34013L4.67286 6.14764C4.87734 6.40078 5.11455 6.61831 5.37664 6.79739L5.21688 7.2296C5.1684 7.36001 5.17395 7.50152 5.23227 7.628C5.29023 7.7543 5.39435 7.85072 5.52494 7.8992L6.072 8.10118C6.20242 8.14948 6.34392 8.14393 6.4704 8.08579C6.59688 8.02765 6.69295 7.92335 6.74089 7.79312L6.90064 7.36037C7.21604 7.39436 7.53787 7.38345 7.85755 7.32388L8.05004 7.74177C8.17026 8.0026 8.48011 8.11728 8.74076 7.99706L9.27047 7.75305C9.53148 7.63283 9.64597 7.32298 9.52575 7.06197L9.33326 6.64407C9.58622 6.43942 9.80375 6.20238 9.98283 5.94066L10.4154 6.10041C10.5458 6.14889 10.6875 6.14299 10.814 6.08467C10.9405 6.02671 11.0365 5.92259 11.0848 5.79218L11.2868 5.24494C11.3864 4.97552 11.248 4.67551 10.9786 4.57587L10.546 4.41611C10.58 4.10072 10.5691 3.77907 10.5097 3.4592L10.9276 3.26671C11.1884 3.14667 11.3029 2.83665 11.1827 2.57564L10.9388 2.04611C10.8186 1.78528 10.5088 1.67061 10.2481 1.79083L9.82987 1.9835C9.6254 1.73036 9.38818 1.51283 9.12628 1.33375L9.28621 0.901362C9.38568 0.631946 9.24739 0.331581 8.97797 0.232294L8.43091 0.0301423C8.16972 -0.0661032 7.85809 0.0775496 7.76184 0.338379L7.60191 0.770947C7.2867 0.736957 6.96487 0.748049 6.64518 0.807263L6.45269 0.389543C6.33265 0.128535 6.02245 0.0140418 5.76162 0.134259L5.23209 0.378093C4.97126 0.498311 4.85677 0.808336 4.9768 1.06917L5.16947 1.48706C4.91652 1.69172 4.69898 1.92894 4.51973 2.19084L4.0877 2.03126C3.82705 1.9343 3.51469 2.07795 3.41827 2.33914L3.2163 2.88638C3.16818 3.01698 3.17372 3.15848 3.23186 3.28496C3.28982 3.41108 3.39394 3.50733 3.524 3.55509ZM6.50153 2.43807C7.4003 2.02429 8.46454 2.41696 8.87851 3.31573C9.29247 4.2145 8.89962 5.27875 8.00085 5.69271C7.10208 6.10649 6.03783 5.71382 5.62387 4.81505C5.20991 3.91628 5.60276 2.85221 6.50153 2.43807Z" fill="#A4A4A4"/>
</svg>
