<svg width="40" height="40" viewBox="0 0 40 40" fill="none" xmlns="http://www.w3.org/2000/svg">
<path d="M0 19.9999C0 31.0278 8.97196 39.9998 19.9999 39.9998C31.0278 39.9998 39.9998 31.0278 39.9998 19.9999C39.9998 8.97196 31.028 0 19.9999 0C8.97177 0 0 8.97196 0 19.9999ZM32.9204 19.9999C32.9204 27.1243 27.1243 32.9204 19.9999 32.9204C17.7216 32.9204 15.5806 32.3255 13.72 31.2862L31.286 13.72C32.3253 15.5806 32.9204 17.7216 32.9204 19.9999ZM19.9999 7.07962C22.2782 7.07962 24.4192 7.67451 26.2798 8.71383L8.71402 26.2799C7.67451 24.4194 7.07962 22.2784 7.07962 19.9999C7.07962 12.8755 12.8755 7.07962 19.9999 7.07962Z" fill="#A4A4A4"/>
</svg>
