<svg width="50" height="47" viewBox="0 0 50 47" fill="none" xmlns="http://www.w3.org/2000/svg">
<path d="M21.352 3.08575H26.7188C28.7518 3.08575 30.4459 4.5669 30.8331 6.52327H33.8947C33.4832 2.8574 30.4217 0 26.7188 0H21.352C17.6491 0 14.5876 2.8574 14.176 6.52327H17.2377C17.6249 4.56073 19.319 3.08575 21.352 3.08575Z" fill="#A4A4A4"/>
<path d="M7.69646 19.687C12.0407 22.5506 17.8431 24.1306 24.0389 24.1306C30.2345 24.1306 36.0308 22.5506 40.3812 19.687C44.2897 17.1136 46.5587 13.7871 46.8371 10.2632C45.7903 8.92398 44.1808 8.06615 42.3657 8.06615H33.9434H30.9182H17.1594H14.1342H5.7119C3.90281 8.06615 2.28733 8.92398 1.2406 10.2632C1.51892 13.7871 3.78784 17.1074 7.69646 19.687Z" fill="#A4A4A4"/>
<path d="M21.9691 28.247C21.9691 29.2097 22.7376 29.9934 23.6814 29.9934H24.3893C25.3332 29.9934 26.1017 29.2097 26.1017 28.247V26.8522H21.9691V28.247Z" fill="#A4A4A4"/>
<path d="M5.71165 36.6938H31.0934C32.2222 25.6591 42.2222 25.1407 47.7778 29.4666L48.0711 13.6C47.817 14.1307 47.5265 14.6553 47.1938 15.1737C45.8929 17.2042 44.0354 19.0186 41.6879 20.5676C38.0394 22.9746 33.4713 24.5421 28.522 25.1407V25.6591V27.0539C28.522 29.3806 26.6704 31.269 24.3894 31.269H23.6815C21.4005 31.269 19.5491 29.3805 19.5491 27.0539V25.6591V25.1407C14.5998 24.5482 10.0316 22.9745 6.3832 20.5676C4.03561 19.0186 2.17811 17.2042 0.87726 15.1737C0.544543 14.6553 0.25412 14.1307 0 13.6V30.8679C0 34.0832 2.55935 36.6938 5.71165 36.6938Z" fill="#A4A4A4"/>
<g clip-path="url(#clip0_756_31)">
<path d="M41.1112 28.3333C36.2101 28.3333 32.2223 32.4008 32.2223 37.4C32.2223 42.3991 36.2101 46.4666 41.1112 46.4666C46.0123 46.4666 50.0001 42.3991 50.0001 37.4C50.0001 32.4008 46.0123 28.3333 41.1112 28.3333ZM41.1112 44.2C37.4345 44.2 34.4445 41.1502 34.4445 37.4C34.4445 33.6498 37.4345 30.6 41.1112 30.6C44.7878 30.6 47.7778 33.6498 47.7778 37.4C47.7778 41.1502 44.7878 44.2 41.1112 44.2Z" fill="#A4A4A4"/>
<path d="M42.2223 32.8666H40.0001V36.2666H36.6667V38.5333H40.0001V41.9333H42.2223V38.5333H45.5556V36.2666H42.2223V32.8666Z" fill="#A4A4A4"/>
</g>
<defs>
<clipPath id="clip0_756_31">
<rect width="17.7778" height="18.1333" fill="white" transform="translate(32.2223 28.3333)"/>
</clipPath>
</defs>
</svg>
