<svg width="50" height="50" viewBox="0 0 50 50" fill="none" xmlns="http://www.w3.org/2000/svg">
<path d="M25 6.18884C20.1769 6.18884 16.2529 10.1128 16.2529 14.936C16.2529 17.2768 17.1761 19.9331 18.7223 22.0414C20.4713 24.4262 22.7008 25.7396 25 25.7396C27.2994 25.7396 29.5288 24.4263 31.2779 22.0414C32.8242 19.9331 33.7473 17.2768 33.7473 14.936C33.7473 10.1128 29.8232 6.18884 25 6.18884ZM25 23.8747C23.3345 23.8747 21.5946 22.8046 20.2262 20.9385C18.9257 19.1654 18.1179 16.8653 18.1179 14.936C18.1179 11.1411 21.2052 8.05377 25 8.05377C28.7949 8.05377 31.8822 11.1411 31.8822 14.936C31.8824 18.8761 28.6419 23.8747 25 23.8747Z" fill="#A4A4A4"/>
<path d="M25 0C13.6 0 4.3252 9.27464 4.3252 20.6748C4.3252 32.0748 13.5998 41.3496 25 41.3496C36.4002 41.3496 45.6748 32.075 45.6748 20.6748C45.6748 9.27464 36.4 0 25 0ZM25 39.4847C21.2578 39.4846 17.7677 38.3857 14.8345 36.4943C14.9365 33.6386 16.2293 30.9614 18.4182 29.1025C19.288 28.3639 20.5581 28.2832 21.5789 28.9017C22.6814 29.5699 23.8326 29.9087 25.0004 29.9087C26.1679 29.9087 27.3187 29.57 28.4208 28.9022C29.4404 28.2843 30.7072 28.362 31.5729 29.0956C33.7634 30.9518 35.0635 33.6368 35.1653 36.4946C32.2322 38.3859 28.742 39.4847 25 39.4847ZM36.9232 35.212C36.5205 32.2924 35.0569 29.6034 32.7785 27.6727C31.3002 26.4203 29.1605 26.2733 27.4542 27.3073C25.8412 28.2847 24.1588 28.2846 22.5454 27.3068C20.8371 26.2716 18.6936 26.4221 17.211 27.6811C14.9345 29.6143 13.4768 32.2955 13.0752 35.2108C8.87424 31.7582 6.19012 26.5242 6.19012 20.6749C6.19012 10.303 14.6283 1.86492 25 1.86492C35.3718 1.86492 43.8099 10.303 43.8099 20.6748C43.8099 26.5248 41.1251 31.7594 36.9232 35.212Z" fill="#A4A4A4"/>
<path d="M37.6475 43.8098H12.3526C11.8377 43.8098 11.4202 44.2273 11.4202 44.7423C11.4202 45.2572 11.8377 45.6747 12.3526 45.6747H37.6475C38.1624 45.6747 38.5799 45.2572 38.5799 44.7423C38.5801 44.2273 38.1624 43.8098 37.6475 43.8098Z" fill="#A4A4A4"/>
<path d="M37.6475 48.1351H12.3526C11.8377 48.1351 11.4202 48.5526 11.4202 49.0675C11.4202 49.5825 11.8377 50 12.3526 50H37.6475C38.1624 50 38.5799 49.5825 38.5799 49.0675C38.5801 48.5526 38.1624 48.1351 37.6475 48.1351Z" fill="#A4A4A4"/>
</svg>
