<svg width="254" height="70" viewBox="0 0 254 70" fill="none" xmlns="http://www.w3.org/2000/svg">
<path d="M11.232 46.856C11.76 46.904 12.36 46.952 13.032 47C13.752 47 14.592 47 15.552 47C21.168 47 25.32 45.584 28.008 42.752C30.744 39.92 32.112 36.008 32.112 31.016C32.112 25.784 30.816 21.824 28.224 19.136C25.632 16.448 21.528 15.104 15.912 15.104C15.144 15.104 14.352 15.128 13.536 15.176C12.72 15.176 11.952 15.224 11.232 15.32V46.856ZM43.704 31.016C43.704 35.336 43.032 39.104 41.688 42.32C40.344 45.536 38.424 48.2 35.928 50.312C33.48 52.424 30.48 54.008 26.928 55.064C23.376 56.12 19.392 56.648 14.976 56.648C12.96 56.648 10.608 56.552 7.92 56.36C5.232 56.216 2.592 55.88 0 55.352V6.752C2.592 6.272 5.28 5.96 8.064 5.816C10.896 5.624 13.32 5.528 15.336 5.528C19.608 5.528 23.472 6.008 26.928 6.968C30.432 7.928 33.432 9.44 35.928 11.504C38.424 13.568 40.344 16.208 41.688 19.424C43.032 22.64 43.704 26.504 43.704 31.016Z" fill="#A4A4A4"/>
<path d="M61.8699 56H51.1419V18.128H61.8699V56ZM62.8779 7.184C62.8779 9.152 62.2299 10.712 60.9339 11.864C59.6859 12.968 58.1979 13.52 56.4699 13.52C54.7419 13.52 53.2299 12.968 51.9339 11.864C50.6859 10.712 50.0619 9.152 50.0619 7.184C50.0619 5.216 50.6859 3.68 51.9339 2.576C53.2299 1.424 54.7419 0.847998 56.4699 0.847998C58.1979 0.847998 59.6859 1.424 60.9339 2.576C62.2299 3.68 62.8779 5.216 62.8779 7.184Z" fill="#A4A4A4"/>
<path d="M81.6024 48.296C83.5704 48.296 84.9624 48.104 85.7784 47.72C86.5944 47.336 87.0024 46.592 87.0024 45.488C87.0024 44.624 86.4744 43.88 85.4184 43.256C84.3624 42.584 82.7544 41.84 80.5944 41.024C78.9144 40.4 77.3784 39.752 75.9864 39.08C74.6424 38.408 73.4904 37.616 72.5304 36.704C71.5704 35.744 70.8264 34.616 70.2984 33.32C69.7704 32.024 69.5064 30.464 69.5064 28.64C69.5064 25.088 70.8264 22.28 73.4664 20.216C76.1064 18.152 79.7304 17.12 84.3384 17.12C86.6424 17.12 88.8504 17.336 90.9624 17.768C93.0744 18.152 94.7544 18.584 96.0024 19.064L94.1304 27.416C92.8824 26.984 91.5144 26.6 90.0264 26.264C88.5864 25.928 86.9544 25.76 85.1304 25.76C81.7704 25.76 80.0904 26.696 80.0904 28.568C80.0904 29 80.1624 29.384 80.3064 29.72C80.4504 30.056 80.7384 30.392 81.1704 30.728C81.6024 31.016 82.1784 31.352 82.8984 31.736C83.6664 32.072 84.6264 32.456 85.7784 32.888C88.1304 33.752 90.0744 34.616 91.6104 35.48C93.1464 36.296 94.3464 37.208 95.2104 38.216C96.1224 39.176 96.7464 40.256 97.0824 41.456C97.4664 42.656 97.6584 44.048 97.6584 45.632C97.6584 49.376 96.2424 52.208 93.4104 54.128C90.6264 56.048 86.6664 57.008 81.5304 57.008C78.1704 57.008 75.3624 56.72 73.1064 56.144C70.8984 55.568 69.3624 55.088 68.4984 54.704L70.2984 45.992C72.1224 46.712 73.9944 47.288 75.9144 47.72C77.8344 48.104 79.7304 48.296 81.6024 48.296Z" fill="#A4A4A4"/>
<path d="M119.572 56.72C116.452 56.672 113.908 56.336 111.94 55.712C110.02 55.088 108.484 54.224 107.332 53.12C106.228 51.968 105.46 50.6 105.028 49.016C104.644 47.384 104.452 45.56 104.452 43.544V1.856L115.18 0.127998V41.384C115.18 42.344 115.252 43.208 115.396 43.976C115.54 44.744 115.804 45.392 116.188 45.92C116.62 46.448 117.22 46.88 117.988 47.216C118.756 47.552 119.788 47.768 121.084 47.864L119.572 56.72Z" fill="#A4A4A4"/>
<path d="M136.737 56H126.009V18.128H136.737V56ZM137.745 7.184C137.745 9.152 137.097 10.712 135.801 11.864C134.553 12.968 133.065 13.52 131.337 13.52C129.609 13.52 128.097 12.968 126.801 11.864C125.553 10.712 124.929 9.152 124.929 7.184C124.929 5.216 125.553 3.68 126.801 2.576C128.097 1.424 129.609 0.847998 131.337 0.847998C133.065 0.847998 134.553 1.424 135.801 2.576C137.097 3.68 137.745 5.216 137.745 7.184Z" fill="#A4A4A4"/>
<path d="M145.598 19.424C147.422 18.896 149.774 18.416 152.654 17.984C155.534 17.504 158.558 17.264 161.726 17.264C164.942 17.264 167.606 17.696 169.718 18.56C171.878 19.376 173.581 20.552 174.829 22.088C176.077 23.624 176.966 25.448 177.493 27.56C178.022 29.672 178.286 32.024 178.286 34.616V56H167.558V35.912C167.558 32.456 167.102 30.008 166.189 28.568C165.277 27.128 163.573 26.408 161.077 26.408C160.309 26.408 159.494 26.456 158.63 26.552C157.766 26.6 156.998 26.672 156.326 26.768V56H145.598V19.424Z" fill="#A4A4A4"/>
<path d="M197.5 31.808C198.556 30.656 199.636 29.456 200.74 28.208C201.892 26.96 202.996 25.736 204.052 24.536C205.108 23.288 206.092 22.112 207.004 21.008C207.964 19.904 208.78 18.944 209.452 18.128H222.196C219.652 21.056 217.156 23.864 214.708 26.552C212.308 29.192 209.668 31.928 206.788 34.76C208.228 36.056 209.716 37.616 211.252 39.44C212.788 41.216 214.276 43.064 215.716 44.984C217.156 46.904 218.476 48.824 219.676 50.744C220.876 52.664 221.884 54.416 222.7 56H210.388C209.62 54.752 208.732 53.384 207.724 51.896C206.764 50.36 205.732 48.848 204.628 47.36C203.524 45.824 202.348 44.36 201.1 42.968C199.9 41.576 198.7 40.4 197.5 39.44V56H186.772V1.856L197.5 0.127998V31.808Z" fill="#A4A4A4"/>
<path d="M226.321 8.696L237.049 6.968V18.128H249.937V27.056H237.049V40.376C237.049 42.632 237.433 44.432 238.201 45.776C239.017 47.12 240.625 47.792 243.025 47.792C244.177 47.792 245.353 47.696 246.553 47.504C247.801 47.264 248.929 46.952 249.937 46.568L251.449 54.92C250.153 55.448 248.713 55.904 247.129 56.288C245.545 56.672 243.601 56.864 241.297 56.864C238.369 56.864 235.945 56.48 234.025 55.712C232.105 54.896 230.569 53.792 229.417 52.4C228.265 50.96 227.449 49.232 226.969 47.216C226.537 45.2 226.321 42.968 226.321 40.52V8.696Z" fill="#A4A4A4"/>
<path d="M113.24 66.5C113.24 68.433 111.673 70 109.74 70C107.807 70 106.24 68.433 106.24 66.5C106.24 64.567 107.807 63 109.74 63C111.673 63 113.24 64.567 113.24 66.5Z" fill="#F4F4F4"/>
<path d="M138.04 6.9C138.04 10.7108 134.951 13.8 131.14 13.8C127.329 13.8 124.24 10.7108 124.24 6.9C124.24 3.08924 127.329 0 131.14 0C134.951 0 138.04 3.08924 138.04 6.9Z" fill="#A4A4A4"/>
<path d="M135.24 7C135.24 9.20914 133.449 11 131.24 11C129.031 11 127.24 9.20914 127.24 7C127.24 4.79086 129.031 3 131.24 3C133.449 3 135.24 4.79086 135.24 7Z" fill="#545454"/>
<path d="M133.24 7C133.24 8.10457 132.345 9 131.24 9C130.135 9 129.24 8.10457 129.24 7C129.24 5.89543 130.135 5 131.24 5C132.345 5 133.24 5.89543 133.24 7Z" fill="#F4F4F4"/>
<path d="M63.04 6.9C63.04 10.7108 59.9508 13.8 56.14 13.8C52.3292 13.8 49.24 10.7108 49.24 6.9C49.24 3.08924 52.3292 0 56.14 0C59.9508 0 63.04 3.08924 63.04 6.9Z" fill="#A4A4A4"/>
<path d="M60.24 7C60.24 9.20914 58.4491 11 56.24 11C54.0309 11 52.24 9.20914 52.24 7C52.24 4.79086 54.0309 3 56.24 3C58.4491 3 60.24 4.79086 60.24 7Z" fill="#545454"/>
<path d="M58.24 7C58.24 8.10457 57.3446 9 56.24 9C55.1354 9 54.24 8.10457 54.24 7C54.24 5.89543 55.1354 5 56.24 5C57.3446 5 58.24 5.89543 58.24 7Z" fill="#F4F4F4"/>
<path d="M125.24 66.5C125.24 68.433 123.673 70 121.74 70C119.807 70 118.24 68.433 118.24 66.5C118.24 64.567 119.807 63 121.74 63C123.673 63 125.24 64.567 125.24 66.5Z" fill="#F4F4F4"/>
<path d="M137.24 66.5C137.24 68.433 135.673 70 133.74 70C131.807 70 130.24 68.433 130.24 66.5C130.24 64.567 131.807 63 133.74 63C135.673 63 137.24 64.567 137.24 66.5Z" fill="#F4F4F4"/>
<path d="M149.24 66.5C149.24 68.433 147.673 70 145.74 70C143.807 70 142.24 68.433 142.24 66.5C142.24 64.567 143.807 63 145.74 63C147.673 63 149.24 64.567 149.24 66.5Z" fill="#F4F4F4"/>
<path d="M161.24 66.5C161.24 68.433 159.673 70 157.74 70C155.807 70 154.24 68.433 154.24 66.5C154.24 64.567 155.807 63 157.74 63C159.673 63 161.24 64.567 161.24 66.5Z" fill="#F4F4F4"/>
<path d="M173.24 66.5C173.24 68.433 171.673 70 169.74 70C167.807 70 166.24 68.433 166.24 66.5C166.24 64.567 167.807 63 169.74 63C171.673 63 173.24 64.567 173.24 66.5Z" fill="#F4F4F4"/>
<path d="M185.24 66.5C185.24 68.433 183.673 70 181.74 70C179.807 70 178.24 68.433 178.24 66.5C178.24 64.567 179.807 63 181.74 63C183.673 63 185.24 64.567 185.24 66.5Z" fill="#F4F4F4"/>
<path d="M197.24 66.5C197.24 68.433 195.673 70 193.74 70C191.807 70 190.24 68.433 190.24 66.5C190.24 64.567 191.807 63 193.74 63C195.673 63 197.24 64.567 197.24 66.5Z" fill="#F4F4F4"/>
<path d="M209.24 66.5C209.24 68.433 207.673 70 205.74 70C203.807 70 202.24 68.433 202.24 66.5C202.24 64.567 203.807 63 205.74 63C207.673 63 209.24 64.567 209.24 66.5Z" fill="#F4F4F4"/>
<path d="M221.24 66.5C221.24 68.433 219.673 70 217.74 70C215.807 70 214.24 68.433 214.24 66.5C214.24 64.567 215.807 63 217.74 63C219.673 63 221.24 64.567 221.24 66.5Z" fill="#F4F4F4"/>
</svg>
