<svg width="2000" height="1633" viewBox="0 0 2000 1633" fill="none" xmlns="http://www.w3.org/2000/svg">
<path d="M723.953 998.343C629.493 998.287 594.601 985.185 588.964 978.627C553.861 948.273 483.836 855.664 483.114 727.146C483.107 725.858 482.666 724.595 481.855 723.593L443.324 675.993C442.513 674.991 442.071 673.758 442.071 672.47V589.949C442.071 554.218 799.117 587.471 982.391 609.087C985.232 609.422 987.269 611.813 987.269 614.666V865.762C987.269 866.816 986.961 867.869 986.397 868.761C904.18 998.802 778.459 1009.5 725.119 998.46C724.732 998.38 724.347 998.343 723.953 998.343Z" fill="black" fill-opacity="0.15"/>
<path d="M1276.05 998.343C1370.51 998.287 1405.4 985.185 1411.04 978.627C1446.14 948.273 1516.16 855.664 1516.89 727.146C1516.89 725.858 1517.33 724.595 1518.15 723.593L1556.68 675.993C1557.49 674.991 1557.93 673.758 1557.93 672.47V589.949C1557.93 554.218 1200.88 587.471 1017.61 609.087C1014.77 609.422 1012.73 611.813 1012.73 614.666V865.762C1012.73 866.816 1013.04 867.869 1013.6 868.761C1095.82 998.802 1221.54 1009.5 1274.88 998.46C1275.08 998.419 1275.28 998.39 1275.47 998.37C1275.66 998.352 1275.85 998.343 1276.05 998.343Z" fill="black" fill-opacity="0.15"/>
<path d="M1916.69 1444.76C1904.69 1490.88 1846.19 1570.3 1747.41 1480.88C1746.02 1479.62 1744.09 1479.06 1742.26 1479.45C1691.81 1490.05 1590.27 1485.78 1565.38 1386.86C1562.93 1372.43 1570.39 1315.89 1618.65 1203.58C1620.41 1199.48 1618.23 1190.54 1616.11 1186.6C1611.72 1178.42 1605.68 1162.4 1598.61 1133.25C1591.47 1103.82 1601.27 1040.48 1611.04 977.322C1619.37 923.529 1627.67 869.862 1625.47 837.372C1625.07 831.417 1620.41 832.165 1620.22 838.13C1618.51 890.203 1604.76 981.631 1557.93 1064.53C1510.15 1149.11 1527.65 1182.44 1548.17 1191.5C1552.22 1193.29 1554.48 1198.61 1551.94 1202.23C1516.43 1252.91 1481.01 1346.78 1516.89 1444.76C1533.55 1490.24 1564.97 1536.04 1619.48 1579.38C1842.64 1756.82 1970.36 1436.31 1916.69 1444.76Z" fill="#545454" fill-opacity="0.15"/>
<path d="M252.594 1480.88C153.81 1570.3 95.3078 1490.88 83.3141 1444.76C29.6418 1436.31 156.161 1756.82 379.325 1579.38C433.833 1536.04 466.453 1490.24 483.108 1444.76C518.985 1346.78 483.569 1252.91 448.055 1202.23C445.52 1198.61 447.784 1193.29 451.832 1191.5C472.35 1182.44 489.846 1149.11 442.071 1064.53C395.242 981.631 381.487 890.203 379.782 838.13C379.587 832.165 374.93 831.417 374.527 837.372C372.33 869.862 380.633 923.529 388.955 977.322C398.727 1040.48 408.525 1103.82 401.387 1133.25C394.318 1162.4 388.284 1178.42 383.887 1186.6C381.772 1190.54 379.586 1199.48 381.35 1203.58C429.606 1315.89 437.07 1372.43 434.62 1386.86C409.727 1485.78 308.186 1490.05 257.744 1479.45C255.913 1479.06 253.98 1479.62 252.594 1480.88Z" fill="#545454" fill-opacity="0.15"/>
<path d="M452.193 290.177C420.91 288.367 359.702 342.73 334.728 374.859C334.707 377.196 333.244 379.285 331.071 380.161C106.917 470.571 72.3219 763.666 83.1949 901.103C83.2738 902.101 83.0636 903.1 82.6299 904.003C-82.2565 1247.07 44.321 1389.58 81.3213 1431.24C91.5811 1442.79 94.9533 1446.59 83.3141 1444.76C95.3078 1490.88 153.81 1570.3 252.594 1480.88C253.98 1479.62 255.913 1479.06 257.744 1479.45C308.186 1490.05 409.727 1485.78 434.62 1386.86C437.07 1372.43 429.606 1315.89 381.35 1203.58C379.586 1199.48 381.772 1190.54 383.887 1186.6C388.284 1178.42 394.318 1162.4 401.387 1133.25C408.525 1103.82 398.727 1040.48 388.955 977.322C380.633 923.529 372.33 869.862 374.527 837.372C374.93 831.417 379.587 832.165 379.782 838.13C381.487 890.203 395.242 981.631 442.071 1064.53C462.454 1034.27 513.689 984.289 560.812 1016.66C563.766 1018.68 567.952 1017.91 569.64 1014.75L588.964 978.627C553.861 948.273 483.836 855.664 483.114 727.146C483.107 725.858 482.666 724.595 481.855 723.593L443.324 675.993C442.513 674.991 442.071 673.758 442.071 672.47V589.949C442.071 554.218 799.117 587.471 982.391 609.087C985.232 609.422 987.269 611.813 987.269 614.666V865.762C987.269 866.816 986.961 867.869 986.397 868.761C904.18 998.802 778.459 1009.5 725.119 998.46C724.732 998.38 724.347 998.343 723.953 998.343C629.493 998.287 594.601 985.185 588.964 978.627L569.64 1014.75C567.952 1017.91 563.766 1018.68 560.812 1016.66C513.689 984.289 462.454 1034.27 442.071 1064.53C489.846 1149.11 472.35 1182.44 451.832 1191.5C447.784 1193.29 445.52 1198.61 448.055 1202.23C483.569 1252.91 518.985 1346.78 483.108 1444.76C507.874 1478.58 563.229 1528.98 600.029 1482.31C603.333 1478.12 611.029 1479.22 612.511 1484.35C625.155 1528.06 658.183 1580.49 717.128 1532.85C720.508 1530.12 725.709 1531.74 726.938 1535.9C727.033 1536.22 727.127 1536.54 727.221 1536.86L727.367 1537.36C727.544 1537.97 727.72 1538.59 727.896 1539.2L727.922 1539.29C737.418 1572.38 747.87 1608.8 982.391 1608.8H1038.14C1262.96 1608.8 1267.79 1575.33 1272.4 1543.41C1272.76 1540.93 1273.12 1538.46 1273.58 1536.02C1274.38 1531.75 1279.49 1530.12 1282.87 1532.85C1341.82 1580.49 1374.84 1528.06 1387.49 1484.35C1388.97 1479.22 1396.67 1478.12 1399.97 1482.31C1436.77 1528.98 1492.13 1478.58 1516.89 1444.76C1481.01 1346.78 1516.43 1252.91 1551.94 1202.23C1554.48 1198.61 1552.22 1193.29 1548.17 1191.5C1527.65 1182.44 1510.15 1149.11 1557.93 1064.53C1537.55 1034.27 1486.31 984.289 1439.19 1016.66C1436.23 1018.68 1432.05 1017.91 1430.36 1014.75L1411.04 978.627C1405.4 985.185 1370.51 998.287 1276.05 998.343C1275.85 998.343 1275.66 998.352 1275.47 998.37C1275.28 998.39 1275.08 998.419 1274.88 998.46C1221.54 1009.5 1095.82 998.802 1013.6 868.761C1013.04 867.869 1012.73 866.816 1012.73 865.762V614.666C1012.73 611.813 1014.77 609.422 1017.61 609.087C1200.88 587.471 1557.93 554.218 1557.93 589.949V672.47C1557.93 673.758 1557.49 674.991 1556.68 675.993L1518.15 723.593C1517.33 724.595 1516.89 725.858 1516.89 727.146C1516.16 855.664 1446.14 948.273 1411.04 978.627L1430.36 1014.75C1432.05 1017.91 1436.23 1018.68 1439.19 1016.66C1486.31 984.289 1537.55 1034.27 1557.93 1064.53C1604.76 981.631 1618.51 890.203 1620.22 838.13C1620.41 832.165 1625.07 831.417 1625.47 837.372C1627.67 869.862 1619.37 923.529 1611.04 977.322C1601.27 1040.48 1591.47 1103.82 1598.61 1133.25C1605.68 1162.4 1611.72 1178.42 1616.11 1186.6C1618.23 1190.54 1620.41 1199.48 1618.65 1203.58C1570.39 1315.89 1562.93 1372.43 1565.38 1386.86C1590.27 1485.78 1691.81 1490.05 1742.26 1479.45C1744.09 1479.06 1746.02 1479.62 1747.41 1480.88C1846.19 1570.3 1904.69 1490.88 1916.69 1444.76C1905.05 1446.59 1908.42 1442.79 1918.68 1431.24C1955.68 1389.58 2082.26 1247.07 1917.37 904.003C1916.94 903.1 1916.73 902.101 1916.81 901.103C1927.68 763.666 1893.08 470.571 1668.93 380.161C1666.76 379.285 1665.29 377.196 1665.27 374.859C1640.3 342.73 1579.09 288.363 1547.81 290.174C1541.11 290.562 1531.94 287.706 1530.01 281.295C1517.45 239.621 1486.8 186.149 1436.66 215.495C1432.57 217.894 1427.17 217.04 1424.3 213.263C1399.32 180.402 1349.23 134.966 1307.3 162.093C1302.93 164.921 1296.88 164.206 1293.79 160.018C1267.73 124.623 1220.09 87.6465 1174.65 138.955C1171.1 142.96 1164.75 143.29 1161.02 139.461C1125.86 103.444 1057.86 56.6085 1007.63 118.293C1003.78 123.01 996.216 123.01 992.374 118.293C942.136 56.6088 874.143 103.447 838.984 139.464C835.246 143.293 828.896 142.964 825.349 138.958C779.906 87.6496 732.268 124.626 706.206 160.021C703.123 164.209 697.068 164.924 692.697 162.096C650.773 134.969 600.682 180.406 575.699 213.266C572.827 217.043 567.434 217.897 563.335 215.498C513.2 186.152 482.552 239.624 469.991 281.299C468.059 287.709 458.895 290.565 452.193 290.177Z" fill="#737373" fill-opacity="0.15"/>
<path d="M334.728 374.859C359.702 342.73 420.91 288.367 452.193 290.177C458.895 290.565 468.059 287.709 469.991 281.299C482.552 239.624 513.2 186.152 563.335 215.498C567.434 217.897 572.827 217.043 575.699 213.266C600.682 180.406 650.773 134.969 692.697 162.096C697.068 164.924 703.123 164.209 706.206 160.021C732.268 124.626 779.906 87.6496 825.349 138.958C828.896 142.964 835.246 143.293 838.984 139.464C874.143 103.447 942.136 56.6088 992.374 118.293C996.216 123.01 1003.78 123.01 1007.63 118.293C1057.86 56.6085 1125.86 103.444 1161.02 139.461C1164.75 143.29 1171.1 142.96 1174.65 138.955C1220.09 87.6465 1267.73 124.623 1293.79 160.018C1296.88 164.206 1302.93 164.921 1307.3 162.093C1349.23 134.966 1399.32 180.402 1424.3 213.263C1427.17 217.04 1432.57 217.894 1436.66 215.495C1486.8 186.149 1517.45 239.621 1530.01 281.295C1531.94 287.706 1541.11 290.562 1547.81 290.174C1579.09 288.363 1640.3 342.73 1665.27 374.859C1664.77 320.091 1643.27 219.337 1562.73 220.211C1559.72 220.244 1557.06 218.098 1556.61 215.138C1549.44 168.453 1517.6 95.4955 1439.67 132.558C1436.31 134.157 1432.2 132.362 1431.09 128.817C1420.99 96.707 1389.29 50.1084 1326.27 72.1633C1323.53 73.1201 1320.45 72.0062 1319.03 69.4863C1293.72 24.4798 1231.09 -38.7965 1160.71 31.2685C1158.3 33.6693 1154.29 33.6278 1151.87 31.2339C1121.59 1.26387 1046.31 -21.5066 999.4 44.2778C952.487 -21.5066 877.207 1.26387 846.932 31.2339C844.513 33.6278 840.499 33.6693 838.088 31.2685C767.713 -38.7965 705.076 24.4798 679.772 69.4863C678.355 72.0062 675.269 73.1201 672.535 72.1633C609.515 50.1084 577.812 96.707 567.714 128.817C566.599 132.362 562.495 134.157 559.131 132.558C481.2 95.4955 449.362 168.453 442.193 215.138C441.738 218.098 439.078 220.244 436.075 220.211C355.529 219.337 335.232 320.091 334.728 374.859Z" fill="#A4A4A4" fill-opacity="0.15"/>
<path d="M1011 1195.81C1013.26 1187.34 1018.75 1180.15 1025.84 1174.98L1128.12 1100.36C1129.88 1099.08 1131.55 1097.69 1133 1096.08C1140.43 1087.83 1144.45 1078.79 1146.43 1070.81C1148.41 1062.87 1148.38 1055.98 1147.71 1051.97C1128.87 1045.39 1073.13 1032.25 1000.81 1032.25C928.497 1032.25 873.694 1045.39 855.333 1051.97C856.455 1051.97 856.19 1052.85 855.615 1054.79C854.016 1060.16 850.018 1073.59 866.632 1098.44C883.284 1123.34 917.844 1144.41 942.904 1157.58C960.453 1166.81 964.09 1168.85 969.74 1171.67C970.933 1172.26 978.578 1174.92 985.194 1177.63C992.09 1180.46 995.083 1186.86 996.003 1194.24C999.446 1221.86 1009.77 1257.09 953.158 1301.58C951.099 1303.2 948.638 1304.33 946.074 1304.87L1053.07 1304.04C1000.08 1267.54 1003.57 1223.66 1011 1195.81Z" fill="black" fill-opacity="0.15"/>
<path d="M1010.7 1391.75C1038.48 1395.98 1094.88 1408.39 1098.27 1424.18C1102.4 1443.44 1167.01 1472.49 1255.39 1446.03C1259.85 1444.69 1263.98 1442.5 1267.74 1439.76C1299.06 1416.9 1352.42 1383.21 1375.08 1386.72C1377.14 1387.04 1378.94 1387.66 1380.45 1388.63C1382.38 1389.67 1384.2 1391 1386.03 1392.32C1388.15 1393.86 1390.28 1395.4 1392.58 1396.52C1415.3 1407.57 1452.28 1418.84 1479.61 1406.52C1489.63 1402 1493.98 1390.88 1494.28 1379.92C1496.52 1296.05 1495.42 1156.29 1475.39 1156.29C1445.98 1157.63 1382.49 1150.88 1358.44 1113.89C1357.26 1112.08 1356.39 1110.08 1355.47 1108.12C1347.95 1092.17 1325.63 1067.08 1285.26 1072.58C1283.02 1072.88 1280.75 1073.12 1278.49 1073.14C1245.16 1073.43 1186.32 1072.01 1171.98 1064.66C1171.48 1064.4 1171.03 1064.13 1170.64 1063.86C1169.97 1063.41 1169.32 1062.92 1168.67 1062.42C1167.48 1061.52 1166.29 1060.61 1164.98 1060C1157.66 1056.6 1148.38 1062.99 1146.43 1070.81C1144.45 1078.79 1140.43 1087.83 1133 1096.08C1131.55 1097.69 1129.88 1099.08 1128.12 1100.36L1025.84 1174.98C1018.75 1180.15 1013.26 1187.34 1011 1195.81C1003.57 1223.66 1000.08 1267.54 1053.07 1304.04L946.074 1304.87C948.638 1304.33 951.099 1303.2 953.158 1301.58C1009.77 1257.09 999.446 1221.86 996.003 1194.24C995.083 1186.86 992.09 1180.46 985.194 1177.63C978.578 1174.92 970.933 1172.26 969.74 1171.67C964.09 1168.85 960.453 1166.81 942.904 1157.58C917.844 1144.41 883.284 1123.34 866.632 1098.44C850.018 1073.59 854.016 1060.16 855.615 1054.79C856.19 1052.85 856.455 1051.97 855.333 1051.97C853.028 1051.97 847.419 1055 842.541 1057.98C838.536 1060.43 834.249 1062.47 829.686 1063.58C802.556 1070.17 751.78 1078.88 708.082 1075.42C696.223 1074.49 684.136 1077.14 675.034 1084.78C663.762 1094.24 650.853 1105.99 641.099 1117.02C629.738 1129.87 615.17 1143.04 598.303 1146.29C573.188 1151.14 544.762 1156.29 538.253 1156.29C521.528 1156.29 504.828 1197.6 503.638 1247.71C502.541 1293.91 516.3 1348.52 517.273 1363.86C518.389 1381.45 517.866 1392.94 514.44 1391.75C502.683 1387.68 550.311 1428.03 604.018 1395.84C605.704 1394.83 607.258 1393.58 608.81 1392.33C610.012 1391.37 611.212 1390.4 612.471 1389.55C613.505 1388.77 614.782 1388.08 616.32 1387.51C630.853 1382.11 668.613 1387.78 743.478 1439.32C747.84 1442.32 752.715 1444.6 757.896 1445.71C796.5 1454.02 861.776 1460.48 889.851 1437.21C892.172 1435.28 894.24 1433.15 896.016 1430.81C899.015 1426.84 902.516 1423.11 907.087 1421.15L907.098 1421.14C909.553 1420.09 912.291 1418.91 915.261 1417.65C940.648 1406.89 982.997 1390.11 1010.7 1391.75Z" fill="#545454" fill-opacity="0.15"/>
<path fill-rule="evenodd" clip-rule="evenodd" d="M1421.74 873.553C1421.96 873.296 1422.18 873.033 1422.38 872.766C1423.89 870.802 1425 868.556 1425.63 866.154C1425 868.567 1423.89 870.797 1422.38 872.766C1422.17 873.047 1421.94 873.324 1421.71 873.594L1421.74 873.553Z" fill="#545454" fill-opacity="0.15"/>
<path d="M1445.73 666.103C1407.59 656.246 1260.7 666.103 1218.33 666.103C1214.49 666.103 1212.46 670.618 1215 673.479L1393.2 873.833C1400.81 882.39 1414.25 882.277 1421.71 873.594C1421.94 873.324 1422.17 873.047 1422.38 872.766C1423.89 870.797 1425 868.567 1425.63 866.154L1425.63 866.14C1443.64 797.116 1472.53 673.029 1445.73 666.103Z" fill="#545454" fill-opacity="0.15"/>
</svg>
