<svg width="76" height="62" viewBox="0 0 76 62" fill="none" xmlns="http://www.w3.org/2000/svg">
<path d="M27.5102 37.904C23.9207 37.9019 22.5949 37.4045 22.3806 37.1555C21.0467 36.003 18.3858 32.4869 18.3583 27.6075C18.358 27.5586 18.3413 27.5107 18.3105 27.4726L16.8463 25.6654C16.8155 25.6273 16.7987 25.5805 16.7987 25.5316V22.3986C16.7987 21.0419 30.3665 22.3045 37.3308 23.1252C37.4388 23.1379 37.5162 23.2287 37.5162 23.337V32.8703C37.5162 32.9104 37.5045 32.9503 37.4831 32.9842C34.3589 37.9214 29.5814 38.3274 27.5545 37.9085C27.5398 37.9054 27.5252 37.904 27.5102 37.904Z" fill="black"/>
<path d="M48.4898 37.904C52.0793 37.9019 53.4051 37.4045 53.6194 37.1555C54.9533 36.003 57.6142 32.4869 57.6417 27.6075C57.642 27.5586 57.6587 27.5107 57.6895 27.4726L59.1537 25.6654C59.1845 25.6273 59.2013 25.5805 59.2013 25.5316V22.3986C59.2013 21.0419 45.6335 22.3045 38.6692 23.1252C38.5612 23.1379 38.4838 23.2287 38.4838 23.337V32.8703C38.4838 32.9104 38.4955 32.9503 38.5169 32.9842C41.6411 37.9214 46.4186 38.3274 48.4455 37.9085C48.453 37.9069 48.4605 37.9058 48.468 37.9051C48.4752 37.9044 48.4825 37.904 48.4898 37.904Z" fill="black"/>
<path d="M72.8341 54.8531C72.3783 56.6041 70.1552 59.6195 66.4014 56.2244C66.3488 56.1768 66.2753 56.1554 66.2057 56.17C64.2889 56.5726 60.4304 56.4106 59.4844 52.6548C59.3914 52.107 59.675 49.9603 61.5087 45.6964C61.5757 45.5406 61.4927 45.201 61.4123 45.0516C61.2452 44.741 61.0159 44.1327 60.7473 43.0261C60.476 41.9085 60.8484 39.5039 61.2197 37.1059C61.5359 35.0635 61.8514 33.026 61.768 31.7924C61.7527 31.5664 61.5757 31.5948 61.5683 31.8212C61.5035 33.7983 60.9808 37.2695 59.2013 40.417C57.3858 43.628 58.0507 44.8937 58.8304 45.2377C58.9842 45.3055 59.0703 45.5075 58.9739 45.6449C57.6244 47.569 56.2786 51.1332 57.6419 54.8531C58.2748 56.58 59.4688 58.3188 61.5401 59.9643C70.0203 66.7011 74.8736 54.5323 72.8341 54.8531Z" fill="#545454"/>
<path d="M9.59859 56.2244C5.84479 59.6195 3.6217 56.6041 3.16594 54.8531C1.12639 54.5323 5.93412 66.7011 14.4143 59.9643C16.4857 58.3188 17.7252 56.58 18.3581 54.8531C19.7214 51.1332 18.3756 47.569 17.0261 45.6449C16.9297 45.5075 17.0158 45.3055 17.1696 45.2377C17.9493 44.8937 18.6142 43.628 16.7987 40.417C15.0192 37.2695 14.4965 33.7983 14.4317 31.8212C14.4243 31.5948 14.2473 31.5664 14.232 31.7924C14.1486 33.026 14.4641 35.0635 14.7803 37.1059C15.1516 39.5039 15.524 41.9085 15.2527 43.0261C14.9841 44.1327 14.7548 44.741 14.5877 45.0516C14.5073 45.201 14.4243 45.5406 14.4913 45.6964C16.325 49.9603 16.6086 52.107 16.5156 52.6548C15.5696 56.4106 11.7111 56.5726 9.79427 56.17C9.7247 56.1554 9.65122 56.1768 9.59859 56.2244Z" fill="#545454"/>
<path d="M17.1833 11.0171C15.9946 10.9484 13.6687 13.0124 12.7197 14.2323C12.7189 14.321 12.6633 14.4003 12.5807 14.4335C4.06284 17.8662 2.74823 28.9941 3.16141 34.2121C3.1644 34.25 3.15642 34.2879 3.13994 34.3222C-3.12575 47.3474 1.6842 52.7582 3.09021 54.3399C3.48008 54.7785 3.60823 54.9226 3.16594 54.8531C3.6217 56.6041 5.84479 59.6195 9.59859 56.2244C9.65122 56.1768 9.7247 56.1554 9.79427 56.17C11.7111 56.5726 15.5696 56.4106 16.5156 52.6548C16.6086 52.107 16.325 49.9603 14.4913 45.6964C14.4243 45.5406 14.5073 45.201 14.5877 45.0516C14.7548 44.741 14.9841 44.1327 15.2527 43.0261C15.524 41.9085 15.1516 39.5039 14.7803 37.1059C14.4641 35.0635 14.1486 33.026 14.232 31.7924C14.2473 31.5664 14.4243 31.5948 14.4317 31.8212C14.4965 33.7983 15.0192 37.2695 16.7987 40.417C17.5732 39.2682 19.5202 37.3705 21.3109 38.5993C21.4231 38.6763 21.5822 38.6468 21.6463 38.527L22.3806 37.1555C21.0467 36.003 18.3858 32.4869 18.3583 27.6075C18.358 27.5586 18.3413 27.5107 18.3105 27.4726L16.8463 25.6654C16.8155 25.6273 16.7987 25.5805 16.7987 25.5316V22.3986C16.7987 21.0419 30.3665 22.3045 37.3308 23.1252C37.4388 23.1379 37.5162 23.2287 37.5162 23.337V32.8703C37.5162 32.9104 37.5045 32.9503 37.4831 32.9842C34.3589 37.9214 29.5814 38.3274 27.5545 37.9085C27.5398 37.9054 27.5252 37.904 27.5102 37.904C23.9207 37.9019 22.5949 37.4045 22.3806 37.1555L21.6463 38.527C21.5822 38.6468 21.4231 38.6763 21.3109 38.5993C19.5202 37.3705 17.5732 39.2682 16.7987 40.417C18.6142 43.628 17.9493 44.8937 17.1696 45.2377C17.0158 45.3055 16.9297 45.5075 17.0261 45.6449C18.3756 47.569 19.7214 51.1332 18.3581 54.8531C19.2992 56.1372 21.4027 58.0508 22.8011 56.2788C22.9266 56.1197 23.2191 56.1616 23.2754 56.356C23.7559 58.0157 25.0109 60.0063 27.2509 58.1977C27.3793 58.094 27.577 58.1553 27.6237 58.3133C27.6273 58.3255 27.6308 58.3377 27.6344 58.3499L27.6399 58.3689C27.6467 58.3921 27.6533 58.4154 27.66 58.4387L27.661 58.4421C28.0219 59.6983 28.4191 61.081 37.3308 61.081H39.4492C47.9923 61.081 48.1761 59.8103 48.3513 58.5985C48.3649 58.5044 48.3785 58.4106 48.3959 58.3178C48.4263 58.1559 48.6207 58.094 48.7491 58.1977C50.9891 60.0063 52.2441 58.0157 52.7246 56.356C52.7809 56.1616 53.0734 56.1197 53.1989 56.2788C54.5973 58.0508 56.7008 56.1372 57.6419 54.8531C56.2786 51.1332 57.6244 47.569 58.9739 45.6449C59.0703 45.5075 58.9842 45.3055 58.8304 45.2377C58.0507 44.8937 57.3858 43.628 59.2013 40.417C58.4268 39.2682 56.4798 37.3705 54.6891 38.5993C54.5769 38.6763 54.4178 38.6468 54.3537 38.527L53.6194 37.1555C53.4051 37.4045 52.0793 37.9019 48.4898 37.904C48.4825 37.904 48.4752 37.9044 48.468 37.9051C48.4605 37.9058 48.453 37.9069 48.4455 37.9085C46.4186 38.3274 41.6411 37.9214 38.5169 32.9842C38.4955 32.9503 38.4838 32.9104 38.4838 32.8703V23.337C38.4838 23.2287 38.5612 23.1379 38.6692 23.1252C45.6335 22.3045 59.2013 21.0419 59.2013 22.3986V25.5316C59.2013 25.5805 59.1845 25.6273 59.1537 25.6654L57.6895 27.4726C57.6587 27.5107 57.642 27.5586 57.6417 27.6075C57.6142 32.4869 54.9533 36.003 53.6194 37.1555L54.3537 38.527C54.4178 38.6468 54.5769 38.6763 54.6891 38.5993C56.4798 37.3705 58.4268 39.2682 59.2013 40.417C60.9808 37.2695 61.5035 33.7983 61.5683 31.8212C61.5757 31.5948 61.7527 31.5664 61.768 31.7924C61.8514 33.026 61.5359 35.0635 61.2197 37.1059C60.8484 39.5039 60.476 41.9085 60.7473 43.0261C61.0159 44.1327 61.2452 44.741 61.4123 45.0516C61.4927 45.201 61.5757 45.5406 61.5087 45.6964C59.675 49.9603 59.3914 52.107 59.4844 52.6548C60.4304 56.4106 64.2889 56.5726 66.2057 56.17C66.2753 56.1554 66.3488 56.1768 66.4014 56.2244C70.1552 59.6195 72.3783 56.6041 72.8341 54.8531C72.3918 54.9226 72.5199 54.7785 72.9098 54.3399C74.3158 52.7582 79.1257 47.3474 72.8601 34.3222C72.8436 34.2879 72.8356 34.25 72.8386 34.2121C73.2518 28.9941 71.9372 17.8662 63.4193 14.4335C63.3367 14.4003 63.2812 14.321 63.2803 14.2323C62.3313 13.0124 60.0054 10.9483 58.8167 11.017C58.562 11.0317 58.2137 10.9233 58.1403 10.6799C57.663 9.09766 56.4984 7.06749 54.5933 8.18167C54.4375 8.27277 54.2326 8.24033 54.1234 8.09694C53.1741 6.84933 51.2706 5.12425 49.6775 6.15416C49.5114 6.26153 49.2813 6.23438 49.1642 6.0754C48.1738 4.73155 46.3636 3.32767 44.6368 5.2757C44.502 5.42777 44.2606 5.44027 44.1186 5.29489C42.7826 3.92744 40.1988 2.14925 38.2898 4.49123C38.1438 4.6703 37.8562 4.6703 37.7102 4.49123C35.8012 2.14926 33.2174 3.92755 31.8814 5.29501C31.7394 5.44039 31.498 5.42789 31.3633 5.27582C29.6364 3.32778 27.8262 4.73167 26.8358 6.07552C26.7187 6.2345 26.4886 6.26165 26.3225 6.15428C24.7294 5.12437 22.8259 6.84945 21.8766 8.09705C21.7674 8.24045 21.5625 8.27288 21.4067 8.18178C19.5016 7.06761 18.337 9.09778 17.8597 10.68C17.7863 10.9234 17.438 11.0319 17.1833 11.0171Z" fill="#737373"/>
<path d="M12.7197 14.2323C13.6687 13.0124 15.9946 10.9484 17.1833 11.0171C17.438 11.0319 17.7863 10.9234 17.8597 10.68C18.337 9.09778 19.5016 7.06761 21.4067 8.18178C21.5625 8.27288 21.7674 8.24045 21.8766 8.09705C22.8259 6.84945 24.7294 5.12437 26.3225 6.15428C26.4886 6.26165 26.7187 6.2345 26.8358 6.07552C27.8262 4.73167 29.6364 3.32778 31.3633 5.27582C31.498 5.42789 31.7394 5.44039 31.8814 5.29501C33.2174 3.92755 35.8012 2.14926 37.7102 4.49123C37.8562 4.6703 38.1438 4.6703 38.2898 4.49123C40.1988 2.14925 42.7826 3.92744 44.1186 5.29489C44.2606 5.44027 44.502 5.42777 44.6368 5.2757C46.3636 3.32767 48.1738 4.73155 49.1642 6.0754C49.2813 6.23438 49.5114 6.26153 49.6775 6.15416C51.2706 5.12425 53.1741 6.84933 54.1234 8.09694C54.2326 8.24033 54.4375 8.27277 54.5933 8.18167C56.4984 7.06749 57.663 9.09766 58.1403 10.6799C58.2137 10.9233 58.562 11.0317 58.8167 11.017C60.0054 10.9483 62.3313 13.0124 63.2803 14.2323C63.2612 12.1529 62.4443 8.32756 59.3836 8.36075C59.2695 8.36198 59.1684 8.28052 59.1511 8.16815C58.8787 6.39565 57.6689 3.62567 54.7075 5.03281C54.5797 5.09354 54.4237 5.02538 54.3813 4.89077C53.9976 3.67167 52.7929 1.90246 50.3981 2.73982C50.2942 2.77614 50.1769 2.73385 50.1231 2.63818C49.1615 0.929421 46.7813 -1.47298 44.1071 1.18717C44.0155 1.27832 43.8629 1.27675 43.771 1.18586C42.6206 0.0479853 39.7599 -0.81654 37.9772 1.68109C36.1945 -0.81654 33.3339 0.0479853 32.1834 1.18586C32.0915 1.27675 31.939 1.27832 31.8473 1.18717C29.1731 -1.47298 26.7929 0.929421 25.8313 2.63818C25.7775 2.73385 25.6602 2.77614 25.5563 2.73982C23.1616 1.90246 21.9569 3.67167 21.5731 4.89077C21.5308 5.02538 21.3748 5.09354 21.247 5.03281C18.2856 3.62567 17.0757 6.39565 16.8033 8.16815C16.786 8.28052 16.685 8.36198 16.5709 8.36075C13.5101 8.32756 12.7388 12.1529 12.7197 14.2323Z" fill="#A4A4A4"/>
<path d="M38.4182 45.4011C38.5041 45.0796 38.7124 44.8068 38.982 44.6103L42.8687 41.7772C42.9353 41.7287 42.9989 41.6758 43.0541 41.6147C43.3365 41.3014 43.4891 40.9583 43.5645 40.6554C43.6396 40.354 43.6384 40.0925 43.6128 39.9399C42.8972 39.6904 40.7789 39.1914 38.0309 39.1914C35.2829 39.1914 33.2004 39.6904 32.5026 39.9399C32.5453 39.9399 32.5352 39.9736 32.5134 40.0471C32.4526 40.251 32.3007 40.7609 32.932 41.7043C33.5648 42.6498 34.8781 43.4498 35.8303 43.9499C36.4972 44.3001 36.6354 44.3777 36.8501 44.4846C36.8954 44.5072 37.186 44.6081 37.4374 44.7111C37.6994 44.8184 37.8131 45.0616 37.8481 45.3417C37.979 46.3901 38.3714 47.7278 36.22 49.4169C36.1418 49.4784 36.0483 49.5214 35.9508 49.5419L40.0168 49.5105C38.003 48.1244 38.1357 46.4585 38.4182 45.4011Z" fill="black"/>
<path d="M38.4066 52.8406C39.4622 53.0012 41.6055 53.4722 41.7343 54.0718C41.8913 54.8028 44.3464 55.9058 47.7048 54.9012C47.8741 54.8506 48.0312 54.7673 48.1739 54.6633C49.3645 53.7955 51.3919 52.5163 52.253 52.6495C52.3312 52.6616 52.3997 52.6853 52.4572 52.722C52.5303 52.7616 52.5996 52.8118 52.6692 52.8622C52.7498 52.9206 52.8307 52.9792 52.9182 53.0217C53.7812 53.4409 55.1867 53.8689 56.225 53.4011C56.6059 53.2295 56.7714 52.8075 56.7825 52.3912C56.8676 49.2069 56.8261 43.9008 56.0648 43.9008C54.9472 43.9516 52.5344 43.6954 51.6209 42.2911C51.5761 42.2222 51.5427 42.1464 51.5077 42.0721C51.2221 41.4663 50.374 40.5139 48.8398 40.7225C48.7546 40.7341 48.6686 40.743 48.5826 40.7438C47.3159 40.7548 45.08 40.701 44.5354 40.4218C44.5162 40.412 44.4992 40.4019 44.4843 40.3915C44.4588 40.3745 44.434 40.3557 44.4093 40.3369C44.3642 40.3025 44.319 40.2682 44.2693 40.2451C43.9911 40.1158 43.6385 40.3586 43.5645 40.6554C43.4891 40.9583 43.3365 41.3014 43.0541 41.6147C42.9989 41.6758 42.9353 41.7287 42.8687 41.7772L38.982 44.6103C38.7124 44.8068 38.5041 45.0796 38.4182 45.4011C38.1357 46.4585 38.003 48.1244 40.0168 49.5105L35.9508 49.5419C36.0483 49.5214 36.1418 49.4784 36.22 49.4169C38.3714 47.7278 37.979 46.3901 37.8481 45.3417C37.8131 45.0616 37.6994 44.8184 37.4374 44.7111C37.186 44.6081 36.8954 44.5072 36.8501 44.4846C36.6354 44.3777 36.4972 44.3001 35.8303 43.9499C34.8781 43.4498 33.5648 42.6498 32.932 41.7043C32.3007 40.7609 32.4526 40.251 32.5134 40.0471C32.5352 39.9736 32.5453 39.9399 32.5026 39.9399C32.4151 39.9399 32.2019 40.0552 32.0165 40.1683C31.8644 40.2611 31.7015 40.3387 31.5281 40.3808C30.4971 40.631 28.5677 40.9617 26.9071 40.8305C26.4565 40.795 25.9972 40.8956 25.6513 41.1856C25.2229 41.5448 24.7324 41.991 24.3618 42.4098C23.93 42.8977 23.3765 43.3976 22.7355 43.5212C21.7811 43.7052 20.701 43.9008 20.4536 43.9008C19.8181 43.9008 19.1835 45.4691 19.1382 47.3718C19.0966 49.1257 19.6194 51.1993 19.6564 51.7817C19.6988 52.4495 19.6789 52.8856 19.5487 52.8406C19.1019 52.686 20.9118 54.2178 22.9527 52.9958C23.0167 52.9575 23.0758 52.91 23.1348 52.8627C23.1804 52.826 23.2261 52.7893 23.2739 52.757C23.3132 52.7274 23.3617 52.701 23.4201 52.6794C23.9724 52.4743 25.4073 52.6898 28.2521 54.6464C28.4179 54.7604 28.6032 54.8469 28.8 54.8892C30.267 55.2049 32.7475 55.45 33.8143 54.5663C33.9025 54.4932 33.9811 54.4124 34.0486 54.3233C34.1626 54.1729 34.2956 54.0311 34.4693 53.9565L34.4697 53.9564C34.563 53.9163 34.6671 53.8716 34.7799 53.8238C35.7446 53.4153 37.3539 52.7783 38.4066 52.8406Z" fill="#545454"/>
<path fill-rule="evenodd" clip-rule="evenodd" d="M54.0263 33.1661C54.0347 33.1564 54.0428 33.1464 54.0505 33.1362C54.108 33.0617 54.15 32.9764 54.1738 32.8852C54.1498 32.9768 54.108 33.0615 54.0505 33.1362C54.0423 33.1469 54.0338 33.1574 54.025 33.1677L54.0263 33.1661Z" fill="#545454"/>
<path d="M54.9377 25.2899C53.4885 24.9157 47.9066 25.2899 46.2964 25.2899C46.1507 25.2899 46.0733 25.4613 46.17 25.5699L52.9416 33.1768C53.2308 33.5016 53.7413 33.4973 54.025 33.1677C54.0338 33.1574 54.0423 33.1469 54.0505 33.1362C54.108 33.0615 54.1498 32.9768 54.1738 32.8852L54.174 32.8847C54.8582 30.264 55.956 25.5529 54.9377 25.2899Z" fill="#545454"/>
</svg>
